M48
; DRILL file KiCad 10.0.6 date 2026-10-02T16:06:08
; FORMAT={-:-/ absolute / metric / decimal}
; #@! TF.CreationDate,2026-10-02T16:06:08-04:00
; #@! TF.GenerationSoftware,Kicad,Pcbnew,10.0.6
; #@! TF.FileFunction,Plated,1,6,PTH
FMAT,2
METRIC
; #@! TA.AperFunction,Plated,PTH,ViaDrill
T1C0.200
; #@! TA.AperFunction,Plated,PTH,ViaDrill
T2C0.300
; #@! TA.AperFunction,Plated,PTH,ComponentDrill
T3C0.600
%
G90
G05
T1
X-49.6Y30.2
X-49.3Y34.9
X-48.6Y32.7
X-48.5Y34.2
X-48.5Y31.2
X-48.1Y38.7
X-47.65Y29.5
X-47.3Y34.3
X-46.8Y33.3
X-46.6Y27.0
X-46.5Y30.9
X-46.45Y37.0
X-45.9Y20.8
X-45.7Y12.15
X-45.61Y32.265
X-45.5Y33.0
X-45.45Y28.25
X-45.4Y21.2
X-45.2Y34.3
X-45.0Y17.8
X-44.9Y24.4
X-44.8Y25.6
X-44.6Y26.317
X-44.59Y17.0
X-44.59Y16.25
X-44.3Y36.1
X-43.8Y32.5
X-43.6Y27.9
X-43.6Y21.9
X-43.3Y36.5
X-43.3Y35.1
X-43.3Y14.35
X-43.1Y29.1
X-43.1Y32.7
X-42.9Y23.0
X-42.9Y10.8
X-42.7Y30.7
X-42.6Y39.288
X-42.6Y18.1
X-42.5Y55.5
X-42.5Y35.3
X-42.4Y40.0
X-42.3Y38.7
X-42.1Y46.712
X-42.0Y26.5
X-41.7Y7.45
X-41.4Y28.2
X-41.4Y26.3
X-41.2Y14.35
X-41.075Y20.5
X-41.0Y17.5
X-40.8Y36.4
X-40.75Y47.95
X-40.625Y34.0
X-40.625Y32.05
X-40.6Y27.0
X-40.25Y45.275
X-40.25Y40.725
X-40.112Y30.075
X-40.1Y10.5
X-39.75Y47.95
X-39.7Y9.1
X-39.625Y17.3
X-39.521Y29.104
X-39.4Y55.5
X-39.3Y35.5
X-39.0Y24.2
X-38.8Y45.4
X-38.75Y40.725
X-38.725Y38.313
X-38.5Y6.0
X-38.5Y5.0
X-38.5Y4.0
X-37.95Y15.3
X-37.7Y40.3
X-37.6Y13.3
X-37.55Y2.45
X-37.375Y32.05
X-37.25Y45.275
X-37.25Y40.725
X-37.225Y49.462
X-37.225Y28.275
X-37.025Y23.025
X-37.0Y14.6
X-36.9Y55.4
X-36.5Y45.2
X-36.3Y12.7
X-36.2Y47.9
X-36.2Y10.2
X-36.1Y35.3
X-35.9Y45.5
X-35.6Y48.4
X-35.6Y38.0
X-35.5Y43.7
X-35.4Y25.8
X-35.4Y23.5
X-35.4Y16.4
X-35.3Y18.8
X-35.2Y49.8
X-35.1Y34.1
X-35.0Y55.5
X-34.99Y22.7
X-34.99Y21.95
X-34.9Y42.3
X-34.9Y35.95
X-34.9Y19.8
X-34.8Y2.8
X-34.75Y45.475
X-34.75Y40.725
X-34.4Y21.0
X-34.3Y10.2
X-34.3Y9.6
X-33.9Y31.6
X-33.825Y4.675
X-33.8Y57.8
X-33.8Y40.4
X-33.8Y37.3
X-33.7Y20.05
X-33.6Y0.95
X-33.5Y15.6
X-33.45Y7.1
X-33.4Y34.6
X-33.25Y47.575
X-33.25Y40.725
X-33.1Y14.3
X-33.0Y35.9
X-33.0Y23.8
X-33.0Y3.4
X-32.7Y40.3
X-32.4Y49.6
X-32.0Y16.6
X-31.95Y54.0
X-31.9Y50.3
X-31.9Y49.2
X-31.9Y32.5
X-31.85Y14.65
X-31.8Y48.4
X-31.75Y45.475
X-31.75Y40.725
X-31.6Y20.05
X-31.6Y2.7
X-31.556Y6.068
X-31.4Y23.2
X-31.3Y40.2
X-31.2Y9.1
X-31.1Y36.0
X-30.85Y5.35
X-30.8Y48.1
X-30.6Y18.55
X-30.35Y7.9
X-30.3Y6.0
X-30.2Y54.9
X-30.2Y39.5
X-30.2Y8.8
X-30.1Y37.1
X-30.0Y46.4
X-30.0Y-1.8
X-29.9Y50.4
X-29.7Y39.2
X-29.6Y47.2
X-29.6Y6.0
X-29.6Y2.7
X-29.3Y49.8
X-29.3Y44.0
X-29.3Y34.1
X-28.925Y38.0
X-28.9Y17.8
X-28.7Y59.4
X-28.7Y43.8
X-28.7Y25.3
X-28.5Y46.6
X-28.5Y40.0
X-28.4Y47.5
X-28.4Y12.1
X-28.3Y48.8
X-28.3Y36.0
X-28.2Y22.5
X-28.2Y10.825
X-28.1Y44.9
X-28.1Y18.55
X-27.6Y45.7
X-27.6Y40.4
X-27.6Y2.0
X-27.5Y4.85
X-27.45Y24.65
X-27.4Y54.0
X-27.375Y5.725
X-27.3Y9.8
X-27.2Y51.0
X-26.9Y33.9
X-26.8Y52.8
X-26.8Y16.7
X-26.7Y22.4
X-26.65Y20.363
X-26.6Y27.7
X-26.55Y54.0
X-26.5Y24.6
X-26.4Y55.1
X-26.4Y42.3
X-26.35Y2.05
X-26.3Y50.4
X-26.2Y36.9
X-25.8Y27.9
X-25.8Y4.7
X-25.7Y13.3
X-25.425Y40.0
X-25.425Y38.0
X-25.425Y22.2
X-25.1Y55.4
X-25.0Y36.9
X-25.0Y-1.8
X-24.8Y6.0
X-24.6Y35.3
X-24.6Y23.6
X-24.337Y18.3
X-24.2Y36.2
X-24.2Y20.2
X-24.2Y13.5
X-23.8Y57.5
X-23.8Y14.3
X-23.6Y10.825
X-23.6Y9.175
X-23.5Y40.0
X-23.404Y17.991
X-23.3Y7.8
X-23.2Y23.6
X-23.1Y43.9
X-23.1Y37.4
X-23.1Y36.4
X-23.1Y35.3
X-23.0Y54.8
X-22.8Y40.1
X-22.6Y50.2
X-22.6Y46.9
X-22.5Y-1.8
X-22.4Y38.9
X-22.3Y54.4
X-22.3Y44.9
X-22.3Y5.4
X-22.2Y15.6
X-22.1Y21.8
X-21.925Y13.0
X-21.9Y14.3
X-21.5Y47.4
X-21.425Y24.5
X-21.3Y46.1
X-21.2Y57.2
X-21.2Y55.0
X-21.0Y9.75
X-20.9Y20.0
X-20.8Y47.6
X-20.6Y55.3
X-20.509Y15.594
X-20.4Y26.9
X-20.214Y13.811
X-20.2Y49.3
X-20.0Y43.3
X-20.0Y-1.8
X-19.925Y40.0
X-19.925Y26.5
X-19.925Y20.5
X-19.925Y15.0
X-19.9Y52.9
X-19.9Y44.9
X-19.9Y6.7
X-19.75Y17.025
X-19.7Y27.9
X-19.6Y50.2
X-19.425Y30.0
X-19.4Y49.3
X-19.4Y42.7
X-19.3Y16.2
X-19.1Y24.4
X-19.1Y5.2
X-18.95Y11.625
X-18.9Y40.9
X-18.8Y57.2
X-18.8Y52.8
X-18.8Y8.3
X-18.6Y46.712
X-18.5Y43.5
X-18.425Y38.0
X-18.4Y47.4
X-18.4Y42.9
X-18.35Y34.8
X-18.35Y11.6
X-18.3Y53.3
X-18.3Y28.5
X-18.3Y27.9
X-18.3Y13.3
X-18.3Y10.6
X-18.3Y7.7
X-18.125Y42.0
X-18.125Y32.4
X-18.025Y18.225
X-17.9Y50.8
X-17.8Y40.4
X-17.8Y38.9
X-17.7Y26.5
X-17.7Y24.3
X-17.6Y49.0
X-17.6Y19.3
X-17.4Y22.0
X-17.4Y15.9
X-17.3Y53.3
X-17.25Y40.875
X-17.1Y23.4
X-17.075Y22.5
X-16.9Y43.4
X-16.8Y51.3
X-16.8Y19.3
X-16.8Y14.1
X-16.8Y2.0
X-16.7Y13.4
X-16.675Y30.0
X-16.675Y9.325
X-16.5Y25.6
X-16.426Y38.318
X-16.425Y26.5
X-16.425Y16.0
X-16.425Y8.775
X-16.4Y49.3
X-16.4Y31.0
X-16.3Y58.1
X-16.3Y24.2
X-16.3Y23.4
X-16.3Y21.2
X-16.25Y45.475
X-16.2Y12.7
X-16.18Y40.151
X-16.1Y18.5
X-15.9Y55.2
X-15.7Y38.0
X-15.7Y25.4
X-15.6Y6.8
X-15.448Y30.403
X-15.425Y9.8
X-15.4Y54.0
X-15.4Y29.5
X-15.25Y40.725
X-15.25Y36.225
X-15.25Y13.025
X-15.1Y23.5
X-15.0Y27.9
X-14.8Y14.9
X-14.75Y37.85
X-14.6Y18.4
X-14.6Y-1.4
X-14.5Y31.2
X-14.475Y13.4
X-14.445Y19.232
X-14.4Y28.0
X-14.4Y15.3
X-14.4Y3.9
X-14.4Y2.9
X-14.3Y53.7
X-14.3Y25.0
X-14.275Y32.4
X-14.25Y40.725
X-14.2Y45.6
X-13.925Y38.0
X-13.9Y48.3
X-13.8Y56.5
X-13.773Y15.8
X-13.75Y19.575
X-13.7Y27.4
X-13.7Y25.7
X-13.7Y24.0
X-13.6Y53.7
X-13.55Y36.225
X-13.55Y13.025
X-13.375Y33.575
X-13.3Y3.6
X-13.25Y45.475
X-13.25Y40.725
X-13.2Y19.5
X-13.2Y2.9
X-12.95Y12.9
X-12.946Y17.554
X-12.925Y27.5
X-12.9Y24.9
X-12.7Y47.9
X-12.7Y40.375
X-12.7Y25.95
X-12.7Y15.2
X-12.6Y25.4
X-12.6Y12.0
X-12.6Y11.4
X-12.475Y10.0
X-12.3Y28.5
X-12.2Y26.4
X-12.2Y18.1
X-12.15Y16.15
X-12.0Y44.9
X-11.825Y33.575
X-11.825Y13.825
X-11.8Y30.4
X-11.65Y36.225
X-11.65Y13.025
X-11.6Y43.3
X-11.6Y40.8
X-11.6Y36.9
X-11.6Y31.4
X-11.6Y-0.2
X-11.425Y-1.8
X-11.3Y57.2
X-11.3Y55.3
X-11.2Y24.8
X-11.2Y18.2
X-11.2Y16.6
X-11.2Y14.2
X-11.1Y44.7
X-11.1Y31.7
X-10.925Y32.4
X-10.925Y17.25
X-10.85Y21.5
X-10.8Y37.7
X-10.8Y30.6
X-10.8Y28.6
X-10.8Y24.3
X-10.75Y45.475
X-10.75Y40.725
X-10.725Y8.975
X-10.7Y47.9
X-10.6Y53.4
X-10.6Y35.9
X-10.425Y13.8
X-10.4Y38.1
X-10.4Y36.7
X-10.4Y15.0
X-10.4Y12.4
X-10.3Y43.9
X-10.3Y40.3
X-10.3Y17.9
X-10.075Y4.825
X-9.977Y9.527
X-9.95Y36.225
X-9.948Y33.266
X-9.9Y14.1
X-9.8Y47.8
X-9.8Y44.5
X-9.775Y12.775
X-9.7Y45.5
X-9.7Y16.0
X-9.5Y43.9
X-9.475Y14.525
X-9.4Y20.9
X-9.4Y9.5
X-9.3Y30.9
X-9.3Y18.4
X-9.3Y13.4
X-9.25Y40.725
X-9.075Y29.5
X-9.075Y20.4
X-9.075Y19.0
X-9.0Y23.2
X-8.9Y51.7
X-8.9Y16.7
X-8.9Y15.3
X-8.7Y14.0
X-8.575Y37.95
X-8.575Y8.425
X-8.5Y28.8
X-8.5Y10.7
X-8.355Y49.406
X-8.3Y21.6
X-8.1Y15.775
X-8.1Y14.1
X-8.05Y36.225
X-8.0Y36.9
X-8.0Y19.5
X-8.0Y13.4
X-7.9Y50.7
X-7.75Y45.475
X-7.75Y40.725
X-7.7Y49.1
X-7.7Y37.4
X-7.7Y18.4
X-7.7Y16.8
X-7.6Y12.6
X-7.443Y30.618
X-7.3Y-0.7
X-7.2Y29.2
X-7.2Y28.4
X-7.2Y27.6
X-7.2Y26.8
X-7.2Y26.0
X-7.2Y25.2
X-7.2Y24.4
X-7.2Y23.6
X-7.2Y22.8
X-7.2Y21.2
X-7.2Y20.4
X-7.2Y19.6
X-7.2Y18.8
X-7.2Y18.0
X-7.2Y17.2
X-7.2Y16.4
X-7.2Y15.6
X-7.2Y14.8
X-7.2Y12.2
X-7.1Y45.5
X-7.1Y38.0
X-7.1Y-1.4
X-7.075Y32.4
X-7.075Y11.6
X-6.8Y37.5
X-6.8Y30.5
X-6.8Y13.0
X-6.7Y52.2
X-6.5Y-0.2
X-6.4Y28.4
X-6.4Y22.8
X-6.4Y21.2
X-6.4Y20.4
X-6.4Y19.6
X-6.4Y18.8
X-6.4Y18.0
X-6.4Y16.4
X-6.4Y15.625
X-6.4Y14.8
X-6.375Y25.2
X-6.3Y49.1
X-6.2Y10.3
X-6.175Y35.975
X-6.175Y33.575
X-6.175Y12.775
X-6.1Y29.6
X-5.825Y9.1
X-5.8Y10.7
X-5.7Y6.325
X-5.6Y35.6
X-5.6Y28.4
X-5.6Y25.225
X-5.6Y18.8
X-5.6Y15.6
X-5.6Y14.8
X-5.6Y13.1
X-5.4Y46.712
X-5.4Y0.5
X-5.4Y-0.7
X-5.3Y14.3
X-5.2Y13.5
X-5.2Y12.6
X-5.1Y33.6
X-5.0Y8.125
X-4.825Y15.6
X-4.8Y29.2
X-4.8Y28.4
X-4.8Y23.6
X-4.8Y14.8
X-4.7Y38.1
X-4.7Y35.7
X-4.625Y12.775
X-4.618Y10.304
X-4.6Y6.1
X-4.5Y13.625
X-4.4Y30.5
X-4.1Y13.2
X-4.0Y29.2
X-4.0Y28.4
X-4.0Y27.6
X-4.0Y26.8
X-4.0Y25.2
X-4.0Y24.4
X-4.0Y23.6
X-4.0Y22.8
X-4.0Y21.2
X-4.0Y20.4
X-4.0Y19.6
X-4.0Y18.8
X-4.0Y18.0
X-4.0Y15.6
X-3.9Y4.8
X-3.8Y2.8
X-3.725Y11.6
X-3.7Y5.8
X-3.6Y30.5
X-3.584Y12.161
X-3.475Y34.8
X-3.475Y32.4
X-3.425Y34.075
X-3.4Y33.5
X-3.35Y11.15
X-3.2Y28.4
X-3.2Y27.6
X-3.2Y26.8
X-3.2Y25.2
X-3.2Y24.4
X-3.2Y23.6
X-3.2Y22.8
X-3.2Y21.975
X-3.2Y21.2
X-3.2Y20.4
X-3.2Y19.6
X-3.2Y18.8
X-3.2Y18.0
X-3.2Y14.8
X-3.2Y6.075
X-3.0Y46.3
X-3.0Y12.725
X-2.875Y-1.152
X-2.8Y30.5
X-2.575Y35.975
X-2.575Y33.575
X-2.5Y37.8
X-2.5Y13.0
X-2.5Y7.9
X-2.452Y30.997
X-2.4Y28.4
X-2.4Y27.6
X-2.4Y26.8
X-2.4Y25.2
X-2.4Y24.4
X-2.4Y23.6
X-2.4Y22.8
X-2.4Y21.2
X-2.4Y20.4
X-2.4Y19.6
X-2.4Y18.0
X-2.4Y14.825
X-2.0Y29.7
X-1.9Y13.6
X-1.9Y9.9
X-1.6Y29.2
X-1.6Y28.4
X-1.6Y27.6
X-1.6Y26.8
X-1.6Y25.2
X-1.6Y24.4
X-1.6Y23.6
X-1.6Y22.8
X-1.6Y21.2
X-1.6Y20.4
X-1.6Y19.6
X-1.6Y18.0
X-1.575Y43.0
X-1.575Y41.0
X-1.575Y14.8
X-1.5Y7.9
X-1.4Y14.25
X-1.4Y10.2
X-1.325Y10.75
X-1.3Y15.3
X-1.2Y55.3
X-1.2Y30.5
X-1.1Y6.3
X-1.025Y35.975
X-1.025Y33.575
X-1.025Y12.775
X-1.0Y9.6
X-0.925Y31.6
X-0.825Y13.4
X-0.8Y28.4
X-0.8Y27.6
X-0.8Y26.8
X-0.8Y25.2
X-0.8Y24.4
X-0.8Y23.6
X-0.8Y22.8
X-0.8Y20.4
X-0.8Y19.6
X-0.8Y18.8
X-0.8Y18.0
X-0.8Y17.175
X-0.8Y15.6
X-0.8Y14.8
X-0.6Y10.0
X-0.575Y33.9
X-0.4Y25.8
X-0.4Y13.8
X-0.3Y48.0
X-0.2Y7.9
X-0.125Y34.8
X-0.125Y32.4
X-0.125Y11.6
X0.0Y42.4
X0.0Y21.225
X0.0Y17.975
X0.0Y12.4
X0.025Y15.6
X0.475Y30.15
X0.5Y29.6
X0.6Y54.3
X0.6Y3.5
X0.6Y1.7
X0.6Y-1.4
X0.8Y28.4
X0.8Y27.6
X0.8Y26.8
X0.8Y25.9
X0.8Y25.2
X0.8Y24.4
X0.8Y23.6
X0.8Y22.8
X0.8Y22.0
X0.8Y20.4
X0.8Y19.6
X0.8Y18.8
X0.8Y18.0
X0.8Y15.6
X0.8Y14.8
X0.8Y8.3
X1.1Y29.6
X1.1Y9.9
X1.2Y3.5
X1.2Y2.0
X1.3Y54.3
X1.5Y9.1
X1.5Y5.4
X1.575Y22.0
X1.6Y28.4
X1.6Y27.6
X1.6Y26.8
X1.6Y25.2
X1.6Y24.4
X1.6Y23.6
X1.6Y22.8
X1.6Y21.2
X1.6Y20.4
X1.6Y19.6
X1.6Y18.0
X1.6Y14.8
X1.8Y51.7
X1.9Y13.6
X1.925Y45.0
X1.925Y43.0
X1.925Y41.0
X1.925Y39.0
X2.2Y2.8
X2.3Y9.6
X2.375Y15.6
X2.4Y28.4
X2.4Y27.6
X2.4Y26.8
X2.4Y25.2
X2.4Y24.4
X2.4Y23.6
X2.4Y22.8
X2.4Y21.2
X2.4Y20.4
X2.4Y19.6
X2.4Y18.0
X2.4Y14.8
X2.4Y13.3
X2.4Y9.0
X2.575Y35.975
X2.8Y30.5
X2.8Y12.9
X2.9Y3.4
X3.0Y54.3
X3.1Y8.3
X3.1Y6.1
X3.2Y29.2
X3.2Y28.4
X3.2Y27.6
X3.2Y26.8
X3.2Y25.2
X3.2Y24.4
X3.2Y23.6
X3.2Y22.8
X3.2Y21.2
X3.2Y20.4
X3.2Y19.6
X3.2Y18.8
X3.2Y18.0
X3.2Y16.4
X3.2Y14.8
X3.244Y12.493
X3.3Y-0.7
X3.4Y14.2
X3.475Y34.8
X3.5Y7.8
X3.5Y-1.4
X3.6Y30.5
X3.6Y8.6
X3.6Y2.0
X3.7Y13.3
X3.725Y32.4
X3.725Y11.6
X4.0Y29.2
X4.0Y28.4
X4.0Y27.6
X4.0Y26.8
X4.0Y25.2
X4.0Y24.4
X4.0Y23.6
X4.0Y22.8
X4.0Y21.2
X4.0Y20.4
X4.0Y19.6
X4.0Y18.8
X4.0Y18.0
X4.0Y15.6
X4.0Y14.8
X4.1Y46.5
X4.3Y39.5
X4.3Y2.0
X4.625Y33.575
X4.625Y12.775
X4.7Y8.3
X4.7Y5.9
X4.772Y7.552
X4.775Y20.4
X4.8Y48.5
X4.8Y46.8
X4.8Y31.5
X4.8Y28.4
X4.8Y27.6
X4.8Y26.0
X4.8Y14.8
X5.1Y13.5
X5.1Y12.4
X5.2Y14.4
X5.3Y29.6
X5.4Y46.712
X5.4Y9.7
X5.425Y45.0
X5.425Y43.0
X5.425Y41.0
X5.6Y28.4
X5.6Y27.6
X5.6Y26.8
X5.6Y26.0
X5.6Y18.8
X5.6Y16.4
X5.6Y14.8
X5.6Y13.2
X5.675Y33.2
X5.9Y39.5
X6.0Y14.3
X6.0Y2.8
X6.1Y30.4
X6.175Y35.975
X6.175Y33.575
X6.375Y29.175
X6.4Y28.4
X6.4Y27.6
X6.4Y14.8
X6.7Y48.2
X6.775Y35.55
X6.9Y8.6
X7.0Y13.5
X7.0Y-0.7
X7.075Y34.8
X7.1Y30.5
X7.125Y9.15
X7.2Y28.4
X7.2Y27.625
X7.2Y25.2
X7.2Y24.4
X7.2Y23.6
X7.2Y22.8
X7.2Y21.2
X7.2Y20.4
X7.2Y19.6
X7.2Y18.8
X7.2Y18.0
X7.2Y17.2
X7.2Y16.4
X7.2Y15.6
X7.2Y14.8
X7.2Y8.1
X7.3Y12.6
X7.325Y11.6
X7.5Y49.2
X7.7Y33.8
X7.7Y9.1
X7.725Y38.538
X7.75Y47.95
X7.75Y40.725
X7.8Y44.9
X7.997Y7.552
X8.0Y50.0
X8.1Y28.3
X8.1Y27.5
X8.2Y48.5
X8.2Y31.0
X8.225Y12.775
X8.25Y47.575
X8.6Y49.4
X8.8Y57.8
X9.0Y30.9
X9.0Y27.9
X9.0Y7.1
X9.075Y21.0
X9.075Y19.0
X9.1Y29.8
X9.25Y40.725
X9.25Y35.6
X9.275Y38.538
X9.3Y29.0
X9.3Y15.5
X9.4Y31.3
X9.4Y4.0
X9.5Y47.9
X9.7Y7.7
X9.7Y6.5
X9.775Y35.975
X9.775Y12.775
X9.9Y29.125
X9.95Y33.825
X10.0Y-1.8
X10.2Y47.8
X10.3Y22.3
X10.5Y7.7
X10.5Y6.5
X10.6Y44.4
X10.675Y34.8
X10.675Y11.6
X10.7Y42.7
X10.75Y45.475
X10.75Y40.725
X10.825Y32.775
X10.9Y14.7
X10.9Y8.1
X11.0Y15.8
X11.1Y33.8
X11.1Y31.2
X11.2Y12.9
X11.2Y12.3
X11.3Y58.2
X11.3Y41.7
X11.3Y28.3
X11.4Y44.4
X11.6Y45.4
X11.7Y30.1
X11.7Y8.2
X11.8Y33.7
X12.05Y28.75
X12.075Y38.0
X12.075Y23.5
X12.1Y30.7
X12.2Y13.1
X12.5Y31.1
X12.5Y8.8
X12.575Y21.5
X12.575Y19.5
X12.575Y17.0
X12.6Y35.4
X12.6Y12.7
X12.925Y14.0
X13.1Y35.7
X13.2Y25.2
X13.25Y45.475
X13.25Y40.725
X13.375Y12.775
X13.5Y10.8
X13.6Y16.1
X13.7Y35.7
X13.8Y40.4
X13.8Y33.3
X13.8Y26.4
X14.2Y36.1
X14.2Y10.3
X14.275Y11.6
X14.4Y20.8
X14.5Y21.4
X14.5Y19.5
X14.525Y34.8
X14.525Y32.4
X14.6Y36.5
X14.6Y17.7
X14.6Y10.7
X14.7Y31.875
X14.75Y40.725
X15.075Y28.5
X15.3Y41.5
X15.3Y12.5
X15.4Y44.4
X15.425Y35.975
X15.5Y51.0
X15.575Y26.5
X15.575Y24.5
X15.6Y27.4
X15.7Y50.4
X15.95Y14.5
X16.075Y22.5
X16.2Y57.7
X16.2Y38.1
X16.2Y23.2
X16.25Y45.475
X16.25Y40.725
X16.3Y51.1
X16.8Y50.4
X16.9Y37.4
X16.9Y21.4
X16.975Y33.575
X17.2Y42.6
X17.5Y25.4
X17.5Y-1.8
X17.6Y23.4
X17.7Y34.1
X18.0Y19.1
X18.075Y33.0
X18.075Y31.0
X18.125Y34.8
X18.125Y11.6
X18.3Y39.7
X18.4Y33.6
X18.4Y19.5
X18.5Y41.5
X18.575Y28.5
X18.6Y46.712
X18.6Y29.2
X18.8Y57.8
X18.85Y35.375
X18.9Y39.7
X19.0Y38.3
X19.07Y36.587
X19.3Y55.5
X19.3Y29.4
X19.4Y-1.8
X19.925Y20.5
X19.925Y18.5
X19.925Y16.5
X19.95Y25.9
X20.0Y54.6
X20.0Y30.0
X20.4Y35.1
X20.4Y31.5
X20.4Y20.8
X20.7Y50.8
X20.8Y52.3
X20.8Y27.4
X20.8Y15.2
X21.3Y57.8
X21.3Y56.2
X21.3Y38.7
X21.3Y25.8
X21.4Y54.4
X21.4Y51.0
X21.7Y41.5
X21.9Y16.5
X21.9Y-1.8
X22.0Y50.4
X22.8Y45.9
X23.0Y48.7
X23.7Y18.0
X23.8Y57.2
X23.9Y52.7
X23.9Y27.6
X24.075Y20.5
X24.075Y16.0
X24.5Y17.9
X24.88Y30.938
X24.9Y53.4
X24.93Y29.412
X25.1Y27.6
X26.3Y57.2
X26.3Y56.2
X26.3Y54.9
X26.7Y18.5
X26.8Y20.5
X26.9Y49.7
X27.0Y54.9
X27.1Y53.4
X27.5Y57.75
X27.5Y-1.8
X28.2Y55.2
X29.0Y47.2
X29.4Y46.712
X29.9Y56.2
X30.0Y-1.8
X30.1Y52.5
X30.2Y38.7
X30.425Y18.5
X30.7Y51.9
X31.3Y49.2
X31.75Y45.475
X31.75Y40.725
X31.9Y48.6
X32.3Y47.9
X32.5Y45.5
X33.2Y45.4
X33.2Y42.6
X33.25Y40.725
X33.3Y47.9
X33.8Y45.6
X34.35Y18.5
X34.4Y52.3
X34.7Y48.6
X34.75Y45.475
X34.75Y40.725
X34.8Y47.9
X35.3Y40.3
X35.3Y37.8
X35.5Y42.4
X35.9Y40.4
X35.9Y37.0
X36.2Y58.2
X36.3Y43.2
X36.3Y42.2
X36.7Y45.6
X37.25Y47.95
X37.25Y40.725
X37.3Y43.2
X37.4Y38.1
X38.0Y43.2
X38.0Y42.2
X38.75Y40.725
X39.5Y47.9
X40.091Y43.642
X40.25Y45.475
X40.25Y40.725
X40.8Y40.4
X41.2Y58.2
X41.3Y38.2
X41.6Y40.4
X41.8Y39.3
X42.6Y46.712
X46.45Y45.3
T2
X-41.35Y41.425
X-34.525Y31.525
X-28.9Y36.9
X-28.9Y35.8
X-0.2Y31.7
X7.725Y32.55
T3
X-52.9Y36.82G85X-54.2Y36.82
G05
X-52.9Y28.18G85X-54.2Y28.18
G05
X-49.225Y36.82G85X-50.225Y36.82
G05
X-49.225Y28.18G85X-50.225Y28.18
G05
M30
