G04 #@! TF.GenerationSoftware,KiCad,Pcbnew,10.0.6*
G04 #@! TF.CreationDate,2026-10-04T08:55:02-04:00*
G04 #@! TF.ProjectId,sn64-v2,736e3634-2d76-4322-9e6b-696361645f70,rev?*
G04 #@! TF.SameCoordinates,Original*
G04 #@! TF.FileFunction,Paste,Bot*
G04 #@! TF.FilePolarity,Positive*
%FSLAX46Y46*%
G04 Gerber Fmt 4.6, Leading zero omitted, Abs format (unit mm)*
G04 Created by KiCad (PCBNEW 10.0.6) date 2026-10-04 08:55:02*
%MOMM*%
%LPD*%
G01*
G04 APERTURE LIST*
G04 Aperture macros list*
%AMRoundRect*
0 Rectangle with rounded corners*
0 $1 Rounding radius*
0 $2 $3 $4 $5 $6 $7 $8 $9 X,Y pos of 4 corners*
0 Add a 4 corners polygon primitive as box body*
4,1,4,$2,$3,$4,$5,$6,$7,$8,$9,$2,$3,0*
0 Add four circle primitives for the rounded corners*
1,1,$1+$1,$2,$3*
1,1,$1+$1,$4,$5*
1,1,$1+$1,$6,$7*
1,1,$1+$1,$8,$9*
0 Add four rect primitives between the rounded corners*
20,1,$1+$1,$2,$3,$4,$5,0*
20,1,$1+$1,$4,$5,$6,$7,0*
20,1,$1+$1,$6,$7,$8,$9,0*
20,1,$1+$1,$8,$9,$2,$3,0*%
G04 Aperture macros list end*
%ADD10RoundRect,0.200000X0.200000X0.275000X-0.200000X0.275000X-0.200000X-0.275000X0.200000X-0.275000X0*%
%ADD11RoundRect,0.200000X-0.200000X-0.275000X0.200000X-0.275000X0.200000X0.275000X-0.200000X0.275000X0*%
%ADD12RoundRect,0.225000X-0.225000X-0.250000X0.225000X-0.250000X0.225000X0.250000X-0.225000X0.250000X0*%
%ADD13RoundRect,0.225000X0.225000X0.250000X-0.225000X0.250000X-0.225000X-0.250000X0.225000X-0.250000X0*%
%ADD14R,1.200000X0.400000*%
%ADD15RoundRect,0.225000X0.250000X-0.225000X0.250000X0.225000X-0.250000X0.225000X-0.250000X-0.225000X0*%
%ADD16RoundRect,0.250000X-0.250000X-0.475000X0.250000X-0.475000X0.250000X0.475000X-0.250000X0.475000X0*%
%ADD17RoundRect,0.225000X-0.250000X0.225000X-0.250000X-0.225000X0.250000X-0.225000X0.250000X0.225000X0*%
%ADD18RoundRect,0.218750X-0.218750X-0.256250X0.218750X-0.256250X0.218750X0.256250X-0.218750X0.256250X0*%
%ADD19RoundRect,0.250000X0.250000X0.475000X-0.250000X0.475000X-0.250000X-0.475000X0.250000X-0.475000X0*%
G04 APERTURE END LIST*
D10*
G04 #@! TO.C,R304*
X-27375000Y3600000D03*
X-29025000Y3600000D03*
G04 #@! TD*
D11*
G04 #@! TO.C,R26*
X23675000Y18000000D03*
X25325000Y18000000D03*
G04 #@! TD*
G04 #@! TO.C,R1*
X13175000Y25500000D03*
X14825000Y25500000D03*
G04 #@! TD*
D12*
G04 #@! TO.C,C216*
X9225000Y46462000D03*
X10775000Y46462000D03*
G04 #@! TD*
D11*
G04 #@! TO.C,R212*
X-17325000Y38000000D03*
X-15675000Y38000000D03*
G04 #@! TD*
D13*
G04 #@! TO.C,C220*
X-38975000Y46712000D03*
X-40525000Y46712000D03*
G04 #@! TD*
G04 #@! TO.C,C32*
X-24925000Y9175000D03*
X-26475000Y9175000D03*
G04 #@! TD*
G04 #@! TO.C,C303*
X-31225000Y8400000D03*
X-32775000Y8400000D03*
G04 #@! TD*
D12*
G04 #@! TO.C,C39*
X-11775000Y21500000D03*
X-10225000Y21500000D03*
G04 #@! TD*
G04 #@! TO.C,C22*
X11825000Y34800000D03*
X13375000Y34800000D03*
G04 #@! TD*
D11*
G04 #@! TO.C,R8*
X13675000Y19500000D03*
X15325000Y19500000D03*
G04 #@! TD*
G04 #@! TO.C,R10*
X10175000Y21000000D03*
X11825000Y21000000D03*
G04 #@! TD*
G04 #@! TO.C,R209*
X-325000Y48000000D03*
X1325000Y48000000D03*
G04 #@! TD*
G04 #@! TO.C,R4*
X19175000Y33000000D03*
X20825000Y33000000D03*
G04 #@! TD*
D14*
G04 #@! TO.C,U13*
X-45700000Y23142500D03*
X-45700000Y23777500D03*
X-45700000Y24412500D03*
X-45700000Y25047500D03*
X-45700000Y25682500D03*
X-45700000Y26317500D03*
X-45700000Y26952500D03*
X-45700000Y27587500D03*
X-45700000Y28222500D03*
X-45700000Y28857500D03*
X-40500000Y28857500D03*
X-40500000Y28222500D03*
X-40500000Y27587500D03*
X-40500000Y26952500D03*
X-40500000Y26317500D03*
X-40500000Y25682500D03*
X-40500000Y25047500D03*
X-40500000Y24412500D03*
X-40500000Y23777500D03*
X-40500000Y23142500D03*
G04 #@! TD*
D11*
G04 #@! TO.C,R319*
X-38725000Y17300000D03*
X-37075000Y17300000D03*
G04 #@! TD*
G04 #@! TO.C,R22*
X-11825000Y15000000D03*
X-10175000Y15000000D03*
G04 #@! TD*
D12*
G04 #@! TO.C,C34*
X-15275000Y18500000D03*
X-13725000Y18500000D03*
G04 #@! TD*
D11*
G04 #@! TO.C,R204*
X-27825000Y38000000D03*
X-26175000Y38000000D03*
G04 #@! TD*
G04 #@! TO.C,R38*
X-11825000Y25500000D03*
X-10175000Y25500000D03*
G04 #@! TD*
D10*
G04 #@! TO.C,R41*
X-41075000Y20500000D03*
X-42725000Y20500000D03*
G04 #@! TD*
D11*
G04 #@! TO.C,R316*
X-46625000Y18300000D03*
X-44975000Y18300000D03*
G04 #@! TD*
G04 #@! TO.C,R313*
X-37025000Y24000000D03*
X-35375000Y24000000D03*
G04 #@! TD*
D13*
G04 #@! TO.C,C219*
X-38725000Y39288000D03*
X-40275000Y39288000D03*
G04 #@! TD*
D11*
G04 #@! TO.C,R33*
X-25325000Y27000000D03*
X-23675000Y27000000D03*
G04 #@! TD*
G04 #@! TO.C,R205*
X-33325000Y44500000D03*
X-31675000Y44500000D03*
G04 #@! TD*
D15*
G04 #@! TO.C,C206*
X-8750000Y46687000D03*
X-8750000Y48237000D03*
G04 #@! TD*
D12*
G04 #@! TO.C,C5*
X1024999Y11600000D03*
X2574999Y11600000D03*
G04 #@! TD*
D11*
G04 #@! TO.C,R12*
X13175000Y23500000D03*
X14825000Y23500000D03*
G04 #@! TD*
G04 #@! TO.C,R203*
X-24325000Y40000000D03*
X-22675000Y40000000D03*
G04 #@! TD*
D12*
G04 #@! TO.C,C21*
X15425000Y34800000D03*
X16975000Y34800000D03*
G04 #@! TD*
D11*
G04 #@! TO.C,R202*
X-24325000Y38000000D03*
X-22675000Y38000000D03*
G04 #@! TD*
D12*
G04 #@! TO.C,C8*
X-9775000Y11600000D03*
X-8225000Y11600000D03*
G04 #@! TD*
D10*
G04 #@! TO.C,R320*
X-31275000Y17300000D03*
X-32925000Y17300000D03*
G04 #@! TD*
D12*
G04 #@! TO.C,C18*
X-9775000Y32400001D03*
X-8225000Y32400001D03*
G04 #@! TD*
D16*
G04 #@! TO.C,C28*
X-9950000Y34800000D03*
X-8050000Y34800000D03*
G04 #@! TD*
D11*
G04 #@! TO.C,RT1*
X-11825000Y27500000D03*
X-10175000Y27500000D03*
G04 #@! TD*
G04 #@! TO.C,R30*
X-22325000Y16500000D03*
X-20675000Y16500000D03*
G04 #@! TD*
G04 #@! TO.C,R7*
X-18325000Y30000000D03*
X-16675000Y30000000D03*
G04 #@! TD*
D12*
G04 #@! TO.C,C1*
X15425000Y11600000D03*
X16975000Y11600000D03*
G04 #@! TD*
G04 #@! TO.C,C15*
X1024999Y32400001D03*
X2574999Y32400001D03*
G04 #@! TD*
G04 #@! TO.C,C37*
X-11775000Y19000000D03*
X-10225000Y19000000D03*
G04 #@! TD*
G04 #@! TO.C,C14*
X4624999Y32400001D03*
X6174999Y32400001D03*
G04 #@! TD*
D10*
G04 #@! TO.C,R308*
X-27375000Y6700000D03*
X-29025000Y6700000D03*
G04 #@! TD*
G04 #@! TO.C,R214*
X-38175000Y41900000D03*
X-39825000Y41900000D03*
G04 #@! TD*
D12*
G04 #@! TO.C,C17*
X-6175000Y32400001D03*
X-4625000Y32400001D03*
G04 #@! TD*
D16*
G04 #@! TO.C,C209*
X-27450000Y54000000D03*
X-25550000Y54000000D03*
G04 #@! TD*
D10*
G04 #@! TO.C,R312*
X-32175000Y24000000D03*
X-33825000Y24000000D03*
G04 #@! TD*
D12*
G04 #@! TO.C,C44*
X-47275000Y36400000D03*
X-45725000Y36400000D03*
G04 #@! TD*
D13*
G04 #@! TO.C,C215*
X9275000Y38538000D03*
X7725000Y38538000D03*
G04 #@! TD*
D16*
G04 #@! TO.C,C9*
X-13550000Y11600000D03*
X-11650000Y11600000D03*
G04 #@! TD*
D11*
G04 #@! TO.C,R2*
X19675000Y28500000D03*
X21325000Y28500000D03*
G04 #@! TD*
G04 #@! TO.C,R301*
X25175000Y20500000D03*
X26825000Y20500000D03*
G04 #@! TD*
G04 #@! TO.C,R39*
X-20325000Y24500000D03*
X-18675000Y24500000D03*
G04 #@! TD*
D13*
G04 #@! TO.C,C214*
X32525000Y46712000D03*
X30975000Y46712000D03*
G04 #@! TD*
D12*
G04 #@! TO.C,C42*
X-38775000Y27300000D03*
X-37225000Y27300000D03*
G04 #@! TD*
D17*
G04 #@! TO.C,C202*
X38750000Y46737000D03*
X38750000Y45187000D03*
G04 #@! TD*
D11*
G04 #@! TO.C,R18*
X10175000Y16000000D03*
X11825000Y16000000D03*
G04 #@! TD*
D12*
G04 #@! TO.C,C36*
X-43275000Y36000000D03*
X-41725000Y36000000D03*
G04 #@! TD*
G04 #@! TO.C,C45*
X-47275000Y31600000D03*
X-45725000Y31600000D03*
G04 #@! TD*
G04 #@! TO.C,C12*
X11825000Y32400001D03*
X13375000Y32400001D03*
G04 #@! TD*
D11*
G04 #@! TO.C,R32*
X-15325000Y26500000D03*
X-13675000Y26500000D03*
G04 #@! TD*
G04 #@! TO.C,R27*
X13675000Y17000000D03*
X15325000Y17000000D03*
G04 #@! TD*
G04 #@! TO.C,R306*
X-33825000Y3600000D03*
X-32175000Y3600000D03*
G04 #@! TD*
D12*
G04 #@! TO.C,C6*
X-2575000Y11600000D03*
X-1025000Y11600000D03*
G04 #@! TD*
D11*
G04 #@! TO.C,R24*
X-15325000Y14000000D03*
X-13675000Y14000000D03*
G04 #@! TD*
D13*
G04 #@! TO.C,C203*
X14025000Y41538000D03*
X12475000Y41538000D03*
G04 #@! TD*
D11*
G04 #@! TO.C,R34*
X-16325000Y22500000D03*
X-14675000Y22500000D03*
G04 #@! TD*
G04 #@! TO.C,R23*
X-15325000Y16000000D03*
X-13675000Y16000000D03*
G04 #@! TD*
D12*
G04 #@! TO.C,C218*
X-13775000Y46712000D03*
X-12225000Y46712000D03*
G04 #@! TD*
D11*
G04 #@! TO.C,R211*
X-12825000Y38000000D03*
X-11175000Y38000000D03*
G04 #@! TD*
G04 #@! TO.C,R206*
X-33325000Y47500000D03*
X-31675000Y47500000D03*
G04 #@! TD*
G04 #@! TO.C,R210*
X13175000Y38000000D03*
X14825000Y38000000D03*
G04 #@! TD*
G04 #@! TO.C,R35*
X-11825000Y23500000D03*
X-10175000Y23500000D03*
G04 #@! TD*
D12*
G04 #@! TO.C,C205*
X-9275000Y39288000D03*
X-7725000Y39288000D03*
G04 #@! TD*
G04 #@! TO.C,C11*
X15425000Y32400001D03*
X16975000Y32400001D03*
G04 #@! TD*
D11*
G04 #@! TO.C,R29*
X-20825000Y13000000D03*
X-19175000Y13000000D03*
G04 #@! TD*
D13*
G04 #@! TO.C,C315*
X-41825000Y16700000D03*
X-43375000Y16700000D03*
G04 #@! TD*
D12*
G04 #@! TO.C,C2*
X11825000Y11600000D03*
X13375000Y11600000D03*
G04 #@! TD*
G04 #@! TO.C,C20*
X-16975000Y32400001D03*
X-15425000Y32400001D03*
G04 #@! TD*
D13*
G04 #@! TO.C,C314*
X-32225000Y22400000D03*
X-33775000Y22400000D03*
G04 #@! TD*
D16*
G04 #@! TO.C,C13*
X8050000Y32400001D03*
X9950000Y32400001D03*
G04 #@! TD*
D18*
G04 #@! TO.C,D1*
X10212500Y14000000D03*
X11787500Y14000000D03*
G04 #@! TD*
D12*
G04 #@! TO.C,C302*
X27725000Y18500000D03*
X29275000Y18500000D03*
G04 #@! TD*
D15*
G04 #@! TO.C,C31*
X23905000Y29388000D03*
X23905000Y30938000D03*
G04 #@! TD*
D13*
G04 #@! TO.C,C213*
X33275000Y39538000D03*
X31725000Y39538000D03*
G04 #@! TD*
D10*
G04 #@! TO.C,R321*
X-34275000Y10800000D03*
X-35925000Y10800000D03*
G04 #@! TD*
D11*
G04 #@! TO.C,R213*
X-18825000Y40000000D03*
X-17175000Y40000000D03*
G04 #@! TD*
D13*
G04 #@! TO.C,C207*
X-33225000Y39288000D03*
X-34775000Y39288000D03*
G04 #@! TD*
D16*
G04 #@! TO.C,C10*
X-17150000Y11600000D03*
X-15250000Y11600000D03*
G04 #@! TD*
D19*
G04 #@! TO.C,C210*
X-31050000Y54000000D03*
X-32950000Y54000000D03*
G04 #@! TD*
D11*
G04 #@! TO.C,R310*
X-42325000Y12700000D03*
X-40675000Y12700000D03*
G04 #@! TD*
G04 #@! TO.C,R20*
X-47325000Y33200000D03*
X-45675000Y33200000D03*
G04 #@! TD*
D12*
G04 #@! TO.C,C16*
X-2575000Y32400001D03*
X-1025000Y32400001D03*
G04 #@! TD*
D11*
G04 #@! TO.C,R40*
X-18825000Y26500000D03*
X-17175000Y26500000D03*
G04 #@! TD*
D12*
G04 #@! TO.C,C23*
X8225000Y34800000D03*
X9775000Y34800000D03*
G04 #@! TD*
G04 #@! TO.C,C19*
X-13375000Y32400001D03*
X-11825000Y32400001D03*
G04 #@! TD*
D16*
G04 #@! TO.C,C30*
X-17150000Y34800000D03*
X-15250000Y34800000D03*
G04 #@! TD*
D11*
G04 #@! TO.C,R25*
X-18825000Y15000000D03*
X-17175000Y15000000D03*
G04 #@! TD*
G04 #@! TO.C,R6*
X13675000Y21500000D03*
X15325000Y21500000D03*
G04 #@! TD*
D10*
G04 #@! TO.C,R318*
X-31275000Y15600000D03*
X-32925000Y15600000D03*
G04 #@! TD*
D11*
G04 #@! TO.C,R19*
X-47325000Y34800000D03*
X-45675000Y34800000D03*
G04 #@! TD*
G04 #@! TO.C,R13*
X16175000Y28500000D03*
X17825000Y28500000D03*
G04 #@! TD*
G04 #@! TO.C,R16*
X-25425000Y22200000D03*
X-23775000Y22200000D03*
G04 #@! TD*
G04 #@! TO.C,R3*
X19175000Y31000000D03*
X20825000Y31000000D03*
G04 #@! TD*
G04 #@! TO.C,R207*
X-37325000Y47500000D03*
X-35675000Y47500000D03*
G04 #@! TD*
D13*
G04 #@! TO.C,C41*
X-37225000Y25700000D03*
X-38775000Y25700000D03*
G04 #@! TD*
D12*
G04 #@! TO.C,C40*
X-19775000Y22500000D03*
X-18225000Y22500000D03*
G04 #@! TD*
D11*
G04 #@! TO.C,R28*
X-18825000Y17000000D03*
X-17175000Y17000000D03*
G04 #@! TD*
G04 #@! TO.C,R31*
X-22325000Y18500000D03*
X-20675000Y18500000D03*
G04 #@! TD*
G04 #@! TO.C,R36*
X-25325000Y29000000D03*
X-23675000Y29000000D03*
G04 #@! TD*
G04 #@! TO.C,R11*
X10175000Y19000000D03*
X11825000Y19000000D03*
G04 #@! TD*
G04 #@! TO.C,R5*
X16675000Y24500000D03*
X18325000Y24500000D03*
G04 #@! TD*
D12*
G04 #@! TO.C,C4*
X4624999Y11600000D03*
X6174999Y11600000D03*
G04 #@! TD*
G04 #@! TO.C,C24*
X4624999Y34800000D03*
X6174999Y34800000D03*
G04 #@! TD*
D10*
G04 #@! TO.C,R307*
X-27975000Y8400000D03*
X-29625000Y8400000D03*
G04 #@! TD*
G04 #@! TO.C,R311*
X-36275000Y12700000D03*
X-37925000Y12700000D03*
G04 #@! TD*
D11*
G04 #@! TO.C,R309*
X-42325000Y11100000D03*
X-40675000Y11100000D03*
G04 #@! TD*
G04 #@! TO.C,R208*
X-22325000Y48000000D03*
X-20675000Y48000000D03*
G04 #@! TD*
D13*
G04 #@! TO.C,C204*
X14775000Y46462000D03*
X13225000Y46462000D03*
G04 #@! TD*
D11*
G04 #@! TO.C,R302*
X25175000Y16000000D03*
X26825000Y16000000D03*
G04 #@! TD*
D12*
G04 #@! TO.C,C27*
X-6175000Y34800000D03*
X-4625000Y34800000D03*
G04 #@! TD*
D16*
G04 #@! TO.C,C29*
X-13550000Y34800000D03*
X-11650000Y34800000D03*
G04 #@! TD*
D11*
G04 #@! TO.C,R15*
X-25425000Y20600000D03*
X-23775000Y20600000D03*
G04 #@! TD*
G04 #@! TO.C,R9*
X17175000Y22500000D03*
X18825000Y22500000D03*
G04 #@! TD*
D10*
G04 #@! TO.C,R315*
X-41775000Y18300000D03*
X-43425000Y18300000D03*
G04 #@! TD*
D12*
G04 #@! TO.C,C25*
X1024999Y34800000D03*
X2574999Y34800000D03*
G04 #@! TD*
G04 #@! TO.C,C3*
X8225000Y11600000D03*
X9775000Y11600000D03*
G04 #@! TD*
G04 #@! TO.C,C38*
X-43275000Y34000000D03*
X-41725000Y34000000D03*
G04 #@! TD*
D10*
G04 #@! TO.C,R303*
X-27375000Y2000000D03*
X-29025000Y2000000D03*
G04 #@! TD*
D15*
G04 #@! TO.C,C201*
X39500000Y41513000D03*
X39500000Y43063000D03*
G04 #@! TD*
D11*
G04 #@! TO.C,R37*
X-16825000Y24500000D03*
X-15175000Y24500000D03*
G04 #@! TD*
G04 #@! TO.C,R14*
X16675000Y26500000D03*
X18325000Y26500000D03*
G04 #@! TD*
D12*
G04 #@! TO.C,C7*
X-6175000Y11600000D03*
X-4625000Y11600000D03*
G04 #@! TD*
G04 #@! TO.C,C26*
X-2575000Y34800000D03*
X-1025000Y34800000D03*
G04 #@! TD*
G04 #@! TO.C,C43*
X-46175000Y20500000D03*
X-44625000Y20500000D03*
G04 #@! TD*
D11*
G04 #@! TO.C,R305*
X-33825000Y2000000D03*
X-32175000Y2000000D03*
G04 #@! TD*
M02*
