G04 #@! TF.GenerationSoftware,KiCad,Pcbnew,10.0.6*
G04 #@! TF.CreationDate,2026-10-02T15:34:52-04:00*
G04 #@! TF.ProjectId,sn64-v2,736e3634-2d76-4322-9e6b-696361645f70,rev?*
G04 #@! TF.SameCoordinates,Original*
G04 #@! TF.FileFunction,Profile,NP*
%FSLAX46Y46*%
G04 Gerber Fmt 4.6, Leading zero omitted, Abs format (unit mm)*
G04 Created by KiCad (PCBNEW 10.0.6) date 2026-10-02 15:34:52*
%MOMM*%
%LPD*%
G01*
G04 APERTURE LIST*
G04 #@! TA.AperFunction,Profile*
%ADD10C,0.050000*%
G04 #@! TD*
G04 #@! TA.AperFunction,Profile*
%ADD11C,0.100000*%
G04 #@! TD*
G04 APERTURE END LIST*
D10*
X-55500000Y50000000D02*
X-44000000Y50000000D01*
X-55500000Y26400000D02*
X-55500000Y50000000D01*
X-50900000Y26400000D02*
X-55500000Y26400000D01*
D11*
X-50900000Y21900000D02*
X-49400000Y21900000D01*
X-50900000Y-6500000D02*
X-50900000Y21900000D01*
X-49400000Y24900000D02*
X-46900000Y24900000D01*
X-49400000Y21900000D02*
X-49400000Y24900000D01*
X-46900000Y26400000D02*
X-50900000Y26400000D01*
X-46900000Y24900000D02*
X-46900000Y26400000D01*
X-44100000Y0D02*
X-44100000Y-6500000D01*
X-44100000Y-6500000D02*
X-50900000Y-6500000D01*
D10*
X-44000000Y60000000D02*
X44000000Y60000000D01*
X-44000000Y50000000D02*
X-44000000Y60000000D01*
D11*
X-39550000Y0D02*
X-44100000Y0D01*
X-39550000Y-1500000D02*
X-39550000Y0D01*
X-37600000Y0D02*
X-37600000Y-1500000D01*
X-37600000Y-1500000D02*
X-39550000Y-1500000D01*
X-32250000Y0D02*
X-37600000Y0D01*
X-32250000Y-9500000D02*
X-32250000Y0D01*
X-31250000Y-10500000D02*
X-32250000Y-9500000D01*
X31250000Y-10500000D02*
X-31250000Y-10500000D01*
X32250000Y0D02*
X32250000Y-9500000D01*
X32250000Y-9500000D02*
X31250000Y-10500000D01*
X37600000Y0D02*
X32250000Y0D01*
X37600000Y-1500000D02*
X37600000Y0D01*
X39550000Y0D02*
X39550000Y-1500000D01*
X39550000Y-1500000D02*
X37600000Y-1500000D01*
D10*
X44000000Y60000000D02*
X44000000Y50000000D01*
X44000000Y50000000D02*
X55500000Y50000000D01*
D11*
X44100000Y0D02*
X39550000Y0D01*
X44100000Y-6500000D02*
X44100000Y0D01*
X46900000Y26400000D02*
X46900000Y24900000D01*
X46900000Y24900000D02*
X49400000Y24900000D01*
X49400000Y24900000D02*
X49400000Y21900000D01*
X49400000Y21900000D02*
X50900000Y21900000D01*
X50900000Y26400000D02*
X46900000Y26400000D01*
X50900000Y21900000D02*
X50900000Y-6500000D01*
X50900000Y-6500000D02*
X44100000Y-6500000D01*
D10*
X55500000Y50000000D02*
X55500000Y26400000D01*
X55500000Y26400000D02*
X50900000Y26400000D01*
M02*
