G04 #@! TF.GenerationSoftware,KiCad,Pcbnew,10.0.6*
G04 #@! TF.CreationDate,2026-10-04T08:55:02-04:00*
G04 #@! TF.ProjectId,sn64-v2,736e3634-2d76-4322-9e6b-696361645f70,rev?*
G04 #@! TF.SameCoordinates,Original*
G04 #@! TF.FileFunction,Soldermask,Bot*
G04 #@! TF.FilePolarity,Negative*
%FSLAX46Y46*%
G04 Gerber Fmt 4.6, Leading zero omitted, Abs format (unit mm)*
G04 Created by KiCad (PCBNEW 10.0.6) date 2026-10-04 08:55:02*
%MOMM*%
%LPD*%
G01*
G04 APERTURE LIST*
G04 APERTURE END LIST*
G36*
X32267507Y-3442251D02*
G01*
X32283999Y-3447094D01*
X32286687Y-3450196D01*
X32295962Y-3454038D01*
X32301406Y-3467182D01*
X32308464Y-3475327D01*
X32312538Y-3494057D01*
X32315000Y-3500000D01*
X32315000Y-9500000D01*
X32307745Y-9517513D01*
X32301570Y-9538545D01*
X32296351Y-9545020D01*
X32295962Y-9545962D01*
X31295962Y-10545962D01*
X31278458Y-10553212D01*
X31259213Y-10563721D01*
X31250940Y-10564610D01*
X31250000Y-10565000D01*
X31247316Y-10565000D01*
X-31242809Y-10565000D01*
X-31250000Y-10565000D01*
X-31267513Y-10557745D01*
X-31288545Y-10551570D01*
X-31295020Y-10546351D01*
X-31295962Y-10545962D01*
X-32295962Y-9545962D01*
X-32303212Y-9528458D01*
X-32313721Y-9509213D01*
X-32314610Y-9500940D01*
X-32315000Y-9500000D01*
X-32315000Y-3500000D01*
X-32307747Y-3482489D01*
X-32302905Y-3466000D01*
X-32299803Y-3463312D01*
X-32295962Y-3454038D01*
X-32282817Y-3448593D01*
X-32274672Y-3441535D01*
X-32255941Y-3437461D01*
X-32250000Y-3435000D01*
X32250000Y-3435000D01*
X32267507Y-3442251D01*
G37*
G36*
X-47109819Y-1288429D02*
G01*
X-46857121Y-1356140D01*
X-46615423Y-1456255D01*
X-46388860Y-1587061D01*
X-46181308Y-1746320D01*
X-45996320Y-1931308D01*
X-45837061Y-2138860D01*
X-45706255Y-2365423D01*
X-45606140Y-2607121D01*
X-45538429Y-2859819D01*
X-45504282Y-3119194D01*
X-45504282Y-3380806D01*
X-45538429Y-3640181D01*
X-45606140Y-3892879D01*
X-45706255Y-4134577D01*
X-45837061Y-4361140D01*
X-45996320Y-4568692D01*
X-46181308Y-4753680D01*
X-46388860Y-4912939D01*
X-46615423Y-5043745D01*
X-46857121Y-5143860D01*
X-47109819Y-5211571D01*
X-47369194Y-5245718D01*
X-47630806Y-5245718D01*
X-47890181Y-5211571D01*
X-48142879Y-5143860D01*
X-48384577Y-5043745D01*
X-48611140Y-4912939D01*
X-48818692Y-4753680D01*
X-49003680Y-4568692D01*
X-49162939Y-4361140D01*
X-49293745Y-4134577D01*
X-49393860Y-3892879D01*
X-49461571Y-3640181D01*
X-49495718Y-3380806D01*
X-49495718Y-3119194D01*
X-49461571Y-2859819D01*
X-49393860Y-2607121D01*
X-49293745Y-2365423D01*
X-49162939Y-2138860D01*
X-49003680Y-1931308D01*
X-48818692Y-1746320D01*
X-48611140Y-1587061D01*
X-48384577Y-1456255D01*
X-48142879Y-1356140D01*
X-47890181Y-1288429D01*
X-47630806Y-1254282D01*
X-47369194Y-1254282D01*
X-47109819Y-1288429D01*
G37*
G36*
X47890181Y-1288429D02*
G01*
X48142879Y-1356140D01*
X48384577Y-1456255D01*
X48611140Y-1587061D01*
X48818692Y-1746320D01*
X49003680Y-1931308D01*
X49162939Y-2138860D01*
X49293745Y-2365423D01*
X49393860Y-2607121D01*
X49461571Y-2859819D01*
X49495718Y-3119194D01*
X49495718Y-3380806D01*
X49461571Y-3640181D01*
X49393860Y-3892879D01*
X49293745Y-4134577D01*
X49162939Y-4361140D01*
X49003680Y-4568692D01*
X48818692Y-4753680D01*
X48611140Y-4912939D01*
X48384577Y-5043745D01*
X48142879Y-5143860D01*
X47890181Y-5211571D01*
X47630806Y-5245718D01*
X47369194Y-5245718D01*
X47109819Y-5211571D01*
X46857121Y-5143860D01*
X46615423Y-5043745D01*
X46388860Y-4912939D01*
X46181308Y-4753680D01*
X45996320Y-4568692D01*
X45837061Y-4361140D01*
X45706255Y-4134577D01*
X45606140Y-3892879D01*
X45538429Y-3640181D01*
X45504282Y-3380806D01*
X45504282Y-3119194D01*
X45538429Y-2859819D01*
X45606140Y-2607121D01*
X45706255Y-2365423D01*
X45837061Y-2138860D01*
X45996320Y-1931308D01*
X46181308Y-1746320D01*
X46388860Y-1587061D01*
X46615423Y-1456255D01*
X46857121Y-1356140D01*
X47109819Y-1288429D01*
X47369194Y-1254282D01*
X47630806Y-1254282D01*
X47890181Y-1288429D01*
G37*
G36*
X-33548463Y2459776D02*
G01*
X-33483579Y2416421D01*
X-33440224Y2351537D01*
X-33425000Y2275000D01*
X-33425000Y1725000D01*
X-33440224Y1648463D01*
X-33483579Y1583579D01*
X-33548463Y1540224D01*
X-33625000Y1525000D01*
X-33629923Y1525000D01*
X-34020077Y1525000D01*
X-34025000Y1525000D01*
X-34101537Y1540224D01*
X-34166421Y1583579D01*
X-34209776Y1648463D01*
X-34225000Y1725000D01*
X-34225000Y2275000D01*
X-34209776Y2351537D01*
X-34166421Y2416421D01*
X-34101537Y2459776D01*
X-34025000Y2475000D01*
X-33625000Y2475000D01*
X-33548463Y2459776D01*
G37*
G36*
X-31898463Y2459776D02*
G01*
X-31833579Y2416421D01*
X-31790224Y2351537D01*
X-31775000Y2275000D01*
X-31775000Y1725000D01*
X-31790224Y1648463D01*
X-31833579Y1583579D01*
X-31898463Y1540224D01*
X-31975000Y1525000D01*
X-31979923Y1525000D01*
X-32370077Y1525000D01*
X-32375000Y1525000D01*
X-32451537Y1540224D01*
X-32516421Y1583579D01*
X-32559776Y1648463D01*
X-32575000Y1725000D01*
X-32575000Y2275000D01*
X-32559776Y2351537D01*
X-32516421Y2416421D01*
X-32451537Y2459776D01*
X-32375000Y2475000D01*
X-31975000Y2475000D01*
X-31898463Y2459776D01*
G37*
G36*
X-28748463Y2459776D02*
G01*
X-28683579Y2416421D01*
X-28640224Y2351537D01*
X-28625000Y2275000D01*
X-28625000Y1725000D01*
X-28640224Y1648463D01*
X-28683579Y1583579D01*
X-28748463Y1540224D01*
X-28825000Y1525000D01*
X-28829923Y1525000D01*
X-29220077Y1525000D01*
X-29225000Y1525000D01*
X-29301537Y1540224D01*
X-29366421Y1583579D01*
X-29409776Y1648463D01*
X-29425000Y1725000D01*
X-29425000Y2275000D01*
X-29409776Y2351537D01*
X-29366421Y2416421D01*
X-29301537Y2459776D01*
X-29225000Y2475000D01*
X-28825000Y2475000D01*
X-28748463Y2459776D01*
G37*
G36*
X-27098463Y2459776D02*
G01*
X-27033579Y2416421D01*
X-26990224Y2351537D01*
X-26975000Y2275000D01*
X-26975000Y1725000D01*
X-26990224Y1648463D01*
X-27033579Y1583579D01*
X-27098463Y1540224D01*
X-27175000Y1525000D01*
X-27179923Y1525000D01*
X-27570077Y1525000D01*
X-27575000Y1525000D01*
X-27651537Y1540224D01*
X-27716421Y1583579D01*
X-27759776Y1648463D01*
X-27775000Y1725000D01*
X-27775000Y2275000D01*
X-27759776Y2351537D01*
X-27716421Y2416421D01*
X-27651537Y2459776D01*
X-27575000Y2475000D01*
X-27175000Y2475000D01*
X-27098463Y2459776D01*
G37*
G36*
X-33548463Y4059776D02*
G01*
X-33483579Y4016421D01*
X-33440224Y3951537D01*
X-33425000Y3875000D01*
X-33425000Y3325000D01*
X-33440224Y3248463D01*
X-33483579Y3183579D01*
X-33548463Y3140224D01*
X-33625000Y3125000D01*
X-33629923Y3125000D01*
X-34020077Y3125000D01*
X-34025000Y3125000D01*
X-34101537Y3140224D01*
X-34166421Y3183579D01*
X-34209776Y3248463D01*
X-34225000Y3325000D01*
X-34225000Y3875000D01*
X-34209776Y3951537D01*
X-34166421Y4016421D01*
X-34101537Y4059776D01*
X-34025000Y4075000D01*
X-33625000Y4075000D01*
X-33548463Y4059776D01*
G37*
G36*
X-31898463Y4059776D02*
G01*
X-31833579Y4016421D01*
X-31790224Y3951537D01*
X-31775000Y3875000D01*
X-31775000Y3325000D01*
X-31790224Y3248463D01*
X-31833579Y3183579D01*
X-31898463Y3140224D01*
X-31975000Y3125000D01*
X-31979923Y3125000D01*
X-32370077Y3125000D01*
X-32375000Y3125000D01*
X-32451537Y3140224D01*
X-32516421Y3183579D01*
X-32559776Y3248463D01*
X-32575000Y3325000D01*
X-32575000Y3875000D01*
X-32559776Y3951537D01*
X-32516421Y4016421D01*
X-32451537Y4059776D01*
X-32375000Y4075000D01*
X-31975000Y4075000D01*
X-31898463Y4059776D01*
G37*
G36*
X-28748463Y4059776D02*
G01*
X-28683579Y4016421D01*
X-28640224Y3951537D01*
X-28625000Y3875000D01*
X-28625000Y3325000D01*
X-28640224Y3248463D01*
X-28683579Y3183579D01*
X-28748463Y3140224D01*
X-28825000Y3125000D01*
X-28829923Y3125000D01*
X-29220077Y3125000D01*
X-29225000Y3125000D01*
X-29301537Y3140224D01*
X-29366421Y3183579D01*
X-29409776Y3248463D01*
X-29425000Y3325000D01*
X-29425000Y3875000D01*
X-29409776Y3951537D01*
X-29366421Y4016421D01*
X-29301537Y4059776D01*
X-29225000Y4075000D01*
X-28825000Y4075000D01*
X-28748463Y4059776D01*
G37*
G36*
X-27098463Y4059776D02*
G01*
X-27033579Y4016421D01*
X-26990224Y3951537D01*
X-26975000Y3875000D01*
X-26975000Y3325000D01*
X-26990224Y3248463D01*
X-27033579Y3183579D01*
X-27098463Y3140224D01*
X-27175000Y3125000D01*
X-27179923Y3125000D01*
X-27570077Y3125000D01*
X-27575000Y3125000D01*
X-27651537Y3140224D01*
X-27716421Y3183579D01*
X-27759776Y3248463D01*
X-27775000Y3325000D01*
X-27775000Y3875000D01*
X-27759776Y3951537D01*
X-27716421Y4016421D01*
X-27651537Y4059776D01*
X-27575000Y4075000D01*
X-27175000Y4075000D01*
X-27098463Y4059776D01*
G37*
G36*
X-47208193Y7715462D02*
G01*
X-47021646Y7654849D01*
X-46846877Y7565800D01*
X-46688190Y7450507D01*
X-46549493Y7311810D01*
X-46434200Y7153123D01*
X-46345151Y6978354D01*
X-46284538Y6791807D01*
X-46253853Y6598074D01*
X-46253853Y6401926D01*
X-46284538Y6208193D01*
X-46345151Y6021646D01*
X-46434200Y5846877D01*
X-46549493Y5688190D01*
X-46688190Y5549493D01*
X-46846877Y5434200D01*
X-47021646Y5345151D01*
X-47208193Y5284538D01*
X-47401926Y5253853D01*
X-47598074Y5253853D01*
X-47791807Y5284538D01*
X-47978354Y5345151D01*
X-48153123Y5434200D01*
X-48311810Y5549493D01*
X-48450507Y5688190D01*
X-48565800Y5846877D01*
X-48654849Y6021646D01*
X-48715462Y6208193D01*
X-48746147Y6401926D01*
X-48746147Y6598074D01*
X-48715462Y6791807D01*
X-48654849Y6978354D01*
X-48565800Y7153123D01*
X-48450507Y7311810D01*
X-48311810Y7450507D01*
X-48153123Y7565800D01*
X-47978354Y7654849D01*
X-47791807Y7715462D01*
X-47598074Y7746147D01*
X-47401926Y7746147D01*
X-47208193Y7715462D01*
G37*
G36*
X-28748463Y7159776D02*
G01*
X-28683579Y7116421D01*
X-28640224Y7051537D01*
X-28625000Y6975000D01*
X-28625000Y6425000D01*
X-28640224Y6348463D01*
X-28683579Y6283579D01*
X-28748463Y6240224D01*
X-28825000Y6225000D01*
X-28829923Y6225000D01*
X-29220077Y6225000D01*
X-29225000Y6225000D01*
X-29301537Y6240224D01*
X-29366421Y6283579D01*
X-29409776Y6348463D01*
X-29425000Y6425000D01*
X-29425000Y6975000D01*
X-29409776Y7051537D01*
X-29366421Y7116421D01*
X-29301537Y7159776D01*
X-29225000Y7175000D01*
X-28825000Y7175000D01*
X-28748463Y7159776D01*
G37*
G36*
X-27098463Y7159776D02*
G01*
X-27033579Y7116421D01*
X-26990224Y7051537D01*
X-26975000Y6975000D01*
X-26975000Y6425000D01*
X-26990224Y6348463D01*
X-27033579Y6283579D01*
X-27098463Y6240224D01*
X-27175000Y6225000D01*
X-27179923Y6225000D01*
X-27570077Y6225000D01*
X-27575000Y6225000D01*
X-27651537Y6240224D01*
X-27716421Y6283579D01*
X-27759776Y6348463D01*
X-27775000Y6425000D01*
X-27775000Y6975000D01*
X-27759776Y7051537D01*
X-27716421Y7116421D01*
X-27651537Y7159776D01*
X-27575000Y7175000D01*
X-27175000Y7175000D01*
X-27098463Y7159776D01*
G37*
G36*
X-32463896Y8857873D02*
G01*
X-32390901Y8809099D01*
X-32342127Y8736104D01*
X-32325000Y8650000D01*
X-32325000Y8150000D01*
X-32342127Y8063896D01*
X-32390901Y7990901D01*
X-32463896Y7942127D01*
X-32550000Y7925000D01*
X-32554923Y7925000D01*
X-32995077Y7925000D01*
X-33000000Y7925000D01*
X-33086104Y7942127D01*
X-33159099Y7990901D01*
X-33207873Y8063896D01*
X-33225000Y8150000D01*
X-33225000Y8650000D01*
X-33207873Y8736104D01*
X-33159099Y8809099D01*
X-33086104Y8857873D01*
X-33000000Y8875000D01*
X-32550000Y8875000D01*
X-32463896Y8857873D01*
G37*
G36*
X-30913896Y8857873D02*
G01*
X-30840901Y8809099D01*
X-30792127Y8736104D01*
X-30775000Y8650000D01*
X-30775000Y8150000D01*
X-30792127Y8063896D01*
X-30840901Y7990901D01*
X-30913896Y7942127D01*
X-31000000Y7925000D01*
X-31004923Y7925000D01*
X-31445077Y7925000D01*
X-31450000Y7925000D01*
X-31536104Y7942127D01*
X-31609099Y7990901D01*
X-31657873Y8063896D01*
X-31675000Y8150000D01*
X-31675000Y8650000D01*
X-31657873Y8736104D01*
X-31609099Y8809099D01*
X-31536104Y8857873D01*
X-31450000Y8875000D01*
X-31000000Y8875000D01*
X-30913896Y8857873D01*
G37*
G36*
X-29348463Y8859776D02*
G01*
X-29283579Y8816421D01*
X-29240224Y8751537D01*
X-29225000Y8675000D01*
X-29225000Y8125000D01*
X-29240224Y8048463D01*
X-29283579Y7983579D01*
X-29348463Y7940224D01*
X-29425000Y7925000D01*
X-29429923Y7925000D01*
X-29820077Y7925000D01*
X-29825000Y7925000D01*
X-29901537Y7940224D01*
X-29966421Y7983579D01*
X-30009776Y8048463D01*
X-30025000Y8125000D01*
X-30025000Y8675000D01*
X-30009776Y8751537D01*
X-29966421Y8816421D01*
X-29901537Y8859776D01*
X-29825000Y8875000D01*
X-29425000Y8875000D01*
X-29348463Y8859776D01*
G37*
G36*
X-27698463Y8859776D02*
G01*
X-27633579Y8816421D01*
X-27590224Y8751537D01*
X-27575000Y8675000D01*
X-27575000Y8125000D01*
X-27590224Y8048463D01*
X-27633579Y7983579D01*
X-27698463Y7940224D01*
X-27775000Y7925000D01*
X-27779923Y7925000D01*
X-28170077Y7925000D01*
X-28175000Y7925000D01*
X-28251537Y7940224D01*
X-28316421Y7983579D01*
X-28359776Y8048463D01*
X-28375000Y8125000D01*
X-28375000Y8675000D01*
X-28359776Y8751537D01*
X-28316421Y8816421D01*
X-28251537Y8859776D01*
X-28175000Y8875000D01*
X-27775000Y8875000D01*
X-27698463Y8859776D01*
G37*
G36*
X47791807Y10715462D02*
G01*
X47978354Y10654849D01*
X48153123Y10565800D01*
X48311810Y10450507D01*
X48450507Y10311810D01*
X48565800Y10153123D01*
X48654849Y9978354D01*
X48715462Y9791807D01*
X48746147Y9598074D01*
X48746147Y9401926D01*
X48715462Y9208193D01*
X48654849Y9021646D01*
X48565800Y8846877D01*
X48450507Y8688190D01*
X48311810Y8549493D01*
X48153123Y8434200D01*
X47978354Y8345151D01*
X47791807Y8284538D01*
X47598074Y8253853D01*
X47401926Y8253853D01*
X47208193Y8284538D01*
X47021646Y8345151D01*
X46846877Y8434200D01*
X46688190Y8549493D01*
X46549493Y8688190D01*
X46434200Y8846877D01*
X46345151Y9021646D01*
X46284538Y9208193D01*
X46253853Y9401926D01*
X46253853Y9598074D01*
X46284538Y9791807D01*
X46345151Y9978354D01*
X46434200Y10153123D01*
X46549493Y10311810D01*
X46688190Y10450507D01*
X46846877Y10565800D01*
X47021646Y10654849D01*
X47208193Y10715462D01*
X47401926Y10746147D01*
X47598074Y10746147D01*
X47791807Y10715462D01*
G37*
G36*
X-26163896Y9632873D02*
G01*
X-26090901Y9584099D01*
X-26042127Y9511104D01*
X-26025000Y9425000D01*
X-26025000Y8925000D01*
X-26042127Y8838896D01*
X-26090901Y8765901D01*
X-26163896Y8717127D01*
X-26250000Y8700000D01*
X-26254923Y8700000D01*
X-26695077Y8700000D01*
X-26700000Y8700000D01*
X-26786104Y8717127D01*
X-26859099Y8765901D01*
X-26907873Y8838896D01*
X-26925000Y8925000D01*
X-26925000Y9425000D01*
X-26907873Y9511104D01*
X-26859099Y9584099D01*
X-26786104Y9632873D01*
X-26700000Y9650000D01*
X-26250000Y9650000D01*
X-26163896Y9632873D01*
G37*
G36*
X-24613896Y9632873D02*
G01*
X-24540901Y9584099D01*
X-24492127Y9511104D01*
X-24475000Y9425000D01*
X-24475000Y8925000D01*
X-24492127Y8838896D01*
X-24540901Y8765901D01*
X-24613896Y8717127D01*
X-24700000Y8700000D01*
X-24704923Y8700000D01*
X-25145077Y8700000D01*
X-25150000Y8700000D01*
X-25236104Y8717127D01*
X-25309099Y8765901D01*
X-25357873Y8838896D01*
X-25375000Y8925000D01*
X-25375000Y9425000D01*
X-25357873Y9511104D01*
X-25309099Y9584099D01*
X-25236104Y9632873D01*
X-25150000Y9650000D01*
X-24700000Y9650000D01*
X-24613896Y9632873D01*
G37*
G36*
X-35648463Y11259776D02*
G01*
X-35583579Y11216421D01*
X-35540224Y11151537D01*
X-35525000Y11075000D01*
X-35525000Y10525000D01*
X-35540224Y10448463D01*
X-35583579Y10383579D01*
X-35648463Y10340224D01*
X-35725000Y10325000D01*
X-35729923Y10325000D01*
X-36120077Y10325000D01*
X-36125000Y10325000D01*
X-36201537Y10340224D01*
X-36266421Y10383579D01*
X-36309776Y10448463D01*
X-36325000Y10525000D01*
X-36325000Y11075000D01*
X-36309776Y11151537D01*
X-36266421Y11216421D01*
X-36201537Y11259776D01*
X-36125000Y11275000D01*
X-35725000Y11275000D01*
X-35648463Y11259776D01*
G37*
G36*
X-33998463Y11259776D02*
G01*
X-33933579Y11216421D01*
X-33890224Y11151537D01*
X-33875000Y11075000D01*
X-33875000Y10525000D01*
X-33890224Y10448463D01*
X-33933579Y10383579D01*
X-33998463Y10340224D01*
X-34075000Y10325000D01*
X-34079923Y10325000D01*
X-34470077Y10325000D01*
X-34475000Y10325000D01*
X-34551537Y10340224D01*
X-34616421Y10383579D01*
X-34659776Y10448463D01*
X-34675000Y10525000D01*
X-34675000Y11075000D01*
X-34659776Y11151537D01*
X-34616421Y11216421D01*
X-34551537Y11259776D01*
X-34475000Y11275000D01*
X-34075000Y11275000D01*
X-33998463Y11259776D01*
G37*
G36*
X-42048463Y11559776D02*
G01*
X-41983579Y11516421D01*
X-41940224Y11451537D01*
X-41925000Y11375000D01*
X-41925000Y10825000D01*
X-41940224Y10748463D01*
X-41983579Y10683579D01*
X-42048463Y10640224D01*
X-42125000Y10625000D01*
X-42129923Y10625000D01*
X-42520077Y10625000D01*
X-42525000Y10625000D01*
X-42601537Y10640224D01*
X-42666421Y10683579D01*
X-42709776Y10748463D01*
X-42725000Y10825000D01*
X-42725000Y11375000D01*
X-42709776Y11451537D01*
X-42666421Y11516421D01*
X-42601537Y11559776D01*
X-42525000Y11575000D01*
X-42125000Y11575000D01*
X-42048463Y11559776D01*
G37*
G36*
X-40398463Y11559776D02*
G01*
X-40333579Y11516421D01*
X-40290224Y11451537D01*
X-40275000Y11375000D01*
X-40275000Y10825000D01*
X-40290224Y10748463D01*
X-40333579Y10683579D01*
X-40398463Y10640224D01*
X-40475000Y10625000D01*
X-40479923Y10625000D01*
X-40870077Y10625000D01*
X-40875000Y10625000D01*
X-40951537Y10640224D01*
X-41016421Y10683579D01*
X-41059776Y10748463D01*
X-41075000Y10825000D01*
X-41075000Y11375000D01*
X-41059776Y11451537D01*
X-41016421Y11516421D01*
X-40951537Y11559776D01*
X-40875000Y11575000D01*
X-40475000Y11575000D01*
X-40398463Y11559776D01*
G37*
G36*
X-16895941Y12324192D02*
G01*
X-16844591Y12318235D01*
X-16827048Y12310489D01*
X-16804329Y12305970D01*
X-16780006Y12289718D01*
X-16759206Y12280534D01*
X-16744999Y12266327D01*
X-16723223Y12251777D01*
X-16708672Y12230000D01*
X-16694465Y12215793D01*
X-16685280Y12194991D01*
X-16669030Y12170671D01*
X-16664511Y12147954D01*
X-16656764Y12130408D01*
X-16650805Y12079049D01*
X-16650000Y12075000D01*
X-16650000Y11125000D01*
X-16650804Y11120953D01*
X-16656764Y11069591D01*
X-16664511Y11052043D01*
X-16669030Y11029329D01*
X-16685278Y11005010D01*
X-16694465Y10984206D01*
X-16708674Y10969996D01*
X-16723223Y10948223D01*
X-16744996Y10933674D01*
X-16759206Y10919465D01*
X-16780010Y10910278D01*
X-16804329Y10894030D01*
X-16827043Y10889511D01*
X-16844591Y10881764D01*
X-16895952Y10875805D01*
X-16900000Y10875000D01*
X-16902892Y10875000D01*
X-17397108Y10875000D01*
X-17400000Y10875000D01*
X-17404047Y10875805D01*
X-17455408Y10881764D01*
X-17472954Y10889511D01*
X-17495671Y10894030D01*
X-17519991Y10910280D01*
X-17540793Y10919465D01*
X-17555000Y10933672D01*
X-17576777Y10948223D01*
X-17591327Y10969999D01*
X-17605534Y10984206D01*
X-17614718Y11005006D01*
X-17630970Y11029329D01*
X-17635489Y11052048D01*
X-17643235Y11069591D01*
X-17649192Y11120940D01*
X-17650000Y11125000D01*
X-17650000Y12075000D01*
X-17649192Y12079059D01*
X-17643235Y12130408D01*
X-17635489Y12147950D01*
X-17630970Y12170671D01*
X-17614716Y12194995D01*
X-17605534Y12215793D01*
X-17591329Y12229997D01*
X-17576777Y12251777D01*
X-17554997Y12266329D01*
X-17540793Y12280534D01*
X-17519995Y12289716D01*
X-17495671Y12305970D01*
X-17472950Y12310489D01*
X-17455408Y12318235D01*
X-17404061Y12324192D01*
X-17400000Y12325000D01*
X-16900000Y12325000D01*
X-16895941Y12324192D01*
G37*
G36*
X-14995941Y12324192D02*
G01*
X-14944591Y12318235D01*
X-14927048Y12310489D01*
X-14904329Y12305970D01*
X-14880006Y12289718D01*
X-14859206Y12280534D01*
X-14844999Y12266327D01*
X-14823223Y12251777D01*
X-14808672Y12230000D01*
X-14794465Y12215793D01*
X-14785280Y12194991D01*
X-14769030Y12170671D01*
X-14764511Y12147954D01*
X-14756764Y12130408D01*
X-14750805Y12079049D01*
X-14750000Y12075000D01*
X-14750000Y11125000D01*
X-14750804Y11120953D01*
X-14756764Y11069591D01*
X-14764511Y11052043D01*
X-14769030Y11029329D01*
X-14785278Y11005010D01*
X-14794465Y10984206D01*
X-14808674Y10969996D01*
X-14823223Y10948223D01*
X-14844996Y10933674D01*
X-14859206Y10919465D01*
X-14880010Y10910278D01*
X-14904329Y10894030D01*
X-14927043Y10889511D01*
X-14944591Y10881764D01*
X-14995952Y10875805D01*
X-15000000Y10875000D01*
X-15002892Y10875000D01*
X-15497108Y10875000D01*
X-15500000Y10875000D01*
X-15504047Y10875805D01*
X-15555408Y10881764D01*
X-15572954Y10889511D01*
X-15595671Y10894030D01*
X-15619991Y10910280D01*
X-15640793Y10919465D01*
X-15655000Y10933672D01*
X-15676777Y10948223D01*
X-15691327Y10969999D01*
X-15705534Y10984206D01*
X-15714718Y11005006D01*
X-15730970Y11029329D01*
X-15735489Y11052048D01*
X-15743235Y11069591D01*
X-15749192Y11120940D01*
X-15750000Y11125000D01*
X-15750000Y12075000D01*
X-15749192Y12079059D01*
X-15743235Y12130408D01*
X-15735489Y12147950D01*
X-15730970Y12170671D01*
X-15714716Y12194995D01*
X-15705534Y12215793D01*
X-15691329Y12229997D01*
X-15676777Y12251777D01*
X-15654997Y12266329D01*
X-15640793Y12280534D01*
X-15619995Y12289716D01*
X-15595671Y12305970D01*
X-15572950Y12310489D01*
X-15555408Y12318235D01*
X-15504061Y12324192D01*
X-15500000Y12325000D01*
X-15000000Y12325000D01*
X-14995941Y12324192D01*
G37*
G36*
X-13295941Y12324192D02*
G01*
X-13244591Y12318235D01*
X-13227048Y12310489D01*
X-13204329Y12305970D01*
X-13180006Y12289718D01*
X-13159206Y12280534D01*
X-13144999Y12266327D01*
X-13123223Y12251777D01*
X-13108672Y12230000D01*
X-13094465Y12215793D01*
X-13085280Y12194991D01*
X-13069030Y12170671D01*
X-13064511Y12147954D01*
X-13056764Y12130408D01*
X-13050805Y12079049D01*
X-13050000Y12075000D01*
X-13050000Y11125000D01*
X-13050804Y11120953D01*
X-13056764Y11069591D01*
X-13064511Y11052043D01*
X-13069030Y11029329D01*
X-13085278Y11005010D01*
X-13094465Y10984206D01*
X-13108674Y10969996D01*
X-13123223Y10948223D01*
X-13144996Y10933674D01*
X-13159206Y10919465D01*
X-13180010Y10910278D01*
X-13204329Y10894030D01*
X-13227043Y10889511D01*
X-13244591Y10881764D01*
X-13295952Y10875805D01*
X-13300000Y10875000D01*
X-13302892Y10875000D01*
X-13797108Y10875000D01*
X-13800000Y10875000D01*
X-13804047Y10875805D01*
X-13855408Y10881764D01*
X-13872954Y10889511D01*
X-13895671Y10894030D01*
X-13919991Y10910280D01*
X-13940793Y10919465D01*
X-13955000Y10933672D01*
X-13976777Y10948223D01*
X-13991327Y10969999D01*
X-14005534Y10984206D01*
X-14014718Y11005006D01*
X-14030970Y11029329D01*
X-14035489Y11052048D01*
X-14043235Y11069591D01*
X-14049192Y11120940D01*
X-14050000Y11125000D01*
X-14050000Y12075000D01*
X-14049192Y12079059D01*
X-14043235Y12130408D01*
X-14035489Y12147950D01*
X-14030970Y12170671D01*
X-14014716Y12194995D01*
X-14005534Y12215793D01*
X-13991329Y12229997D01*
X-13976777Y12251777D01*
X-13954997Y12266329D01*
X-13940793Y12280534D01*
X-13919995Y12289716D01*
X-13895671Y12305970D01*
X-13872950Y12310489D01*
X-13855408Y12318235D01*
X-13804061Y12324192D01*
X-13800000Y12325000D01*
X-13300000Y12325000D01*
X-13295941Y12324192D01*
G37*
G36*
X-11395941Y12324192D02*
G01*
X-11344591Y12318235D01*
X-11327048Y12310489D01*
X-11304329Y12305970D01*
X-11280006Y12289718D01*
X-11259206Y12280534D01*
X-11244999Y12266327D01*
X-11223223Y12251777D01*
X-11208672Y12230000D01*
X-11194465Y12215793D01*
X-11185280Y12194991D01*
X-11169030Y12170671D01*
X-11164511Y12147954D01*
X-11156764Y12130408D01*
X-11150805Y12079049D01*
X-11150000Y12075000D01*
X-11150000Y11125000D01*
X-11150804Y11120953D01*
X-11156764Y11069591D01*
X-11164511Y11052043D01*
X-11169030Y11029329D01*
X-11185278Y11005010D01*
X-11194465Y10984206D01*
X-11208674Y10969996D01*
X-11223223Y10948223D01*
X-11244996Y10933674D01*
X-11259206Y10919465D01*
X-11280010Y10910278D01*
X-11304329Y10894030D01*
X-11327043Y10889511D01*
X-11344591Y10881764D01*
X-11395952Y10875805D01*
X-11400000Y10875000D01*
X-11402892Y10875000D01*
X-11897108Y10875000D01*
X-11900000Y10875000D01*
X-11904047Y10875805D01*
X-11955408Y10881764D01*
X-11972954Y10889511D01*
X-11995671Y10894030D01*
X-12019991Y10910280D01*
X-12040793Y10919465D01*
X-12055000Y10933672D01*
X-12076777Y10948223D01*
X-12091327Y10969999D01*
X-12105534Y10984206D01*
X-12114718Y11005006D01*
X-12130970Y11029329D01*
X-12135489Y11052048D01*
X-12143235Y11069591D01*
X-12149192Y11120940D01*
X-12150000Y11125000D01*
X-12150000Y12075000D01*
X-12149192Y12079059D01*
X-12143235Y12130408D01*
X-12135489Y12147950D01*
X-12130970Y12170671D01*
X-12114716Y12194995D01*
X-12105534Y12215793D01*
X-12091329Y12229997D01*
X-12076777Y12251777D01*
X-12054997Y12266329D01*
X-12040793Y12280534D01*
X-12019995Y12289716D01*
X-11995671Y12305970D01*
X-11972950Y12310489D01*
X-11955408Y12318235D01*
X-11904061Y12324192D01*
X-11900000Y12325000D01*
X-11400000Y12325000D01*
X-11395941Y12324192D01*
G37*
G36*
X-9463896Y12057873D02*
G01*
X-9390901Y12009099D01*
X-9342127Y11936104D01*
X-9325000Y11850000D01*
X-9325000Y11350000D01*
X-9342127Y11263896D01*
X-9390901Y11190901D01*
X-9463896Y11142127D01*
X-9550000Y11125000D01*
X-9554923Y11125000D01*
X-9995077Y11125000D01*
X-10000000Y11125000D01*
X-10086104Y11142127D01*
X-10159099Y11190901D01*
X-10207873Y11263896D01*
X-10225000Y11350000D01*
X-10225000Y11850000D01*
X-10207873Y11936104D01*
X-10159099Y12009099D01*
X-10086104Y12057873D01*
X-10000000Y12075000D01*
X-9550000Y12075000D01*
X-9463896Y12057873D01*
G37*
G36*
X-7913896Y12057873D02*
G01*
X-7840901Y12009099D01*
X-7792127Y11936104D01*
X-7775000Y11850000D01*
X-7775000Y11350000D01*
X-7792127Y11263896D01*
X-7840901Y11190901D01*
X-7913896Y11142127D01*
X-8000000Y11125000D01*
X-8004923Y11125000D01*
X-8445077Y11125000D01*
X-8450000Y11125000D01*
X-8536104Y11142127D01*
X-8609099Y11190901D01*
X-8657873Y11263896D01*
X-8675000Y11350000D01*
X-8675000Y11850000D01*
X-8657873Y11936104D01*
X-8609099Y12009099D01*
X-8536104Y12057873D01*
X-8450000Y12075000D01*
X-8000000Y12075000D01*
X-7913896Y12057873D01*
G37*
G36*
X-5863896Y12057873D02*
G01*
X-5790901Y12009099D01*
X-5742127Y11936104D01*
X-5725000Y11850000D01*
X-5725000Y11350000D01*
X-5742127Y11263896D01*
X-5790901Y11190901D01*
X-5863896Y11142127D01*
X-5950000Y11125000D01*
X-5954923Y11125000D01*
X-6395077Y11125000D01*
X-6400000Y11125000D01*
X-6486104Y11142127D01*
X-6559099Y11190901D01*
X-6607873Y11263896D01*
X-6625000Y11350000D01*
X-6625000Y11850000D01*
X-6607873Y11936104D01*
X-6559099Y12009099D01*
X-6486104Y12057873D01*
X-6400000Y12075000D01*
X-5950000Y12075000D01*
X-5863896Y12057873D01*
G37*
G36*
X-4313896Y12057873D02*
G01*
X-4240901Y12009099D01*
X-4192127Y11936104D01*
X-4175000Y11850000D01*
X-4175000Y11350000D01*
X-4192127Y11263896D01*
X-4240901Y11190901D01*
X-4313896Y11142127D01*
X-4400000Y11125000D01*
X-4404923Y11125000D01*
X-4845077Y11125000D01*
X-4850000Y11125000D01*
X-4936104Y11142127D01*
X-5009099Y11190901D01*
X-5057873Y11263896D01*
X-5075000Y11350000D01*
X-5075000Y11850000D01*
X-5057873Y11936104D01*
X-5009099Y12009099D01*
X-4936104Y12057873D01*
X-4850000Y12075000D01*
X-4400000Y12075000D01*
X-4313896Y12057873D01*
G37*
G36*
X-2263896Y12057873D02*
G01*
X-2190901Y12009099D01*
X-2142127Y11936104D01*
X-2125000Y11850000D01*
X-2125000Y11350000D01*
X-2142127Y11263896D01*
X-2190901Y11190901D01*
X-2263896Y11142127D01*
X-2350000Y11125000D01*
X-2354923Y11125000D01*
X-2795077Y11125000D01*
X-2800000Y11125000D01*
X-2886104Y11142127D01*
X-2959099Y11190901D01*
X-3007873Y11263896D01*
X-3025000Y11350000D01*
X-3025000Y11850000D01*
X-3007873Y11936104D01*
X-2959099Y12009099D01*
X-2886104Y12057873D01*
X-2800000Y12075000D01*
X-2350000Y12075000D01*
X-2263896Y12057873D01*
G37*
G36*
X-713896Y12057873D02*
G01*
X-640901Y12009099D01*
X-592127Y11936104D01*
X-575000Y11850000D01*
X-575000Y11350000D01*
X-592127Y11263896D01*
X-640901Y11190901D01*
X-713896Y11142127D01*
X-800000Y11125000D01*
X-804923Y11125000D01*
X-1245077Y11125000D01*
X-1250000Y11125000D01*
X-1336104Y11142127D01*
X-1409099Y11190901D01*
X-1457873Y11263896D01*
X-1475000Y11350000D01*
X-1475000Y11850000D01*
X-1457873Y11936104D01*
X-1409099Y12009099D01*
X-1336104Y12057873D01*
X-1250000Y12075000D01*
X-800000Y12075000D01*
X-713896Y12057873D01*
G37*
G36*
X1336103Y12057873D02*
G01*
X1409098Y12009099D01*
X1457872Y11936104D01*
X1474999Y11850000D01*
X1474999Y11350000D01*
X1457872Y11263896D01*
X1409098Y11190901D01*
X1336103Y11142127D01*
X1249999Y11125000D01*
X1245075Y11125000D01*
X804921Y11125000D01*
X799999Y11125000D01*
X713895Y11142127D01*
X640900Y11190901D01*
X592126Y11263896D01*
X574999Y11350000D01*
X574999Y11850000D01*
X592126Y11936104D01*
X640900Y12009099D01*
X713895Y12057873D01*
X799999Y12075000D01*
X1249999Y12075000D01*
X1336103Y12057873D01*
G37*
G36*
X2886103Y12057873D02*
G01*
X2959098Y12009099D01*
X3007872Y11936104D01*
X3024999Y11850000D01*
X3024999Y11350000D01*
X3007872Y11263896D01*
X2959098Y11190901D01*
X2886103Y11142127D01*
X2799999Y11125000D01*
X2795075Y11125000D01*
X2354921Y11125000D01*
X2349999Y11125000D01*
X2263895Y11142127D01*
X2190900Y11190901D01*
X2142126Y11263896D01*
X2124999Y11350000D01*
X2124999Y11850000D01*
X2142126Y11936104D01*
X2190900Y12009099D01*
X2263895Y12057873D01*
X2349999Y12075000D01*
X2799999Y12075000D01*
X2886103Y12057873D01*
G37*
G36*
X4936103Y12057873D02*
G01*
X5009098Y12009099D01*
X5057872Y11936104D01*
X5074999Y11850000D01*
X5074999Y11350000D01*
X5057872Y11263896D01*
X5009098Y11190901D01*
X4936103Y11142127D01*
X4849999Y11125000D01*
X4845075Y11125000D01*
X4404921Y11125000D01*
X4399999Y11125000D01*
X4313895Y11142127D01*
X4240900Y11190901D01*
X4192126Y11263896D01*
X4174999Y11350000D01*
X4174999Y11850000D01*
X4192126Y11936104D01*
X4240900Y12009099D01*
X4313895Y12057873D01*
X4399999Y12075000D01*
X4849999Y12075000D01*
X4936103Y12057873D01*
G37*
G36*
X6486103Y12057873D02*
G01*
X6559098Y12009099D01*
X6607872Y11936104D01*
X6624999Y11850000D01*
X6624999Y11350000D01*
X6607872Y11263896D01*
X6559098Y11190901D01*
X6486103Y11142127D01*
X6399999Y11125000D01*
X6395075Y11125000D01*
X5954921Y11125000D01*
X5949999Y11125000D01*
X5863895Y11142127D01*
X5790900Y11190901D01*
X5742126Y11263896D01*
X5724999Y11350000D01*
X5724999Y11850000D01*
X5742126Y11936104D01*
X5790900Y12009099D01*
X5863895Y12057873D01*
X5949999Y12075000D01*
X6399999Y12075000D01*
X6486103Y12057873D01*
G37*
G36*
X8536104Y12057873D02*
G01*
X8609099Y12009099D01*
X8657873Y11936104D01*
X8675000Y11850000D01*
X8675000Y11350000D01*
X8657873Y11263896D01*
X8609099Y11190901D01*
X8536104Y11142127D01*
X8450000Y11125000D01*
X8445076Y11125000D01*
X8004922Y11125000D01*
X8000000Y11125000D01*
X7913896Y11142127D01*
X7840901Y11190901D01*
X7792127Y11263896D01*
X7775000Y11350000D01*
X7775000Y11850000D01*
X7792127Y11936104D01*
X7840901Y12009099D01*
X7913896Y12057873D01*
X8000000Y12075000D01*
X8450000Y12075000D01*
X8536104Y12057873D01*
G37*
G36*
X10086104Y12057873D02*
G01*
X10159099Y12009099D01*
X10207873Y11936104D01*
X10225000Y11850000D01*
X10225000Y11350000D01*
X10207873Y11263896D01*
X10159099Y11190901D01*
X10086104Y11142127D01*
X10000000Y11125000D01*
X9995076Y11125000D01*
X9554922Y11125000D01*
X9550000Y11125000D01*
X9463896Y11142127D01*
X9390901Y11190901D01*
X9342127Y11263896D01*
X9325000Y11350000D01*
X9325000Y11850000D01*
X9342127Y11936104D01*
X9390901Y12009099D01*
X9463896Y12057873D01*
X9550000Y12075000D01*
X10000000Y12075000D01*
X10086104Y12057873D01*
G37*
G36*
X12136104Y12057873D02*
G01*
X12209099Y12009099D01*
X12257873Y11936104D01*
X12275000Y11850000D01*
X12275000Y11350000D01*
X12257873Y11263896D01*
X12209099Y11190901D01*
X12136104Y11142127D01*
X12050000Y11125000D01*
X12045076Y11125000D01*
X11604922Y11125000D01*
X11600000Y11125000D01*
X11513896Y11142127D01*
X11440901Y11190901D01*
X11392127Y11263896D01*
X11375000Y11350000D01*
X11375000Y11850000D01*
X11392127Y11936104D01*
X11440901Y12009099D01*
X11513896Y12057873D01*
X11600000Y12075000D01*
X12050000Y12075000D01*
X12136104Y12057873D01*
G37*
G36*
X13686104Y12057873D02*
G01*
X13759099Y12009099D01*
X13807873Y11936104D01*
X13825000Y11850000D01*
X13825000Y11350000D01*
X13807873Y11263896D01*
X13759099Y11190901D01*
X13686104Y11142127D01*
X13600000Y11125000D01*
X13595076Y11125000D01*
X13154922Y11125000D01*
X13150000Y11125000D01*
X13063896Y11142127D01*
X12990901Y11190901D01*
X12942127Y11263896D01*
X12925000Y11350000D01*
X12925000Y11850000D01*
X12942127Y11936104D01*
X12990901Y12009099D01*
X13063896Y12057873D01*
X13150000Y12075000D01*
X13600000Y12075000D01*
X13686104Y12057873D01*
G37*
G36*
X15736104Y12057873D02*
G01*
X15809099Y12009099D01*
X15857873Y11936104D01*
X15875000Y11850000D01*
X15875000Y11350000D01*
X15857873Y11263896D01*
X15809099Y11190901D01*
X15736104Y11142127D01*
X15650000Y11125000D01*
X15645076Y11125000D01*
X15204922Y11125000D01*
X15200000Y11125000D01*
X15113896Y11142127D01*
X15040901Y11190901D01*
X14992127Y11263896D01*
X14975000Y11350000D01*
X14975000Y11850000D01*
X14992127Y11936104D01*
X15040901Y12009099D01*
X15113896Y12057873D01*
X15200000Y12075000D01*
X15650000Y12075000D01*
X15736104Y12057873D01*
G37*
G36*
X17286104Y12057873D02*
G01*
X17359099Y12009099D01*
X17407873Y11936104D01*
X17425000Y11850000D01*
X17425000Y11350000D01*
X17407873Y11263896D01*
X17359099Y11190901D01*
X17286104Y11142127D01*
X17200000Y11125000D01*
X17195076Y11125000D01*
X16754922Y11125000D01*
X16750000Y11125000D01*
X16663896Y11142127D01*
X16590901Y11190901D01*
X16542127Y11263896D01*
X16525000Y11350000D01*
X16525000Y11850000D01*
X16542127Y11936104D01*
X16590901Y12009099D01*
X16663896Y12057873D01*
X16750000Y12075000D01*
X17200000Y12075000D01*
X17286104Y12057873D01*
G37*
G36*
X-42048463Y13159776D02*
G01*
X-41983579Y13116421D01*
X-41940224Y13051537D01*
X-41925000Y12975000D01*
X-41925000Y12425000D01*
X-41940224Y12348463D01*
X-41983579Y12283579D01*
X-42048463Y12240224D01*
X-42125000Y12225000D01*
X-42129923Y12225000D01*
X-42520077Y12225000D01*
X-42525000Y12225000D01*
X-42601537Y12240224D01*
X-42666421Y12283579D01*
X-42709776Y12348463D01*
X-42725000Y12425000D01*
X-42725000Y12975000D01*
X-42709776Y13051537D01*
X-42666421Y13116421D01*
X-42601537Y13159776D01*
X-42525000Y13175000D01*
X-42125000Y13175000D01*
X-42048463Y13159776D01*
G37*
G36*
X-40398463Y13159776D02*
G01*
X-40333579Y13116421D01*
X-40290224Y13051537D01*
X-40275000Y12975000D01*
X-40275000Y12425000D01*
X-40290224Y12348463D01*
X-40333579Y12283579D01*
X-40398463Y12240224D01*
X-40475000Y12225000D01*
X-40479923Y12225000D01*
X-40870077Y12225000D01*
X-40875000Y12225000D01*
X-40951537Y12240224D01*
X-41016421Y12283579D01*
X-41059776Y12348463D01*
X-41075000Y12425000D01*
X-41075000Y12975000D01*
X-41059776Y13051537D01*
X-41016421Y13116421D01*
X-40951537Y13159776D01*
X-40875000Y13175000D01*
X-40475000Y13175000D01*
X-40398463Y13159776D01*
G37*
G36*
X-37648463Y13159776D02*
G01*
X-37583579Y13116421D01*
X-37540224Y13051537D01*
X-37525000Y12975000D01*
X-37525000Y12425000D01*
X-37540224Y12348463D01*
X-37583579Y12283579D01*
X-37648463Y12240224D01*
X-37725000Y12225000D01*
X-37729923Y12225000D01*
X-38120077Y12225000D01*
X-38125000Y12225000D01*
X-38201537Y12240224D01*
X-38266421Y12283579D01*
X-38309776Y12348463D01*
X-38325000Y12425000D01*
X-38325000Y12975000D01*
X-38309776Y13051537D01*
X-38266421Y13116421D01*
X-38201537Y13159776D01*
X-38125000Y13175000D01*
X-37725000Y13175000D01*
X-37648463Y13159776D01*
G37*
G36*
X-35998463Y13159776D02*
G01*
X-35933579Y13116421D01*
X-35890224Y13051537D01*
X-35875000Y12975000D01*
X-35875000Y12425000D01*
X-35890224Y12348463D01*
X-35933579Y12283579D01*
X-35998463Y12240224D01*
X-36075000Y12225000D01*
X-36079923Y12225000D01*
X-36470077Y12225000D01*
X-36475000Y12225000D01*
X-36551537Y12240224D01*
X-36616421Y12283579D01*
X-36659776Y12348463D01*
X-36675000Y12425000D01*
X-36675000Y12975000D01*
X-36659776Y13051537D01*
X-36616421Y13116421D01*
X-36551537Y13159776D01*
X-36475000Y13175000D01*
X-36075000Y13175000D01*
X-35998463Y13159776D01*
G37*
G36*
X-20548463Y13459776D02*
G01*
X-20483579Y13416421D01*
X-20440224Y13351537D01*
X-20425000Y13275000D01*
X-20425000Y12725000D01*
X-20440224Y12648463D01*
X-20483579Y12583579D01*
X-20548463Y12540224D01*
X-20625000Y12525000D01*
X-20629923Y12525000D01*
X-21020077Y12525000D01*
X-21025000Y12525000D01*
X-21101537Y12540224D01*
X-21166421Y12583579D01*
X-21209776Y12648463D01*
X-21225000Y12725000D01*
X-21225000Y13275000D01*
X-21209776Y13351537D01*
X-21166421Y13416421D01*
X-21101537Y13459776D01*
X-21025000Y13475000D01*
X-20625000Y13475000D01*
X-20548463Y13459776D01*
G37*
G36*
X-18898463Y13459776D02*
G01*
X-18833579Y13416421D01*
X-18790224Y13351537D01*
X-18775000Y13275000D01*
X-18775000Y12725000D01*
X-18790224Y12648463D01*
X-18833579Y12583579D01*
X-18898463Y12540224D01*
X-18975000Y12525000D01*
X-18979923Y12525000D01*
X-19370077Y12525000D01*
X-19375000Y12525000D01*
X-19451537Y12540224D01*
X-19516421Y12583579D01*
X-19559776Y12648463D01*
X-19575000Y12725000D01*
X-19575000Y13275000D01*
X-19559776Y13351537D01*
X-19516421Y13416421D01*
X-19451537Y13459776D01*
X-19375000Y13475000D01*
X-18975000Y13475000D01*
X-18898463Y13459776D01*
G37*
G36*
X-15048463Y14459776D02*
G01*
X-14983579Y14416421D01*
X-14940224Y14351537D01*
X-14925000Y14275000D01*
X-14925000Y13725000D01*
X-14940224Y13648463D01*
X-14983579Y13583579D01*
X-15048463Y13540224D01*
X-15125000Y13525000D01*
X-15129923Y13525000D01*
X-15520077Y13525000D01*
X-15525000Y13525000D01*
X-15601537Y13540224D01*
X-15666421Y13583579D01*
X-15709776Y13648463D01*
X-15725000Y13725000D01*
X-15725000Y14275000D01*
X-15709776Y14351537D01*
X-15666421Y14416421D01*
X-15601537Y14459776D01*
X-15525000Y14475000D01*
X-15125000Y14475000D01*
X-15048463Y14459776D01*
G37*
G36*
X-13398463Y14459776D02*
G01*
X-13333579Y14416421D01*
X-13290224Y14351537D01*
X-13275000Y14275000D01*
X-13275000Y13725000D01*
X-13290224Y13648463D01*
X-13333579Y13583579D01*
X-13398463Y13540224D01*
X-13475000Y13525000D01*
X-13479923Y13525000D01*
X-13870077Y13525000D01*
X-13875000Y13525000D01*
X-13951537Y13540224D01*
X-14016421Y13583579D01*
X-14059776Y13648463D01*
X-14075000Y13725000D01*
X-14075000Y14275000D01*
X-14059776Y14351537D01*
X-14016421Y14416421D01*
X-13951537Y14459776D01*
X-13875000Y14475000D01*
X-13475000Y14475000D01*
X-13398463Y14459776D01*
G37*
G36*
X10514962Y14458349D02*
G01*
X10585930Y14410930D01*
X10633349Y14339962D01*
X10650000Y14256250D01*
X10650000Y13743750D01*
X10633349Y13660038D01*
X10585930Y13589070D01*
X10514962Y13541651D01*
X10431250Y13525000D01*
X10426326Y13525000D01*
X9998672Y13525000D01*
X9993750Y13525000D01*
X9910038Y13541651D01*
X9839070Y13589070D01*
X9791651Y13660038D01*
X9775000Y13743750D01*
X9775000Y14256250D01*
X9791651Y14339962D01*
X9839070Y14410930D01*
X9910038Y14458349D01*
X9993750Y14475000D01*
X10431250Y14475000D01*
X10514962Y14458349D01*
G37*
G36*
X12089962Y14458349D02*
G01*
X12160930Y14410930D01*
X12208349Y14339962D01*
X12225000Y14256250D01*
X12225000Y13743750D01*
X12208349Y13660038D01*
X12160930Y13589070D01*
X12089962Y13541651D01*
X12006250Y13525000D01*
X12001326Y13525000D01*
X11573672Y13525000D01*
X11568750Y13525000D01*
X11485038Y13541651D01*
X11414070Y13589070D01*
X11366651Y13660038D01*
X11350000Y13743750D01*
X11350000Y14256250D01*
X11366651Y14339962D01*
X11414070Y14410930D01*
X11485038Y14458349D01*
X11568750Y14475000D01*
X12006250Y14475000D01*
X12089962Y14458349D01*
G37*
G36*
X15250000Y13750000D02*
G01*
X15245075Y13750000D01*
X13754922Y13750000D01*
X13750000Y13750000D01*
X13750000Y15250000D01*
X15250000Y15250000D01*
X15250000Y13750000D01*
G37*
G36*
X-18548463Y15459776D02*
G01*
X-18483579Y15416421D01*
X-18440224Y15351537D01*
X-18425000Y15275000D01*
X-18425000Y14725000D01*
X-18440224Y14648463D01*
X-18483579Y14583579D01*
X-18548463Y14540224D01*
X-18625000Y14525000D01*
X-18629923Y14525000D01*
X-19020077Y14525000D01*
X-19025000Y14525000D01*
X-19101537Y14540224D01*
X-19166421Y14583579D01*
X-19209776Y14648463D01*
X-19225000Y14725000D01*
X-19225000Y15275000D01*
X-19209776Y15351537D01*
X-19166421Y15416421D01*
X-19101537Y15459776D01*
X-19025000Y15475000D01*
X-18625000Y15475000D01*
X-18548463Y15459776D01*
G37*
G36*
X-16898463Y15459776D02*
G01*
X-16833579Y15416421D01*
X-16790224Y15351537D01*
X-16775000Y15275000D01*
X-16775000Y14725000D01*
X-16790224Y14648463D01*
X-16833579Y14583579D01*
X-16898463Y14540224D01*
X-16975000Y14525000D01*
X-16979923Y14525000D01*
X-17370077Y14525000D01*
X-17375000Y14525000D01*
X-17451537Y14540224D01*
X-17516421Y14583579D01*
X-17559776Y14648463D01*
X-17575000Y14725000D01*
X-17575000Y15275000D01*
X-17559776Y15351537D01*
X-17516421Y15416421D01*
X-17451537Y15459776D01*
X-17375000Y15475000D01*
X-16975000Y15475000D01*
X-16898463Y15459776D01*
G37*
G36*
X-11548463Y15459776D02*
G01*
X-11483579Y15416421D01*
X-11440224Y15351537D01*
X-11425000Y15275000D01*
X-11425000Y14725000D01*
X-11440224Y14648463D01*
X-11483579Y14583579D01*
X-11548463Y14540224D01*
X-11625000Y14525000D01*
X-11629923Y14525000D01*
X-12020077Y14525000D01*
X-12025000Y14525000D01*
X-12101537Y14540224D01*
X-12166421Y14583579D01*
X-12209776Y14648463D01*
X-12225000Y14725000D01*
X-12225000Y15275000D01*
X-12209776Y15351537D01*
X-12166421Y15416421D01*
X-12101537Y15459776D01*
X-12025000Y15475000D01*
X-11625000Y15475000D01*
X-11548463Y15459776D01*
G37*
G36*
X-9898463Y15459776D02*
G01*
X-9833579Y15416421D01*
X-9790224Y15351537D01*
X-9775000Y15275000D01*
X-9775000Y14725000D01*
X-9790224Y14648463D01*
X-9833579Y14583579D01*
X-9898463Y14540224D01*
X-9975000Y14525000D01*
X-9979923Y14525000D01*
X-10370077Y14525000D01*
X-10375000Y14525000D01*
X-10451537Y14540224D01*
X-10516421Y14583579D01*
X-10559776Y14648463D01*
X-10575000Y14725000D01*
X-10575000Y15275000D01*
X-10559776Y15351537D01*
X-10516421Y15416421D01*
X-10451537Y15459776D01*
X-10375000Y15475000D01*
X-9975000Y15475000D01*
X-9898463Y15459776D01*
G37*
G36*
X-32648463Y16059776D02*
G01*
X-32583579Y16016421D01*
X-32540224Y15951537D01*
X-32525000Y15875000D01*
X-32525000Y15325000D01*
X-32540224Y15248463D01*
X-32583579Y15183579D01*
X-32648463Y15140224D01*
X-32725000Y15125000D01*
X-32729923Y15125000D01*
X-33120077Y15125000D01*
X-33125000Y15125000D01*
X-33201537Y15140224D01*
X-33266421Y15183579D01*
X-33309776Y15248463D01*
X-33325000Y15325000D01*
X-33325000Y15875000D01*
X-33309776Y15951537D01*
X-33266421Y16016421D01*
X-33201537Y16059776D01*
X-33125000Y16075000D01*
X-32725000Y16075000D01*
X-32648463Y16059776D01*
G37*
G36*
X-30998463Y16059776D02*
G01*
X-30933579Y16016421D01*
X-30890224Y15951537D01*
X-30875000Y15875000D01*
X-30875000Y15325000D01*
X-30890224Y15248463D01*
X-30933579Y15183579D01*
X-30998463Y15140224D01*
X-31075000Y15125000D01*
X-31079923Y15125000D01*
X-31470077Y15125000D01*
X-31475000Y15125000D01*
X-31551537Y15140224D01*
X-31616421Y15183579D01*
X-31659776Y15248463D01*
X-31675000Y15325000D01*
X-31675000Y15875000D01*
X-31659776Y15951537D01*
X-31616421Y16016421D01*
X-31551537Y16059776D01*
X-31475000Y16075000D01*
X-31075000Y16075000D01*
X-30998463Y16059776D01*
G37*
G36*
X-15048463Y16459776D02*
G01*
X-14983579Y16416421D01*
X-14940224Y16351537D01*
X-14925000Y16275000D01*
X-14925000Y15725000D01*
X-14940224Y15648463D01*
X-14983579Y15583579D01*
X-15048463Y15540224D01*
X-15125000Y15525000D01*
X-15129923Y15525000D01*
X-15520077Y15525000D01*
X-15525000Y15525000D01*
X-15601537Y15540224D01*
X-15666421Y15583579D01*
X-15709776Y15648463D01*
X-15725000Y15725000D01*
X-15725000Y16275000D01*
X-15709776Y16351537D01*
X-15666421Y16416421D01*
X-15601537Y16459776D01*
X-15525000Y16475000D01*
X-15125000Y16475000D01*
X-15048463Y16459776D01*
G37*
G36*
X-13398463Y16459776D02*
G01*
X-13333579Y16416421D01*
X-13290224Y16351537D01*
X-13275000Y16275000D01*
X-13275000Y15725000D01*
X-13290224Y15648463D01*
X-13333579Y15583579D01*
X-13398463Y15540224D01*
X-13475000Y15525000D01*
X-13479923Y15525000D01*
X-13870077Y15525000D01*
X-13875000Y15525000D01*
X-13951537Y15540224D01*
X-14016421Y15583579D01*
X-14059776Y15648463D01*
X-14075000Y15725000D01*
X-14075000Y16275000D01*
X-14059776Y16351537D01*
X-14016421Y16416421D01*
X-13951537Y16459776D01*
X-13875000Y16475000D01*
X-13475000Y16475000D01*
X-13398463Y16459776D01*
G37*
G36*
X10451537Y16459776D02*
G01*
X10516421Y16416421D01*
X10559776Y16351537D01*
X10575000Y16275000D01*
X10575000Y15725000D01*
X10559776Y15648463D01*
X10516421Y15583579D01*
X10451537Y15540224D01*
X10375000Y15525000D01*
X10370076Y15525000D01*
X9979922Y15525000D01*
X9975000Y15525000D01*
X9898463Y15540224D01*
X9833579Y15583579D01*
X9790224Y15648463D01*
X9775000Y15725000D01*
X9775000Y16275000D01*
X9790224Y16351537D01*
X9833579Y16416421D01*
X9898463Y16459776D01*
X9975000Y16475000D01*
X10375000Y16475000D01*
X10451537Y16459776D01*
G37*
G36*
X12101537Y16459776D02*
G01*
X12166421Y16416421D01*
X12209776Y16351537D01*
X12225000Y16275000D01*
X12225000Y15725000D01*
X12209776Y15648463D01*
X12166421Y15583579D01*
X12101537Y15540224D01*
X12025000Y15525000D01*
X12020076Y15525000D01*
X11629922Y15525000D01*
X11625000Y15525000D01*
X11548463Y15540224D01*
X11483579Y15583579D01*
X11440224Y15648463D01*
X11425000Y15725000D01*
X11425000Y16275000D01*
X11440224Y16351537D01*
X11483579Y16416421D01*
X11548463Y16459776D01*
X11625000Y16475000D01*
X12025000Y16475000D01*
X12101537Y16459776D01*
G37*
G36*
X25451537Y16459776D02*
G01*
X25516421Y16416421D01*
X25559776Y16351537D01*
X25575000Y16275000D01*
X25575000Y15725000D01*
X25559776Y15648463D01*
X25516421Y15583579D01*
X25451537Y15540224D01*
X25375000Y15525000D01*
X25370076Y15525000D01*
X24979922Y15525000D01*
X24975000Y15525000D01*
X24898463Y15540224D01*
X24833579Y15583579D01*
X24790224Y15648463D01*
X24775000Y15725000D01*
X24775000Y16275000D01*
X24790224Y16351537D01*
X24833579Y16416421D01*
X24898463Y16459776D01*
X24975000Y16475000D01*
X25375000Y16475000D01*
X25451537Y16459776D01*
G37*
G36*
X27101537Y16459776D02*
G01*
X27166421Y16416421D01*
X27209776Y16351537D01*
X27225000Y16275000D01*
X27225000Y15725000D01*
X27209776Y15648463D01*
X27166421Y15583579D01*
X27101537Y15540224D01*
X27025000Y15525000D01*
X27020076Y15525000D01*
X26629922Y15525000D01*
X26625000Y15525000D01*
X26548463Y15540224D01*
X26483579Y15583579D01*
X26440224Y15648463D01*
X26425000Y15725000D01*
X26425000Y16275000D01*
X26440224Y16351537D01*
X26483579Y16416421D01*
X26548463Y16459776D01*
X26625000Y16475000D01*
X27025000Y16475000D01*
X27101537Y16459776D01*
G37*
G36*
X-22048463Y16959776D02*
G01*
X-21983579Y16916421D01*
X-21940224Y16851537D01*
X-21925000Y16775000D01*
X-21925000Y16225000D01*
X-21940224Y16148463D01*
X-21983579Y16083579D01*
X-22048463Y16040224D01*
X-22125000Y16025000D01*
X-22129923Y16025000D01*
X-22520077Y16025000D01*
X-22525000Y16025000D01*
X-22601537Y16040224D01*
X-22666421Y16083579D01*
X-22709776Y16148463D01*
X-22725000Y16225000D01*
X-22725000Y16775000D01*
X-22709776Y16851537D01*
X-22666421Y16916421D01*
X-22601537Y16959776D01*
X-22525000Y16975000D01*
X-22125000Y16975000D01*
X-22048463Y16959776D01*
G37*
G36*
X-20398463Y16959776D02*
G01*
X-20333579Y16916421D01*
X-20290224Y16851537D01*
X-20275000Y16775000D01*
X-20275000Y16225000D01*
X-20290224Y16148463D01*
X-20333579Y16083579D01*
X-20398463Y16040224D01*
X-20475000Y16025000D01*
X-20479923Y16025000D01*
X-20870077Y16025000D01*
X-20875000Y16025000D01*
X-20951537Y16040224D01*
X-21016421Y16083579D01*
X-21059776Y16148463D01*
X-21075000Y16225000D01*
X-21075000Y16775000D01*
X-21059776Y16851537D01*
X-21016421Y16916421D01*
X-20951537Y16959776D01*
X-20875000Y16975000D01*
X-20475000Y16975000D01*
X-20398463Y16959776D01*
G37*
G36*
X-43063896Y17157873D02*
G01*
X-42990901Y17109099D01*
X-42942127Y17036104D01*
X-42925000Y16950000D01*
X-42925000Y16450000D01*
X-42942127Y16363896D01*
X-42990901Y16290901D01*
X-43063896Y16242127D01*
X-43150000Y16225000D01*
X-43154923Y16225000D01*
X-43595077Y16225000D01*
X-43600000Y16225000D01*
X-43686104Y16242127D01*
X-43759099Y16290901D01*
X-43807873Y16363896D01*
X-43825000Y16450000D01*
X-43825000Y16950000D01*
X-43807873Y17036104D01*
X-43759099Y17109099D01*
X-43686104Y17157873D01*
X-43600000Y17175000D01*
X-43150000Y17175000D01*
X-43063896Y17157873D01*
G37*
G36*
X-41513896Y17157873D02*
G01*
X-41440901Y17109099D01*
X-41392127Y17036104D01*
X-41375000Y16950000D01*
X-41375000Y16450000D01*
X-41392127Y16363896D01*
X-41440901Y16290901D01*
X-41513896Y16242127D01*
X-41600000Y16225000D01*
X-41604923Y16225000D01*
X-42045077Y16225000D01*
X-42050000Y16225000D01*
X-42136104Y16242127D01*
X-42209099Y16290901D01*
X-42257873Y16363896D01*
X-42275000Y16450000D01*
X-42275000Y16950000D01*
X-42257873Y17036104D01*
X-42209099Y17109099D01*
X-42136104Y17157873D01*
X-42050000Y17175000D01*
X-41600000Y17175000D01*
X-41513896Y17157873D01*
G37*
G36*
X-18548463Y17459776D02*
G01*
X-18483579Y17416421D01*
X-18440224Y17351537D01*
X-18425000Y17275000D01*
X-18425000Y16725000D01*
X-18440224Y16648463D01*
X-18483579Y16583579D01*
X-18548463Y16540224D01*
X-18625000Y16525000D01*
X-18629923Y16525000D01*
X-19020077Y16525000D01*
X-19025000Y16525000D01*
X-19101537Y16540224D01*
X-19166421Y16583579D01*
X-19209776Y16648463D01*
X-19225000Y16725000D01*
X-19225000Y17275000D01*
X-19209776Y17351537D01*
X-19166421Y17416421D01*
X-19101537Y17459776D01*
X-19025000Y17475000D01*
X-18625000Y17475000D01*
X-18548463Y17459776D01*
G37*
G36*
X-16898463Y17459776D02*
G01*
X-16833579Y17416421D01*
X-16790224Y17351537D01*
X-16775000Y17275000D01*
X-16775000Y16725000D01*
X-16790224Y16648463D01*
X-16833579Y16583579D01*
X-16898463Y16540224D01*
X-16975000Y16525000D01*
X-16979923Y16525000D01*
X-17370077Y16525000D01*
X-17375000Y16525000D01*
X-17451537Y16540224D01*
X-17516421Y16583579D01*
X-17559776Y16648463D01*
X-17575000Y16725000D01*
X-17575000Y17275000D01*
X-17559776Y17351537D01*
X-17516421Y17416421D01*
X-17451537Y17459776D01*
X-17375000Y17475000D01*
X-16975000Y17475000D01*
X-16898463Y17459776D01*
G37*
G36*
X13951537Y17459776D02*
G01*
X14016421Y17416421D01*
X14059776Y17351537D01*
X14075000Y17275000D01*
X14075000Y16725000D01*
X14059776Y16648463D01*
X14016421Y16583579D01*
X13951537Y16540224D01*
X13875000Y16525000D01*
X13870076Y16525000D01*
X13479922Y16525000D01*
X13475000Y16525000D01*
X13398463Y16540224D01*
X13333579Y16583579D01*
X13290224Y16648463D01*
X13275000Y16725000D01*
X13275000Y17275000D01*
X13290224Y17351537D01*
X13333579Y17416421D01*
X13398463Y17459776D01*
X13475000Y17475000D01*
X13875000Y17475000D01*
X13951537Y17459776D01*
G37*
G36*
X15601537Y17459776D02*
G01*
X15666421Y17416421D01*
X15709776Y17351537D01*
X15725000Y17275000D01*
X15725000Y16725000D01*
X15709776Y16648463D01*
X15666421Y16583579D01*
X15601537Y16540224D01*
X15525000Y16525000D01*
X15520076Y16525000D01*
X15129922Y16525000D01*
X15125000Y16525000D01*
X15048463Y16540224D01*
X14983579Y16583579D01*
X14940224Y16648463D01*
X14925000Y16725000D01*
X14925000Y17275000D01*
X14940224Y17351537D01*
X14983579Y17416421D01*
X15048463Y17459776D01*
X15125000Y17475000D01*
X15525000Y17475000D01*
X15601537Y17459776D01*
G37*
G36*
X-38448463Y17759776D02*
G01*
X-38383579Y17716421D01*
X-38340224Y17651537D01*
X-38325000Y17575000D01*
X-38325000Y17025000D01*
X-38340224Y16948463D01*
X-38383579Y16883579D01*
X-38448463Y16840224D01*
X-38525000Y16825000D01*
X-38529923Y16825000D01*
X-38920077Y16825000D01*
X-38925000Y16825000D01*
X-39001537Y16840224D01*
X-39066421Y16883579D01*
X-39109776Y16948463D01*
X-39125000Y17025000D01*
X-39125000Y17575000D01*
X-39109776Y17651537D01*
X-39066421Y17716421D01*
X-39001537Y17759776D01*
X-38925000Y17775000D01*
X-38525000Y17775000D01*
X-38448463Y17759776D01*
G37*
G36*
X-36798463Y17759776D02*
G01*
X-36733579Y17716421D01*
X-36690224Y17651537D01*
X-36675000Y17575000D01*
X-36675000Y17025000D01*
X-36690224Y16948463D01*
X-36733579Y16883579D01*
X-36798463Y16840224D01*
X-36875000Y16825000D01*
X-36879923Y16825000D01*
X-37270077Y16825000D01*
X-37275000Y16825000D01*
X-37351537Y16840224D01*
X-37416421Y16883579D01*
X-37459776Y16948463D01*
X-37475000Y17025000D01*
X-37475000Y17575000D01*
X-37459776Y17651537D01*
X-37416421Y17716421D01*
X-37351537Y17759776D01*
X-37275000Y17775000D01*
X-36875000Y17775000D01*
X-36798463Y17759776D01*
G37*
G36*
X-32648463Y17759776D02*
G01*
X-32583579Y17716421D01*
X-32540224Y17651537D01*
X-32525000Y17575000D01*
X-32525000Y17025000D01*
X-32540224Y16948463D01*
X-32583579Y16883579D01*
X-32648463Y16840224D01*
X-32725000Y16825000D01*
X-32729923Y16825000D01*
X-33120077Y16825000D01*
X-33125000Y16825000D01*
X-33201537Y16840224D01*
X-33266421Y16883579D01*
X-33309776Y16948463D01*
X-33325000Y17025000D01*
X-33325000Y17575000D01*
X-33309776Y17651537D01*
X-33266421Y17716421D01*
X-33201537Y17759776D01*
X-33125000Y17775000D01*
X-32725000Y17775000D01*
X-32648463Y17759776D01*
G37*
G36*
X-30998463Y17759776D02*
G01*
X-30933579Y17716421D01*
X-30890224Y17651537D01*
X-30875000Y17575000D01*
X-30875000Y17025000D01*
X-30890224Y16948463D01*
X-30933579Y16883579D01*
X-30998463Y16840224D01*
X-31075000Y16825000D01*
X-31079923Y16825000D01*
X-31470077Y16825000D01*
X-31475000Y16825000D01*
X-31551537Y16840224D01*
X-31616421Y16883579D01*
X-31659776Y16948463D01*
X-31675000Y17025000D01*
X-31675000Y17575000D01*
X-31659776Y17651537D01*
X-31616421Y17716421D01*
X-31551537Y17759776D01*
X-31475000Y17775000D01*
X-31075000Y17775000D01*
X-30998463Y17759776D01*
G37*
G36*
X23951537Y18459776D02*
G01*
X24016421Y18416421D01*
X24059776Y18351537D01*
X24075000Y18275000D01*
X24075000Y17725000D01*
X24059776Y17648463D01*
X24016421Y17583579D01*
X23951537Y17540224D01*
X23875000Y17525000D01*
X23870076Y17525000D01*
X23479922Y17525000D01*
X23475000Y17525000D01*
X23398463Y17540224D01*
X23333579Y17583579D01*
X23290224Y17648463D01*
X23275000Y17725000D01*
X23275000Y18275000D01*
X23290224Y18351537D01*
X23333579Y18416421D01*
X23398463Y18459776D01*
X23475000Y18475000D01*
X23875000Y18475000D01*
X23951537Y18459776D01*
G37*
G36*
X25601537Y18459776D02*
G01*
X25666421Y18416421D01*
X25709776Y18351537D01*
X25725000Y18275000D01*
X25725000Y17725000D01*
X25709776Y17648463D01*
X25666421Y17583579D01*
X25601537Y17540224D01*
X25525000Y17525000D01*
X25520076Y17525000D01*
X25129922Y17525000D01*
X25125000Y17525000D01*
X25048463Y17540224D01*
X24983579Y17583579D01*
X24940224Y17648463D01*
X24925000Y17725000D01*
X24925000Y18275000D01*
X24940224Y18351537D01*
X24983579Y18416421D01*
X25048463Y18459776D01*
X25125000Y18475000D01*
X25525000Y18475000D01*
X25601537Y18459776D01*
G37*
G36*
X-46348463Y18759776D02*
G01*
X-46283579Y18716421D01*
X-46240224Y18651537D01*
X-46225000Y18575000D01*
X-46225000Y18025000D01*
X-46240224Y17948463D01*
X-46283579Y17883579D01*
X-46348463Y17840224D01*
X-46425000Y17825000D01*
X-46429923Y17825000D01*
X-46820077Y17825000D01*
X-46825000Y17825000D01*
X-46901537Y17840224D01*
X-46966421Y17883579D01*
X-47009776Y17948463D01*
X-47025000Y18025000D01*
X-47025000Y18575000D01*
X-47009776Y18651537D01*
X-46966421Y18716421D01*
X-46901537Y18759776D01*
X-46825000Y18775000D01*
X-46425000Y18775000D01*
X-46348463Y18759776D01*
G37*
G36*
X-44698463Y18759776D02*
G01*
X-44633579Y18716421D01*
X-44590224Y18651537D01*
X-44575000Y18575000D01*
X-44575000Y18025000D01*
X-44590224Y17948463D01*
X-44633579Y17883579D01*
X-44698463Y17840224D01*
X-44775000Y17825000D01*
X-44779923Y17825000D01*
X-45170077Y17825000D01*
X-45175000Y17825000D01*
X-45251537Y17840224D01*
X-45316421Y17883579D01*
X-45359776Y17948463D01*
X-45375000Y18025000D01*
X-45375000Y18575000D01*
X-45359776Y18651537D01*
X-45316421Y18716421D01*
X-45251537Y18759776D01*
X-45175000Y18775000D01*
X-44775000Y18775000D01*
X-44698463Y18759776D01*
G37*
G36*
X-43148463Y18759776D02*
G01*
X-43083579Y18716421D01*
X-43040224Y18651537D01*
X-43025000Y18575000D01*
X-43025000Y18025000D01*
X-43040224Y17948463D01*
X-43083579Y17883579D01*
X-43148463Y17840224D01*
X-43225000Y17825000D01*
X-43229923Y17825000D01*
X-43620077Y17825000D01*
X-43625000Y17825000D01*
X-43701537Y17840224D01*
X-43766421Y17883579D01*
X-43809776Y17948463D01*
X-43825000Y18025000D01*
X-43825000Y18575000D01*
X-43809776Y18651537D01*
X-43766421Y18716421D01*
X-43701537Y18759776D01*
X-43625000Y18775000D01*
X-43225000Y18775000D01*
X-43148463Y18759776D01*
G37*
G36*
X-41498463Y18759776D02*
G01*
X-41433579Y18716421D01*
X-41390224Y18651537D01*
X-41375000Y18575000D01*
X-41375000Y18025000D01*
X-41390224Y17948463D01*
X-41433579Y17883579D01*
X-41498463Y17840224D01*
X-41575000Y17825000D01*
X-41579923Y17825000D01*
X-41970077Y17825000D01*
X-41975000Y17825000D01*
X-42051537Y17840224D01*
X-42116421Y17883579D01*
X-42159776Y17948463D01*
X-42175000Y18025000D01*
X-42175000Y18575000D01*
X-42159776Y18651537D01*
X-42116421Y18716421D01*
X-42051537Y18759776D01*
X-41975000Y18775000D01*
X-41575000Y18775000D01*
X-41498463Y18759776D01*
G37*
G36*
X-22048463Y18959776D02*
G01*
X-21983579Y18916421D01*
X-21940224Y18851537D01*
X-21925000Y18775000D01*
X-21925000Y18225000D01*
X-21940224Y18148463D01*
X-21983579Y18083579D01*
X-22048463Y18040224D01*
X-22125000Y18025000D01*
X-22129923Y18025000D01*
X-22520077Y18025000D01*
X-22525000Y18025000D01*
X-22601537Y18040224D01*
X-22666421Y18083579D01*
X-22709776Y18148463D01*
X-22725000Y18225000D01*
X-22725000Y18775000D01*
X-22709776Y18851537D01*
X-22666421Y18916421D01*
X-22601537Y18959776D01*
X-22525000Y18975000D01*
X-22125000Y18975000D01*
X-22048463Y18959776D01*
G37*
G36*
X-20398463Y18959776D02*
G01*
X-20333579Y18916421D01*
X-20290224Y18851537D01*
X-20275000Y18775000D01*
X-20275000Y18225000D01*
X-20290224Y18148463D01*
X-20333579Y18083579D01*
X-20398463Y18040224D01*
X-20475000Y18025000D01*
X-20479923Y18025000D01*
X-20870077Y18025000D01*
X-20875000Y18025000D01*
X-20951537Y18040224D01*
X-21016421Y18083579D01*
X-21059776Y18148463D01*
X-21075000Y18225000D01*
X-21075000Y18775000D01*
X-21059776Y18851537D01*
X-21016421Y18916421D01*
X-20951537Y18959776D01*
X-20875000Y18975000D01*
X-20475000Y18975000D01*
X-20398463Y18959776D01*
G37*
G36*
X-14963896Y18957873D02*
G01*
X-14890901Y18909099D01*
X-14842127Y18836104D01*
X-14825000Y18750000D01*
X-14825000Y18250000D01*
X-14842127Y18163896D01*
X-14890901Y18090901D01*
X-14963896Y18042127D01*
X-15050000Y18025000D01*
X-15054923Y18025000D01*
X-15495077Y18025000D01*
X-15500000Y18025000D01*
X-15586104Y18042127D01*
X-15659099Y18090901D01*
X-15707873Y18163896D01*
X-15725000Y18250000D01*
X-15725000Y18750000D01*
X-15707873Y18836104D01*
X-15659099Y18909099D01*
X-15586104Y18957873D01*
X-15500000Y18975000D01*
X-15050000Y18975000D01*
X-14963896Y18957873D01*
G37*
G36*
X-13413896Y18957873D02*
G01*
X-13340901Y18909099D01*
X-13292127Y18836104D01*
X-13275000Y18750000D01*
X-13275000Y18250000D01*
X-13292127Y18163896D01*
X-13340901Y18090901D01*
X-13413896Y18042127D01*
X-13500000Y18025000D01*
X-13504923Y18025000D01*
X-13945077Y18025000D01*
X-13950000Y18025000D01*
X-14036104Y18042127D01*
X-14109099Y18090901D01*
X-14157873Y18163896D01*
X-14175000Y18250000D01*
X-14175000Y18750000D01*
X-14157873Y18836104D01*
X-14109099Y18909099D01*
X-14036104Y18957873D01*
X-13950000Y18975000D01*
X-13500000Y18975000D01*
X-13413896Y18957873D01*
G37*
G36*
X28036104Y18957873D02*
G01*
X28109099Y18909099D01*
X28157873Y18836104D01*
X28175000Y18750000D01*
X28175000Y18250000D01*
X28157873Y18163896D01*
X28109099Y18090901D01*
X28036104Y18042127D01*
X27950000Y18025000D01*
X27945076Y18025000D01*
X27504922Y18025000D01*
X27500000Y18025000D01*
X27413896Y18042127D01*
X27340901Y18090901D01*
X27292127Y18163896D01*
X27275000Y18250000D01*
X27275000Y18750000D01*
X27292127Y18836104D01*
X27340901Y18909099D01*
X27413896Y18957873D01*
X27500000Y18975000D01*
X27950000Y18975000D01*
X28036104Y18957873D01*
G37*
G36*
X29586104Y18957873D02*
G01*
X29659099Y18909099D01*
X29707873Y18836104D01*
X29725000Y18750000D01*
X29725000Y18250000D01*
X29707873Y18163896D01*
X29659099Y18090901D01*
X29586104Y18042127D01*
X29500000Y18025000D01*
X29495076Y18025000D01*
X29054922Y18025000D01*
X29050000Y18025000D01*
X28963896Y18042127D01*
X28890901Y18090901D01*
X28842127Y18163896D01*
X28825000Y18250000D01*
X28825000Y18750000D01*
X28842127Y18836104D01*
X28890901Y18909099D01*
X28963896Y18957873D01*
X29050000Y18975000D01*
X29500000Y18975000D01*
X29586104Y18957873D01*
G37*
G36*
X-11463896Y19457873D02*
G01*
X-11390901Y19409099D01*
X-11342127Y19336104D01*
X-11325000Y19250000D01*
X-11325000Y18750000D01*
X-11342127Y18663896D01*
X-11390901Y18590901D01*
X-11463896Y18542127D01*
X-11550000Y18525000D01*
X-11554923Y18525000D01*
X-11995077Y18525000D01*
X-12000000Y18525000D01*
X-12086104Y18542127D01*
X-12159099Y18590901D01*
X-12207873Y18663896D01*
X-12225000Y18750000D01*
X-12225000Y19250000D01*
X-12207873Y19336104D01*
X-12159099Y19409099D01*
X-12086104Y19457873D01*
X-12000000Y19475000D01*
X-11550000Y19475000D01*
X-11463896Y19457873D01*
G37*
G36*
X-9913896Y19457873D02*
G01*
X-9840901Y19409099D01*
X-9792127Y19336104D01*
X-9775000Y19250000D01*
X-9775000Y18750000D01*
X-9792127Y18663896D01*
X-9840901Y18590901D01*
X-9913896Y18542127D01*
X-10000000Y18525000D01*
X-10004923Y18525000D01*
X-10445077Y18525000D01*
X-10450000Y18525000D01*
X-10536104Y18542127D01*
X-10609099Y18590901D01*
X-10657873Y18663896D01*
X-10675000Y18750000D01*
X-10675000Y19250000D01*
X-10657873Y19336104D01*
X-10609099Y19409099D01*
X-10536104Y19457873D01*
X-10450000Y19475000D01*
X-10000000Y19475000D01*
X-9913896Y19457873D01*
G37*
G36*
X10451537Y19459776D02*
G01*
X10516421Y19416421D01*
X10559776Y19351537D01*
X10575000Y19275000D01*
X10575000Y18725000D01*
X10559776Y18648463D01*
X10516421Y18583579D01*
X10451537Y18540224D01*
X10375000Y18525000D01*
X10370076Y18525000D01*
X9979922Y18525000D01*
X9975000Y18525000D01*
X9898463Y18540224D01*
X9833579Y18583579D01*
X9790224Y18648463D01*
X9775000Y18725000D01*
X9775000Y19275000D01*
X9790224Y19351537D01*
X9833579Y19416421D01*
X9898463Y19459776D01*
X9975000Y19475000D01*
X10375000Y19475000D01*
X10451537Y19459776D01*
G37*
G36*
X12101537Y19459776D02*
G01*
X12166421Y19416421D01*
X12209776Y19351537D01*
X12225000Y19275000D01*
X12225000Y18725000D01*
X12209776Y18648463D01*
X12166421Y18583579D01*
X12101537Y18540224D01*
X12025000Y18525000D01*
X12020076Y18525000D01*
X11629922Y18525000D01*
X11625000Y18525000D01*
X11548463Y18540224D01*
X11483579Y18583579D01*
X11440224Y18648463D01*
X11425000Y18725000D01*
X11425000Y19275000D01*
X11440224Y19351537D01*
X11483579Y19416421D01*
X11548463Y19459776D01*
X11625000Y19475000D01*
X12025000Y19475000D01*
X12101537Y19459776D01*
G37*
G36*
X13951537Y19959776D02*
G01*
X14016421Y19916421D01*
X14059776Y19851537D01*
X14075000Y19775000D01*
X14075000Y19225000D01*
X14059776Y19148463D01*
X14016421Y19083579D01*
X13951537Y19040224D01*
X13875000Y19025000D01*
X13870076Y19025000D01*
X13479922Y19025000D01*
X13475000Y19025000D01*
X13398463Y19040224D01*
X13333579Y19083579D01*
X13290224Y19148463D01*
X13275000Y19225000D01*
X13275000Y19775000D01*
X13290224Y19851537D01*
X13333579Y19916421D01*
X13398463Y19959776D01*
X13475000Y19975000D01*
X13875000Y19975000D01*
X13951537Y19959776D01*
G37*
G36*
X15601537Y19959776D02*
G01*
X15666421Y19916421D01*
X15709776Y19851537D01*
X15725000Y19775000D01*
X15725000Y19225000D01*
X15709776Y19148463D01*
X15666421Y19083579D01*
X15601537Y19040224D01*
X15525000Y19025000D01*
X15520076Y19025000D01*
X15129922Y19025000D01*
X15125000Y19025000D01*
X15048463Y19040224D01*
X14983579Y19083579D01*
X14940224Y19148463D01*
X14925000Y19225000D01*
X14925000Y19775000D01*
X14940224Y19851537D01*
X14983579Y19916421D01*
X15048463Y19959776D01*
X15125000Y19975000D01*
X15525000Y19975000D01*
X15601537Y19959776D01*
G37*
G36*
X-45863896Y20957873D02*
G01*
X-45790901Y20909099D01*
X-45742127Y20836104D01*
X-45725000Y20750000D01*
X-45725000Y20250000D01*
X-45742127Y20163896D01*
X-45790901Y20090901D01*
X-45863896Y20042127D01*
X-45950000Y20025000D01*
X-45954923Y20025000D01*
X-46395077Y20025000D01*
X-46400000Y20025000D01*
X-46486104Y20042127D01*
X-46559099Y20090901D01*
X-46607873Y20163896D01*
X-46625000Y20250000D01*
X-46625000Y20750000D01*
X-46607873Y20836104D01*
X-46559099Y20909099D01*
X-46486104Y20957873D01*
X-46400000Y20975000D01*
X-45950000Y20975000D01*
X-45863896Y20957873D01*
G37*
G36*
X-44313896Y20957873D02*
G01*
X-44240901Y20909099D01*
X-44192127Y20836104D01*
X-44175000Y20750000D01*
X-44175000Y20250000D01*
X-44192127Y20163896D01*
X-44240901Y20090901D01*
X-44313896Y20042127D01*
X-44400000Y20025000D01*
X-44404923Y20025000D01*
X-44845077Y20025000D01*
X-44850000Y20025000D01*
X-44936104Y20042127D01*
X-45009099Y20090901D01*
X-45057873Y20163896D01*
X-45075000Y20250000D01*
X-45075000Y20750000D01*
X-45057873Y20836104D01*
X-45009099Y20909099D01*
X-44936104Y20957873D01*
X-44850000Y20975000D01*
X-44400000Y20975000D01*
X-44313896Y20957873D01*
G37*
G36*
X-42448463Y20959776D02*
G01*
X-42383579Y20916421D01*
X-42340224Y20851537D01*
X-42325000Y20775000D01*
X-42325000Y20225000D01*
X-42340224Y20148463D01*
X-42383579Y20083579D01*
X-42448463Y20040224D01*
X-42525000Y20025000D01*
X-42529923Y20025000D01*
X-42920077Y20025000D01*
X-42925000Y20025000D01*
X-43001537Y20040224D01*
X-43066421Y20083579D01*
X-43109776Y20148463D01*
X-43125000Y20225000D01*
X-43125000Y20775000D01*
X-43109776Y20851537D01*
X-43066421Y20916421D01*
X-43001537Y20959776D01*
X-42925000Y20975000D01*
X-42525000Y20975000D01*
X-42448463Y20959776D01*
G37*
G36*
X-40798463Y20959776D02*
G01*
X-40733579Y20916421D01*
X-40690224Y20851537D01*
X-40675000Y20775000D01*
X-40675000Y20225000D01*
X-40690224Y20148463D01*
X-40733579Y20083579D01*
X-40798463Y20040224D01*
X-40875000Y20025000D01*
X-40879923Y20025000D01*
X-41270077Y20025000D01*
X-41275000Y20025000D01*
X-41351537Y20040224D01*
X-41416421Y20083579D01*
X-41459776Y20148463D01*
X-41475000Y20225000D01*
X-41475000Y20775000D01*
X-41459776Y20851537D01*
X-41416421Y20916421D01*
X-41351537Y20959776D01*
X-41275000Y20975000D01*
X-40875000Y20975000D01*
X-40798463Y20959776D01*
G37*
G36*
X25451537Y20959776D02*
G01*
X25516421Y20916421D01*
X25559776Y20851537D01*
X25575000Y20775000D01*
X25575000Y20225000D01*
X25559776Y20148463D01*
X25516421Y20083579D01*
X25451537Y20040224D01*
X25375000Y20025000D01*
X25370076Y20025000D01*
X24979922Y20025000D01*
X24975000Y20025000D01*
X24898463Y20040224D01*
X24833579Y20083579D01*
X24790224Y20148463D01*
X24775000Y20225000D01*
X24775000Y20775000D01*
X24790224Y20851537D01*
X24833579Y20916421D01*
X24898463Y20959776D01*
X24975000Y20975000D01*
X25375000Y20975000D01*
X25451537Y20959776D01*
G37*
G36*
X27101537Y20959776D02*
G01*
X27166421Y20916421D01*
X27209776Y20851537D01*
X27225000Y20775000D01*
X27225000Y20225000D01*
X27209776Y20148463D01*
X27166421Y20083579D01*
X27101537Y20040224D01*
X27025000Y20025000D01*
X27020076Y20025000D01*
X26629922Y20025000D01*
X26625000Y20025000D01*
X26548463Y20040224D01*
X26483579Y20083579D01*
X26440224Y20148463D01*
X26425000Y20225000D01*
X26425000Y20775000D01*
X26440224Y20851537D01*
X26483579Y20916421D01*
X26548463Y20959776D01*
X26625000Y20975000D01*
X27025000Y20975000D01*
X27101537Y20959776D01*
G37*
G36*
X-25148463Y21059776D02*
G01*
X-25083579Y21016421D01*
X-25040224Y20951537D01*
X-25025000Y20875000D01*
X-25025000Y20325000D01*
X-25040224Y20248463D01*
X-25083579Y20183579D01*
X-25148463Y20140224D01*
X-25225000Y20125000D01*
X-25229923Y20125000D01*
X-25620077Y20125000D01*
X-25625000Y20125000D01*
X-25701537Y20140224D01*
X-25766421Y20183579D01*
X-25809776Y20248463D01*
X-25825000Y20325000D01*
X-25825000Y20875000D01*
X-25809776Y20951537D01*
X-25766421Y21016421D01*
X-25701537Y21059776D01*
X-25625000Y21075000D01*
X-25225000Y21075000D01*
X-25148463Y21059776D01*
G37*
G36*
X-23498463Y21059776D02*
G01*
X-23433579Y21016421D01*
X-23390224Y20951537D01*
X-23375000Y20875000D01*
X-23375000Y20325000D01*
X-23390224Y20248463D01*
X-23433579Y20183579D01*
X-23498463Y20140224D01*
X-23575000Y20125000D01*
X-23579923Y20125000D01*
X-23970077Y20125000D01*
X-23975000Y20125000D01*
X-24051537Y20140224D01*
X-24116421Y20183579D01*
X-24159776Y20248463D01*
X-24175000Y20325000D01*
X-24175000Y20875000D01*
X-24159776Y20951537D01*
X-24116421Y21016421D01*
X-24051537Y21059776D01*
X-23975000Y21075000D01*
X-23575000Y21075000D01*
X-23498463Y21059776D01*
G37*
G36*
X10451537Y21459776D02*
G01*
X10516421Y21416421D01*
X10559776Y21351537D01*
X10575000Y21275000D01*
X10575000Y20725000D01*
X10559776Y20648463D01*
X10516421Y20583579D01*
X10451537Y20540224D01*
X10375000Y20525000D01*
X10370076Y20525000D01*
X9979922Y20525000D01*
X9975000Y20525000D01*
X9898463Y20540224D01*
X9833579Y20583579D01*
X9790224Y20648463D01*
X9775000Y20725000D01*
X9775000Y21275000D01*
X9790224Y21351537D01*
X9833579Y21416421D01*
X9898463Y21459776D01*
X9975000Y21475000D01*
X10375000Y21475000D01*
X10451537Y21459776D01*
G37*
G36*
X12101537Y21459776D02*
G01*
X12166421Y21416421D01*
X12209776Y21351537D01*
X12225000Y21275000D01*
X12225000Y20725000D01*
X12209776Y20648463D01*
X12166421Y20583579D01*
X12101537Y20540224D01*
X12025000Y20525000D01*
X12020076Y20525000D01*
X11629922Y20525000D01*
X11625000Y20525000D01*
X11548463Y20540224D01*
X11483579Y20583579D01*
X11440224Y20648463D01*
X11425000Y20725000D01*
X11425000Y21275000D01*
X11440224Y21351537D01*
X11483579Y21416421D01*
X11548463Y21459776D01*
X11625000Y21475000D01*
X12025000Y21475000D01*
X12101537Y21459776D01*
G37*
G36*
X-11463896Y21957873D02*
G01*
X-11390901Y21909099D01*
X-11342127Y21836104D01*
X-11325000Y21750000D01*
X-11325000Y21250000D01*
X-11342127Y21163896D01*
X-11390901Y21090901D01*
X-11463896Y21042127D01*
X-11550000Y21025000D01*
X-11554923Y21025000D01*
X-11995077Y21025000D01*
X-12000000Y21025000D01*
X-12086104Y21042127D01*
X-12159099Y21090901D01*
X-12207873Y21163896D01*
X-12225000Y21250000D01*
X-12225000Y21750000D01*
X-12207873Y21836104D01*
X-12159099Y21909099D01*
X-12086104Y21957873D01*
X-12000000Y21975000D01*
X-11550000Y21975000D01*
X-11463896Y21957873D01*
G37*
G36*
X-9913896Y21957873D02*
G01*
X-9840901Y21909099D01*
X-9792127Y21836104D01*
X-9775000Y21750000D01*
X-9775000Y21250000D01*
X-9792127Y21163896D01*
X-9840901Y21090901D01*
X-9913896Y21042127D01*
X-10000000Y21025000D01*
X-10004923Y21025000D01*
X-10445077Y21025000D01*
X-10450000Y21025000D01*
X-10536104Y21042127D01*
X-10609099Y21090901D01*
X-10657873Y21163896D01*
X-10675000Y21250000D01*
X-10675000Y21750000D01*
X-10657873Y21836104D01*
X-10609099Y21909099D01*
X-10536104Y21957873D01*
X-10450000Y21975000D01*
X-10000000Y21975000D01*
X-9913896Y21957873D01*
G37*
G36*
X13951537Y21959776D02*
G01*
X14016421Y21916421D01*
X14059776Y21851537D01*
X14075000Y21775000D01*
X14075000Y21225000D01*
X14059776Y21148463D01*
X14016421Y21083579D01*
X13951537Y21040224D01*
X13875000Y21025000D01*
X13870076Y21025000D01*
X13479922Y21025000D01*
X13475000Y21025000D01*
X13398463Y21040224D01*
X13333579Y21083579D01*
X13290224Y21148463D01*
X13275000Y21225000D01*
X13275000Y21775000D01*
X13290224Y21851537D01*
X13333579Y21916421D01*
X13398463Y21959776D01*
X13475000Y21975000D01*
X13875000Y21975000D01*
X13951537Y21959776D01*
G37*
G36*
X15601537Y21959776D02*
G01*
X15666421Y21916421D01*
X15709776Y21851537D01*
X15725000Y21775000D01*
X15725000Y21225000D01*
X15709776Y21148463D01*
X15666421Y21083579D01*
X15601537Y21040224D01*
X15525000Y21025000D01*
X15520076Y21025000D01*
X15129922Y21025000D01*
X15125000Y21025000D01*
X15048463Y21040224D01*
X14983579Y21083579D01*
X14940224Y21148463D01*
X14925000Y21225000D01*
X14925000Y21775000D01*
X14940224Y21851537D01*
X14983579Y21916421D01*
X15048463Y21959776D01*
X15125000Y21975000D01*
X15525000Y21975000D01*
X15601537Y21959776D01*
G37*
G36*
X-25148463Y22659776D02*
G01*
X-25083579Y22616421D01*
X-25040224Y22551537D01*
X-25025000Y22475000D01*
X-25025000Y21925000D01*
X-25040224Y21848463D01*
X-25083579Y21783579D01*
X-25148463Y21740224D01*
X-25225000Y21725000D01*
X-25229923Y21725000D01*
X-25620077Y21725000D01*
X-25625000Y21725000D01*
X-25701537Y21740224D01*
X-25766421Y21783579D01*
X-25809776Y21848463D01*
X-25825000Y21925000D01*
X-25825000Y22475000D01*
X-25809776Y22551537D01*
X-25766421Y22616421D01*
X-25701537Y22659776D01*
X-25625000Y22675000D01*
X-25225000Y22675000D01*
X-25148463Y22659776D01*
G37*
G36*
X-23498463Y22659776D02*
G01*
X-23433579Y22616421D01*
X-23390224Y22551537D01*
X-23375000Y22475000D01*
X-23375000Y21925000D01*
X-23390224Y21848463D01*
X-23433579Y21783579D01*
X-23498463Y21740224D01*
X-23575000Y21725000D01*
X-23579923Y21725000D01*
X-23970077Y21725000D01*
X-23975000Y21725000D01*
X-24051537Y21740224D01*
X-24116421Y21783579D01*
X-24159776Y21848463D01*
X-24175000Y21925000D01*
X-24175000Y22475000D01*
X-24159776Y22551537D01*
X-24116421Y22616421D01*
X-24051537Y22659776D01*
X-23975000Y22675000D01*
X-23575000Y22675000D01*
X-23498463Y22659776D01*
G37*
G36*
X-33463896Y22857873D02*
G01*
X-33390901Y22809099D01*
X-33342127Y22736104D01*
X-33325000Y22650000D01*
X-33325000Y22150000D01*
X-33342127Y22063896D01*
X-33390901Y21990901D01*
X-33463896Y21942127D01*
X-33550000Y21925000D01*
X-33554923Y21925000D01*
X-33995077Y21925000D01*
X-34000000Y21925000D01*
X-34086104Y21942127D01*
X-34159099Y21990901D01*
X-34207873Y22063896D01*
X-34225000Y22150000D01*
X-34225000Y22650000D01*
X-34207873Y22736104D01*
X-34159099Y22809099D01*
X-34086104Y22857873D01*
X-34000000Y22875000D01*
X-33550000Y22875000D01*
X-33463896Y22857873D01*
G37*
G36*
X-31913896Y22857873D02*
G01*
X-31840901Y22809099D01*
X-31792127Y22736104D01*
X-31775000Y22650000D01*
X-31775000Y22150000D01*
X-31792127Y22063896D01*
X-31840901Y21990901D01*
X-31913896Y21942127D01*
X-32000000Y21925000D01*
X-32004923Y21925000D01*
X-32445077Y21925000D01*
X-32450000Y21925000D01*
X-32536104Y21942127D01*
X-32609099Y21990901D01*
X-32657873Y22063896D01*
X-32675000Y22150000D01*
X-32675000Y22650000D01*
X-32657873Y22736104D01*
X-32609099Y22809099D01*
X-32536104Y22857873D01*
X-32450000Y22875000D01*
X-32000000Y22875000D01*
X-31913896Y22857873D01*
G37*
G36*
X-19463896Y22957873D02*
G01*
X-19390901Y22909099D01*
X-19342127Y22836104D01*
X-19325000Y22750000D01*
X-19325000Y22250000D01*
X-19342127Y22163896D01*
X-19390901Y22090901D01*
X-19463896Y22042127D01*
X-19550000Y22025000D01*
X-19554923Y22025000D01*
X-19995077Y22025000D01*
X-20000000Y22025000D01*
X-20086104Y22042127D01*
X-20159099Y22090901D01*
X-20207873Y22163896D01*
X-20225000Y22250000D01*
X-20225000Y22750000D01*
X-20207873Y22836104D01*
X-20159099Y22909099D01*
X-20086104Y22957873D01*
X-20000000Y22975000D01*
X-19550000Y22975000D01*
X-19463896Y22957873D01*
G37*
G36*
X-17913896Y22957873D02*
G01*
X-17840901Y22909099D01*
X-17792127Y22836104D01*
X-17775000Y22750000D01*
X-17775000Y22250000D01*
X-17792127Y22163896D01*
X-17840901Y22090901D01*
X-17913896Y22042127D01*
X-18000000Y22025000D01*
X-18004923Y22025000D01*
X-18445077Y22025000D01*
X-18450000Y22025000D01*
X-18536104Y22042127D01*
X-18609099Y22090901D01*
X-18657873Y22163896D01*
X-18675000Y22250000D01*
X-18675000Y22750000D01*
X-18657873Y22836104D01*
X-18609099Y22909099D01*
X-18536104Y22957873D01*
X-18450000Y22975000D01*
X-18000000Y22975000D01*
X-17913896Y22957873D01*
G37*
G36*
X-16048463Y22959776D02*
G01*
X-15983579Y22916421D01*
X-15940224Y22851537D01*
X-15925000Y22775000D01*
X-15925000Y22225000D01*
X-15940224Y22148463D01*
X-15983579Y22083579D01*
X-16048463Y22040224D01*
X-16125000Y22025000D01*
X-16129923Y22025000D01*
X-16520077Y22025000D01*
X-16525000Y22025000D01*
X-16601537Y22040224D01*
X-16666421Y22083579D01*
X-16709776Y22148463D01*
X-16725000Y22225000D01*
X-16725000Y22775000D01*
X-16709776Y22851537D01*
X-16666421Y22916421D01*
X-16601537Y22959776D01*
X-16525000Y22975000D01*
X-16125000Y22975000D01*
X-16048463Y22959776D01*
G37*
G36*
X-14398463Y22959776D02*
G01*
X-14333579Y22916421D01*
X-14290224Y22851537D01*
X-14275000Y22775000D01*
X-14275000Y22225000D01*
X-14290224Y22148463D01*
X-14333579Y22083579D01*
X-14398463Y22040224D01*
X-14475000Y22025000D01*
X-14479923Y22025000D01*
X-14870077Y22025000D01*
X-14875000Y22025000D01*
X-14951537Y22040224D01*
X-15016421Y22083579D01*
X-15059776Y22148463D01*
X-15075000Y22225000D01*
X-15075000Y22775000D01*
X-15059776Y22851537D01*
X-15016421Y22916421D01*
X-14951537Y22959776D01*
X-14875000Y22975000D01*
X-14475000Y22975000D01*
X-14398463Y22959776D01*
G37*
G36*
X17451537Y22959776D02*
G01*
X17516421Y22916421D01*
X17559776Y22851537D01*
X17575000Y22775000D01*
X17575000Y22225000D01*
X17559776Y22148463D01*
X17516421Y22083579D01*
X17451537Y22040224D01*
X17375000Y22025000D01*
X17370076Y22025000D01*
X16979922Y22025000D01*
X16975000Y22025000D01*
X16898463Y22040224D01*
X16833579Y22083579D01*
X16790224Y22148463D01*
X16775000Y22225000D01*
X16775000Y22775000D01*
X16790224Y22851537D01*
X16833579Y22916421D01*
X16898463Y22959776D01*
X16975000Y22975000D01*
X17375000Y22975000D01*
X17451537Y22959776D01*
G37*
G36*
X19101537Y22959776D02*
G01*
X19166421Y22916421D01*
X19209776Y22851537D01*
X19225000Y22775000D01*
X19225000Y22225000D01*
X19209776Y22148463D01*
X19166421Y22083579D01*
X19101537Y22040224D01*
X19025000Y22025000D01*
X19020076Y22025000D01*
X18629922Y22025000D01*
X18625000Y22025000D01*
X18548463Y22040224D01*
X18483579Y22083579D01*
X18440224Y22148463D01*
X18425000Y22225000D01*
X18425000Y22775000D01*
X18440224Y22851537D01*
X18483579Y22916421D01*
X18548463Y22959776D01*
X18625000Y22975000D01*
X19025000Y22975000D01*
X19101537Y22959776D01*
G37*
G36*
X11250000Y22750000D02*
G01*
X11245075Y22750000D01*
X9754922Y22750000D01*
X9750000Y22750000D01*
X9750000Y24250000D01*
X11250000Y24250000D01*
X11250000Y22750000D01*
G37*
G36*
X-45100000Y22942500D02*
G01*
X-45104924Y22942500D01*
X-46295077Y22942500D01*
X-46300000Y22942500D01*
X-46300000Y23342500D01*
X-45100000Y23342500D01*
X-45100000Y22942500D01*
G37*
G36*
X-39900000Y22942500D02*
G01*
X-39904924Y22942500D01*
X-41095077Y22942500D01*
X-41100000Y22942500D01*
X-41100000Y23342500D01*
X-39900000Y23342500D01*
X-39900000Y22942500D01*
G37*
G36*
X-11548463Y23959776D02*
G01*
X-11483579Y23916421D01*
X-11440224Y23851537D01*
X-11425000Y23775000D01*
X-11425000Y23225000D01*
X-11440224Y23148463D01*
X-11483579Y23083579D01*
X-11548463Y23040224D01*
X-11625000Y23025000D01*
X-11629923Y23025000D01*
X-12020077Y23025000D01*
X-12025000Y23025000D01*
X-12101537Y23040224D01*
X-12166421Y23083579D01*
X-12209776Y23148463D01*
X-12225000Y23225000D01*
X-12225000Y23775000D01*
X-12209776Y23851537D01*
X-12166421Y23916421D01*
X-12101537Y23959776D01*
X-12025000Y23975000D01*
X-11625000Y23975000D01*
X-11548463Y23959776D01*
G37*
G36*
X-9898463Y23959776D02*
G01*
X-9833579Y23916421D01*
X-9790224Y23851537D01*
X-9775000Y23775000D01*
X-9775000Y23225000D01*
X-9790224Y23148463D01*
X-9833579Y23083579D01*
X-9898463Y23040224D01*
X-9975000Y23025000D01*
X-9979923Y23025000D01*
X-10370077Y23025000D01*
X-10375000Y23025000D01*
X-10451537Y23040224D01*
X-10516421Y23083579D01*
X-10559776Y23148463D01*
X-10575000Y23225000D01*
X-10575000Y23775000D01*
X-10559776Y23851537D01*
X-10516421Y23916421D01*
X-10451537Y23959776D01*
X-10375000Y23975000D01*
X-9975000Y23975000D01*
X-9898463Y23959776D01*
G37*
G36*
X13451537Y23959776D02*
G01*
X13516421Y23916421D01*
X13559776Y23851537D01*
X13575000Y23775000D01*
X13575000Y23225000D01*
X13559776Y23148463D01*
X13516421Y23083579D01*
X13451537Y23040224D01*
X13375000Y23025000D01*
X13370076Y23025000D01*
X12979922Y23025000D01*
X12975000Y23025000D01*
X12898463Y23040224D01*
X12833579Y23083579D01*
X12790224Y23148463D01*
X12775000Y23225000D01*
X12775000Y23775000D01*
X12790224Y23851537D01*
X12833579Y23916421D01*
X12898463Y23959776D01*
X12975000Y23975000D01*
X13375000Y23975000D01*
X13451537Y23959776D01*
G37*
G36*
X15101537Y23959776D02*
G01*
X15166421Y23916421D01*
X15209776Y23851537D01*
X15225000Y23775000D01*
X15225000Y23225000D01*
X15209776Y23148463D01*
X15166421Y23083579D01*
X15101537Y23040224D01*
X15025000Y23025000D01*
X15020076Y23025000D01*
X14629922Y23025000D01*
X14625000Y23025000D01*
X14548463Y23040224D01*
X14483579Y23083579D01*
X14440224Y23148463D01*
X14425000Y23225000D01*
X14425000Y23775000D01*
X14440224Y23851537D01*
X14483579Y23916421D01*
X14548463Y23959776D01*
X14625000Y23975000D01*
X15025000Y23975000D01*
X15101537Y23959776D01*
G37*
G36*
X-36748463Y24459776D02*
G01*
X-36683579Y24416421D01*
X-36640224Y24351537D01*
X-36625000Y24275000D01*
X-36625000Y23725000D01*
X-36640224Y23648463D01*
X-36683579Y23583579D01*
X-36748463Y23540224D01*
X-36825000Y23525000D01*
X-36829923Y23525000D01*
X-37220077Y23525000D01*
X-37225000Y23525000D01*
X-37301537Y23540224D01*
X-37366421Y23583579D01*
X-37409776Y23648463D01*
X-37425000Y23725000D01*
X-37425000Y24275000D01*
X-37409776Y24351537D01*
X-37366421Y24416421D01*
X-37301537Y24459776D01*
X-37225000Y24475000D01*
X-36825000Y24475000D01*
X-36748463Y24459776D01*
G37*
G36*
X-35098463Y24459776D02*
G01*
X-35033579Y24416421D01*
X-34990224Y24351537D01*
X-34975000Y24275000D01*
X-34975000Y23725000D01*
X-34990224Y23648463D01*
X-35033579Y23583579D01*
X-35098463Y23540224D01*
X-35175000Y23525000D01*
X-35179923Y23525000D01*
X-35570077Y23525000D01*
X-35575000Y23525000D01*
X-35651537Y23540224D01*
X-35716421Y23583579D01*
X-35759776Y23648463D01*
X-35775000Y23725000D01*
X-35775000Y24275000D01*
X-35759776Y24351537D01*
X-35716421Y24416421D01*
X-35651537Y24459776D01*
X-35575000Y24475000D01*
X-35175000Y24475000D01*
X-35098463Y24459776D01*
G37*
G36*
X-33548463Y24459776D02*
G01*
X-33483579Y24416421D01*
X-33440224Y24351537D01*
X-33425000Y24275000D01*
X-33425000Y23725000D01*
X-33440224Y23648463D01*
X-33483579Y23583579D01*
X-33548463Y23540224D01*
X-33625000Y23525000D01*
X-33629923Y23525000D01*
X-34020077Y23525000D01*
X-34025000Y23525000D01*
X-34101537Y23540224D01*
X-34166421Y23583579D01*
X-34209776Y23648463D01*
X-34225000Y23725000D01*
X-34225000Y24275000D01*
X-34209776Y24351537D01*
X-34166421Y24416421D01*
X-34101537Y24459776D01*
X-34025000Y24475000D01*
X-33625000Y24475000D01*
X-33548463Y24459776D01*
G37*
G36*
X-31898463Y24459776D02*
G01*
X-31833579Y24416421D01*
X-31790224Y24351537D01*
X-31775000Y24275000D01*
X-31775000Y23725000D01*
X-31790224Y23648463D01*
X-31833579Y23583579D01*
X-31898463Y23540224D01*
X-31975000Y23525000D01*
X-31979923Y23525000D01*
X-32370077Y23525000D01*
X-32375000Y23525000D01*
X-32451537Y23540224D01*
X-32516421Y23583579D01*
X-32559776Y23648463D01*
X-32575000Y23725000D01*
X-32575000Y24275000D01*
X-32559776Y24351537D01*
X-32516421Y24416421D01*
X-32451537Y24459776D01*
X-32375000Y24475000D01*
X-31975000Y24475000D01*
X-31898463Y24459776D01*
G37*
G36*
X-45100000Y23577500D02*
G01*
X-45104924Y23577500D01*
X-46295077Y23577500D01*
X-46300000Y23577500D01*
X-46300000Y23977500D01*
X-45100000Y23977500D01*
X-45100000Y23577500D01*
G37*
G36*
X-39900000Y23577500D02*
G01*
X-39904924Y23577500D01*
X-41095077Y23577500D01*
X-41100000Y23577500D01*
X-41100000Y23977500D01*
X-39900000Y23977500D01*
X-39900000Y23577500D01*
G37*
G36*
X-20048463Y24959776D02*
G01*
X-19983579Y24916421D01*
X-19940224Y24851537D01*
X-19925000Y24775000D01*
X-19925000Y24225000D01*
X-19940224Y24148463D01*
X-19983579Y24083579D01*
X-20048463Y24040224D01*
X-20125000Y24025000D01*
X-20129923Y24025000D01*
X-20520077Y24025000D01*
X-20525000Y24025000D01*
X-20601537Y24040224D01*
X-20666421Y24083579D01*
X-20709776Y24148463D01*
X-20725000Y24225000D01*
X-20725000Y24775000D01*
X-20709776Y24851537D01*
X-20666421Y24916421D01*
X-20601537Y24959776D01*
X-20525000Y24975000D01*
X-20125000Y24975000D01*
X-20048463Y24959776D01*
G37*
G36*
X-18398463Y24959776D02*
G01*
X-18333579Y24916421D01*
X-18290224Y24851537D01*
X-18275000Y24775000D01*
X-18275000Y24225000D01*
X-18290224Y24148463D01*
X-18333579Y24083579D01*
X-18398463Y24040224D01*
X-18475000Y24025000D01*
X-18479923Y24025000D01*
X-18870077Y24025000D01*
X-18875000Y24025000D01*
X-18951537Y24040224D01*
X-19016421Y24083579D01*
X-19059776Y24148463D01*
X-19075000Y24225000D01*
X-19075000Y24775000D01*
X-19059776Y24851537D01*
X-19016421Y24916421D01*
X-18951537Y24959776D01*
X-18875000Y24975000D01*
X-18475000Y24975000D01*
X-18398463Y24959776D01*
G37*
G36*
X-16548463Y24959776D02*
G01*
X-16483579Y24916421D01*
X-16440224Y24851537D01*
X-16425000Y24775000D01*
X-16425000Y24225000D01*
X-16440224Y24148463D01*
X-16483579Y24083579D01*
X-16548463Y24040224D01*
X-16625000Y24025000D01*
X-16629923Y24025000D01*
X-17020077Y24025000D01*
X-17025000Y24025000D01*
X-17101537Y24040224D01*
X-17166421Y24083579D01*
X-17209776Y24148463D01*
X-17225000Y24225000D01*
X-17225000Y24775000D01*
X-17209776Y24851537D01*
X-17166421Y24916421D01*
X-17101537Y24959776D01*
X-17025000Y24975000D01*
X-16625000Y24975000D01*
X-16548463Y24959776D01*
G37*
G36*
X-14898463Y24959776D02*
G01*
X-14833579Y24916421D01*
X-14790224Y24851537D01*
X-14775000Y24775000D01*
X-14775000Y24225000D01*
X-14790224Y24148463D01*
X-14833579Y24083579D01*
X-14898463Y24040224D01*
X-14975000Y24025000D01*
X-14979923Y24025000D01*
X-15370077Y24025000D01*
X-15375000Y24025000D01*
X-15451537Y24040224D01*
X-15516421Y24083579D01*
X-15559776Y24148463D01*
X-15575000Y24225000D01*
X-15575000Y24775000D01*
X-15559776Y24851537D01*
X-15516421Y24916421D01*
X-15451537Y24959776D01*
X-15375000Y24975000D01*
X-14975000Y24975000D01*
X-14898463Y24959776D01*
G37*
G36*
X16951537Y24959776D02*
G01*
X17016421Y24916421D01*
X17059776Y24851537D01*
X17075000Y24775000D01*
X17075000Y24225000D01*
X17059776Y24148463D01*
X17016421Y24083579D01*
X16951537Y24040224D01*
X16875000Y24025000D01*
X16870076Y24025000D01*
X16479922Y24025000D01*
X16475000Y24025000D01*
X16398463Y24040224D01*
X16333579Y24083579D01*
X16290224Y24148463D01*
X16275000Y24225000D01*
X16275000Y24775000D01*
X16290224Y24851537D01*
X16333579Y24916421D01*
X16398463Y24959776D01*
X16475000Y24975000D01*
X16875000Y24975000D01*
X16951537Y24959776D01*
G37*
G36*
X18601537Y24959776D02*
G01*
X18666421Y24916421D01*
X18709776Y24851537D01*
X18725000Y24775000D01*
X18725000Y24225000D01*
X18709776Y24148463D01*
X18666421Y24083579D01*
X18601537Y24040224D01*
X18525000Y24025000D01*
X18520076Y24025000D01*
X18129922Y24025000D01*
X18125000Y24025000D01*
X18048463Y24040224D01*
X17983579Y24083579D01*
X17940224Y24148463D01*
X17925000Y24225000D01*
X17925000Y24775000D01*
X17940224Y24851537D01*
X17983579Y24916421D01*
X18048463Y24959776D01*
X18125000Y24975000D01*
X18525000Y24975000D01*
X18601537Y24959776D01*
G37*
G36*
X-45100000Y24212500D02*
G01*
X-45104924Y24212500D01*
X-46295077Y24212500D01*
X-46300000Y24212500D01*
X-46300000Y24612500D01*
X-45100000Y24612500D01*
X-45100000Y24212500D01*
G37*
G36*
X-39900000Y24212500D02*
G01*
X-39904924Y24212500D01*
X-41095077Y24212500D01*
X-41100000Y24212500D01*
X-41100000Y24612500D01*
X-39900000Y24612500D01*
X-39900000Y24212500D01*
G37*
G36*
X-45100000Y24847500D02*
G01*
X-45104924Y24847500D01*
X-46295077Y24847500D01*
X-46300000Y24847500D01*
X-46300000Y25247500D01*
X-45100000Y25247500D01*
X-45100000Y24847500D01*
G37*
G36*
X-39900000Y24847500D02*
G01*
X-39904924Y24847500D01*
X-41095077Y24847500D01*
X-41100000Y24847500D01*
X-41100000Y25247500D01*
X-39900000Y25247500D01*
X-39900000Y24847500D01*
G37*
G36*
X-11548463Y25959776D02*
G01*
X-11483579Y25916421D01*
X-11440224Y25851537D01*
X-11425000Y25775000D01*
X-11425000Y25225000D01*
X-11440224Y25148463D01*
X-11483579Y25083579D01*
X-11548463Y25040224D01*
X-11625000Y25025000D01*
X-11629923Y25025000D01*
X-12020077Y25025000D01*
X-12025000Y25025000D01*
X-12101537Y25040224D01*
X-12166421Y25083579D01*
X-12209776Y25148463D01*
X-12225000Y25225000D01*
X-12225000Y25775000D01*
X-12209776Y25851537D01*
X-12166421Y25916421D01*
X-12101537Y25959776D01*
X-12025000Y25975000D01*
X-11625000Y25975000D01*
X-11548463Y25959776D01*
G37*
G36*
X-9898463Y25959776D02*
G01*
X-9833579Y25916421D01*
X-9790224Y25851537D01*
X-9775000Y25775000D01*
X-9775000Y25225000D01*
X-9790224Y25148463D01*
X-9833579Y25083579D01*
X-9898463Y25040224D01*
X-9975000Y25025000D01*
X-9979923Y25025000D01*
X-10370077Y25025000D01*
X-10375000Y25025000D01*
X-10451537Y25040224D01*
X-10516421Y25083579D01*
X-10559776Y25148463D01*
X-10575000Y25225000D01*
X-10575000Y25775000D01*
X-10559776Y25851537D01*
X-10516421Y25916421D01*
X-10451537Y25959776D01*
X-10375000Y25975000D01*
X-9975000Y25975000D01*
X-9898463Y25959776D01*
G37*
G36*
X13451537Y25959776D02*
G01*
X13516421Y25916421D01*
X13559776Y25851537D01*
X13575000Y25775000D01*
X13575000Y25225000D01*
X13559776Y25148463D01*
X13516421Y25083579D01*
X13451537Y25040224D01*
X13375000Y25025000D01*
X13370076Y25025000D01*
X12979922Y25025000D01*
X12975000Y25025000D01*
X12898463Y25040224D01*
X12833579Y25083579D01*
X12790224Y25148463D01*
X12775000Y25225000D01*
X12775000Y25775000D01*
X12790224Y25851537D01*
X12833579Y25916421D01*
X12898463Y25959776D01*
X12975000Y25975000D01*
X13375000Y25975000D01*
X13451537Y25959776D01*
G37*
G36*
X15101537Y25959776D02*
G01*
X15166421Y25916421D01*
X15209776Y25851537D01*
X15225000Y25775000D01*
X15225000Y25225000D01*
X15209776Y25148463D01*
X15166421Y25083579D01*
X15101537Y25040224D01*
X15025000Y25025000D01*
X15020076Y25025000D01*
X14629922Y25025000D01*
X14625000Y25025000D01*
X14548463Y25040224D01*
X14483579Y25083579D01*
X14440224Y25148463D01*
X14425000Y25225000D01*
X14425000Y25775000D01*
X14440224Y25851537D01*
X14483579Y25916421D01*
X14548463Y25959776D01*
X14625000Y25975000D01*
X15025000Y25975000D01*
X15101537Y25959776D01*
G37*
G36*
X-38463896Y26157873D02*
G01*
X-38390901Y26109099D01*
X-38342127Y26036104D01*
X-38325000Y25950000D01*
X-38325000Y25450000D01*
X-38342127Y25363896D01*
X-38390901Y25290901D01*
X-38463896Y25242127D01*
X-38550000Y25225000D01*
X-38554923Y25225000D01*
X-38995077Y25225000D01*
X-39000000Y25225000D01*
X-39086104Y25242127D01*
X-39159099Y25290901D01*
X-39207873Y25363896D01*
X-39225000Y25450000D01*
X-39225000Y25950000D01*
X-39207873Y26036104D01*
X-39159099Y26109099D01*
X-39086104Y26157873D01*
X-39000000Y26175000D01*
X-38550000Y26175000D01*
X-38463896Y26157873D01*
G37*
G36*
X-36913896Y26157873D02*
G01*
X-36840901Y26109099D01*
X-36792127Y26036104D01*
X-36775000Y25950000D01*
X-36775000Y25450000D01*
X-36792127Y25363896D01*
X-36840901Y25290901D01*
X-36913896Y25242127D01*
X-37000000Y25225000D01*
X-37004923Y25225000D01*
X-37445077Y25225000D01*
X-37450000Y25225000D01*
X-37536104Y25242127D01*
X-37609099Y25290901D01*
X-37657873Y25363896D01*
X-37675000Y25450000D01*
X-37675000Y25950000D01*
X-37657873Y26036104D01*
X-37609099Y26109099D01*
X-37536104Y26157873D01*
X-37450000Y26175000D01*
X-37000000Y26175000D01*
X-36913896Y26157873D01*
G37*
G36*
X-45100000Y25482500D02*
G01*
X-45104924Y25482500D01*
X-46295077Y25482500D01*
X-46300000Y25482500D01*
X-46300000Y25882500D01*
X-45100000Y25882500D01*
X-45100000Y25482500D01*
G37*
G36*
X-39900000Y25482500D02*
G01*
X-39904924Y25482500D01*
X-41095077Y25482500D01*
X-41100000Y25482500D01*
X-41100000Y25882500D01*
X-39900000Y25882500D01*
X-39900000Y25482500D01*
G37*
G36*
X11250000Y25750000D02*
G01*
X11245075Y25750000D01*
X9754922Y25750000D01*
X9750000Y25750000D01*
X9750000Y27250000D01*
X11250000Y27250000D01*
X11250000Y25750000D01*
G37*
G36*
X-18548463Y26959776D02*
G01*
X-18483579Y26916421D01*
X-18440224Y26851537D01*
X-18425000Y26775000D01*
X-18425000Y26225000D01*
X-18440224Y26148463D01*
X-18483579Y26083579D01*
X-18548463Y26040224D01*
X-18625000Y26025000D01*
X-18629923Y26025000D01*
X-19020077Y26025000D01*
X-19025000Y26025000D01*
X-19101537Y26040224D01*
X-19166421Y26083579D01*
X-19209776Y26148463D01*
X-19225000Y26225000D01*
X-19225000Y26775000D01*
X-19209776Y26851537D01*
X-19166421Y26916421D01*
X-19101537Y26959776D01*
X-19025000Y26975000D01*
X-18625000Y26975000D01*
X-18548463Y26959776D01*
G37*
G36*
X-16898463Y26959776D02*
G01*
X-16833579Y26916421D01*
X-16790224Y26851537D01*
X-16775000Y26775000D01*
X-16775000Y26225000D01*
X-16790224Y26148463D01*
X-16833579Y26083579D01*
X-16898463Y26040224D01*
X-16975000Y26025000D01*
X-16979923Y26025000D01*
X-17370077Y26025000D01*
X-17375000Y26025000D01*
X-17451537Y26040224D01*
X-17516421Y26083579D01*
X-17559776Y26148463D01*
X-17575000Y26225000D01*
X-17575000Y26775000D01*
X-17559776Y26851537D01*
X-17516421Y26916421D01*
X-17451537Y26959776D01*
X-17375000Y26975000D01*
X-16975000Y26975000D01*
X-16898463Y26959776D01*
G37*
G36*
X-15048463Y26959776D02*
G01*
X-14983579Y26916421D01*
X-14940224Y26851537D01*
X-14925000Y26775000D01*
X-14925000Y26225000D01*
X-14940224Y26148463D01*
X-14983579Y26083579D01*
X-15048463Y26040224D01*
X-15125000Y26025000D01*
X-15129923Y26025000D01*
X-15520077Y26025000D01*
X-15525000Y26025000D01*
X-15601537Y26040224D01*
X-15666421Y26083579D01*
X-15709776Y26148463D01*
X-15725000Y26225000D01*
X-15725000Y26775000D01*
X-15709776Y26851537D01*
X-15666421Y26916421D01*
X-15601537Y26959776D01*
X-15525000Y26975000D01*
X-15125000Y26975000D01*
X-15048463Y26959776D01*
G37*
G36*
X-13398463Y26959776D02*
G01*
X-13333579Y26916421D01*
X-13290224Y26851537D01*
X-13275000Y26775000D01*
X-13275000Y26225000D01*
X-13290224Y26148463D01*
X-13333579Y26083579D01*
X-13398463Y26040224D01*
X-13475000Y26025000D01*
X-13479923Y26025000D01*
X-13870077Y26025000D01*
X-13875000Y26025000D01*
X-13951537Y26040224D01*
X-14016421Y26083579D01*
X-14059776Y26148463D01*
X-14075000Y26225000D01*
X-14075000Y26775000D01*
X-14059776Y26851537D01*
X-14016421Y26916421D01*
X-13951537Y26959776D01*
X-13875000Y26975000D01*
X-13475000Y26975000D01*
X-13398463Y26959776D01*
G37*
G36*
X16951537Y26959776D02*
G01*
X17016421Y26916421D01*
X17059776Y26851537D01*
X17075000Y26775000D01*
X17075000Y26225000D01*
X17059776Y26148463D01*
X17016421Y26083579D01*
X16951537Y26040224D01*
X16875000Y26025000D01*
X16870076Y26025000D01*
X16479922Y26025000D01*
X16475000Y26025000D01*
X16398463Y26040224D01*
X16333579Y26083579D01*
X16290224Y26148463D01*
X16275000Y26225000D01*
X16275000Y26775000D01*
X16290224Y26851537D01*
X16333579Y26916421D01*
X16398463Y26959776D01*
X16475000Y26975000D01*
X16875000Y26975000D01*
X16951537Y26959776D01*
G37*
G36*
X18601537Y26959776D02*
G01*
X18666421Y26916421D01*
X18709776Y26851537D01*
X18725000Y26775000D01*
X18725000Y26225000D01*
X18709776Y26148463D01*
X18666421Y26083579D01*
X18601537Y26040224D01*
X18525000Y26025000D01*
X18520076Y26025000D01*
X18129922Y26025000D01*
X18125000Y26025000D01*
X18048463Y26040224D01*
X17983579Y26083579D01*
X17940224Y26148463D01*
X17925000Y26225000D01*
X17925000Y26775000D01*
X17940224Y26851537D01*
X17983579Y26916421D01*
X18048463Y26959776D01*
X18125000Y26975000D01*
X18525000Y26975000D01*
X18601537Y26959776D01*
G37*
G36*
X-45100000Y26117500D02*
G01*
X-45104924Y26117500D01*
X-46295077Y26117500D01*
X-46300000Y26117500D01*
X-46300000Y26517500D01*
X-45100000Y26517500D01*
X-45100000Y26117500D01*
G37*
G36*
X-39900000Y26117500D02*
G01*
X-39904924Y26117500D01*
X-41095077Y26117500D01*
X-41100000Y26117500D01*
X-41100000Y26517500D01*
X-39900000Y26517500D01*
X-39900000Y26117500D01*
G37*
G36*
X-25048463Y27459776D02*
G01*
X-24983579Y27416421D01*
X-24940224Y27351537D01*
X-24925000Y27275000D01*
X-24925000Y26725000D01*
X-24940224Y26648463D01*
X-24983579Y26583579D01*
X-25048463Y26540224D01*
X-25125000Y26525000D01*
X-25129923Y26525000D01*
X-25520077Y26525000D01*
X-25525000Y26525000D01*
X-25601537Y26540224D01*
X-25666421Y26583579D01*
X-25709776Y26648463D01*
X-25725000Y26725000D01*
X-25725000Y27275000D01*
X-25709776Y27351537D01*
X-25666421Y27416421D01*
X-25601537Y27459776D01*
X-25525000Y27475000D01*
X-25125000Y27475000D01*
X-25048463Y27459776D01*
G37*
G36*
X-23398463Y27459776D02*
G01*
X-23333579Y27416421D01*
X-23290224Y27351537D01*
X-23275000Y27275000D01*
X-23275000Y26725000D01*
X-23290224Y26648463D01*
X-23333579Y26583579D01*
X-23398463Y26540224D01*
X-23475000Y26525000D01*
X-23479923Y26525000D01*
X-23870077Y26525000D01*
X-23875000Y26525000D01*
X-23951537Y26540224D01*
X-24016421Y26583579D01*
X-24059776Y26648463D01*
X-24075000Y26725000D01*
X-24075000Y27275000D01*
X-24059776Y27351537D01*
X-24016421Y27416421D01*
X-23951537Y27459776D01*
X-23875000Y27475000D01*
X-23475000Y27475000D01*
X-23398463Y27459776D01*
G37*
G36*
X-45100000Y26752500D02*
G01*
X-45104924Y26752500D01*
X-46295077Y26752500D01*
X-46300000Y26752500D01*
X-46300000Y27152500D01*
X-45100000Y27152500D01*
X-45100000Y26752500D01*
G37*
G36*
X-39900000Y26752500D02*
G01*
X-39904924Y26752500D01*
X-41095077Y26752500D01*
X-41100000Y26752500D01*
X-41100000Y27152500D01*
X-39900000Y27152500D01*
X-39900000Y26752500D01*
G37*
G36*
X-38463896Y27757873D02*
G01*
X-38390901Y27709099D01*
X-38342127Y27636104D01*
X-38325000Y27550000D01*
X-38325000Y27050000D01*
X-38342127Y26963896D01*
X-38390901Y26890901D01*
X-38463896Y26842127D01*
X-38550000Y26825000D01*
X-38554923Y26825000D01*
X-38995077Y26825000D01*
X-39000000Y26825000D01*
X-39086104Y26842127D01*
X-39159099Y26890901D01*
X-39207873Y26963896D01*
X-39225000Y27050000D01*
X-39225000Y27550000D01*
X-39207873Y27636104D01*
X-39159099Y27709099D01*
X-39086104Y27757873D01*
X-39000000Y27775000D01*
X-38550000Y27775000D01*
X-38463896Y27757873D01*
G37*
G36*
X-36913896Y27757873D02*
G01*
X-36840901Y27709099D01*
X-36792127Y27636104D01*
X-36775000Y27550000D01*
X-36775000Y27050000D01*
X-36792127Y26963896D01*
X-36840901Y26890901D01*
X-36913896Y26842127D01*
X-37000000Y26825000D01*
X-37004923Y26825000D01*
X-37445077Y26825000D01*
X-37450000Y26825000D01*
X-37536104Y26842127D01*
X-37609099Y26890901D01*
X-37657873Y26963896D01*
X-37675000Y27050000D01*
X-37675000Y27550000D01*
X-37657873Y27636104D01*
X-37609099Y27709099D01*
X-37536104Y27757873D01*
X-37450000Y27775000D01*
X-37000000Y27775000D01*
X-36913896Y27757873D01*
G37*
G36*
X-11548463Y27959776D02*
G01*
X-11483579Y27916421D01*
X-11440224Y27851537D01*
X-11425000Y27775000D01*
X-11425000Y27225000D01*
X-11440224Y27148463D01*
X-11483579Y27083579D01*
X-11548463Y27040224D01*
X-11625000Y27025000D01*
X-11629923Y27025000D01*
X-12020077Y27025000D01*
X-12025000Y27025000D01*
X-12101537Y27040224D01*
X-12166421Y27083579D01*
X-12209776Y27148463D01*
X-12225000Y27225000D01*
X-12225000Y27775000D01*
X-12209776Y27851537D01*
X-12166421Y27916421D01*
X-12101537Y27959776D01*
X-12025000Y27975000D01*
X-11625000Y27975000D01*
X-11548463Y27959776D01*
G37*
G36*
X-9898463Y27959776D02*
G01*
X-9833579Y27916421D01*
X-9790224Y27851537D01*
X-9775000Y27775000D01*
X-9775000Y27225000D01*
X-9790224Y27148463D01*
X-9833579Y27083579D01*
X-9898463Y27040224D01*
X-9975000Y27025000D01*
X-9979923Y27025000D01*
X-10370077Y27025000D01*
X-10375000Y27025000D01*
X-10451537Y27040224D01*
X-10516421Y27083579D01*
X-10559776Y27148463D01*
X-10575000Y27225000D01*
X-10575000Y27775000D01*
X-10559776Y27851537D01*
X-10516421Y27916421D01*
X-10451537Y27959776D01*
X-10375000Y27975000D01*
X-9975000Y27975000D01*
X-9898463Y27959776D01*
G37*
G36*
X14250000Y27250000D02*
G01*
X14245075Y27250000D01*
X12754922Y27250000D01*
X12750000Y27250000D01*
X12750000Y28750000D01*
X14250000Y28750000D01*
X14250000Y27250000D01*
G37*
G36*
X-45100000Y27387500D02*
G01*
X-45104924Y27387500D01*
X-46295077Y27387500D01*
X-46300000Y27387500D01*
X-46300000Y27787500D01*
X-45100000Y27787500D01*
X-45100000Y27387500D01*
G37*
G36*
X-39900000Y27387500D02*
G01*
X-39904924Y27387500D01*
X-41095077Y27387500D01*
X-41100000Y27387500D01*
X-41100000Y27787500D01*
X-39900000Y27787500D01*
X-39900000Y27387500D01*
G37*
G36*
X-52836289Y28826870D02*
G01*
X-52711315Y28802011D01*
X-52593592Y28753249D01*
X-52487644Y28682457D01*
X-52397543Y28592356D01*
X-52326751Y28486408D01*
X-52277989Y28368685D01*
X-52253130Y28243711D01*
X-52253130Y28116289D01*
X-52277989Y27991315D01*
X-52326751Y27873592D01*
X-52397543Y27767644D01*
X-52487644Y27677543D01*
X-52593592Y27606751D01*
X-52711315Y27557989D01*
X-52836289Y27533130D01*
X-52900000Y27530000D01*
X-52901233Y27530000D01*
X-54198767Y27530000D01*
X-54200000Y27530000D01*
X-54263711Y27533130D01*
X-54388685Y27557989D01*
X-54506408Y27606751D01*
X-54612356Y27677543D01*
X-54702457Y27767644D01*
X-54773249Y27873592D01*
X-54822011Y27991315D01*
X-54846870Y28116289D01*
X-54846870Y28243711D01*
X-54822011Y28368685D01*
X-54773249Y28486408D01*
X-54702457Y28592356D01*
X-54612356Y28682457D01*
X-54506408Y28753249D01*
X-54388685Y28802011D01*
X-54263711Y28826870D01*
X-54200000Y28830000D01*
X-52900000Y28830000D01*
X-52836289Y28826870D01*
G37*
G36*
X-49161289Y28826870D02*
G01*
X-49036315Y28802011D01*
X-48918592Y28753249D01*
X-48812644Y28682457D01*
X-48722543Y28592356D01*
X-48651751Y28486408D01*
X-48602989Y28368685D01*
X-48578130Y28243711D01*
X-48578130Y28116289D01*
X-48602989Y27991315D01*
X-48651751Y27873592D01*
X-48722543Y27767644D01*
X-48812644Y27677543D01*
X-48918592Y27606751D01*
X-49036315Y27557989D01*
X-49161289Y27533130D01*
X-49225000Y27530000D01*
X-49226233Y27530000D01*
X-50223767Y27530000D01*
X-50225000Y27530000D01*
X-50288711Y27533130D01*
X-50413685Y27557989D01*
X-50531408Y27606751D01*
X-50637356Y27677543D01*
X-50727457Y27767644D01*
X-50798249Y27873592D01*
X-50847011Y27991315D01*
X-50871870Y28116289D01*
X-50871870Y28243711D01*
X-50847011Y28368685D01*
X-50798249Y28486408D01*
X-50727457Y28592356D01*
X-50637356Y28682457D01*
X-50531408Y28753249D01*
X-50413685Y28802011D01*
X-50288711Y28826870D01*
X-50225000Y28830000D01*
X-49225000Y28830000D01*
X-49161289Y28826870D01*
G37*
G36*
X-45100000Y28022500D02*
G01*
X-45104924Y28022500D01*
X-46295077Y28022500D01*
X-46300000Y28022500D01*
X-46300000Y28422500D01*
X-45100000Y28422500D01*
X-45100000Y28022500D01*
G37*
G36*
X-39900000Y28022500D02*
G01*
X-39904924Y28022500D01*
X-41095077Y28022500D01*
X-41100000Y28022500D01*
X-41100000Y28422500D01*
X-39900000Y28422500D01*
X-39900000Y28022500D01*
G37*
G36*
X16451537Y28959776D02*
G01*
X16516421Y28916421D01*
X16559776Y28851537D01*
X16575000Y28775000D01*
X16575000Y28225000D01*
X16559776Y28148463D01*
X16516421Y28083579D01*
X16451537Y28040224D01*
X16375000Y28025000D01*
X16370076Y28025000D01*
X15979922Y28025000D01*
X15975000Y28025000D01*
X15898463Y28040224D01*
X15833579Y28083579D01*
X15790224Y28148463D01*
X15775000Y28225000D01*
X15775000Y28775000D01*
X15790224Y28851537D01*
X15833579Y28916421D01*
X15898463Y28959776D01*
X15975000Y28975000D01*
X16375000Y28975000D01*
X16451537Y28959776D01*
G37*
G36*
X18101537Y28959776D02*
G01*
X18166421Y28916421D01*
X18209776Y28851537D01*
X18225000Y28775000D01*
X18225000Y28225000D01*
X18209776Y28148463D01*
X18166421Y28083579D01*
X18101537Y28040224D01*
X18025000Y28025000D01*
X18020076Y28025000D01*
X17629922Y28025000D01*
X17625000Y28025000D01*
X17548463Y28040224D01*
X17483579Y28083579D01*
X17440224Y28148463D01*
X17425000Y28225000D01*
X17425000Y28775000D01*
X17440224Y28851537D01*
X17483579Y28916421D01*
X17548463Y28959776D01*
X17625000Y28975000D01*
X18025000Y28975000D01*
X18101537Y28959776D01*
G37*
G36*
X19951537Y28959776D02*
G01*
X20016421Y28916421D01*
X20059776Y28851537D01*
X20075000Y28775000D01*
X20075000Y28225000D01*
X20059776Y28148463D01*
X20016421Y28083579D01*
X19951537Y28040224D01*
X19875000Y28025000D01*
X19870076Y28025000D01*
X19479922Y28025000D01*
X19475000Y28025000D01*
X19398463Y28040224D01*
X19333579Y28083579D01*
X19290224Y28148463D01*
X19275000Y28225000D01*
X19275000Y28775000D01*
X19290224Y28851537D01*
X19333579Y28916421D01*
X19398463Y28959776D01*
X19475000Y28975000D01*
X19875000Y28975000D01*
X19951537Y28959776D01*
G37*
G36*
X21601537Y28959776D02*
G01*
X21666421Y28916421D01*
X21709776Y28851537D01*
X21725000Y28775000D01*
X21725000Y28225000D01*
X21709776Y28148463D01*
X21666421Y28083579D01*
X21601537Y28040224D01*
X21525000Y28025000D01*
X21520076Y28025000D01*
X21129922Y28025000D01*
X21125000Y28025000D01*
X21048463Y28040224D01*
X20983579Y28083579D01*
X20940224Y28148463D01*
X20925000Y28225000D01*
X20925000Y28775000D01*
X20940224Y28851537D01*
X20983579Y28916421D01*
X21048463Y28959776D01*
X21125000Y28975000D01*
X21525000Y28975000D01*
X21601537Y28959776D01*
G37*
G36*
X-25048463Y29459776D02*
G01*
X-24983579Y29416421D01*
X-24940224Y29351537D01*
X-24925000Y29275000D01*
X-24925000Y28725000D01*
X-24940224Y28648463D01*
X-24983579Y28583579D01*
X-25048463Y28540224D01*
X-25125000Y28525000D01*
X-25129923Y28525000D01*
X-25520077Y28525000D01*
X-25525000Y28525000D01*
X-25601537Y28540224D01*
X-25666421Y28583579D01*
X-25709776Y28648463D01*
X-25725000Y28725000D01*
X-25725000Y29275000D01*
X-25709776Y29351537D01*
X-25666421Y29416421D01*
X-25601537Y29459776D01*
X-25525000Y29475000D01*
X-25125000Y29475000D01*
X-25048463Y29459776D01*
G37*
G36*
X-23398463Y29459776D02*
G01*
X-23333579Y29416421D01*
X-23290224Y29351537D01*
X-23275000Y29275000D01*
X-23275000Y28725000D01*
X-23290224Y28648463D01*
X-23333579Y28583579D01*
X-23398463Y28540224D01*
X-23475000Y28525000D01*
X-23479923Y28525000D01*
X-23870077Y28525000D01*
X-23875000Y28525000D01*
X-23951537Y28540224D01*
X-24016421Y28583579D01*
X-24059776Y28648463D01*
X-24075000Y28725000D01*
X-24075000Y29275000D01*
X-24059776Y29351537D01*
X-24016421Y29416421D01*
X-23951537Y29459776D01*
X-23875000Y29475000D01*
X-23475000Y29475000D01*
X-23398463Y29459776D01*
G37*
G36*
X-45100000Y28657500D02*
G01*
X-45104924Y28657500D01*
X-46295077Y28657500D01*
X-46300000Y28657500D01*
X-46300000Y29057500D01*
X-45100000Y29057500D01*
X-45100000Y28657500D01*
G37*
G36*
X-39900000Y28657500D02*
G01*
X-39904924Y28657500D01*
X-41095077Y28657500D01*
X-41100000Y28657500D01*
X-41100000Y29057500D01*
X-39900000Y29057500D01*
X-39900000Y28657500D01*
G37*
G36*
X11250000Y28750000D02*
G01*
X11245075Y28750000D01*
X9754922Y28750000D01*
X9750000Y28750000D01*
X9750000Y30250000D01*
X11250000Y30250000D01*
X11250000Y28750000D01*
G37*
G36*
X24241104Y29820873D02*
G01*
X24314099Y29772099D01*
X24362873Y29699104D01*
X24380000Y29613000D01*
X24380000Y29163000D01*
X24362873Y29076896D01*
X24314099Y29003901D01*
X24241104Y28955127D01*
X24155000Y28938000D01*
X24150076Y28938000D01*
X23659922Y28938000D01*
X23655000Y28938000D01*
X23568896Y28955127D01*
X23495901Y29003901D01*
X23447127Y29076896D01*
X23430000Y29163000D01*
X23430000Y29613000D01*
X23447127Y29699104D01*
X23495901Y29772099D01*
X23568896Y29820873D01*
X23655000Y29838000D01*
X24155000Y29838000D01*
X24241104Y29820873D01*
G37*
G36*
X-50335195Y29902164D02*
G01*
X-50267372Y29863006D01*
X-50211994Y29807628D01*
X-50172836Y29739805D01*
X-50152567Y29664158D01*
X-50150000Y29625000D01*
X-50150000Y29375000D01*
X-50152567Y29335842D01*
X-50172836Y29260195D01*
X-50211994Y29192372D01*
X-50267372Y29136994D01*
X-50335195Y29097836D01*
X-50410842Y29077567D01*
X-50489158Y29077567D01*
X-50564805Y29097836D01*
X-50632628Y29136994D01*
X-50688006Y29192372D01*
X-50727164Y29260195D01*
X-50747433Y29335842D01*
X-50750000Y29375000D01*
X-50750000Y29625000D01*
X-50747433Y29664158D01*
X-50727164Y29739805D01*
X-50688006Y29807628D01*
X-50632628Y29863006D01*
X-50564805Y29902164D01*
X-50489158Y29922433D01*
X-50410842Y29922433D01*
X-50335195Y29902164D01*
G37*
G36*
X-18048463Y30459776D02*
G01*
X-17983579Y30416421D01*
X-17940224Y30351537D01*
X-17925000Y30275000D01*
X-17925000Y29725000D01*
X-17940224Y29648463D01*
X-17983579Y29583579D01*
X-18048463Y29540224D01*
X-18125000Y29525000D01*
X-18129923Y29525000D01*
X-18520077Y29525000D01*
X-18525000Y29525000D01*
X-18601537Y29540224D01*
X-18666421Y29583579D01*
X-18709776Y29648463D01*
X-18725000Y29725000D01*
X-18725000Y30275000D01*
X-18709776Y30351537D01*
X-18666421Y30416421D01*
X-18601537Y30459776D01*
X-18525000Y30475000D01*
X-18125000Y30475000D01*
X-18048463Y30459776D01*
G37*
G36*
X-16398463Y30459776D02*
G01*
X-16333579Y30416421D01*
X-16290224Y30351537D01*
X-16275000Y30275000D01*
X-16275000Y29725000D01*
X-16290224Y29648463D01*
X-16333579Y29583579D01*
X-16398463Y29540224D01*
X-16475000Y29525000D01*
X-16479923Y29525000D01*
X-16870077Y29525000D01*
X-16875000Y29525000D01*
X-16951537Y29540224D01*
X-17016421Y29583579D01*
X-17059776Y29648463D01*
X-17075000Y29725000D01*
X-17075000Y30275000D01*
X-17059776Y30351537D01*
X-17016421Y30416421D01*
X-16951537Y30459776D01*
X-16875000Y30475000D01*
X-16475000Y30475000D01*
X-16398463Y30459776D01*
G37*
G36*
X24241104Y31370873D02*
G01*
X24314099Y31322099D01*
X24362873Y31249104D01*
X24380000Y31163000D01*
X24380000Y30713000D01*
X24362873Y30626896D01*
X24314099Y30553901D01*
X24241104Y30505127D01*
X24155000Y30488000D01*
X24150076Y30488000D01*
X23659922Y30488000D01*
X23655000Y30488000D01*
X23568896Y30505127D01*
X23495901Y30553901D01*
X23447127Y30626896D01*
X23430000Y30713000D01*
X23430000Y31163000D01*
X23447127Y31249104D01*
X23495901Y31322099D01*
X23568896Y31370873D01*
X23655000Y31388000D01*
X24155000Y31388000D01*
X24241104Y31370873D01*
G37*
G36*
X19451537Y31459776D02*
G01*
X19516421Y31416421D01*
X19559776Y31351537D01*
X19575000Y31275000D01*
X19575000Y30725000D01*
X19559776Y30648463D01*
X19516421Y30583579D01*
X19451537Y30540224D01*
X19375000Y30525000D01*
X19370076Y30525000D01*
X18979922Y30525000D01*
X18975000Y30525000D01*
X18898463Y30540224D01*
X18833579Y30583579D01*
X18790224Y30648463D01*
X18775000Y30725000D01*
X18775000Y31275000D01*
X18790224Y31351537D01*
X18833579Y31416421D01*
X18898463Y31459776D01*
X18975000Y31475000D01*
X19375000Y31475000D01*
X19451537Y31459776D01*
G37*
G36*
X21101537Y31459776D02*
G01*
X21166421Y31416421D01*
X21209776Y31351537D01*
X21225000Y31275000D01*
X21225000Y30725000D01*
X21209776Y30648463D01*
X21166421Y30583579D01*
X21101537Y30540224D01*
X21025000Y30525000D01*
X21020076Y30525000D01*
X20629922Y30525000D01*
X20625000Y30525000D01*
X20548463Y30540224D01*
X20483579Y30583579D01*
X20440224Y30648463D01*
X20425000Y30725000D01*
X20425000Y31275000D01*
X20440224Y31351537D01*
X20483579Y31416421D01*
X20548463Y31459776D01*
X20625000Y31475000D01*
X21025000Y31475000D01*
X21101537Y31459776D01*
G37*
G36*
X-46963896Y32057873D02*
G01*
X-46890901Y32009099D01*
X-46842127Y31936104D01*
X-46825000Y31850000D01*
X-46825000Y31350000D01*
X-46842127Y31263896D01*
X-46890901Y31190901D01*
X-46963896Y31142127D01*
X-47050000Y31125000D01*
X-47054923Y31125000D01*
X-47495077Y31125000D01*
X-47500000Y31125000D01*
X-47586104Y31142127D01*
X-47659099Y31190901D01*
X-47707873Y31263896D01*
X-47725000Y31350000D01*
X-47725000Y31850000D01*
X-47707873Y31936104D01*
X-47659099Y32009099D01*
X-47586104Y32057873D01*
X-47500000Y32075000D01*
X-47050000Y32075000D01*
X-46963896Y32057873D01*
G37*
G36*
X-45413896Y32057873D02*
G01*
X-45340901Y32009099D01*
X-45292127Y31936104D01*
X-45275000Y31850000D01*
X-45275000Y31350000D01*
X-45292127Y31263896D01*
X-45340901Y31190901D01*
X-45413896Y31142127D01*
X-45500000Y31125000D01*
X-45504923Y31125000D01*
X-45945077Y31125000D01*
X-45950000Y31125000D01*
X-46036104Y31142127D01*
X-46109099Y31190901D01*
X-46157873Y31263896D01*
X-46175000Y31350000D01*
X-46175000Y31850000D01*
X-46157873Y31936104D01*
X-46109099Y32009099D01*
X-46036104Y32057873D01*
X-45950000Y32075000D01*
X-45500000Y32075000D01*
X-45413896Y32057873D01*
G37*
G36*
X8304059Y33124193D02*
G01*
X8355408Y33118236D01*
X8372950Y33110490D01*
X8395671Y33105971D01*
X8419995Y33089717D01*
X8440793Y33080535D01*
X8454997Y33066330D01*
X8476777Y33051778D01*
X8491329Y33029998D01*
X8505534Y33015794D01*
X8514716Y32994996D01*
X8530970Y32970672D01*
X8535489Y32947951D01*
X8543235Y32930409D01*
X8549192Y32879062D01*
X8550000Y32875001D01*
X8550000Y31925001D01*
X8549192Y31920942D01*
X8543235Y31869592D01*
X8535489Y31852049D01*
X8530970Y31829330D01*
X8514718Y31805007D01*
X8505534Y31784207D01*
X8491327Y31770000D01*
X8476777Y31748224D01*
X8455000Y31733673D01*
X8440793Y31719466D01*
X8419991Y31710281D01*
X8395671Y31694031D01*
X8372954Y31689512D01*
X8355408Y31681765D01*
X8304049Y31675806D01*
X8300000Y31675001D01*
X8297107Y31675001D01*
X7802891Y31675001D01*
X7800000Y31675001D01*
X7795953Y31675805D01*
X7744591Y31681765D01*
X7727043Y31689512D01*
X7704329Y31694031D01*
X7680010Y31710279D01*
X7659206Y31719466D01*
X7644996Y31733675D01*
X7623223Y31748224D01*
X7608674Y31769997D01*
X7594465Y31784207D01*
X7585278Y31805011D01*
X7569030Y31829330D01*
X7564511Y31852044D01*
X7556764Y31869592D01*
X7550805Y31920953D01*
X7550000Y31925001D01*
X7550000Y32875001D01*
X7550805Y32879048D01*
X7556764Y32930409D01*
X7564511Y32947955D01*
X7569030Y32970672D01*
X7585280Y32994992D01*
X7594465Y33015794D01*
X7608672Y33030001D01*
X7623223Y33051778D01*
X7644999Y33066328D01*
X7659206Y33080535D01*
X7680006Y33089719D01*
X7704329Y33105971D01*
X7727048Y33110490D01*
X7744591Y33118236D01*
X7795940Y33124193D01*
X7800000Y33125001D01*
X8300000Y33125001D01*
X8304059Y33124193D01*
G37*
G36*
X10204059Y33124193D02*
G01*
X10255408Y33118236D01*
X10272950Y33110490D01*
X10295671Y33105971D01*
X10319995Y33089717D01*
X10340793Y33080535D01*
X10354997Y33066330D01*
X10376777Y33051778D01*
X10391329Y33029998D01*
X10405534Y33015794D01*
X10414716Y32994996D01*
X10430970Y32970672D01*
X10435489Y32947951D01*
X10443235Y32930409D01*
X10449192Y32879062D01*
X10450000Y32875001D01*
X10450000Y31925001D01*
X10449192Y31920942D01*
X10443235Y31869592D01*
X10435489Y31852049D01*
X10430970Y31829330D01*
X10414718Y31805007D01*
X10405534Y31784207D01*
X10391327Y31770000D01*
X10376777Y31748224D01*
X10355000Y31733673D01*
X10340793Y31719466D01*
X10319991Y31710281D01*
X10295671Y31694031D01*
X10272954Y31689512D01*
X10255408Y31681765D01*
X10204049Y31675806D01*
X10200000Y31675001D01*
X10197107Y31675001D01*
X9702891Y31675001D01*
X9700000Y31675001D01*
X9695953Y31675805D01*
X9644591Y31681765D01*
X9627043Y31689512D01*
X9604329Y31694031D01*
X9580010Y31710279D01*
X9559206Y31719466D01*
X9544996Y31733675D01*
X9523223Y31748224D01*
X9508674Y31769997D01*
X9494465Y31784207D01*
X9485278Y31805011D01*
X9469030Y31829330D01*
X9464511Y31852044D01*
X9456764Y31869592D01*
X9450805Y31920953D01*
X9450000Y31925001D01*
X9450000Y32875001D01*
X9450805Y32879048D01*
X9456764Y32930409D01*
X9464511Y32947955D01*
X9469030Y32970672D01*
X9485280Y32994992D01*
X9494465Y33015794D01*
X9508672Y33030001D01*
X9523223Y33051778D01*
X9544999Y33066328D01*
X9559206Y33080535D01*
X9580006Y33089719D01*
X9604329Y33105971D01*
X9627048Y33110490D01*
X9644591Y33118236D01*
X9695940Y33124193D01*
X9700000Y33125001D01*
X10200000Y33125001D01*
X10204059Y33124193D01*
G37*
G36*
X-16663896Y32857874D02*
G01*
X-16590901Y32809100D01*
X-16542127Y32736105D01*
X-16525000Y32650001D01*
X-16525000Y32150001D01*
X-16542127Y32063897D01*
X-16590901Y31990902D01*
X-16663896Y31942128D01*
X-16750000Y31925001D01*
X-16754923Y31925001D01*
X-17195077Y31925001D01*
X-17200000Y31925001D01*
X-17286104Y31942128D01*
X-17359099Y31990902D01*
X-17407873Y32063897D01*
X-17425000Y32150001D01*
X-17425000Y32650001D01*
X-17407873Y32736105D01*
X-17359099Y32809100D01*
X-17286104Y32857874D01*
X-17200000Y32875001D01*
X-16750000Y32875001D01*
X-16663896Y32857874D01*
G37*
G36*
X-15113896Y32857874D02*
G01*
X-15040901Y32809100D01*
X-14992127Y32736105D01*
X-14975000Y32650001D01*
X-14975000Y32150001D01*
X-14992127Y32063897D01*
X-15040901Y31990902D01*
X-15113896Y31942128D01*
X-15200000Y31925001D01*
X-15204923Y31925001D01*
X-15645077Y31925001D01*
X-15650000Y31925001D01*
X-15736104Y31942128D01*
X-15809099Y31990902D01*
X-15857873Y32063897D01*
X-15875000Y32150001D01*
X-15875000Y32650001D01*
X-15857873Y32736105D01*
X-15809099Y32809100D01*
X-15736104Y32857874D01*
X-15650000Y32875001D01*
X-15200000Y32875001D01*
X-15113896Y32857874D01*
G37*
G36*
X-13063896Y32857874D02*
G01*
X-12990901Y32809100D01*
X-12942127Y32736105D01*
X-12925000Y32650001D01*
X-12925000Y32150001D01*
X-12942127Y32063897D01*
X-12990901Y31990902D01*
X-13063896Y31942128D01*
X-13150000Y31925001D01*
X-13154923Y31925001D01*
X-13595077Y31925001D01*
X-13600000Y31925001D01*
X-13686104Y31942128D01*
X-13759099Y31990902D01*
X-13807873Y32063897D01*
X-13825000Y32150001D01*
X-13825000Y32650001D01*
X-13807873Y32736105D01*
X-13759099Y32809100D01*
X-13686104Y32857874D01*
X-13600000Y32875001D01*
X-13150000Y32875001D01*
X-13063896Y32857874D01*
G37*
G36*
X-11513896Y32857874D02*
G01*
X-11440901Y32809100D01*
X-11392127Y32736105D01*
X-11375000Y32650001D01*
X-11375000Y32150001D01*
X-11392127Y32063897D01*
X-11440901Y31990902D01*
X-11513896Y31942128D01*
X-11600000Y31925001D01*
X-11604923Y31925001D01*
X-12045077Y31925001D01*
X-12050000Y31925001D01*
X-12136104Y31942128D01*
X-12209099Y31990902D01*
X-12257873Y32063897D01*
X-12275000Y32150001D01*
X-12275000Y32650001D01*
X-12257873Y32736105D01*
X-12209099Y32809100D01*
X-12136104Y32857874D01*
X-12050000Y32875001D01*
X-11600000Y32875001D01*
X-11513896Y32857874D01*
G37*
G36*
X-9463896Y32857874D02*
G01*
X-9390901Y32809100D01*
X-9342127Y32736105D01*
X-9325000Y32650001D01*
X-9325000Y32150001D01*
X-9342127Y32063897D01*
X-9390901Y31990902D01*
X-9463896Y31942128D01*
X-9550000Y31925001D01*
X-9554923Y31925001D01*
X-9995077Y31925001D01*
X-10000000Y31925001D01*
X-10086104Y31942128D01*
X-10159099Y31990902D01*
X-10207873Y32063897D01*
X-10225000Y32150001D01*
X-10225000Y32650001D01*
X-10207873Y32736105D01*
X-10159099Y32809100D01*
X-10086104Y32857874D01*
X-10000000Y32875001D01*
X-9550000Y32875001D01*
X-9463896Y32857874D01*
G37*
G36*
X-7913896Y32857874D02*
G01*
X-7840901Y32809100D01*
X-7792127Y32736105D01*
X-7775000Y32650001D01*
X-7775000Y32150001D01*
X-7792127Y32063897D01*
X-7840901Y31990902D01*
X-7913896Y31942128D01*
X-8000000Y31925001D01*
X-8004923Y31925001D01*
X-8445077Y31925001D01*
X-8450000Y31925001D01*
X-8536104Y31942128D01*
X-8609099Y31990902D01*
X-8657873Y32063897D01*
X-8675000Y32150001D01*
X-8675000Y32650001D01*
X-8657873Y32736105D01*
X-8609099Y32809100D01*
X-8536104Y32857874D01*
X-8450000Y32875001D01*
X-8000000Y32875001D01*
X-7913896Y32857874D01*
G37*
G36*
X-5863896Y32857874D02*
G01*
X-5790901Y32809100D01*
X-5742127Y32736105D01*
X-5725000Y32650001D01*
X-5725000Y32150001D01*
X-5742127Y32063897D01*
X-5790901Y31990902D01*
X-5863896Y31942128D01*
X-5950000Y31925001D01*
X-5954923Y31925001D01*
X-6395077Y31925001D01*
X-6400000Y31925001D01*
X-6486104Y31942128D01*
X-6559099Y31990902D01*
X-6607873Y32063897D01*
X-6625000Y32150001D01*
X-6625000Y32650001D01*
X-6607873Y32736105D01*
X-6559099Y32809100D01*
X-6486104Y32857874D01*
X-6400000Y32875001D01*
X-5950000Y32875001D01*
X-5863896Y32857874D01*
G37*
G36*
X-4313896Y32857874D02*
G01*
X-4240901Y32809100D01*
X-4192127Y32736105D01*
X-4175000Y32650001D01*
X-4175000Y32150001D01*
X-4192127Y32063897D01*
X-4240901Y31990902D01*
X-4313896Y31942128D01*
X-4400000Y31925001D01*
X-4404923Y31925001D01*
X-4845077Y31925001D01*
X-4850000Y31925001D01*
X-4936104Y31942128D01*
X-5009099Y31990902D01*
X-5057873Y32063897D01*
X-5075000Y32150001D01*
X-5075000Y32650001D01*
X-5057873Y32736105D01*
X-5009099Y32809100D01*
X-4936104Y32857874D01*
X-4850000Y32875001D01*
X-4400000Y32875001D01*
X-4313896Y32857874D01*
G37*
G36*
X-2263896Y32857874D02*
G01*
X-2190901Y32809100D01*
X-2142127Y32736105D01*
X-2125000Y32650001D01*
X-2125000Y32150001D01*
X-2142127Y32063897D01*
X-2190901Y31990902D01*
X-2263896Y31942128D01*
X-2350000Y31925001D01*
X-2354923Y31925001D01*
X-2795077Y31925001D01*
X-2800000Y31925001D01*
X-2886104Y31942128D01*
X-2959099Y31990902D01*
X-3007873Y32063897D01*
X-3025000Y32150001D01*
X-3025000Y32650001D01*
X-3007873Y32736105D01*
X-2959099Y32809100D01*
X-2886104Y32857874D01*
X-2800000Y32875001D01*
X-2350000Y32875001D01*
X-2263896Y32857874D01*
G37*
G36*
X-713896Y32857874D02*
G01*
X-640901Y32809100D01*
X-592127Y32736105D01*
X-575000Y32650001D01*
X-575000Y32150001D01*
X-592127Y32063897D01*
X-640901Y31990902D01*
X-713896Y31942128D01*
X-800000Y31925001D01*
X-804923Y31925001D01*
X-1245077Y31925001D01*
X-1250000Y31925001D01*
X-1336104Y31942128D01*
X-1409099Y31990902D01*
X-1457873Y32063897D01*
X-1475000Y32150001D01*
X-1475000Y32650001D01*
X-1457873Y32736105D01*
X-1409099Y32809100D01*
X-1336104Y32857874D01*
X-1250000Y32875001D01*
X-800000Y32875001D01*
X-713896Y32857874D01*
G37*
G36*
X1336103Y32857874D02*
G01*
X1409098Y32809100D01*
X1457872Y32736105D01*
X1474999Y32650001D01*
X1474999Y32150001D01*
X1457872Y32063897D01*
X1409098Y31990902D01*
X1336103Y31942128D01*
X1249999Y31925001D01*
X1245075Y31925001D01*
X804921Y31925001D01*
X799999Y31925001D01*
X713895Y31942128D01*
X640900Y31990902D01*
X592126Y32063897D01*
X574999Y32150001D01*
X574999Y32650001D01*
X592126Y32736105D01*
X640900Y32809100D01*
X713895Y32857874D01*
X799999Y32875001D01*
X1249999Y32875001D01*
X1336103Y32857874D01*
G37*
G36*
X2886103Y32857874D02*
G01*
X2959098Y32809100D01*
X3007872Y32736105D01*
X3024999Y32650001D01*
X3024999Y32150001D01*
X3007872Y32063897D01*
X2959098Y31990902D01*
X2886103Y31942128D01*
X2799999Y31925001D01*
X2795075Y31925001D01*
X2354921Y31925001D01*
X2349999Y31925001D01*
X2263895Y31942128D01*
X2190900Y31990902D01*
X2142126Y32063897D01*
X2124999Y32150001D01*
X2124999Y32650001D01*
X2142126Y32736105D01*
X2190900Y32809100D01*
X2263895Y32857874D01*
X2349999Y32875001D01*
X2799999Y32875001D01*
X2886103Y32857874D01*
G37*
G36*
X4936103Y32857874D02*
G01*
X5009098Y32809100D01*
X5057872Y32736105D01*
X5074999Y32650001D01*
X5074999Y32150001D01*
X5057872Y32063897D01*
X5009098Y31990902D01*
X4936103Y31942128D01*
X4849999Y31925001D01*
X4845075Y31925001D01*
X4404921Y31925001D01*
X4399999Y31925001D01*
X4313895Y31942128D01*
X4240900Y31990902D01*
X4192126Y32063897D01*
X4174999Y32150001D01*
X4174999Y32650001D01*
X4192126Y32736105D01*
X4240900Y32809100D01*
X4313895Y32857874D01*
X4399999Y32875001D01*
X4849999Y32875001D01*
X4936103Y32857874D01*
G37*
G36*
X6486103Y32857874D02*
G01*
X6559098Y32809100D01*
X6607872Y32736105D01*
X6624999Y32650001D01*
X6624999Y32150001D01*
X6607872Y32063897D01*
X6559098Y31990902D01*
X6486103Y31942128D01*
X6399999Y31925001D01*
X6395075Y31925001D01*
X5954921Y31925001D01*
X5949999Y31925001D01*
X5863895Y31942128D01*
X5790900Y31990902D01*
X5742126Y32063897D01*
X5724999Y32150001D01*
X5724999Y32650001D01*
X5742126Y32736105D01*
X5790900Y32809100D01*
X5863895Y32857874D01*
X5949999Y32875001D01*
X6399999Y32875001D01*
X6486103Y32857874D01*
G37*
G36*
X12136104Y32857874D02*
G01*
X12209099Y32809100D01*
X12257873Y32736105D01*
X12275000Y32650001D01*
X12275000Y32150001D01*
X12257873Y32063897D01*
X12209099Y31990902D01*
X12136104Y31942128D01*
X12050000Y31925001D01*
X12045076Y31925001D01*
X11604922Y31925001D01*
X11600000Y31925001D01*
X11513896Y31942128D01*
X11440901Y31990902D01*
X11392127Y32063897D01*
X11375000Y32150001D01*
X11375000Y32650001D01*
X11392127Y32736105D01*
X11440901Y32809100D01*
X11513896Y32857874D01*
X11600000Y32875001D01*
X12050000Y32875001D01*
X12136104Y32857874D01*
G37*
G36*
X13686104Y32857874D02*
G01*
X13759099Y32809100D01*
X13807873Y32736105D01*
X13825000Y32650001D01*
X13825000Y32150001D01*
X13807873Y32063897D01*
X13759099Y31990902D01*
X13686104Y31942128D01*
X13600000Y31925001D01*
X13595076Y31925001D01*
X13154922Y31925001D01*
X13150000Y31925001D01*
X13063896Y31942128D01*
X12990901Y31990902D01*
X12942127Y32063897D01*
X12925000Y32150001D01*
X12925000Y32650001D01*
X12942127Y32736105D01*
X12990901Y32809100D01*
X13063896Y32857874D01*
X13150000Y32875001D01*
X13600000Y32875001D01*
X13686104Y32857874D01*
G37*
G36*
X15736104Y32857874D02*
G01*
X15809099Y32809100D01*
X15857873Y32736105D01*
X15875000Y32650001D01*
X15875000Y32150001D01*
X15857873Y32063897D01*
X15809099Y31990902D01*
X15736104Y31942128D01*
X15650000Y31925001D01*
X15645076Y31925001D01*
X15204922Y31925001D01*
X15200000Y31925001D01*
X15113896Y31942128D01*
X15040901Y31990902D01*
X14992127Y32063897D01*
X14975000Y32150001D01*
X14975000Y32650001D01*
X14992127Y32736105D01*
X15040901Y32809100D01*
X15113896Y32857874D01*
X15200000Y32875001D01*
X15650000Y32875001D01*
X15736104Y32857874D01*
G37*
G36*
X17286104Y32857874D02*
G01*
X17359099Y32809100D01*
X17407873Y32736105D01*
X17425000Y32650001D01*
X17425000Y32150001D01*
X17407873Y32063897D01*
X17359099Y31990902D01*
X17286104Y31942128D01*
X17200000Y31925001D01*
X17195076Y31925001D01*
X16754922Y31925001D01*
X16750000Y31925001D01*
X16663896Y31942128D01*
X16590901Y31990902D01*
X16542127Y32063897D01*
X16525000Y32150001D01*
X16525000Y32650001D01*
X16542127Y32736105D01*
X16590901Y32809100D01*
X16663896Y32857874D01*
X16750000Y32875001D01*
X17200000Y32875001D01*
X17286104Y32857874D01*
G37*
G36*
X19451537Y33459776D02*
G01*
X19516421Y33416421D01*
X19559776Y33351537D01*
X19575000Y33275000D01*
X19575000Y32725000D01*
X19559776Y32648463D01*
X19516421Y32583579D01*
X19451537Y32540224D01*
X19375000Y32525000D01*
X19370076Y32525000D01*
X18979922Y32525000D01*
X18975000Y32525000D01*
X18898463Y32540224D01*
X18833579Y32583579D01*
X18790224Y32648463D01*
X18775000Y32725000D01*
X18775000Y33275000D01*
X18790224Y33351537D01*
X18833579Y33416421D01*
X18898463Y33459776D01*
X18975000Y33475000D01*
X19375000Y33475000D01*
X19451537Y33459776D01*
G37*
G36*
X21101537Y33459776D02*
G01*
X21166421Y33416421D01*
X21209776Y33351537D01*
X21225000Y33275000D01*
X21225000Y32725000D01*
X21209776Y32648463D01*
X21166421Y32583579D01*
X21101537Y32540224D01*
X21025000Y32525000D01*
X21020076Y32525000D01*
X20629922Y32525000D01*
X20625000Y32525000D01*
X20548463Y32540224D01*
X20483579Y32583579D01*
X20440224Y32648463D01*
X20425000Y32725000D01*
X20425000Y33275000D01*
X20440224Y33351537D01*
X20483579Y33416421D01*
X20548463Y33459776D01*
X20625000Y33475000D01*
X21025000Y33475000D01*
X21101537Y33459776D01*
G37*
G36*
X-47048463Y33659776D02*
G01*
X-46983579Y33616421D01*
X-46940224Y33551537D01*
X-46925000Y33475000D01*
X-46925000Y32925000D01*
X-46940224Y32848463D01*
X-46983579Y32783579D01*
X-47048463Y32740224D01*
X-47125000Y32725000D01*
X-47129923Y32725000D01*
X-47520077Y32725000D01*
X-47525000Y32725000D01*
X-47601537Y32740224D01*
X-47666421Y32783579D01*
X-47709776Y32848463D01*
X-47725000Y32925000D01*
X-47725000Y33475000D01*
X-47709776Y33551537D01*
X-47666421Y33616421D01*
X-47601537Y33659776D01*
X-47525000Y33675000D01*
X-47125000Y33675000D01*
X-47048463Y33659776D01*
G37*
G36*
X-45398463Y33659776D02*
G01*
X-45333579Y33616421D01*
X-45290224Y33551537D01*
X-45275000Y33475000D01*
X-45275000Y32925000D01*
X-45290224Y32848463D01*
X-45333579Y32783579D01*
X-45398463Y32740224D01*
X-45475000Y32725000D01*
X-45479923Y32725000D01*
X-45870077Y32725000D01*
X-45875000Y32725000D01*
X-45951537Y32740224D01*
X-46016421Y32783579D01*
X-46059776Y32848463D01*
X-46075000Y32925000D01*
X-46075000Y33475000D01*
X-46059776Y33551537D01*
X-46016421Y33616421D01*
X-45951537Y33659776D01*
X-45875000Y33675000D01*
X-45475000Y33675000D01*
X-45398463Y33659776D01*
G37*
G36*
X-42963896Y34457873D02*
G01*
X-42890901Y34409099D01*
X-42842127Y34336104D01*
X-42825000Y34250000D01*
X-42825000Y33750000D01*
X-42842127Y33663896D01*
X-42890901Y33590901D01*
X-42963896Y33542127D01*
X-43050000Y33525000D01*
X-43054923Y33525000D01*
X-43495077Y33525000D01*
X-43500000Y33525000D01*
X-43586104Y33542127D01*
X-43659099Y33590901D01*
X-43707873Y33663896D01*
X-43725000Y33750000D01*
X-43725000Y34250000D01*
X-43707873Y34336104D01*
X-43659099Y34409099D01*
X-43586104Y34457873D01*
X-43500000Y34475000D01*
X-43050000Y34475000D01*
X-42963896Y34457873D01*
G37*
G36*
X-41413896Y34457873D02*
G01*
X-41340901Y34409099D01*
X-41292127Y34336104D01*
X-41275000Y34250000D01*
X-41275000Y33750000D01*
X-41292127Y33663896D01*
X-41340901Y33590901D01*
X-41413896Y33542127D01*
X-41500000Y33525000D01*
X-41504923Y33525000D01*
X-41945077Y33525000D01*
X-41950000Y33525000D01*
X-42036104Y33542127D01*
X-42109099Y33590901D01*
X-42157873Y33663896D01*
X-42175000Y33750000D01*
X-42175000Y34250000D01*
X-42157873Y34336104D01*
X-42109099Y34409099D01*
X-42036104Y34457873D01*
X-41950000Y34475000D01*
X-41500000Y34475000D01*
X-41413896Y34457873D01*
G37*
G36*
X-16895941Y35524192D02*
G01*
X-16844591Y35518235D01*
X-16827048Y35510489D01*
X-16804329Y35505970D01*
X-16780006Y35489718D01*
X-16759206Y35480534D01*
X-16744999Y35466327D01*
X-16723223Y35451777D01*
X-16708672Y35430000D01*
X-16694465Y35415793D01*
X-16685280Y35394991D01*
X-16669030Y35370671D01*
X-16664511Y35347954D01*
X-16656764Y35330408D01*
X-16650805Y35279049D01*
X-16650000Y35275000D01*
X-16650000Y34325000D01*
X-16650804Y34320953D01*
X-16656764Y34269591D01*
X-16664511Y34252043D01*
X-16669030Y34229329D01*
X-16685278Y34205010D01*
X-16694465Y34184206D01*
X-16708674Y34169996D01*
X-16723223Y34148223D01*
X-16744996Y34133674D01*
X-16759206Y34119465D01*
X-16780010Y34110278D01*
X-16804329Y34094030D01*
X-16827043Y34089511D01*
X-16844591Y34081764D01*
X-16895952Y34075805D01*
X-16900000Y34075000D01*
X-16902892Y34075000D01*
X-17397108Y34075000D01*
X-17400000Y34075000D01*
X-17404047Y34075805D01*
X-17455408Y34081764D01*
X-17472954Y34089511D01*
X-17495671Y34094030D01*
X-17519991Y34110280D01*
X-17540793Y34119465D01*
X-17555000Y34133672D01*
X-17576777Y34148223D01*
X-17591327Y34169999D01*
X-17605534Y34184206D01*
X-17614718Y34205006D01*
X-17630970Y34229329D01*
X-17635489Y34252048D01*
X-17643235Y34269591D01*
X-17649192Y34320940D01*
X-17650000Y34325000D01*
X-17650000Y35275000D01*
X-17649192Y35279059D01*
X-17643235Y35330408D01*
X-17635489Y35347950D01*
X-17630970Y35370671D01*
X-17614716Y35394995D01*
X-17605534Y35415793D01*
X-17591329Y35429997D01*
X-17576777Y35451777D01*
X-17554997Y35466329D01*
X-17540793Y35480534D01*
X-17519995Y35489716D01*
X-17495671Y35505970D01*
X-17472950Y35510489D01*
X-17455408Y35518235D01*
X-17404061Y35524192D01*
X-17400000Y35525000D01*
X-16900000Y35525000D01*
X-16895941Y35524192D01*
G37*
G36*
X-14995941Y35524192D02*
G01*
X-14944591Y35518235D01*
X-14927048Y35510489D01*
X-14904329Y35505970D01*
X-14880006Y35489718D01*
X-14859206Y35480534D01*
X-14844999Y35466327D01*
X-14823223Y35451777D01*
X-14808672Y35430000D01*
X-14794465Y35415793D01*
X-14785280Y35394991D01*
X-14769030Y35370671D01*
X-14764511Y35347954D01*
X-14756764Y35330408D01*
X-14750805Y35279049D01*
X-14750000Y35275000D01*
X-14750000Y34325000D01*
X-14750804Y34320953D01*
X-14756764Y34269591D01*
X-14764511Y34252043D01*
X-14769030Y34229329D01*
X-14785278Y34205010D01*
X-14794465Y34184206D01*
X-14808674Y34169996D01*
X-14823223Y34148223D01*
X-14844996Y34133674D01*
X-14859206Y34119465D01*
X-14880010Y34110278D01*
X-14904329Y34094030D01*
X-14927043Y34089511D01*
X-14944591Y34081764D01*
X-14995952Y34075805D01*
X-15000000Y34075000D01*
X-15002892Y34075000D01*
X-15497108Y34075000D01*
X-15500000Y34075000D01*
X-15504047Y34075805D01*
X-15555408Y34081764D01*
X-15572954Y34089511D01*
X-15595671Y34094030D01*
X-15619991Y34110280D01*
X-15640793Y34119465D01*
X-15655000Y34133672D01*
X-15676777Y34148223D01*
X-15691327Y34169999D01*
X-15705534Y34184206D01*
X-15714718Y34205006D01*
X-15730970Y34229329D01*
X-15735489Y34252048D01*
X-15743235Y34269591D01*
X-15749192Y34320940D01*
X-15750000Y34325000D01*
X-15750000Y35275000D01*
X-15749192Y35279059D01*
X-15743235Y35330408D01*
X-15735489Y35347950D01*
X-15730970Y35370671D01*
X-15714716Y35394995D01*
X-15705534Y35415793D01*
X-15691329Y35429997D01*
X-15676777Y35451777D01*
X-15654997Y35466329D01*
X-15640793Y35480534D01*
X-15619995Y35489716D01*
X-15595671Y35505970D01*
X-15572950Y35510489D01*
X-15555408Y35518235D01*
X-15504061Y35524192D01*
X-15500000Y35525000D01*
X-15000000Y35525000D01*
X-14995941Y35524192D01*
G37*
G36*
X-13295941Y35524192D02*
G01*
X-13244591Y35518235D01*
X-13227048Y35510489D01*
X-13204329Y35505970D01*
X-13180006Y35489718D01*
X-13159206Y35480534D01*
X-13144999Y35466327D01*
X-13123223Y35451777D01*
X-13108672Y35430000D01*
X-13094465Y35415793D01*
X-13085280Y35394991D01*
X-13069030Y35370671D01*
X-13064511Y35347954D01*
X-13056764Y35330408D01*
X-13050805Y35279049D01*
X-13050000Y35275000D01*
X-13050000Y34325000D01*
X-13050804Y34320953D01*
X-13056764Y34269591D01*
X-13064511Y34252043D01*
X-13069030Y34229329D01*
X-13085278Y34205010D01*
X-13094465Y34184206D01*
X-13108674Y34169996D01*
X-13123223Y34148223D01*
X-13144996Y34133674D01*
X-13159206Y34119465D01*
X-13180010Y34110278D01*
X-13204329Y34094030D01*
X-13227043Y34089511D01*
X-13244591Y34081764D01*
X-13295952Y34075805D01*
X-13300000Y34075000D01*
X-13302892Y34075000D01*
X-13797108Y34075000D01*
X-13800000Y34075000D01*
X-13804047Y34075805D01*
X-13855408Y34081764D01*
X-13872954Y34089511D01*
X-13895671Y34094030D01*
X-13919991Y34110280D01*
X-13940793Y34119465D01*
X-13955000Y34133672D01*
X-13976777Y34148223D01*
X-13991327Y34169999D01*
X-14005534Y34184206D01*
X-14014718Y34205006D01*
X-14030970Y34229329D01*
X-14035489Y34252048D01*
X-14043235Y34269591D01*
X-14049192Y34320940D01*
X-14050000Y34325000D01*
X-14050000Y35275000D01*
X-14049192Y35279059D01*
X-14043235Y35330408D01*
X-14035489Y35347950D01*
X-14030970Y35370671D01*
X-14014716Y35394995D01*
X-14005534Y35415793D01*
X-13991329Y35429997D01*
X-13976777Y35451777D01*
X-13954997Y35466329D01*
X-13940793Y35480534D01*
X-13919995Y35489716D01*
X-13895671Y35505970D01*
X-13872950Y35510489D01*
X-13855408Y35518235D01*
X-13804061Y35524192D01*
X-13800000Y35525000D01*
X-13300000Y35525000D01*
X-13295941Y35524192D01*
G37*
G36*
X-11395941Y35524192D02*
G01*
X-11344591Y35518235D01*
X-11327048Y35510489D01*
X-11304329Y35505970D01*
X-11280006Y35489718D01*
X-11259206Y35480534D01*
X-11244999Y35466327D01*
X-11223223Y35451777D01*
X-11208672Y35430000D01*
X-11194465Y35415793D01*
X-11185280Y35394991D01*
X-11169030Y35370671D01*
X-11164511Y35347954D01*
X-11156764Y35330408D01*
X-11150805Y35279049D01*
X-11150000Y35275000D01*
X-11150000Y34325000D01*
X-11150804Y34320953D01*
X-11156764Y34269591D01*
X-11164511Y34252043D01*
X-11169030Y34229329D01*
X-11185278Y34205010D01*
X-11194465Y34184206D01*
X-11208674Y34169996D01*
X-11223223Y34148223D01*
X-11244996Y34133674D01*
X-11259206Y34119465D01*
X-11280010Y34110278D01*
X-11304329Y34094030D01*
X-11327043Y34089511D01*
X-11344591Y34081764D01*
X-11395952Y34075805D01*
X-11400000Y34075000D01*
X-11402892Y34075000D01*
X-11897108Y34075000D01*
X-11900000Y34075000D01*
X-11904047Y34075805D01*
X-11955408Y34081764D01*
X-11972954Y34089511D01*
X-11995671Y34094030D01*
X-12019991Y34110280D01*
X-12040793Y34119465D01*
X-12055000Y34133672D01*
X-12076777Y34148223D01*
X-12091327Y34169999D01*
X-12105534Y34184206D01*
X-12114718Y34205006D01*
X-12130970Y34229329D01*
X-12135489Y34252048D01*
X-12143235Y34269591D01*
X-12149192Y34320940D01*
X-12150000Y34325000D01*
X-12150000Y35275000D01*
X-12149192Y35279059D01*
X-12143235Y35330408D01*
X-12135489Y35347950D01*
X-12130970Y35370671D01*
X-12114716Y35394995D01*
X-12105534Y35415793D01*
X-12091329Y35429997D01*
X-12076777Y35451777D01*
X-12054997Y35466329D01*
X-12040793Y35480534D01*
X-12019995Y35489716D01*
X-11995671Y35505970D01*
X-11972950Y35510489D01*
X-11955408Y35518235D01*
X-11904061Y35524192D01*
X-11900000Y35525000D01*
X-11400000Y35525000D01*
X-11395941Y35524192D01*
G37*
G36*
X-9695941Y35524192D02*
G01*
X-9644591Y35518235D01*
X-9627048Y35510489D01*
X-9604329Y35505970D01*
X-9580006Y35489718D01*
X-9559206Y35480534D01*
X-9544999Y35466327D01*
X-9523223Y35451777D01*
X-9508672Y35430000D01*
X-9494465Y35415793D01*
X-9485280Y35394991D01*
X-9469030Y35370671D01*
X-9464511Y35347954D01*
X-9456764Y35330408D01*
X-9450805Y35279049D01*
X-9450000Y35275000D01*
X-9450000Y34325000D01*
X-9450804Y34320953D01*
X-9456764Y34269591D01*
X-9464511Y34252043D01*
X-9469030Y34229329D01*
X-9485278Y34205010D01*
X-9494465Y34184206D01*
X-9508674Y34169996D01*
X-9523223Y34148223D01*
X-9544996Y34133674D01*
X-9559206Y34119465D01*
X-9580010Y34110278D01*
X-9604329Y34094030D01*
X-9627043Y34089511D01*
X-9644591Y34081764D01*
X-9695952Y34075805D01*
X-9700000Y34075000D01*
X-9702892Y34075000D01*
X-10197108Y34075000D01*
X-10200000Y34075000D01*
X-10204047Y34075805D01*
X-10255408Y34081764D01*
X-10272954Y34089511D01*
X-10295671Y34094030D01*
X-10319991Y34110280D01*
X-10340793Y34119465D01*
X-10355000Y34133672D01*
X-10376777Y34148223D01*
X-10391327Y34169999D01*
X-10405534Y34184206D01*
X-10414718Y34205006D01*
X-10430970Y34229329D01*
X-10435489Y34252048D01*
X-10443235Y34269591D01*
X-10449192Y34320940D01*
X-10450000Y34325000D01*
X-10450000Y35275000D01*
X-10449192Y35279059D01*
X-10443235Y35330408D01*
X-10435489Y35347950D01*
X-10430970Y35370671D01*
X-10414716Y35394995D01*
X-10405534Y35415793D01*
X-10391329Y35429997D01*
X-10376777Y35451777D01*
X-10354997Y35466329D01*
X-10340793Y35480534D01*
X-10319995Y35489716D01*
X-10295671Y35505970D01*
X-10272950Y35510489D01*
X-10255408Y35518235D01*
X-10204061Y35524192D01*
X-10200000Y35525000D01*
X-9700000Y35525000D01*
X-9695941Y35524192D01*
G37*
G36*
X-7795941Y35524192D02*
G01*
X-7744591Y35518235D01*
X-7727048Y35510489D01*
X-7704329Y35505970D01*
X-7680006Y35489718D01*
X-7659206Y35480534D01*
X-7644999Y35466327D01*
X-7623223Y35451777D01*
X-7608672Y35430000D01*
X-7594465Y35415793D01*
X-7585280Y35394991D01*
X-7569030Y35370671D01*
X-7564511Y35347954D01*
X-7556764Y35330408D01*
X-7550805Y35279049D01*
X-7550000Y35275000D01*
X-7550000Y34325000D01*
X-7550804Y34320953D01*
X-7556764Y34269591D01*
X-7564511Y34252043D01*
X-7569030Y34229329D01*
X-7585278Y34205010D01*
X-7594465Y34184206D01*
X-7608674Y34169996D01*
X-7623223Y34148223D01*
X-7644996Y34133674D01*
X-7659206Y34119465D01*
X-7680010Y34110278D01*
X-7704329Y34094030D01*
X-7727043Y34089511D01*
X-7744591Y34081764D01*
X-7795952Y34075805D01*
X-7800000Y34075000D01*
X-7802892Y34075000D01*
X-8297108Y34075000D01*
X-8300000Y34075000D01*
X-8304047Y34075805D01*
X-8355408Y34081764D01*
X-8372954Y34089511D01*
X-8395671Y34094030D01*
X-8419991Y34110280D01*
X-8440793Y34119465D01*
X-8455000Y34133672D01*
X-8476777Y34148223D01*
X-8491327Y34169999D01*
X-8505534Y34184206D01*
X-8514718Y34205006D01*
X-8530970Y34229329D01*
X-8535489Y34252048D01*
X-8543235Y34269591D01*
X-8549192Y34320940D01*
X-8550000Y34325000D01*
X-8550000Y35275000D01*
X-8549192Y35279059D01*
X-8543235Y35330408D01*
X-8535489Y35347950D01*
X-8530970Y35370671D01*
X-8514716Y35394995D01*
X-8505534Y35415793D01*
X-8491329Y35429997D01*
X-8476777Y35451777D01*
X-8454997Y35466329D01*
X-8440793Y35480534D01*
X-8419995Y35489716D01*
X-8395671Y35505970D01*
X-8372950Y35510489D01*
X-8355408Y35518235D01*
X-8304061Y35524192D01*
X-8300000Y35525000D01*
X-7800000Y35525000D01*
X-7795941Y35524192D01*
G37*
G36*
X-47048463Y35259776D02*
G01*
X-46983579Y35216421D01*
X-46940224Y35151537D01*
X-46925000Y35075000D01*
X-46925000Y34525000D01*
X-46940224Y34448463D01*
X-46983579Y34383579D01*
X-47048463Y34340224D01*
X-47125000Y34325000D01*
X-47129923Y34325000D01*
X-47520077Y34325000D01*
X-47525000Y34325000D01*
X-47601537Y34340224D01*
X-47666421Y34383579D01*
X-47709776Y34448463D01*
X-47725000Y34525000D01*
X-47725000Y35075000D01*
X-47709776Y35151537D01*
X-47666421Y35216421D01*
X-47601537Y35259776D01*
X-47525000Y35275000D01*
X-47125000Y35275000D01*
X-47048463Y35259776D01*
G37*
G36*
X-45398463Y35259776D02*
G01*
X-45333579Y35216421D01*
X-45290224Y35151537D01*
X-45275000Y35075000D01*
X-45275000Y34525000D01*
X-45290224Y34448463D01*
X-45333579Y34383579D01*
X-45398463Y34340224D01*
X-45475000Y34325000D01*
X-45479923Y34325000D01*
X-45870077Y34325000D01*
X-45875000Y34325000D01*
X-45951537Y34340224D01*
X-46016421Y34383579D01*
X-46059776Y34448463D01*
X-46075000Y34525000D01*
X-46075000Y35075000D01*
X-46059776Y35151537D01*
X-46016421Y35216421D01*
X-45951537Y35259776D01*
X-45875000Y35275000D01*
X-45475000Y35275000D01*
X-45398463Y35259776D01*
G37*
G36*
X-5863896Y35257873D02*
G01*
X-5790901Y35209099D01*
X-5742127Y35136104D01*
X-5725000Y35050000D01*
X-5725000Y34550000D01*
X-5742127Y34463896D01*
X-5790901Y34390901D01*
X-5863896Y34342127D01*
X-5950000Y34325000D01*
X-5954923Y34325000D01*
X-6395077Y34325000D01*
X-6400000Y34325000D01*
X-6486104Y34342127D01*
X-6559099Y34390901D01*
X-6607873Y34463896D01*
X-6625000Y34550000D01*
X-6625000Y35050000D01*
X-6607873Y35136104D01*
X-6559099Y35209099D01*
X-6486104Y35257873D01*
X-6400000Y35275000D01*
X-5950000Y35275000D01*
X-5863896Y35257873D01*
G37*
G36*
X-4313896Y35257873D02*
G01*
X-4240901Y35209099D01*
X-4192127Y35136104D01*
X-4175000Y35050000D01*
X-4175000Y34550000D01*
X-4192127Y34463896D01*
X-4240901Y34390901D01*
X-4313896Y34342127D01*
X-4400000Y34325000D01*
X-4404923Y34325000D01*
X-4845077Y34325000D01*
X-4850000Y34325000D01*
X-4936104Y34342127D01*
X-5009099Y34390901D01*
X-5057873Y34463896D01*
X-5075000Y34550000D01*
X-5075000Y35050000D01*
X-5057873Y35136104D01*
X-5009099Y35209099D01*
X-4936104Y35257873D01*
X-4850000Y35275000D01*
X-4400000Y35275000D01*
X-4313896Y35257873D01*
G37*
G36*
X-2263896Y35257873D02*
G01*
X-2190901Y35209099D01*
X-2142127Y35136104D01*
X-2125000Y35050000D01*
X-2125000Y34550000D01*
X-2142127Y34463896D01*
X-2190901Y34390901D01*
X-2263896Y34342127D01*
X-2350000Y34325000D01*
X-2354923Y34325000D01*
X-2795077Y34325000D01*
X-2800000Y34325000D01*
X-2886104Y34342127D01*
X-2959099Y34390901D01*
X-3007873Y34463896D01*
X-3025000Y34550000D01*
X-3025000Y35050000D01*
X-3007873Y35136104D01*
X-2959099Y35209099D01*
X-2886104Y35257873D01*
X-2800000Y35275000D01*
X-2350000Y35275000D01*
X-2263896Y35257873D01*
G37*
G36*
X-713896Y35257873D02*
G01*
X-640901Y35209099D01*
X-592127Y35136104D01*
X-575000Y35050000D01*
X-575000Y34550000D01*
X-592127Y34463896D01*
X-640901Y34390901D01*
X-713896Y34342127D01*
X-800000Y34325000D01*
X-804923Y34325000D01*
X-1245077Y34325000D01*
X-1250000Y34325000D01*
X-1336104Y34342127D01*
X-1409099Y34390901D01*
X-1457873Y34463896D01*
X-1475000Y34550000D01*
X-1475000Y35050000D01*
X-1457873Y35136104D01*
X-1409099Y35209099D01*
X-1336104Y35257873D01*
X-1250000Y35275000D01*
X-800000Y35275000D01*
X-713896Y35257873D01*
G37*
G36*
X1336103Y35257873D02*
G01*
X1409098Y35209099D01*
X1457872Y35136104D01*
X1474999Y35050000D01*
X1474999Y34550000D01*
X1457872Y34463896D01*
X1409098Y34390901D01*
X1336103Y34342127D01*
X1249999Y34325000D01*
X1245075Y34325000D01*
X804921Y34325000D01*
X799999Y34325000D01*
X713895Y34342127D01*
X640900Y34390901D01*
X592126Y34463896D01*
X574999Y34550000D01*
X574999Y35050000D01*
X592126Y35136104D01*
X640900Y35209099D01*
X713895Y35257873D01*
X799999Y35275000D01*
X1249999Y35275000D01*
X1336103Y35257873D01*
G37*
G36*
X2886103Y35257873D02*
G01*
X2959098Y35209099D01*
X3007872Y35136104D01*
X3024999Y35050000D01*
X3024999Y34550000D01*
X3007872Y34463896D01*
X2959098Y34390901D01*
X2886103Y34342127D01*
X2799999Y34325000D01*
X2795075Y34325000D01*
X2354921Y34325000D01*
X2349999Y34325000D01*
X2263895Y34342127D01*
X2190900Y34390901D01*
X2142126Y34463896D01*
X2124999Y34550000D01*
X2124999Y35050000D01*
X2142126Y35136104D01*
X2190900Y35209099D01*
X2263895Y35257873D01*
X2349999Y35275000D01*
X2799999Y35275000D01*
X2886103Y35257873D01*
G37*
G36*
X4936103Y35257873D02*
G01*
X5009098Y35209099D01*
X5057872Y35136104D01*
X5074999Y35050000D01*
X5074999Y34550000D01*
X5057872Y34463896D01*
X5009098Y34390901D01*
X4936103Y34342127D01*
X4849999Y34325000D01*
X4845075Y34325000D01*
X4404921Y34325000D01*
X4399999Y34325000D01*
X4313895Y34342127D01*
X4240900Y34390901D01*
X4192126Y34463896D01*
X4174999Y34550000D01*
X4174999Y35050000D01*
X4192126Y35136104D01*
X4240900Y35209099D01*
X4313895Y35257873D01*
X4399999Y35275000D01*
X4849999Y35275000D01*
X4936103Y35257873D01*
G37*
G36*
X6486103Y35257873D02*
G01*
X6559098Y35209099D01*
X6607872Y35136104D01*
X6624999Y35050000D01*
X6624999Y34550000D01*
X6607872Y34463896D01*
X6559098Y34390901D01*
X6486103Y34342127D01*
X6399999Y34325000D01*
X6395075Y34325000D01*
X5954921Y34325000D01*
X5949999Y34325000D01*
X5863895Y34342127D01*
X5790900Y34390901D01*
X5742126Y34463896D01*
X5724999Y34550000D01*
X5724999Y35050000D01*
X5742126Y35136104D01*
X5790900Y35209099D01*
X5863895Y35257873D01*
X5949999Y35275000D01*
X6399999Y35275000D01*
X6486103Y35257873D01*
G37*
G36*
X8536104Y35257873D02*
G01*
X8609099Y35209099D01*
X8657873Y35136104D01*
X8675000Y35050000D01*
X8675000Y34550000D01*
X8657873Y34463896D01*
X8609099Y34390901D01*
X8536104Y34342127D01*
X8450000Y34325000D01*
X8445076Y34325000D01*
X8004922Y34325000D01*
X8000000Y34325000D01*
X7913896Y34342127D01*
X7840901Y34390901D01*
X7792127Y34463896D01*
X7775000Y34550000D01*
X7775000Y35050000D01*
X7792127Y35136104D01*
X7840901Y35209099D01*
X7913896Y35257873D01*
X8000000Y35275000D01*
X8450000Y35275000D01*
X8536104Y35257873D01*
G37*
G36*
X10086104Y35257873D02*
G01*
X10159099Y35209099D01*
X10207873Y35136104D01*
X10225000Y35050000D01*
X10225000Y34550000D01*
X10207873Y34463896D01*
X10159099Y34390901D01*
X10086104Y34342127D01*
X10000000Y34325000D01*
X9995076Y34325000D01*
X9554922Y34325000D01*
X9550000Y34325000D01*
X9463896Y34342127D01*
X9390901Y34390901D01*
X9342127Y34463896D01*
X9325000Y34550000D01*
X9325000Y35050000D01*
X9342127Y35136104D01*
X9390901Y35209099D01*
X9463896Y35257873D01*
X9550000Y35275000D01*
X10000000Y35275000D01*
X10086104Y35257873D01*
G37*
G36*
X12136104Y35257873D02*
G01*
X12209099Y35209099D01*
X12257873Y35136104D01*
X12275000Y35050000D01*
X12275000Y34550000D01*
X12257873Y34463896D01*
X12209099Y34390901D01*
X12136104Y34342127D01*
X12050000Y34325000D01*
X12045076Y34325000D01*
X11604922Y34325000D01*
X11600000Y34325000D01*
X11513896Y34342127D01*
X11440901Y34390901D01*
X11392127Y34463896D01*
X11375000Y34550000D01*
X11375000Y35050000D01*
X11392127Y35136104D01*
X11440901Y35209099D01*
X11513896Y35257873D01*
X11600000Y35275000D01*
X12050000Y35275000D01*
X12136104Y35257873D01*
G37*
G36*
X13686104Y35257873D02*
G01*
X13759099Y35209099D01*
X13807873Y35136104D01*
X13825000Y35050000D01*
X13825000Y34550000D01*
X13807873Y34463896D01*
X13759099Y34390901D01*
X13686104Y34342127D01*
X13600000Y34325000D01*
X13595076Y34325000D01*
X13154922Y34325000D01*
X13150000Y34325000D01*
X13063896Y34342127D01*
X12990901Y34390901D01*
X12942127Y34463896D01*
X12925000Y34550000D01*
X12925000Y35050000D01*
X12942127Y35136104D01*
X12990901Y35209099D01*
X13063896Y35257873D01*
X13150000Y35275000D01*
X13600000Y35275000D01*
X13686104Y35257873D01*
G37*
G36*
X15736104Y35257873D02*
G01*
X15809099Y35209099D01*
X15857873Y35136104D01*
X15875000Y35050000D01*
X15875000Y34550000D01*
X15857873Y34463896D01*
X15809099Y34390901D01*
X15736104Y34342127D01*
X15650000Y34325000D01*
X15645076Y34325000D01*
X15204922Y34325000D01*
X15200000Y34325000D01*
X15113896Y34342127D01*
X15040901Y34390901D01*
X14992127Y34463896D01*
X14975000Y34550000D01*
X14975000Y35050000D01*
X14992127Y35136104D01*
X15040901Y35209099D01*
X15113896Y35257873D01*
X15200000Y35275000D01*
X15650000Y35275000D01*
X15736104Y35257873D01*
G37*
G36*
X17286104Y35257873D02*
G01*
X17359099Y35209099D01*
X17407873Y35136104D01*
X17425000Y35050000D01*
X17425000Y34550000D01*
X17407873Y34463896D01*
X17359099Y34390901D01*
X17286104Y34342127D01*
X17200000Y34325000D01*
X17195076Y34325000D01*
X16754922Y34325000D01*
X16750000Y34325000D01*
X16663896Y34342127D01*
X16590901Y34390901D01*
X16542127Y34463896D01*
X16525000Y34550000D01*
X16525000Y35050000D01*
X16542127Y35136104D01*
X16590901Y35209099D01*
X16663896Y35257873D01*
X16750000Y35275000D01*
X17200000Y35275000D01*
X17286104Y35257873D01*
G37*
G36*
X-50335195Y35777164D02*
G01*
X-50267372Y35738006D01*
X-50211994Y35682628D01*
X-50172836Y35614805D01*
X-50152567Y35539158D01*
X-50152567Y35460842D01*
X-50172836Y35385195D01*
X-50211994Y35317372D01*
X-50267372Y35261994D01*
X-50335195Y35222836D01*
X-50410842Y35202567D01*
X-50489158Y35202567D01*
X-50564805Y35222836D01*
X-50632628Y35261994D01*
X-50688006Y35317372D01*
X-50727164Y35385195D01*
X-50747433Y35460842D01*
X-50747433Y35539158D01*
X-50727164Y35614805D01*
X-50688006Y35682628D01*
X-50632628Y35738006D01*
X-50564805Y35777164D01*
X-50489158Y35797433D01*
X-50410842Y35797433D01*
X-50335195Y35777164D01*
G37*
G36*
X-42963896Y36457873D02*
G01*
X-42890901Y36409099D01*
X-42842127Y36336104D01*
X-42825000Y36250000D01*
X-42825000Y35750000D01*
X-42842127Y35663896D01*
X-42890901Y35590901D01*
X-42963896Y35542127D01*
X-43050000Y35525000D01*
X-43054923Y35525000D01*
X-43495077Y35525000D01*
X-43500000Y35525000D01*
X-43586104Y35542127D01*
X-43659099Y35590901D01*
X-43707873Y35663896D01*
X-43725000Y35750000D01*
X-43725000Y36250000D01*
X-43707873Y36336104D01*
X-43659099Y36409099D01*
X-43586104Y36457873D01*
X-43500000Y36475000D01*
X-43050000Y36475000D01*
X-42963896Y36457873D01*
G37*
G36*
X-41413896Y36457873D02*
G01*
X-41340901Y36409099D01*
X-41292127Y36336104D01*
X-41275000Y36250000D01*
X-41275000Y35750000D01*
X-41292127Y35663896D01*
X-41340901Y35590901D01*
X-41413896Y35542127D01*
X-41500000Y35525000D01*
X-41504923Y35525000D01*
X-41945077Y35525000D01*
X-41950000Y35525000D01*
X-42036104Y35542127D01*
X-42109099Y35590901D01*
X-42157873Y35663896D01*
X-42175000Y35750000D01*
X-42175000Y36250000D01*
X-42157873Y36336104D01*
X-42109099Y36409099D01*
X-42036104Y36457873D01*
X-41950000Y36475000D01*
X-41500000Y36475000D01*
X-41413896Y36457873D01*
G37*
G36*
X-46963896Y36857873D02*
G01*
X-46890901Y36809099D01*
X-46842127Y36736104D01*
X-46825000Y36650000D01*
X-46825000Y36150000D01*
X-46842127Y36063896D01*
X-46890901Y35990901D01*
X-46963896Y35942127D01*
X-47050000Y35925000D01*
X-47054923Y35925000D01*
X-47495077Y35925000D01*
X-47500000Y35925000D01*
X-47586104Y35942127D01*
X-47659099Y35990901D01*
X-47707873Y36063896D01*
X-47725000Y36150000D01*
X-47725000Y36650000D01*
X-47707873Y36736104D01*
X-47659099Y36809099D01*
X-47586104Y36857873D01*
X-47500000Y36875000D01*
X-47050000Y36875000D01*
X-46963896Y36857873D01*
G37*
G36*
X-45413896Y36857873D02*
G01*
X-45340901Y36809099D01*
X-45292127Y36736104D01*
X-45275000Y36650000D01*
X-45275000Y36150000D01*
X-45292127Y36063896D01*
X-45340901Y35990901D01*
X-45413896Y35942127D01*
X-45500000Y35925000D01*
X-45504923Y35925000D01*
X-45945077Y35925000D01*
X-45950000Y35925000D01*
X-46036104Y35942127D01*
X-46109099Y35990901D01*
X-46157873Y36063896D01*
X-46175000Y36150000D01*
X-46175000Y36650000D01*
X-46157873Y36736104D01*
X-46109099Y36809099D01*
X-46036104Y36857873D01*
X-45950000Y36875000D01*
X-45500000Y36875000D01*
X-45413896Y36857873D01*
G37*
G36*
X-52836289Y37466870D02*
G01*
X-52711315Y37442011D01*
X-52593592Y37393249D01*
X-52487644Y37322457D01*
X-52397543Y37232356D01*
X-52326751Y37126408D01*
X-52277989Y37008685D01*
X-52253130Y36883711D01*
X-52253130Y36756289D01*
X-52277989Y36631315D01*
X-52326751Y36513592D01*
X-52397543Y36407644D01*
X-52487644Y36317543D01*
X-52593592Y36246751D01*
X-52711315Y36197989D01*
X-52836289Y36173130D01*
X-52900000Y36170000D01*
X-52901233Y36170000D01*
X-54198767Y36170000D01*
X-54200000Y36170000D01*
X-54263711Y36173130D01*
X-54388685Y36197989D01*
X-54506408Y36246751D01*
X-54612356Y36317543D01*
X-54702457Y36407644D01*
X-54773249Y36513592D01*
X-54822011Y36631315D01*
X-54846870Y36756289D01*
X-54846870Y36883711D01*
X-54822011Y37008685D01*
X-54773249Y37126408D01*
X-54702457Y37232356D01*
X-54612356Y37322457D01*
X-54506408Y37393249D01*
X-54388685Y37442011D01*
X-54263711Y37466870D01*
X-54200000Y37470000D01*
X-52900000Y37470000D01*
X-52836289Y37466870D01*
G37*
G36*
X-49161289Y37466870D02*
G01*
X-49036315Y37442011D01*
X-48918592Y37393249D01*
X-48812644Y37322457D01*
X-48722543Y37232356D01*
X-48651751Y37126408D01*
X-48602989Y37008685D01*
X-48578130Y36883711D01*
X-48578130Y36756289D01*
X-48602989Y36631315D01*
X-48651751Y36513592D01*
X-48722543Y36407644D01*
X-48812644Y36317543D01*
X-48918592Y36246751D01*
X-49036315Y36197989D01*
X-49161289Y36173130D01*
X-49225000Y36170000D01*
X-49226233Y36170000D01*
X-50223767Y36170000D01*
X-50225000Y36170000D01*
X-50288711Y36173130D01*
X-50413685Y36197989D01*
X-50531408Y36246751D01*
X-50637356Y36317543D01*
X-50727457Y36407644D01*
X-50798249Y36513592D01*
X-50847011Y36631315D01*
X-50871870Y36756289D01*
X-50871870Y36883711D01*
X-50847011Y37008685D01*
X-50798249Y37126408D01*
X-50727457Y37232356D01*
X-50637356Y37322457D01*
X-50531408Y37393249D01*
X-50413685Y37442011D01*
X-50288711Y37466870D01*
X-50225000Y37470000D01*
X-49225000Y37470000D01*
X-49161289Y37466870D01*
G37*
G36*
X-27548463Y38459776D02*
G01*
X-27483579Y38416421D01*
X-27440224Y38351537D01*
X-27425000Y38275000D01*
X-27425000Y37725000D01*
X-27440224Y37648463D01*
X-27483579Y37583579D01*
X-27548463Y37540224D01*
X-27625000Y37525000D01*
X-27629923Y37525000D01*
X-28020077Y37525000D01*
X-28025000Y37525000D01*
X-28101537Y37540224D01*
X-28166421Y37583579D01*
X-28209776Y37648463D01*
X-28225000Y37725000D01*
X-28225000Y38275000D01*
X-28209776Y38351537D01*
X-28166421Y38416421D01*
X-28101537Y38459776D01*
X-28025000Y38475000D01*
X-27625000Y38475000D01*
X-27548463Y38459776D01*
G37*
G36*
X-25898463Y38459776D02*
G01*
X-25833579Y38416421D01*
X-25790224Y38351537D01*
X-25775000Y38275000D01*
X-25775000Y37725000D01*
X-25790224Y37648463D01*
X-25833579Y37583579D01*
X-25898463Y37540224D01*
X-25975000Y37525000D01*
X-25979923Y37525000D01*
X-26370077Y37525000D01*
X-26375000Y37525000D01*
X-26451537Y37540224D01*
X-26516421Y37583579D01*
X-26559776Y37648463D01*
X-26575000Y37725000D01*
X-26575000Y38275000D01*
X-26559776Y38351537D01*
X-26516421Y38416421D01*
X-26451537Y38459776D01*
X-26375000Y38475000D01*
X-25975000Y38475000D01*
X-25898463Y38459776D01*
G37*
G36*
X-24048463Y38459776D02*
G01*
X-23983579Y38416421D01*
X-23940224Y38351537D01*
X-23925000Y38275000D01*
X-23925000Y37725000D01*
X-23940224Y37648463D01*
X-23983579Y37583579D01*
X-24048463Y37540224D01*
X-24125000Y37525000D01*
X-24129923Y37525000D01*
X-24520077Y37525000D01*
X-24525000Y37525000D01*
X-24601537Y37540224D01*
X-24666421Y37583579D01*
X-24709776Y37648463D01*
X-24725000Y37725000D01*
X-24725000Y38275000D01*
X-24709776Y38351537D01*
X-24666421Y38416421D01*
X-24601537Y38459776D01*
X-24525000Y38475000D01*
X-24125000Y38475000D01*
X-24048463Y38459776D01*
G37*
G36*
X-22398463Y38459776D02*
G01*
X-22333579Y38416421D01*
X-22290224Y38351537D01*
X-22275000Y38275000D01*
X-22275000Y37725000D01*
X-22290224Y37648463D01*
X-22333579Y37583579D01*
X-22398463Y37540224D01*
X-22475000Y37525000D01*
X-22479923Y37525000D01*
X-22870077Y37525000D01*
X-22875000Y37525000D01*
X-22951537Y37540224D01*
X-23016421Y37583579D01*
X-23059776Y37648463D01*
X-23075000Y37725000D01*
X-23075000Y38275000D01*
X-23059776Y38351537D01*
X-23016421Y38416421D01*
X-22951537Y38459776D01*
X-22875000Y38475000D01*
X-22475000Y38475000D01*
X-22398463Y38459776D01*
G37*
G36*
X-17048463Y38459776D02*
G01*
X-16983579Y38416421D01*
X-16940224Y38351537D01*
X-16925000Y38275000D01*
X-16925000Y37725000D01*
X-16940224Y37648463D01*
X-16983579Y37583579D01*
X-17048463Y37540224D01*
X-17125000Y37525000D01*
X-17129923Y37525000D01*
X-17520077Y37525000D01*
X-17525000Y37525000D01*
X-17601537Y37540224D01*
X-17666421Y37583579D01*
X-17709776Y37648463D01*
X-17725000Y37725000D01*
X-17725000Y38275000D01*
X-17709776Y38351537D01*
X-17666421Y38416421D01*
X-17601537Y38459776D01*
X-17525000Y38475000D01*
X-17125000Y38475000D01*
X-17048463Y38459776D01*
G37*
G36*
X-15398463Y38459776D02*
G01*
X-15333579Y38416421D01*
X-15290224Y38351537D01*
X-15275000Y38275000D01*
X-15275000Y37725000D01*
X-15290224Y37648463D01*
X-15333579Y37583579D01*
X-15398463Y37540224D01*
X-15475000Y37525000D01*
X-15479923Y37525000D01*
X-15870077Y37525000D01*
X-15875000Y37525000D01*
X-15951537Y37540224D01*
X-16016421Y37583579D01*
X-16059776Y37648463D01*
X-16075000Y37725000D01*
X-16075000Y38275000D01*
X-16059776Y38351537D01*
X-16016421Y38416421D01*
X-15951537Y38459776D01*
X-15875000Y38475000D01*
X-15475000Y38475000D01*
X-15398463Y38459776D01*
G37*
G36*
X-12548463Y38459776D02*
G01*
X-12483579Y38416421D01*
X-12440224Y38351537D01*
X-12425000Y38275000D01*
X-12425000Y37725000D01*
X-12440224Y37648463D01*
X-12483579Y37583579D01*
X-12548463Y37540224D01*
X-12625000Y37525000D01*
X-12629923Y37525000D01*
X-13020077Y37525000D01*
X-13025000Y37525000D01*
X-13101537Y37540224D01*
X-13166421Y37583579D01*
X-13209776Y37648463D01*
X-13225000Y37725000D01*
X-13225000Y38275000D01*
X-13209776Y38351537D01*
X-13166421Y38416421D01*
X-13101537Y38459776D01*
X-13025000Y38475000D01*
X-12625000Y38475000D01*
X-12548463Y38459776D01*
G37*
G36*
X-10898463Y38459776D02*
G01*
X-10833579Y38416421D01*
X-10790224Y38351537D01*
X-10775000Y38275000D01*
X-10775000Y37725000D01*
X-10790224Y37648463D01*
X-10833579Y37583579D01*
X-10898463Y37540224D01*
X-10975000Y37525000D01*
X-10979923Y37525000D01*
X-11370077Y37525000D01*
X-11375000Y37525000D01*
X-11451537Y37540224D01*
X-11516421Y37583579D01*
X-11559776Y37648463D01*
X-11575000Y37725000D01*
X-11575000Y38275000D01*
X-11559776Y38351537D01*
X-11516421Y38416421D01*
X-11451537Y38459776D01*
X-11375000Y38475000D01*
X-10975000Y38475000D01*
X-10898463Y38459776D01*
G37*
G36*
X13451537Y38459776D02*
G01*
X13516421Y38416421D01*
X13559776Y38351537D01*
X13575000Y38275000D01*
X13575000Y37725000D01*
X13559776Y37648463D01*
X13516421Y37583579D01*
X13451537Y37540224D01*
X13375000Y37525000D01*
X13370076Y37525000D01*
X12979922Y37525000D01*
X12975000Y37525000D01*
X12898463Y37540224D01*
X12833579Y37583579D01*
X12790224Y37648463D01*
X12775000Y37725000D01*
X12775000Y38275000D01*
X12790224Y38351537D01*
X12833579Y38416421D01*
X12898463Y38459776D01*
X12975000Y38475000D01*
X13375000Y38475000D01*
X13451537Y38459776D01*
G37*
G36*
X15101537Y38459776D02*
G01*
X15166421Y38416421D01*
X15209776Y38351537D01*
X15225000Y38275000D01*
X15225000Y37725000D01*
X15209776Y37648463D01*
X15166421Y37583579D01*
X15101537Y37540224D01*
X15025000Y37525000D01*
X15020076Y37525000D01*
X14629922Y37525000D01*
X14625000Y37525000D01*
X14548463Y37540224D01*
X14483579Y37583579D01*
X14440224Y37648463D01*
X14425000Y37725000D01*
X14425000Y38275000D01*
X14440224Y38351537D01*
X14483579Y38416421D01*
X14548463Y38459776D01*
X14625000Y38475000D01*
X15025000Y38475000D01*
X15101537Y38459776D01*
G37*
G36*
X8036104Y38995873D02*
G01*
X8109099Y38947099D01*
X8157873Y38874104D01*
X8175000Y38788000D01*
X8175000Y38288000D01*
X8157873Y38201896D01*
X8109099Y38128901D01*
X8036104Y38080127D01*
X7950000Y38063000D01*
X7945076Y38063000D01*
X7504922Y38063000D01*
X7500000Y38063000D01*
X7413896Y38080127D01*
X7340901Y38128901D01*
X7292127Y38201896D01*
X7275000Y38288000D01*
X7275000Y38788000D01*
X7292127Y38874104D01*
X7340901Y38947099D01*
X7413896Y38995873D01*
X7500000Y39013000D01*
X7950000Y39013000D01*
X8036104Y38995873D01*
G37*
G36*
X9586104Y38995873D02*
G01*
X9659099Y38947099D01*
X9707873Y38874104D01*
X9725000Y38788000D01*
X9725000Y38288000D01*
X9707873Y38201896D01*
X9659099Y38128901D01*
X9586104Y38080127D01*
X9500000Y38063000D01*
X9495076Y38063000D01*
X9054922Y38063000D01*
X9050000Y38063000D01*
X8963896Y38080127D01*
X8890901Y38128901D01*
X8842127Y38201896D01*
X8825000Y38288000D01*
X8825000Y38788000D01*
X8842127Y38874104D01*
X8890901Y38947099D01*
X8963896Y38995873D01*
X9050000Y39013000D01*
X9500000Y39013000D01*
X9586104Y38995873D01*
G37*
G36*
X-39963896Y39745873D02*
G01*
X-39890901Y39697099D01*
X-39842127Y39624104D01*
X-39825000Y39538000D01*
X-39825000Y39038000D01*
X-39842127Y38951896D01*
X-39890901Y38878901D01*
X-39963896Y38830127D01*
X-40050000Y38813000D01*
X-40054923Y38813000D01*
X-40495077Y38813000D01*
X-40500000Y38813000D01*
X-40586104Y38830127D01*
X-40659099Y38878901D01*
X-40707873Y38951896D01*
X-40725000Y39038000D01*
X-40725000Y39538000D01*
X-40707873Y39624104D01*
X-40659099Y39697099D01*
X-40586104Y39745873D01*
X-40500000Y39763000D01*
X-40050000Y39763000D01*
X-39963896Y39745873D01*
G37*
G36*
X-38413896Y39745873D02*
G01*
X-38340901Y39697099D01*
X-38292127Y39624104D01*
X-38275000Y39538000D01*
X-38275000Y39038000D01*
X-38292127Y38951896D01*
X-38340901Y38878901D01*
X-38413896Y38830127D01*
X-38500000Y38813000D01*
X-38504923Y38813000D01*
X-38945077Y38813000D01*
X-38950000Y38813000D01*
X-39036104Y38830127D01*
X-39109099Y38878901D01*
X-39157873Y38951896D01*
X-39175000Y39038000D01*
X-39175000Y39538000D01*
X-39157873Y39624104D01*
X-39109099Y39697099D01*
X-39036104Y39745873D01*
X-38950000Y39763000D01*
X-38500000Y39763000D01*
X-38413896Y39745873D01*
G37*
G36*
X-34463896Y39745873D02*
G01*
X-34390901Y39697099D01*
X-34342127Y39624104D01*
X-34325000Y39538000D01*
X-34325000Y39038000D01*
X-34342127Y38951896D01*
X-34390901Y38878901D01*
X-34463896Y38830127D01*
X-34550000Y38813000D01*
X-34554923Y38813000D01*
X-34995077Y38813000D01*
X-35000000Y38813000D01*
X-35086104Y38830127D01*
X-35159099Y38878901D01*
X-35207873Y38951896D01*
X-35225000Y39038000D01*
X-35225000Y39538000D01*
X-35207873Y39624104D01*
X-35159099Y39697099D01*
X-35086104Y39745873D01*
X-35000000Y39763000D01*
X-34550000Y39763000D01*
X-34463896Y39745873D01*
G37*
G36*
X-32913896Y39745873D02*
G01*
X-32840901Y39697099D01*
X-32792127Y39624104D01*
X-32775000Y39538000D01*
X-32775000Y39038000D01*
X-32792127Y38951896D01*
X-32840901Y38878901D01*
X-32913896Y38830127D01*
X-33000000Y38813000D01*
X-33004923Y38813000D01*
X-33445077Y38813000D01*
X-33450000Y38813000D01*
X-33536104Y38830127D01*
X-33609099Y38878901D01*
X-33657873Y38951896D01*
X-33675000Y39038000D01*
X-33675000Y39538000D01*
X-33657873Y39624104D01*
X-33609099Y39697099D01*
X-33536104Y39745873D01*
X-33450000Y39763000D01*
X-33000000Y39763000D01*
X-32913896Y39745873D01*
G37*
G36*
X-8963896Y39745873D02*
G01*
X-8890901Y39697099D01*
X-8842127Y39624104D01*
X-8825000Y39538000D01*
X-8825000Y39038000D01*
X-8842127Y38951896D01*
X-8890901Y38878901D01*
X-8963896Y38830127D01*
X-9050000Y38813000D01*
X-9054923Y38813000D01*
X-9495077Y38813000D01*
X-9500000Y38813000D01*
X-9586104Y38830127D01*
X-9659099Y38878901D01*
X-9707873Y38951896D01*
X-9725000Y39038000D01*
X-9725000Y39538000D01*
X-9707873Y39624104D01*
X-9659099Y39697099D01*
X-9586104Y39745873D01*
X-9500000Y39763000D01*
X-9050000Y39763000D01*
X-8963896Y39745873D01*
G37*
G36*
X-7413896Y39745873D02*
G01*
X-7340901Y39697099D01*
X-7292127Y39624104D01*
X-7275000Y39538000D01*
X-7275000Y39038000D01*
X-7292127Y38951896D01*
X-7340901Y38878901D01*
X-7413896Y38830127D01*
X-7500000Y38813000D01*
X-7504923Y38813000D01*
X-7945077Y38813000D01*
X-7950000Y38813000D01*
X-8036104Y38830127D01*
X-8109099Y38878901D01*
X-8157873Y38951896D01*
X-8175000Y39038000D01*
X-8175000Y39538000D01*
X-8157873Y39624104D01*
X-8109099Y39697099D01*
X-8036104Y39745873D01*
X-7950000Y39763000D01*
X-7500000Y39763000D01*
X-7413896Y39745873D01*
G37*
G36*
X32036104Y39995873D02*
G01*
X32109099Y39947099D01*
X32157873Y39874104D01*
X32175000Y39788000D01*
X32175000Y39288000D01*
X32157873Y39201896D01*
X32109099Y39128901D01*
X32036104Y39080127D01*
X31950000Y39063000D01*
X31945076Y39063000D01*
X31504922Y39063000D01*
X31500000Y39063000D01*
X31413896Y39080127D01*
X31340901Y39128901D01*
X31292127Y39201896D01*
X31275000Y39288000D01*
X31275000Y39788000D01*
X31292127Y39874104D01*
X31340901Y39947099D01*
X31413896Y39995873D01*
X31500000Y40013000D01*
X31950000Y40013000D01*
X32036104Y39995873D01*
G37*
G36*
X33586104Y39995873D02*
G01*
X33659099Y39947099D01*
X33707873Y39874104D01*
X33725000Y39788000D01*
X33725000Y39288000D01*
X33707873Y39201896D01*
X33659099Y39128901D01*
X33586104Y39080127D01*
X33500000Y39063000D01*
X33495076Y39063000D01*
X33054922Y39063000D01*
X33050000Y39063000D01*
X32963896Y39080127D01*
X32890901Y39128901D01*
X32842127Y39201896D01*
X32825000Y39288000D01*
X32825000Y39788000D01*
X32842127Y39874104D01*
X32890901Y39947099D01*
X32963896Y39995873D01*
X33050000Y40013000D01*
X33500000Y40013000D01*
X33586104Y39995873D01*
G37*
G36*
X-24048463Y40459776D02*
G01*
X-23983579Y40416421D01*
X-23940224Y40351537D01*
X-23925000Y40275000D01*
X-23925000Y39725000D01*
X-23940224Y39648463D01*
X-23983579Y39583579D01*
X-24048463Y39540224D01*
X-24125000Y39525000D01*
X-24129923Y39525000D01*
X-24520077Y39525000D01*
X-24525000Y39525000D01*
X-24601537Y39540224D01*
X-24666421Y39583579D01*
X-24709776Y39648463D01*
X-24725000Y39725000D01*
X-24725000Y40275000D01*
X-24709776Y40351537D01*
X-24666421Y40416421D01*
X-24601537Y40459776D01*
X-24525000Y40475000D01*
X-24125000Y40475000D01*
X-24048463Y40459776D01*
G37*
G36*
X-22398463Y40459776D02*
G01*
X-22333579Y40416421D01*
X-22290224Y40351537D01*
X-22275000Y40275000D01*
X-22275000Y39725000D01*
X-22290224Y39648463D01*
X-22333579Y39583579D01*
X-22398463Y39540224D01*
X-22475000Y39525000D01*
X-22479923Y39525000D01*
X-22870077Y39525000D01*
X-22875000Y39525000D01*
X-22951537Y39540224D01*
X-23016421Y39583579D01*
X-23059776Y39648463D01*
X-23075000Y39725000D01*
X-23075000Y40275000D01*
X-23059776Y40351537D01*
X-23016421Y40416421D01*
X-22951537Y40459776D01*
X-22875000Y40475000D01*
X-22475000Y40475000D01*
X-22398463Y40459776D01*
G37*
G36*
X-18548463Y40459776D02*
G01*
X-18483579Y40416421D01*
X-18440224Y40351537D01*
X-18425000Y40275000D01*
X-18425000Y39725000D01*
X-18440224Y39648463D01*
X-18483579Y39583579D01*
X-18548463Y39540224D01*
X-18625000Y39525000D01*
X-18629923Y39525000D01*
X-19020077Y39525000D01*
X-19025000Y39525000D01*
X-19101537Y39540224D01*
X-19166421Y39583579D01*
X-19209776Y39648463D01*
X-19225000Y39725000D01*
X-19225000Y40275000D01*
X-19209776Y40351537D01*
X-19166421Y40416421D01*
X-19101537Y40459776D01*
X-19025000Y40475000D01*
X-18625000Y40475000D01*
X-18548463Y40459776D01*
G37*
G36*
X-16898463Y40459776D02*
G01*
X-16833579Y40416421D01*
X-16790224Y40351537D01*
X-16775000Y40275000D01*
X-16775000Y39725000D01*
X-16790224Y39648463D01*
X-16833579Y39583579D01*
X-16898463Y39540224D01*
X-16975000Y39525000D01*
X-16979923Y39525000D01*
X-17370077Y39525000D01*
X-17375000Y39525000D01*
X-17451537Y39540224D01*
X-17516421Y39583579D01*
X-17559776Y39648463D01*
X-17575000Y39725000D01*
X-17575000Y40275000D01*
X-17559776Y40351537D01*
X-17516421Y40416421D01*
X-17451537Y40459776D01*
X-17375000Y40475000D01*
X-16975000Y40475000D01*
X-16898463Y40459776D01*
G37*
G36*
X12786104Y41995873D02*
G01*
X12859099Y41947099D01*
X12907873Y41874104D01*
X12925000Y41788000D01*
X12925000Y41288000D01*
X12907873Y41201896D01*
X12859099Y41128901D01*
X12786104Y41080127D01*
X12700000Y41063000D01*
X12695076Y41063000D01*
X12254922Y41063000D01*
X12250000Y41063000D01*
X12163896Y41080127D01*
X12090901Y41128901D01*
X12042127Y41201896D01*
X12025000Y41288000D01*
X12025000Y41788000D01*
X12042127Y41874104D01*
X12090901Y41947099D01*
X12163896Y41995873D01*
X12250000Y42013000D01*
X12700000Y42013000D01*
X12786104Y41995873D01*
G37*
G36*
X14336104Y41995873D02*
G01*
X14409099Y41947099D01*
X14457873Y41874104D01*
X14475000Y41788000D01*
X14475000Y41288000D01*
X14457873Y41201896D01*
X14409099Y41128901D01*
X14336104Y41080127D01*
X14250000Y41063000D01*
X14245076Y41063000D01*
X13804922Y41063000D01*
X13800000Y41063000D01*
X13713896Y41080127D01*
X13640901Y41128901D01*
X13592127Y41201896D01*
X13575000Y41288000D01*
X13575000Y41788000D01*
X13592127Y41874104D01*
X13640901Y41947099D01*
X13713896Y41995873D01*
X13800000Y42013000D01*
X14250000Y42013000D01*
X14336104Y41995873D01*
G37*
G36*
X39836104Y41945873D02*
G01*
X39909099Y41897099D01*
X39957873Y41824104D01*
X39975000Y41738000D01*
X39975000Y41288000D01*
X39957873Y41201896D01*
X39909099Y41128901D01*
X39836104Y41080127D01*
X39750000Y41063000D01*
X39745076Y41063000D01*
X39254922Y41063000D01*
X39250000Y41063000D01*
X39163896Y41080127D01*
X39090901Y41128901D01*
X39042127Y41201896D01*
X39025000Y41288000D01*
X39025000Y41738000D01*
X39042127Y41824104D01*
X39090901Y41897099D01*
X39163896Y41945873D01*
X39250000Y41963000D01*
X39750000Y41963000D01*
X39836104Y41945873D01*
G37*
G36*
X-39548463Y42359776D02*
G01*
X-39483579Y42316421D01*
X-39440224Y42251537D01*
X-39425000Y42175000D01*
X-39425000Y41625000D01*
X-39440224Y41548463D01*
X-39483579Y41483579D01*
X-39548463Y41440224D01*
X-39625000Y41425000D01*
X-39629923Y41425000D01*
X-40020077Y41425000D01*
X-40025000Y41425000D01*
X-40101537Y41440224D01*
X-40166421Y41483579D01*
X-40209776Y41548463D01*
X-40225000Y41625000D01*
X-40225000Y42175000D01*
X-40209776Y42251537D01*
X-40166421Y42316421D01*
X-40101537Y42359776D01*
X-40025000Y42375000D01*
X-39625000Y42375000D01*
X-39548463Y42359776D01*
G37*
G36*
X-37898463Y42359776D02*
G01*
X-37833579Y42316421D01*
X-37790224Y42251537D01*
X-37775000Y42175000D01*
X-37775000Y41625000D01*
X-37790224Y41548463D01*
X-37833579Y41483579D01*
X-37898463Y41440224D01*
X-37975000Y41425000D01*
X-37979923Y41425000D01*
X-38370077Y41425000D01*
X-38375000Y41425000D01*
X-38451537Y41440224D01*
X-38516421Y41483579D01*
X-38559776Y41548463D01*
X-38575000Y41625000D01*
X-38575000Y42175000D01*
X-38559776Y42251537D01*
X-38516421Y42316421D01*
X-38451537Y42359776D01*
X-38375000Y42375000D01*
X-37975000Y42375000D01*
X-37898463Y42359776D01*
G37*
G36*
X-52009819Y46461571D02*
G01*
X-51757121Y46393860D01*
X-51515423Y46293745D01*
X-51288860Y46162939D01*
X-51081308Y46003680D01*
X-50896320Y45818692D01*
X-50737061Y45611140D01*
X-50606255Y45384577D01*
X-50506140Y45142879D01*
X-50438429Y44890181D01*
X-50404282Y44630806D01*
X-50404282Y44369194D01*
X-50438429Y44109819D01*
X-50506140Y43857121D01*
X-50606255Y43615423D01*
X-50737061Y43388860D01*
X-50896320Y43181308D01*
X-51081308Y42996320D01*
X-51288860Y42837061D01*
X-51515423Y42706255D01*
X-51757121Y42606140D01*
X-52009819Y42538429D01*
X-52269194Y42504282D01*
X-52530806Y42504282D01*
X-52790181Y42538429D01*
X-53042879Y42606140D01*
X-53284577Y42706255D01*
X-53511140Y42837061D01*
X-53718692Y42996320D01*
X-53903680Y43181308D01*
X-54062939Y43388860D01*
X-54193745Y43615423D01*
X-54293860Y43857121D01*
X-54361571Y44109819D01*
X-54395718Y44369194D01*
X-54395718Y44630806D01*
X-54361571Y44890181D01*
X-54293860Y45142879D01*
X-54193745Y45384577D01*
X-54062939Y45611140D01*
X-53903680Y45818692D01*
X-53718692Y46003680D01*
X-53511140Y46162939D01*
X-53284577Y46293745D01*
X-53042879Y46393860D01*
X-52790181Y46461571D01*
X-52530806Y46495718D01*
X-52269194Y46495718D01*
X-52009819Y46461571D01*
G37*
G36*
X52790181Y46461571D02*
G01*
X53042879Y46393860D01*
X53284577Y46293745D01*
X53511140Y46162939D01*
X53718692Y46003680D01*
X53903680Y45818692D01*
X54062939Y45611140D01*
X54193745Y45384577D01*
X54293860Y45142879D01*
X54361571Y44890181D01*
X54395718Y44630806D01*
X54395718Y44369194D01*
X54361571Y44109819D01*
X54293860Y43857121D01*
X54193745Y43615423D01*
X54062939Y43388860D01*
X53903680Y43181308D01*
X53718692Y42996320D01*
X53511140Y42837061D01*
X53284577Y42706255D01*
X53042879Y42606140D01*
X52790181Y42538429D01*
X52530806Y42504282D01*
X52269194Y42504282D01*
X52009819Y42538429D01*
X51757121Y42606140D01*
X51515423Y42706255D01*
X51288860Y42837061D01*
X51081308Y42996320D01*
X50896320Y43181308D01*
X50737061Y43388860D01*
X50606255Y43615423D01*
X50506140Y43857121D01*
X50438429Y44109819D01*
X50404282Y44369194D01*
X50404282Y44630806D01*
X50438429Y44890181D01*
X50506140Y45142879D01*
X50606255Y45384577D01*
X50737061Y45611140D01*
X50896320Y45818692D01*
X51081308Y46003680D01*
X51288860Y46162939D01*
X51515423Y46293745D01*
X51757121Y46393860D01*
X52009819Y46461571D01*
X52269194Y46495718D01*
X52530806Y46495718D01*
X52790181Y46461571D01*
G37*
G36*
X39836104Y43495873D02*
G01*
X39909099Y43447099D01*
X39957873Y43374104D01*
X39975000Y43288000D01*
X39975000Y42838000D01*
X39957873Y42751896D01*
X39909099Y42678901D01*
X39836104Y42630127D01*
X39750000Y42613000D01*
X39745076Y42613000D01*
X39254922Y42613000D01*
X39250000Y42613000D01*
X39163896Y42630127D01*
X39090901Y42678901D01*
X39042127Y42751896D01*
X39025000Y42838000D01*
X39025000Y43288000D01*
X39042127Y43374104D01*
X39090901Y43447099D01*
X39163896Y43495873D01*
X39250000Y43513000D01*
X39750000Y43513000D01*
X39836104Y43495873D01*
G37*
G36*
X-33048463Y44959776D02*
G01*
X-32983579Y44916421D01*
X-32940224Y44851537D01*
X-32925000Y44775000D01*
X-32925000Y44225000D01*
X-32940224Y44148463D01*
X-32983579Y44083579D01*
X-33048463Y44040224D01*
X-33125000Y44025000D01*
X-33129923Y44025000D01*
X-33520077Y44025000D01*
X-33525000Y44025000D01*
X-33601537Y44040224D01*
X-33666421Y44083579D01*
X-33709776Y44148463D01*
X-33725000Y44225000D01*
X-33725000Y44775000D01*
X-33709776Y44851537D01*
X-33666421Y44916421D01*
X-33601537Y44959776D01*
X-33525000Y44975000D01*
X-33125000Y44975000D01*
X-33048463Y44959776D01*
G37*
G36*
X-31398463Y44959776D02*
G01*
X-31333579Y44916421D01*
X-31290224Y44851537D01*
X-31275000Y44775000D01*
X-31275000Y44225000D01*
X-31290224Y44148463D01*
X-31333579Y44083579D01*
X-31398463Y44040224D01*
X-31475000Y44025000D01*
X-31479923Y44025000D01*
X-31870077Y44025000D01*
X-31875000Y44025000D01*
X-31951537Y44040224D01*
X-32016421Y44083579D01*
X-32059776Y44148463D01*
X-32075000Y44225000D01*
X-32075000Y44775000D01*
X-32059776Y44851537D01*
X-32016421Y44916421D01*
X-31951537Y44959776D01*
X-31875000Y44975000D01*
X-31475000Y44975000D01*
X-31398463Y44959776D01*
G37*
G36*
X39086104Y45619873D02*
G01*
X39159099Y45571099D01*
X39207873Y45498104D01*
X39225000Y45412000D01*
X39225000Y44962000D01*
X39207873Y44875896D01*
X39159099Y44802901D01*
X39086104Y44754127D01*
X39000000Y44737000D01*
X38995076Y44737000D01*
X38504922Y44737000D01*
X38500000Y44737000D01*
X38413896Y44754127D01*
X38340901Y44802901D01*
X38292127Y44875896D01*
X38275000Y44962000D01*
X38275000Y45412000D01*
X38292127Y45498104D01*
X38340901Y45571099D01*
X38413896Y45619873D01*
X38500000Y45637000D01*
X39000000Y45637000D01*
X39086104Y45619873D01*
G37*
G36*
X9536104Y46919873D02*
G01*
X9609099Y46871099D01*
X9657873Y46798104D01*
X9675000Y46712000D01*
X9675000Y46212000D01*
X9657873Y46125896D01*
X9609099Y46052901D01*
X9536104Y46004127D01*
X9450000Y45987000D01*
X9445076Y45987000D01*
X9004922Y45987000D01*
X9000000Y45987000D01*
X8913896Y46004127D01*
X8840901Y46052901D01*
X8792127Y46125896D01*
X8775000Y46212000D01*
X8775000Y46712000D01*
X8792127Y46798104D01*
X8840901Y46871099D01*
X8913896Y46919873D01*
X9000000Y46937000D01*
X9450000Y46937000D01*
X9536104Y46919873D01*
G37*
G36*
X11086104Y46919873D02*
G01*
X11159099Y46871099D01*
X11207873Y46798104D01*
X11225000Y46712000D01*
X11225000Y46212000D01*
X11207873Y46125896D01*
X11159099Y46052901D01*
X11086104Y46004127D01*
X11000000Y45987000D01*
X10995076Y45987000D01*
X10554922Y45987000D01*
X10550000Y45987000D01*
X10463896Y46004127D01*
X10390901Y46052901D01*
X10342127Y46125896D01*
X10325000Y46212000D01*
X10325000Y46712000D01*
X10342127Y46798104D01*
X10390901Y46871099D01*
X10463896Y46919873D01*
X10550000Y46937000D01*
X11000000Y46937000D01*
X11086104Y46919873D01*
G37*
G36*
X13536104Y46919873D02*
G01*
X13609099Y46871099D01*
X13657873Y46798104D01*
X13675000Y46712000D01*
X13675000Y46212000D01*
X13657873Y46125896D01*
X13609099Y46052901D01*
X13536104Y46004127D01*
X13450000Y45987000D01*
X13445076Y45987000D01*
X13004922Y45987000D01*
X13000000Y45987000D01*
X12913896Y46004127D01*
X12840901Y46052901D01*
X12792127Y46125896D01*
X12775000Y46212000D01*
X12775000Y46712000D01*
X12792127Y46798104D01*
X12840901Y46871099D01*
X12913896Y46919873D01*
X13000000Y46937000D01*
X13450000Y46937000D01*
X13536104Y46919873D01*
G37*
G36*
X15086104Y46919873D02*
G01*
X15159099Y46871099D01*
X15207873Y46798104D01*
X15225000Y46712000D01*
X15225000Y46212000D01*
X15207873Y46125896D01*
X15159099Y46052901D01*
X15086104Y46004127D01*
X15000000Y45987000D01*
X14995076Y45987000D01*
X14554922Y45987000D01*
X14550000Y45987000D01*
X14463896Y46004127D01*
X14390901Y46052901D01*
X14342127Y46125896D01*
X14325000Y46212000D01*
X14325000Y46712000D01*
X14342127Y46798104D01*
X14390901Y46871099D01*
X14463896Y46919873D01*
X14550000Y46937000D01*
X15000000Y46937000D01*
X15086104Y46919873D01*
G37*
G36*
X-40213896Y47169873D02*
G01*
X-40140901Y47121099D01*
X-40092127Y47048104D01*
X-40075000Y46962000D01*
X-40075000Y46462000D01*
X-40092127Y46375896D01*
X-40140901Y46302901D01*
X-40213896Y46254127D01*
X-40300000Y46237000D01*
X-40304923Y46237000D01*
X-40745077Y46237000D01*
X-40750000Y46237000D01*
X-40836104Y46254127D01*
X-40909099Y46302901D01*
X-40957873Y46375896D01*
X-40975000Y46462000D01*
X-40975000Y46962000D01*
X-40957873Y47048104D01*
X-40909099Y47121099D01*
X-40836104Y47169873D01*
X-40750000Y47187000D01*
X-40300000Y47187000D01*
X-40213896Y47169873D01*
G37*
G36*
X-38663896Y47169873D02*
G01*
X-38590901Y47121099D01*
X-38542127Y47048104D01*
X-38525000Y46962000D01*
X-38525000Y46462000D01*
X-38542127Y46375896D01*
X-38590901Y46302901D01*
X-38663896Y46254127D01*
X-38750000Y46237000D01*
X-38754923Y46237000D01*
X-39195077Y46237000D01*
X-39200000Y46237000D01*
X-39286104Y46254127D01*
X-39359099Y46302901D01*
X-39407873Y46375896D01*
X-39425000Y46462000D01*
X-39425000Y46962000D01*
X-39407873Y47048104D01*
X-39359099Y47121099D01*
X-39286104Y47169873D01*
X-39200000Y47187000D01*
X-38750000Y47187000D01*
X-38663896Y47169873D01*
G37*
G36*
X-13463896Y47169873D02*
G01*
X-13390901Y47121099D01*
X-13342127Y47048104D01*
X-13325000Y46962000D01*
X-13325000Y46462000D01*
X-13342127Y46375896D01*
X-13390901Y46302901D01*
X-13463896Y46254127D01*
X-13550000Y46237000D01*
X-13554923Y46237000D01*
X-13995077Y46237000D01*
X-14000000Y46237000D01*
X-14086104Y46254127D01*
X-14159099Y46302901D01*
X-14207873Y46375896D01*
X-14225000Y46462000D01*
X-14225000Y46962000D01*
X-14207873Y47048104D01*
X-14159099Y47121099D01*
X-14086104Y47169873D01*
X-14000000Y47187000D01*
X-13550000Y47187000D01*
X-13463896Y47169873D01*
G37*
G36*
X-11913896Y47169873D02*
G01*
X-11840901Y47121099D01*
X-11792127Y47048104D01*
X-11775000Y46962000D01*
X-11775000Y46462000D01*
X-11792127Y46375896D01*
X-11840901Y46302901D01*
X-11913896Y46254127D01*
X-12000000Y46237000D01*
X-12004923Y46237000D01*
X-12445077Y46237000D01*
X-12450000Y46237000D01*
X-12536104Y46254127D01*
X-12609099Y46302901D01*
X-12657873Y46375896D01*
X-12675000Y46462000D01*
X-12675000Y46962000D01*
X-12657873Y47048104D01*
X-12609099Y47121099D01*
X-12536104Y47169873D01*
X-12450000Y47187000D01*
X-12000000Y47187000D01*
X-11913896Y47169873D01*
G37*
G36*
X-8413896Y47119873D02*
G01*
X-8340901Y47071099D01*
X-8292127Y46998104D01*
X-8275000Y46912000D01*
X-8275000Y46462000D01*
X-8292127Y46375896D01*
X-8340901Y46302901D01*
X-8413896Y46254127D01*
X-8500000Y46237000D01*
X-8504923Y46237000D01*
X-8995077Y46237000D01*
X-9000000Y46237000D01*
X-9086104Y46254127D01*
X-9159099Y46302901D01*
X-9207873Y46375896D01*
X-9225000Y46462000D01*
X-9225000Y46912000D01*
X-9207873Y46998104D01*
X-9159099Y47071099D01*
X-9086104Y47119873D01*
X-9000000Y47137000D01*
X-8500000Y47137000D01*
X-8413896Y47119873D01*
G37*
G36*
X31286104Y47169873D02*
G01*
X31359099Y47121099D01*
X31407873Y47048104D01*
X31425000Y46962000D01*
X31425000Y46462000D01*
X31407873Y46375896D01*
X31359099Y46302901D01*
X31286104Y46254127D01*
X31200000Y46237000D01*
X31195076Y46237000D01*
X30754922Y46237000D01*
X30750000Y46237000D01*
X30663896Y46254127D01*
X30590901Y46302901D01*
X30542127Y46375896D01*
X30525000Y46462000D01*
X30525000Y46962000D01*
X30542127Y47048104D01*
X30590901Y47121099D01*
X30663896Y47169873D01*
X30750000Y47187000D01*
X31200000Y47187000D01*
X31286104Y47169873D01*
G37*
G36*
X32836104Y47169873D02*
G01*
X32909099Y47121099D01*
X32957873Y47048104D01*
X32975000Y46962000D01*
X32975000Y46462000D01*
X32957873Y46375896D01*
X32909099Y46302901D01*
X32836104Y46254127D01*
X32750000Y46237000D01*
X32745076Y46237000D01*
X32304922Y46237000D01*
X32300000Y46237000D01*
X32213896Y46254127D01*
X32140901Y46302901D01*
X32092127Y46375896D01*
X32075000Y46462000D01*
X32075000Y46962000D01*
X32092127Y47048104D01*
X32140901Y47121099D01*
X32213896Y47169873D01*
X32300000Y47187000D01*
X32750000Y47187000D01*
X32836104Y47169873D01*
G37*
G36*
X39086104Y47169873D02*
G01*
X39159099Y47121099D01*
X39207873Y47048104D01*
X39225000Y46962000D01*
X39225000Y46512000D01*
X39207873Y46425896D01*
X39159099Y46352901D01*
X39086104Y46304127D01*
X39000000Y46287000D01*
X38995076Y46287000D01*
X38504922Y46287000D01*
X38500000Y46287000D01*
X38413896Y46304127D01*
X38340901Y46352901D01*
X38292127Y46425896D01*
X38275000Y46512000D01*
X38275000Y46962000D01*
X38292127Y47048104D01*
X38340901Y47121099D01*
X38413896Y47169873D01*
X38500000Y47187000D01*
X39000000Y47187000D01*
X39086104Y47169873D01*
G37*
G36*
X-37048463Y47959776D02*
G01*
X-36983579Y47916421D01*
X-36940224Y47851537D01*
X-36925000Y47775000D01*
X-36925000Y47225000D01*
X-36940224Y47148463D01*
X-36983579Y47083579D01*
X-37048463Y47040224D01*
X-37125000Y47025000D01*
X-37129923Y47025000D01*
X-37520077Y47025000D01*
X-37525000Y47025000D01*
X-37601537Y47040224D01*
X-37666421Y47083579D01*
X-37709776Y47148463D01*
X-37725000Y47225000D01*
X-37725000Y47775000D01*
X-37709776Y47851537D01*
X-37666421Y47916421D01*
X-37601537Y47959776D01*
X-37525000Y47975000D01*
X-37125000Y47975000D01*
X-37048463Y47959776D01*
G37*
G36*
X-35398463Y47959776D02*
G01*
X-35333579Y47916421D01*
X-35290224Y47851537D01*
X-35275000Y47775000D01*
X-35275000Y47225000D01*
X-35290224Y47148463D01*
X-35333579Y47083579D01*
X-35398463Y47040224D01*
X-35475000Y47025000D01*
X-35479923Y47025000D01*
X-35870077Y47025000D01*
X-35875000Y47025000D01*
X-35951537Y47040224D01*
X-36016421Y47083579D01*
X-36059776Y47148463D01*
X-36075000Y47225000D01*
X-36075000Y47775000D01*
X-36059776Y47851537D01*
X-36016421Y47916421D01*
X-35951537Y47959776D01*
X-35875000Y47975000D01*
X-35475000Y47975000D01*
X-35398463Y47959776D01*
G37*
G36*
X-33048463Y47959776D02*
G01*
X-32983579Y47916421D01*
X-32940224Y47851537D01*
X-32925000Y47775000D01*
X-32925000Y47225000D01*
X-32940224Y47148463D01*
X-32983579Y47083579D01*
X-33048463Y47040224D01*
X-33125000Y47025000D01*
X-33129923Y47025000D01*
X-33520077Y47025000D01*
X-33525000Y47025000D01*
X-33601537Y47040224D01*
X-33666421Y47083579D01*
X-33709776Y47148463D01*
X-33725000Y47225000D01*
X-33725000Y47775000D01*
X-33709776Y47851537D01*
X-33666421Y47916421D01*
X-33601537Y47959776D01*
X-33525000Y47975000D01*
X-33125000Y47975000D01*
X-33048463Y47959776D01*
G37*
G36*
X-31398463Y47959776D02*
G01*
X-31333579Y47916421D01*
X-31290224Y47851537D01*
X-31275000Y47775000D01*
X-31275000Y47225000D01*
X-31290224Y47148463D01*
X-31333579Y47083579D01*
X-31398463Y47040224D01*
X-31475000Y47025000D01*
X-31479923Y47025000D01*
X-31870077Y47025000D01*
X-31875000Y47025000D01*
X-31951537Y47040224D01*
X-32016421Y47083579D01*
X-32059776Y47148463D01*
X-32075000Y47225000D01*
X-32075000Y47775000D01*
X-32059776Y47851537D01*
X-32016421Y47916421D01*
X-31951537Y47959776D01*
X-31875000Y47975000D01*
X-31475000Y47975000D01*
X-31398463Y47959776D01*
G37*
G36*
X-22048463Y48459776D02*
G01*
X-21983579Y48416421D01*
X-21940224Y48351537D01*
X-21925000Y48275000D01*
X-21925000Y47725000D01*
X-21940224Y47648463D01*
X-21983579Y47583579D01*
X-22048463Y47540224D01*
X-22125000Y47525000D01*
X-22129923Y47525000D01*
X-22520077Y47525000D01*
X-22525000Y47525000D01*
X-22601537Y47540224D01*
X-22666421Y47583579D01*
X-22709776Y47648463D01*
X-22725000Y47725000D01*
X-22725000Y48275000D01*
X-22709776Y48351537D01*
X-22666421Y48416421D01*
X-22601537Y48459776D01*
X-22525000Y48475000D01*
X-22125000Y48475000D01*
X-22048463Y48459776D01*
G37*
G36*
X-20398463Y48459776D02*
G01*
X-20333579Y48416421D01*
X-20290224Y48351537D01*
X-20275000Y48275000D01*
X-20275000Y47725000D01*
X-20290224Y47648463D01*
X-20333579Y47583579D01*
X-20398463Y47540224D01*
X-20475000Y47525000D01*
X-20479923Y47525000D01*
X-20870077Y47525000D01*
X-20875000Y47525000D01*
X-20951537Y47540224D01*
X-21016421Y47583579D01*
X-21059776Y47648463D01*
X-21075000Y47725000D01*
X-21075000Y48275000D01*
X-21059776Y48351537D01*
X-21016421Y48416421D01*
X-20951537Y48459776D01*
X-20875000Y48475000D01*
X-20475000Y48475000D01*
X-20398463Y48459776D01*
G37*
G36*
X-48463Y48459776D02*
G01*
X16421Y48416421D01*
X59776Y48351537D01*
X75000Y48275000D01*
X75000Y47725000D01*
X59776Y47648463D01*
X16421Y47583579D01*
X-48463Y47540224D01*
X-125000Y47525000D01*
X-129923Y47525000D01*
X-520077Y47525000D01*
X-525000Y47525000D01*
X-601537Y47540224D01*
X-666421Y47583579D01*
X-709776Y47648463D01*
X-725000Y47725000D01*
X-725000Y48275000D01*
X-709776Y48351537D01*
X-666421Y48416421D01*
X-601537Y48459776D01*
X-525000Y48475000D01*
X-125000Y48475000D01*
X-48463Y48459776D01*
G37*
G36*
X1601537Y48459776D02*
G01*
X1666421Y48416421D01*
X1709776Y48351537D01*
X1725000Y48275000D01*
X1725000Y47725000D01*
X1709776Y47648463D01*
X1666421Y47583579D01*
X1601537Y47540224D01*
X1525000Y47525000D01*
X1520076Y47525000D01*
X1129922Y47525000D01*
X1125000Y47525000D01*
X1048463Y47540224D01*
X983579Y47583579D01*
X940224Y47648463D01*
X925000Y47725000D01*
X925000Y48275000D01*
X940224Y48351537D01*
X983579Y48416421D01*
X1048463Y48459776D01*
X1125000Y48475000D01*
X1525000Y48475000D01*
X1601537Y48459776D01*
G37*
G36*
X-8413896Y48669873D02*
G01*
X-8340901Y48621099D01*
X-8292127Y48548104D01*
X-8275000Y48462000D01*
X-8275000Y48012000D01*
X-8292127Y47925896D01*
X-8340901Y47852901D01*
X-8413896Y47804127D01*
X-8500000Y47787000D01*
X-8504923Y47787000D01*
X-8995077Y47787000D01*
X-9000000Y47787000D01*
X-9086104Y47804127D01*
X-9159099Y47852901D01*
X-9207873Y47925896D01*
X-9225000Y48012000D01*
X-9225000Y48462000D01*
X-9207873Y48548104D01*
X-9159099Y48621099D01*
X-9086104Y48669873D01*
X-9000000Y48687000D01*
X-8500000Y48687000D01*
X-8413896Y48669873D01*
G37*
G36*
X-32695941Y54724192D02*
G01*
X-32644591Y54718235D01*
X-32627048Y54710489D01*
X-32604329Y54705970D01*
X-32580006Y54689718D01*
X-32559206Y54680534D01*
X-32544999Y54666327D01*
X-32523223Y54651777D01*
X-32508672Y54630000D01*
X-32494465Y54615793D01*
X-32485280Y54594991D01*
X-32469030Y54570671D01*
X-32464511Y54547954D01*
X-32456764Y54530408D01*
X-32450805Y54479049D01*
X-32450000Y54475000D01*
X-32450000Y53525000D01*
X-32450804Y53520953D01*
X-32456764Y53469591D01*
X-32464511Y53452043D01*
X-32469030Y53429329D01*
X-32485278Y53405010D01*
X-32494465Y53384206D01*
X-32508674Y53369996D01*
X-32523223Y53348223D01*
X-32544996Y53333674D01*
X-32559206Y53319465D01*
X-32580010Y53310278D01*
X-32604329Y53294030D01*
X-32627043Y53289511D01*
X-32644591Y53281764D01*
X-32695952Y53275805D01*
X-32700000Y53275000D01*
X-32702892Y53275000D01*
X-33197108Y53275000D01*
X-33200000Y53275000D01*
X-33204047Y53275805D01*
X-33255408Y53281764D01*
X-33272954Y53289511D01*
X-33295671Y53294030D01*
X-33319991Y53310280D01*
X-33340793Y53319465D01*
X-33355000Y53333672D01*
X-33376777Y53348223D01*
X-33391327Y53369999D01*
X-33405534Y53384206D01*
X-33414718Y53405006D01*
X-33430970Y53429329D01*
X-33435489Y53452048D01*
X-33443235Y53469591D01*
X-33449192Y53520940D01*
X-33450000Y53525000D01*
X-33450000Y54475000D01*
X-33449192Y54479059D01*
X-33443235Y54530408D01*
X-33435489Y54547950D01*
X-33430970Y54570671D01*
X-33414716Y54594995D01*
X-33405534Y54615793D01*
X-33391329Y54629997D01*
X-33376777Y54651777D01*
X-33354997Y54666329D01*
X-33340793Y54680534D01*
X-33319995Y54689716D01*
X-33295671Y54705970D01*
X-33272950Y54710489D01*
X-33255408Y54718235D01*
X-33204061Y54724192D01*
X-33200000Y54725000D01*
X-32700000Y54725000D01*
X-32695941Y54724192D01*
G37*
G36*
X-30795941Y54724192D02*
G01*
X-30744591Y54718235D01*
X-30727048Y54710489D01*
X-30704329Y54705970D01*
X-30680006Y54689718D01*
X-30659206Y54680534D01*
X-30644999Y54666327D01*
X-30623223Y54651777D01*
X-30608672Y54630000D01*
X-30594465Y54615793D01*
X-30585280Y54594991D01*
X-30569030Y54570671D01*
X-30564511Y54547954D01*
X-30556764Y54530408D01*
X-30550805Y54479049D01*
X-30550000Y54475000D01*
X-30550000Y53525000D01*
X-30550804Y53520953D01*
X-30556764Y53469591D01*
X-30564511Y53452043D01*
X-30569030Y53429329D01*
X-30585278Y53405010D01*
X-30594465Y53384206D01*
X-30608674Y53369996D01*
X-30623223Y53348223D01*
X-30644996Y53333674D01*
X-30659206Y53319465D01*
X-30680010Y53310278D01*
X-30704329Y53294030D01*
X-30727043Y53289511D01*
X-30744591Y53281764D01*
X-30795952Y53275805D01*
X-30800000Y53275000D01*
X-30802892Y53275000D01*
X-31297108Y53275000D01*
X-31300000Y53275000D01*
X-31304047Y53275805D01*
X-31355408Y53281764D01*
X-31372954Y53289511D01*
X-31395671Y53294030D01*
X-31419991Y53310280D01*
X-31440793Y53319465D01*
X-31455000Y53333672D01*
X-31476777Y53348223D01*
X-31491327Y53369999D01*
X-31505534Y53384206D01*
X-31514718Y53405006D01*
X-31530970Y53429329D01*
X-31535489Y53452048D01*
X-31543235Y53469591D01*
X-31549192Y53520940D01*
X-31550000Y53525000D01*
X-31550000Y54475000D01*
X-31549192Y54479059D01*
X-31543235Y54530408D01*
X-31535489Y54547950D01*
X-31530970Y54570671D01*
X-31514716Y54594995D01*
X-31505534Y54615793D01*
X-31491329Y54629997D01*
X-31476777Y54651777D01*
X-31454997Y54666329D01*
X-31440793Y54680534D01*
X-31419995Y54689716D01*
X-31395671Y54705970D01*
X-31372950Y54710489D01*
X-31355408Y54718235D01*
X-31304061Y54724192D01*
X-31300000Y54725000D01*
X-30800000Y54725000D01*
X-30795941Y54724192D01*
G37*
G36*
X-27195941Y54724192D02*
G01*
X-27144591Y54718235D01*
X-27127048Y54710489D01*
X-27104329Y54705970D01*
X-27080006Y54689718D01*
X-27059206Y54680534D01*
X-27044999Y54666327D01*
X-27023223Y54651777D01*
X-27008672Y54630000D01*
X-26994465Y54615793D01*
X-26985280Y54594991D01*
X-26969030Y54570671D01*
X-26964511Y54547954D01*
X-26956764Y54530408D01*
X-26950805Y54479049D01*
X-26950000Y54475000D01*
X-26950000Y53525000D01*
X-26950804Y53520953D01*
X-26956764Y53469591D01*
X-26964511Y53452043D01*
X-26969030Y53429329D01*
X-26985278Y53405010D01*
X-26994465Y53384206D01*
X-27008674Y53369996D01*
X-27023223Y53348223D01*
X-27044996Y53333674D01*
X-27059206Y53319465D01*
X-27080010Y53310278D01*
X-27104329Y53294030D01*
X-27127043Y53289511D01*
X-27144591Y53281764D01*
X-27195952Y53275805D01*
X-27200000Y53275000D01*
X-27202892Y53275000D01*
X-27697108Y53275000D01*
X-27700000Y53275000D01*
X-27704047Y53275805D01*
X-27755408Y53281764D01*
X-27772954Y53289511D01*
X-27795671Y53294030D01*
X-27819991Y53310280D01*
X-27840793Y53319465D01*
X-27855000Y53333672D01*
X-27876777Y53348223D01*
X-27891327Y53369999D01*
X-27905534Y53384206D01*
X-27914718Y53405006D01*
X-27930970Y53429329D01*
X-27935489Y53452048D01*
X-27943235Y53469591D01*
X-27949192Y53520940D01*
X-27950000Y53525000D01*
X-27950000Y54475000D01*
X-27949192Y54479059D01*
X-27943235Y54530408D01*
X-27935489Y54547950D01*
X-27930970Y54570671D01*
X-27914716Y54594995D01*
X-27905534Y54615793D01*
X-27891329Y54629997D01*
X-27876777Y54651777D01*
X-27854997Y54666329D01*
X-27840793Y54680534D01*
X-27819995Y54689716D01*
X-27795671Y54705970D01*
X-27772950Y54710489D01*
X-27755408Y54718235D01*
X-27704061Y54724192D01*
X-27700000Y54725000D01*
X-27200000Y54725000D01*
X-27195941Y54724192D01*
G37*
G36*
X-25295941Y54724192D02*
G01*
X-25244591Y54718235D01*
X-25227048Y54710489D01*
X-25204329Y54705970D01*
X-25180006Y54689718D01*
X-25159206Y54680534D01*
X-25144999Y54666327D01*
X-25123223Y54651777D01*
X-25108672Y54630000D01*
X-25094465Y54615793D01*
X-25085280Y54594991D01*
X-25069030Y54570671D01*
X-25064511Y54547954D01*
X-25056764Y54530408D01*
X-25050805Y54479049D01*
X-25050000Y54475000D01*
X-25050000Y53525000D01*
X-25050804Y53520953D01*
X-25056764Y53469591D01*
X-25064511Y53452043D01*
X-25069030Y53429329D01*
X-25085278Y53405010D01*
X-25094465Y53384206D01*
X-25108674Y53369996D01*
X-25123223Y53348223D01*
X-25144996Y53333674D01*
X-25159206Y53319465D01*
X-25180010Y53310278D01*
X-25204329Y53294030D01*
X-25227043Y53289511D01*
X-25244591Y53281764D01*
X-25295952Y53275805D01*
X-25300000Y53275000D01*
X-25302892Y53275000D01*
X-25797108Y53275000D01*
X-25800000Y53275000D01*
X-25804047Y53275805D01*
X-25855408Y53281764D01*
X-25872954Y53289511D01*
X-25895671Y53294030D01*
X-25919991Y53310280D01*
X-25940793Y53319465D01*
X-25955000Y53333672D01*
X-25976777Y53348223D01*
X-25991327Y53369999D01*
X-26005534Y53384206D01*
X-26014718Y53405006D01*
X-26030970Y53429329D01*
X-26035489Y53452048D01*
X-26043235Y53469591D01*
X-26049192Y53520940D01*
X-26050000Y53525000D01*
X-26050000Y54475000D01*
X-26049192Y54479059D01*
X-26043235Y54530408D01*
X-26035489Y54547950D01*
X-26030970Y54570671D01*
X-26014716Y54594995D01*
X-26005534Y54615793D01*
X-25991329Y54629997D01*
X-25976777Y54651777D01*
X-25954997Y54666329D01*
X-25940793Y54680534D01*
X-25919995Y54689716D01*
X-25895671Y54705970D01*
X-25872950Y54710489D01*
X-25855408Y54718235D01*
X-25804061Y54724192D01*
X-25800000Y54725000D01*
X-25300000Y54725000D01*
X-25295941Y54724192D01*
G37*
G36*
X-41750000Y56000000D02*
G01*
X-41754924Y56000000D01*
X-43245077Y56000000D01*
X-43250000Y56000000D01*
X-43250000Y59500000D01*
X-41750000Y59500000D01*
X-41750000Y56000000D01*
G37*
G36*
X-39250000Y56000000D02*
G01*
X-39254924Y56000000D01*
X-40745077Y56000000D01*
X-40750000Y56000000D01*
X-40750000Y59500000D01*
X-39250000Y59500000D01*
X-39250000Y56000000D01*
G37*
G36*
X-36750000Y56000000D02*
G01*
X-36754924Y56000000D01*
X-38245077Y56000000D01*
X-38250000Y56000000D01*
X-38250000Y59500000D01*
X-36750000Y59500000D01*
X-36750000Y56000000D01*
G37*
G36*
X-34250000Y56000000D02*
G01*
X-34254924Y56000000D01*
X-35745077Y56000000D01*
X-35750000Y56000000D01*
X-35750000Y59500000D01*
X-34250000Y59500000D01*
X-34250000Y56000000D01*
G37*
G36*
X-26750000Y56000000D02*
G01*
X-26754924Y56000000D01*
X-28245077Y56000000D01*
X-28250000Y56000000D01*
X-28250000Y59500000D01*
X-26750000Y59500000D01*
X-26750000Y56000000D01*
G37*
G36*
X-24250000Y56000000D02*
G01*
X-24254924Y56000000D01*
X-25745077Y56000000D01*
X-25750000Y56000000D01*
X-25750000Y59500000D01*
X-24250000Y59500000D01*
X-24250000Y56000000D01*
G37*
G36*
X-21750000Y56000000D02*
G01*
X-21754924Y56000000D01*
X-23245077Y56000000D01*
X-23250000Y56000000D01*
X-23250000Y59500000D01*
X-21750000Y59500000D01*
X-21750000Y56000000D01*
G37*
G36*
X-19250000Y56000000D02*
G01*
X-19254924Y56000000D01*
X-20745077Y56000000D01*
X-20750000Y56000000D01*
X-20750000Y59500000D01*
X-19250000Y59500000D01*
X-19250000Y56000000D01*
G37*
G36*
X-16750000Y56000000D02*
G01*
X-16754924Y56000000D01*
X-18245077Y56000000D01*
X-18250000Y56000000D01*
X-18250000Y59500000D01*
X-16750000Y59500000D01*
X-16750000Y56000000D01*
G37*
G36*
X-14250000Y56000000D02*
G01*
X-14254924Y56000000D01*
X-15745077Y56000000D01*
X-15750000Y56000000D01*
X-15750000Y59500000D01*
X-14250000Y59500000D01*
X-14250000Y56000000D01*
G37*
G36*
X-11750000Y56000000D02*
G01*
X-11754924Y56000000D01*
X-13245077Y56000000D01*
X-13250000Y56000000D01*
X-13250000Y59500000D01*
X-11750000Y59500000D01*
X-11750000Y56000000D01*
G37*
G36*
X-9250000Y56000000D02*
G01*
X-9254924Y56000000D01*
X-10745077Y56000000D01*
X-10750000Y56000000D01*
X-10750000Y59500000D01*
X-9250000Y59500000D01*
X-9250000Y56000000D01*
G37*
G36*
X-6750000Y56000000D02*
G01*
X-6754924Y56000000D01*
X-8245077Y56000000D01*
X-8250000Y56000000D01*
X-8250000Y59500000D01*
X-6750000Y59500000D01*
X-6750000Y56000000D01*
G37*
G36*
X-4250000Y56000000D02*
G01*
X-4254924Y56000000D01*
X-5745077Y56000000D01*
X-5750000Y56000000D01*
X-5750000Y59500000D01*
X-4250000Y59500000D01*
X-4250000Y56000000D01*
G37*
G36*
X-1750000Y56000000D02*
G01*
X-1754924Y56000000D01*
X-3245077Y56000000D01*
X-3250000Y56000000D01*
X-3250000Y59500000D01*
X-1750000Y59500000D01*
X-1750000Y56000000D01*
G37*
G36*
X750000Y56000000D02*
G01*
X745075Y56000000D01*
X-745077Y56000000D01*
X-750000Y56000000D01*
X-750000Y59500000D01*
X750000Y59500000D01*
X750000Y56000000D01*
G37*
G36*
X3250000Y56000000D02*
G01*
X3245075Y56000000D01*
X1754922Y56000000D01*
X1750000Y56000000D01*
X1750000Y59500000D01*
X3250000Y59500000D01*
X3250000Y56000000D01*
G37*
G36*
X5750000Y56000000D02*
G01*
X5745075Y56000000D01*
X4254922Y56000000D01*
X4250000Y56000000D01*
X4250000Y59500000D01*
X5750000Y59500000D01*
X5750000Y56000000D01*
G37*
G36*
X8250000Y56000000D02*
G01*
X8245075Y56000000D01*
X6754922Y56000000D01*
X6750000Y56000000D01*
X6750000Y59500000D01*
X8250000Y59500000D01*
X8250000Y56000000D01*
G37*
G36*
X10750000Y56000000D02*
G01*
X10745075Y56000000D01*
X9254922Y56000000D01*
X9250000Y56000000D01*
X9250000Y59500000D01*
X10750000Y59500000D01*
X10750000Y56000000D01*
G37*
G36*
X13250000Y56000000D02*
G01*
X13245075Y56000000D01*
X11754922Y56000000D01*
X11750000Y56000000D01*
X11750000Y59500000D01*
X13250000Y59500000D01*
X13250000Y56000000D01*
G37*
G36*
X15750000Y56000000D02*
G01*
X15745075Y56000000D01*
X14254922Y56000000D01*
X14250000Y56000000D01*
X14250000Y59500000D01*
X15750000Y59500000D01*
X15750000Y56000000D01*
G37*
G36*
X18250000Y56000000D02*
G01*
X18245075Y56000000D01*
X16754922Y56000000D01*
X16750000Y56000000D01*
X16750000Y59500000D01*
X18250000Y59500000D01*
X18250000Y56000000D01*
G37*
G36*
X20750000Y56000000D02*
G01*
X20745075Y56000000D01*
X19254922Y56000000D01*
X19250000Y56000000D01*
X19250000Y59500000D01*
X20750000Y59500000D01*
X20750000Y56000000D01*
G37*
G36*
X23250000Y56000000D02*
G01*
X23245075Y56000000D01*
X21754922Y56000000D01*
X21750000Y56000000D01*
X21750000Y59500000D01*
X23250000Y59500000D01*
X23250000Y56000000D01*
G37*
G36*
X25750000Y56000000D02*
G01*
X25745075Y56000000D01*
X24254922Y56000000D01*
X24250000Y56000000D01*
X24250000Y59500000D01*
X25750000Y59500000D01*
X25750000Y56000000D01*
G37*
G36*
X28250000Y56000000D02*
G01*
X28245075Y56000000D01*
X26754922Y56000000D01*
X26750000Y56000000D01*
X26750000Y59500000D01*
X28250000Y59500000D01*
X28250000Y56000000D01*
G37*
G36*
X35750000Y56000000D02*
G01*
X35745075Y56000000D01*
X34254922Y56000000D01*
X34250000Y56000000D01*
X34250000Y59500000D01*
X35750000Y59500000D01*
X35750000Y56000000D01*
G37*
G36*
X38250000Y56000000D02*
G01*
X38245075Y56000000D01*
X36754922Y56000000D01*
X36750000Y56000000D01*
X36750000Y59500000D01*
X38250000Y59500000D01*
X38250000Y56000000D01*
G37*
G36*
X40750000Y56000000D02*
G01*
X40745075Y56000000D01*
X39254922Y56000000D01*
X39250000Y56000000D01*
X39250000Y59500000D01*
X40750000Y59500000D01*
X40750000Y56000000D01*
G37*
G36*
X43250000Y56000000D02*
G01*
X43245075Y56000000D01*
X41754922Y56000000D01*
X41750000Y56000000D01*
X41750000Y59500000D01*
X43250000Y59500000D01*
X43250000Y56000000D01*
G37*
M02*
