solid sn64_shell_concept_revA
 facet normal 0.0 0.0 290.8799999999998
  outer loop
   vertex -60.6 -39.0 0
   vertex 60.6 -39.0 0
   vertex 60.6 -36.6 0
  endloop
 endfacet
 facet normal 0.0 0.0 290.8799999999998
  outer loop
   vertex -60.6 -39.0 0
   vertex 60.6 -36.6 0
   vertex -60.6 -36.6 0
  endloop
 endfacet
 facet normal 0.0 0.0 -290.8799999999998
  outer loop
   vertex -60.6 -39.0 15
   vertex -60.6 -36.6 15
   vertex 60.6 -36.6 15
  endloop
 endfacet
 facet normal 0.0 0.0 -290.8799999999998
  outer loop
   vertex -60.6 -39.0 15
   vertex 60.6 -36.6 15
   vertex 60.6 -39.0 15
  endloop
 endfacet
 facet normal 0.0 1818.0 0.0
  outer loop
   vertex -60.6 -39.0 0
   vertex -60.6 -39.0 15
   vertex 60.6 -39.0 15
  endloop
 endfacet
 facet normal 0.0 1818.0 0.0
  outer loop
   vertex -60.6 -39.0 0
   vertex 60.6 -39.0 15
   vertex 60.6 -39.0 0
  endloop
 endfacet
 facet normal -35.99999999999998 0.0 0.0
  outer loop
   vertex 60.6 -39.0 0
   vertex 60.6 -39.0 15
   vertex 60.6 -36.6 15
  endloop
 endfacet
 facet normal -35.99999999999998 0.0 0.0
  outer loop
   vertex 60.6 -39.0 0
   vertex 60.6 -36.6 15
   vertex 60.6 -36.6 0
  endloop
 endfacet
 facet normal 0.0 -1818.0 0.0
  outer loop
   vertex 60.6 -36.6 0
   vertex 60.6 -36.6 15
   vertex -60.6 -36.6 15
  endloop
 endfacet
 facet normal 0.0 -1818.0 0.0
  outer loop
   vertex 60.6 -36.6 0
   vertex -60.6 -36.6 15
   vertex -60.6 -36.6 0
  endloop
 endfacet
 facet normal 35.99999999999998 0.0 -0.0
  outer loop
   vertex -60.6 -36.6 0
   vertex -60.6 -36.6 15
   vertex -60.6 -39.0 15
  endloop
 endfacet
 facet normal 35.99999999999998 0.0 0.0
  outer loop
   vertex -60.6 -36.6 0
   vertex -60.6 -39.0 15
   vertex -60.6 -39.0 0
  endloop
 endfacet
 facet normal 0.0 0.0 290.8799999999998
  outer loop
   vertex -60.6 36.6 0
   vertex 60.6 36.6 0
   vertex 60.6 39.0 0
  endloop
 endfacet
 facet normal 0.0 0.0 290.8799999999998
  outer loop
   vertex -60.6 36.6 0
   vertex 60.6 39.0 0
   vertex -60.6 39.0 0
  endloop
 endfacet
 facet normal 0.0 0.0 -290.8799999999998
  outer loop
   vertex -60.6 36.6 15
   vertex -60.6 39.0 15
   vertex 60.6 39.0 15
  endloop
 endfacet
 facet normal 0.0 0.0 -290.8799999999998
  outer loop
   vertex -60.6 36.6 15
   vertex 60.6 39.0 15
   vertex 60.6 36.6 15
  endloop
 endfacet
 facet normal 0.0 1818.0 0.0
  outer loop
   vertex -60.6 36.6 0
   vertex -60.6 36.6 15
   vertex 60.6 36.6 15
  endloop
 endfacet
 facet normal 0.0 1818.0 0.0
  outer loop
   vertex -60.6 36.6 0
   vertex 60.6 36.6 15
   vertex 60.6 36.6 0
  endloop
 endfacet
 facet normal -35.99999999999998 0.0 0.0
  outer loop
   vertex 60.6 36.6 0
   vertex 60.6 36.6 15
   vertex 60.6 39.0 15
  endloop
 endfacet
 facet normal -35.99999999999998 0.0 0.0
  outer loop
   vertex 60.6 36.6 0
   vertex 60.6 39.0 15
   vertex 60.6 39.0 0
  endloop
 endfacet
 facet normal 0.0 -1818.0 0.0
  outer loop
   vertex 60.6 39.0 0
   vertex 60.6 39.0 15
   vertex -60.6 39.0 15
  endloop
 endfacet
 facet normal 0.0 -1818.0 0.0
  outer loop
   vertex 60.6 39.0 0
   vertex -60.6 39.0 15
   vertex -60.6 39.0 0
  endloop
 endfacet
 facet normal 35.99999999999998 0.0 -0.0
  outer loop
   vertex -60.6 39.0 0
   vertex -60.6 39.0 15
   vertex -60.6 36.6 15
  endloop
 endfacet
 facet normal 35.99999999999998 0.0 0.0
  outer loop
   vertex -60.6 39.0 0
   vertex -60.6 36.6 15
   vertex -60.6 36.6 0
  endloop
 endfacet
 facet normal 0.0 0.0 175.6799999999999
  outer loop
   vertex -63.0 -36.6 0
   vertex -60.6 -36.6 0
   vertex -60.6 36.6 0
  endloop
 endfacet
 facet normal 0.0 0.0 175.6799999999999
  outer loop
   vertex -63.0 -36.6 0
   vertex -60.6 36.6 0
   vertex -63.0 36.6 0
  endloop
 endfacet
 facet normal 0.0 0.0 -175.6799999999999
  outer loop
   vertex -63.0 -36.6 15
   vertex -63.0 36.6 15
   vertex -60.6 36.6 15
  endloop
 endfacet
 facet normal 0.0 0.0 -175.6799999999999
  outer loop
   vertex -63.0 -36.6 15
   vertex -60.6 36.6 15
   vertex -60.6 -36.6 15
  endloop
 endfacet
 facet normal 0.0 35.99999999999998 0.0
  outer loop
   vertex -63.0 -36.6 0
   vertex -63.0 -36.6 15
   vertex -60.6 -36.6 15
  endloop
 endfacet
 facet normal 0.0 35.99999999999998 0.0
  outer loop
   vertex -63.0 -36.6 0
   vertex -60.6 -36.6 15
   vertex -60.6 -36.6 0
  endloop
 endfacet
 facet normal -1098.0 0.0 0.0
  outer loop
   vertex -60.6 -36.6 0
   vertex -60.6 -36.6 15
   vertex -60.6 36.6 15
  endloop
 endfacet
 facet normal -1098.0 0.0 0.0
  outer loop
   vertex -60.6 -36.6 0
   vertex -60.6 36.6 15
   vertex -60.6 36.6 0
  endloop
 endfacet
 facet normal 0.0 -35.99999999999998 0.0
  outer loop
   vertex -60.6 36.6 0
   vertex -60.6 36.6 15
   vertex -63.0 36.6 15
  endloop
 endfacet
 facet normal 0.0 -35.99999999999998 0.0
  outer loop
   vertex -60.6 36.6 0
   vertex -63.0 36.6 15
   vertex -63.0 36.6 0
  endloop
 endfacet
 facet normal 1098.0 0.0 -0.0
  outer loop
   vertex -63.0 36.6 0
   vertex -63.0 36.6 15
   vertex -63.0 -36.6 15
  endloop
 endfacet
 facet normal 1098.0 0.0 0.0
  outer loop
   vertex -63.0 36.6 0
   vertex -63.0 -36.6 15
   vertex -63.0 -36.6 0
  endloop
 endfacet
 facet normal 0.0 0.0 175.6799999999999
  outer loop
   vertex 60.6 -36.6 2.5
   vertex 63.0 -36.6 2.5
   vertex 63.0 36.6 2.5
  endloop
 endfacet
 facet normal 0.0 0.0 175.6799999999999
  outer loop
   vertex 60.6 -36.6 2.5
   vertex 63.0 36.6 2.5
   vertex 60.6 36.6 2.5
  endloop
 endfacet
 facet normal 0.0 0.0 -175.6799999999999
  outer loop
   vertex 60.6 -36.6 15
   vertex 60.6 36.6 15
   vertex 63.0 36.6 15
  endloop
 endfacet
 facet normal 0.0 0.0 -175.6799999999999
  outer loop
   vertex 60.6 -36.6 15
   vertex 63.0 36.6 15
   vertex 63.0 -36.6 15
  endloop
 endfacet
 facet normal 0.0 29.999999999999982 0.0
  outer loop
   vertex 60.6 -36.6 2.5
   vertex 60.6 -36.6 15
   vertex 63.0 -36.6 15
  endloop
 endfacet
 facet normal 0.0 29.999999999999982 0.0
  outer loop
   vertex 60.6 -36.6 2.5
   vertex 63.0 -36.6 15
   vertex 63.0 -36.6 2.5
  endloop
 endfacet
 facet normal -915.0 0.0 0.0
  outer loop
   vertex 63.0 -36.6 2.5
   vertex 63.0 -36.6 15
   vertex 63.0 36.6 15
  endloop
 endfacet
 facet normal -915.0 0.0 0.0
  outer loop
   vertex 63.0 -36.6 2.5
   vertex 63.0 36.6 15
   vertex 63.0 36.6 2.5
  endloop
 endfacet
 facet normal 0.0 -29.999999999999982 0.0
  outer loop
   vertex 63.0 36.6 2.5
   vertex 63.0 36.6 15
   vertex 60.6 36.6 15
  endloop
 endfacet
 facet normal 0.0 -29.999999999999982 0.0
  outer loop
   vertex 63.0 36.6 2.5
   vertex 60.6 36.6 15
   vertex 60.6 36.6 2.5
  endloop
 endfacet
 facet normal 915.0 0.0 -0.0
  outer loop
   vertex 60.6 36.6 2.5
   vertex 60.6 36.6 15
   vertex 60.6 -36.6 15
  endloop
 endfacet
 facet normal 915.0 0.0 0.0
  outer loop
   vertex 60.6 36.6 2.5
   vertex 60.6 -36.6 15
   vertex 60.6 -36.6 2.5
  endloop
 endfacet
 facet normal 0.0 0.0 2020.3200000000002
  outer loop
   vertex -60.6 -36.6 12.6
   vertex -33.0 -36.6 12.6
   vertex -33.0 36.6 12.6
  endloop
 endfacet
 facet normal 0.0 0.0 2020.3200000000002
  outer loop
   vertex -60.6 -36.6 12.6
   vertex -33.0 36.6 12.6
   vertex -60.6 36.6 12.6
  endloop
 endfacet
 facet normal 0.0 0.0 -2020.3200000000002
  outer loop
   vertex -60.6 -36.6 15
   vertex -60.6 36.6 15
   vertex -33.0 36.6 15
  endloop
 endfacet
 facet normal 0.0 0.0 -2020.3200000000002
  outer loop
   vertex -60.6 -36.6 15
   vertex -33.0 36.6 15
   vertex -33.0 -36.6 15
  endloop
 endfacet
 facet normal 0.0 66.24000000000001 0.0
  outer loop
   vertex -60.6 -36.6 12.6
   vertex -60.6 -36.6 15
   vertex -33.0 -36.6 15
  endloop
 endfacet
 facet normal 0.0 66.24000000000001 0.0
  outer loop
   vertex -60.6 -36.6 12.6
   vertex -33.0 -36.6 15
   vertex -33.0 -36.6 12.6
  endloop
 endfacet
 facet normal -175.68000000000004 0.0 0.0
  outer loop
   vertex -33.0 -36.6 12.6
   vertex -33.0 -36.6 15
   vertex -33.0 36.6 15
  endloop
 endfacet
 facet normal -175.68000000000004 0.0 0.0
  outer loop
   vertex -33.0 -36.6 12.6
   vertex -33.0 36.6 15
   vertex -33.0 36.6 12.6
  endloop
 endfacet
 facet normal 0.0 -66.24000000000001 0.0
  outer loop
   vertex -33.0 36.6 12.6
   vertex -33.0 36.6 15
   vertex -60.6 36.6 15
  endloop
 endfacet
 facet normal 0.0 -66.24000000000001 0.0
  outer loop
   vertex -33.0 36.6 12.6
   vertex -60.6 36.6 15
   vertex -60.6 36.6 12.6
  endloop
 endfacet
 facet normal 175.68000000000004 0.0 -0.0
  outer loop
   vertex -60.6 36.6 12.6
   vertex -60.6 36.6 15
   vertex -60.6 -36.6 15
  endloop
 endfacet
 facet normal 175.68000000000004 0.0 0.0
  outer loop
   vertex -60.6 36.6 12.6
   vertex -60.6 -36.6 15
   vertex -60.6 -36.6 12.6
  endloop
 endfacet
 facet normal 0.0 0.0 2020.3200000000002
  outer loop
   vertex 33.0 -36.6 12.6
   vertex 60.6 -36.6 12.6
   vertex 60.6 36.6 12.6
  endloop
 endfacet
 facet normal 0.0 0.0 2020.3200000000002
  outer loop
   vertex 33.0 -36.6 12.6
   vertex 60.6 36.6 12.6
   vertex 33.0 36.6 12.6
  endloop
 endfacet
 facet normal 0.0 0.0 -2020.3200000000002
  outer loop
   vertex 33.0 -36.6 15
   vertex 33.0 36.6 15
   vertex 60.6 36.6 15
  endloop
 endfacet
 facet normal 0.0 0.0 -2020.3200000000002
  outer loop
   vertex 33.0 -36.6 15
   vertex 60.6 36.6 15
   vertex 60.6 -36.6 15
  endloop
 endfacet
 facet normal 0.0 66.24000000000001 0.0
  outer loop
   vertex 33.0 -36.6 12.6
   vertex 33.0 -36.6 15
   vertex 60.6 -36.6 15
  endloop
 endfacet
 facet normal 0.0 66.24000000000001 0.0
  outer loop
   vertex 33.0 -36.6 12.6
   vertex 60.6 -36.6 15
   vertex 60.6 -36.6 12.6
  endloop
 endfacet
 facet normal -175.68000000000004 0.0 0.0
  outer loop
   vertex 60.6 -36.6 12.6
   vertex 60.6 -36.6 15
   vertex 60.6 36.6 15
  endloop
 endfacet
 facet normal -175.68000000000004 0.0 0.0
  outer loop
   vertex 60.6 -36.6 12.6
   vertex 60.6 36.6 15
   vertex 60.6 36.6 12.6
  endloop
 endfacet
 facet normal 0.0 -66.24000000000001 0.0
  outer loop
   vertex 60.6 36.6 12.6
   vertex 60.6 36.6 15
   vertex 33.0 36.6 15
  endloop
 endfacet
 facet normal 0.0 -66.24000000000001 0.0
  outer loop
   vertex 60.6 36.6 12.6
   vertex 33.0 36.6 15
   vertex 33.0 36.6 12.6
  endloop
 endfacet
 facet normal 175.68000000000004 0.0 -0.0
  outer loop
   vertex 33.0 36.6 12.6
   vertex 33.0 36.6 15
   vertex 33.0 -36.6 15
  endloop
 endfacet
 facet normal 175.68000000000004 0.0 0.0
  outer loop
   vertex 33.0 36.6 12.6
   vertex 33.0 -36.6 15
   vertex 33.0 -36.6 12.6
  endloop
 endfacet
 facet normal 0.0 0.0 2118.6
  outer loop
   vertex -33.0 -36.6 12.6
   vertex 33.0 -36.6 12.6
   vertex 33.0 -4.5 12.6
  endloop
 endfacet
 facet normal 0.0 0.0 2118.6
  outer loop
   vertex -33.0 -36.6 12.6
   vertex 33.0 -4.5 12.6
   vertex -33.0 -4.5 12.6
  endloop
 endfacet
 facet normal 0.0 0.0 -2118.6
  outer loop
   vertex -33.0 -36.6 15
   vertex -33.0 -4.5 15
   vertex 33.0 -4.5 15
  endloop
 endfacet
 facet normal 0.0 0.0 -2118.6
  outer loop
   vertex -33.0 -36.6 15
   vertex 33.0 -4.5 15
   vertex 33.0 -36.6 15
  endloop
 endfacet
 facet normal 0.0 158.40000000000003 0.0
  outer loop
   vertex -33.0 -36.6 12.6
   vertex -33.0 -36.6 15
   vertex 33.0 -36.6 15
  endloop
 endfacet
 facet normal 0.0 158.40000000000003 0.0
  outer loop
   vertex -33.0 -36.6 12.6
   vertex 33.0 -36.6 15
   vertex 33.0 -36.6 12.6
  endloop
 endfacet
 facet normal -77.04000000000002 0.0 0.0
  outer loop
   vertex 33.0 -36.6 12.6
   vertex 33.0 -36.6 15
   vertex 33.0 -4.5 15
  endloop
 endfacet
 facet normal -77.04000000000002 0.0 0.0
  outer loop
   vertex 33.0 -36.6 12.6
   vertex 33.0 -4.5 15
   vertex 33.0 -4.5 12.6
  endloop
 endfacet
 facet normal 0.0 -158.40000000000003 0.0
  outer loop
   vertex 33.0 -4.5 12.6
   vertex 33.0 -4.5 15
   vertex -33.0 -4.5 15
  endloop
 endfacet
 facet normal 0.0 -158.40000000000003 0.0
  outer loop
   vertex 33.0 -4.5 12.6
   vertex -33.0 -4.5 15
   vertex -33.0 -4.5 12.6
  endloop
 endfacet
 facet normal 77.04000000000002 0.0 -0.0
  outer loop
   vertex -33.0 -4.5 12.6
   vertex -33.0 -4.5 15
   vertex -33.0 -36.6 15
  endloop
 endfacet
 facet normal 77.04000000000002 0.0 0.0
  outer loop
   vertex -33.0 -4.5 12.6
   vertex -33.0 -36.6 15
   vertex -33.0 -36.6 12.6
  endloop
 endfacet
 facet normal 0.0 0.0 2118.6
  outer loop
   vertex -33.0 4.5 12.6
   vertex 33.0 4.5 12.6
   vertex 33.0 36.6 12.6
  endloop
 endfacet
 facet normal 0.0 0.0 2118.6
  outer loop
   vertex -33.0 4.5 12.6
   vertex 33.0 36.6 12.6
   vertex -33.0 36.6 12.6
  endloop
 endfacet
 facet normal 0.0 0.0 -2118.6
  outer loop
   vertex -33.0 4.5 15
   vertex -33.0 36.6 15
   vertex 33.0 36.6 15
  endloop
 endfacet
 facet normal 0.0 0.0 -2118.6
  outer loop
   vertex -33.0 4.5 15
   vertex 33.0 36.6 15
   vertex 33.0 4.5 15
  endloop
 endfacet
 facet normal 0.0 158.40000000000003 0.0
  outer loop
   vertex -33.0 4.5 12.6
   vertex -33.0 4.5 15
   vertex 33.0 4.5 15
  endloop
 endfacet
 facet normal 0.0 158.40000000000003 0.0
  outer loop
   vertex -33.0 4.5 12.6
   vertex 33.0 4.5 15
   vertex 33.0 4.5 12.6
  endloop
 endfacet
 facet normal -77.04000000000002 0.0 0.0
  outer loop
   vertex 33.0 4.5 12.6
   vertex 33.0 4.5 15
   vertex 33.0 36.6 15
  endloop
 endfacet
 facet normal -77.04000000000002 0.0 0.0
  outer loop
   vertex 33.0 4.5 12.6
   vertex 33.0 36.6 15
   vertex 33.0 36.6 12.6
  endloop
 endfacet
 facet normal 0.0 -158.40000000000003 0.0
  outer loop
   vertex 33.0 36.6 12.6
   vertex 33.0 36.6 15
   vertex -33.0 36.6 15
  endloop
 endfacet
 facet normal 0.0 -158.40000000000003 0.0
  outer loop
   vertex 33.0 36.6 12.6
   vertex -33.0 36.6 15
   vertex -33.0 36.6 12.6
  endloop
 endfacet
 facet normal 77.04000000000002 0.0 -0.0
  outer loop
   vertex -33.0 36.6 12.6
   vertex -33.0 36.6 15
   vertex -33.0 4.5 15
  endloop
 endfacet
 facet normal 77.04000000000002 0.0 0.0
  outer loop
   vertex -33.0 36.6 12.6
   vertex -33.0 4.5 15
   vertex -33.0 4.5 12.6
  endloop
 endfacet
 facet normal 0.0 0.0 290.8799999999998
  outer loop
   vertex -60.6 -39.0 -15
   vertex 60.6 -39.0 -15
   vertex 60.6 -36.6 -15
  endloop
 endfacet
 facet normal 0.0 0.0 290.8799999999998
  outer loop
   vertex -60.6 -39.0 -15
   vertex 60.6 -36.6 -15
   vertex -60.6 -36.6 -15
  endloop
 endfacet
 facet normal 0.0 0.0 -290.8799999999998
  outer loop
   vertex -60.6 -39.0 0
   vertex -60.6 -36.6 0
   vertex 60.6 -36.6 0
  endloop
 endfacet
 facet normal 0.0 0.0 -290.8799999999998
  outer loop
   vertex -60.6 -39.0 0
   vertex 60.6 -36.6 0
   vertex 60.6 -39.0 0
  endloop
 endfacet
 facet normal 0.0 1818.0 0.0
  outer loop
   vertex -60.6 -39.0 -15
   vertex -60.6 -39.0 0
   vertex 60.6 -39.0 0
  endloop
 endfacet
 facet normal 0.0 1818.0 0.0
  outer loop
   vertex -60.6 -39.0 -15
   vertex 60.6 -39.0 0
   vertex 60.6 -39.0 -15
  endloop
 endfacet
 facet normal -35.99999999999998 0.0 0.0
  outer loop
   vertex 60.6 -39.0 -15
   vertex 60.6 -39.0 0
   vertex 60.6 -36.6 0
  endloop
 endfacet
 facet normal -35.99999999999998 0.0 0.0
  outer loop
   vertex 60.6 -39.0 -15
   vertex 60.6 -36.6 0
   vertex 60.6 -36.6 -15
  endloop
 endfacet
 facet normal 0.0 -1818.0 0.0
  outer loop
   vertex 60.6 -36.6 -15
   vertex 60.6 -36.6 0
   vertex -60.6 -36.6 0
  endloop
 endfacet
 facet normal 0.0 -1818.0 0.0
  outer loop
   vertex 60.6 -36.6 -15
   vertex -60.6 -36.6 0
   vertex -60.6 -36.6 -15
  endloop
 endfacet
 facet normal 35.99999999999998 0.0 -0.0
  outer loop
   vertex -60.6 -36.6 -15
   vertex -60.6 -36.6 0
   vertex -60.6 -39.0 0
  endloop
 endfacet
 facet normal 35.99999999999998 0.0 0.0
  outer loop
   vertex -60.6 -36.6 -15
   vertex -60.6 -39.0 0
   vertex -60.6 -39.0 -15
  endloop
 endfacet
 facet normal 0.0 0.0 290.8799999999998
  outer loop
   vertex -60.6 36.6 -15
   vertex 60.6 36.6 -15
   vertex 60.6 39.0 -15
  endloop
 endfacet
 facet normal 0.0 0.0 290.8799999999998
  outer loop
   vertex -60.6 36.6 -15
   vertex 60.6 39.0 -15
   vertex -60.6 39.0 -15
  endloop
 endfacet
 facet normal 0.0 0.0 -290.8799999999998
  outer loop
   vertex -60.6 36.6 0
   vertex -60.6 39.0 0
   vertex 60.6 39.0 0
  endloop
 endfacet
 facet normal 0.0 0.0 -290.8799999999998
  outer loop
   vertex -60.6 36.6 0
   vertex 60.6 39.0 0
   vertex 60.6 36.6 0
  endloop
 endfacet
 facet normal 0.0 1818.0 0.0
  outer loop
   vertex -60.6 36.6 -15
   vertex -60.6 36.6 0
   vertex 60.6 36.6 0
  endloop
 endfacet
 facet normal 0.0 1818.0 0.0
  outer loop
   vertex -60.6 36.6 -15
   vertex 60.6 36.6 0
   vertex 60.6 36.6 -15
  endloop
 endfacet
 facet normal -35.99999999999998 0.0 0.0
  outer loop
   vertex 60.6 36.6 -15
   vertex 60.6 36.6 0
   vertex 60.6 39.0 0
  endloop
 endfacet
 facet normal -35.99999999999998 0.0 0.0
  outer loop
   vertex 60.6 36.6 -15
   vertex 60.6 39.0 0
   vertex 60.6 39.0 -15
  endloop
 endfacet
 facet normal 0.0 -1818.0 0.0
  outer loop
   vertex 60.6 39.0 -15
   vertex 60.6 39.0 0
   vertex -60.6 39.0 0
  endloop
 endfacet
 facet normal 0.0 -1818.0 0.0
  outer loop
   vertex 60.6 39.0 -15
   vertex -60.6 39.0 0
   vertex -60.6 39.0 -15
  endloop
 endfacet
 facet normal 35.99999999999998 0.0 -0.0
  outer loop
   vertex -60.6 39.0 -15
   vertex -60.6 39.0 0
   vertex -60.6 36.6 0
  endloop
 endfacet
 facet normal 35.99999999999998 0.0 0.0
  outer loop
   vertex -60.6 39.0 -15
   vertex -60.6 36.6 0
   vertex -60.6 36.6 -15
  endloop
 endfacet
 facet normal 0.0 0.0 175.6799999999999
  outer loop
   vertex -63.0 -36.6 -15
   vertex -60.6 -36.6 -15
   vertex -60.6 36.6 -15
  endloop
 endfacet
 facet normal 0.0 0.0 175.6799999999999
  outer loop
   vertex -63.0 -36.6 -15
   vertex -60.6 36.6 -15
   vertex -63.0 36.6 -15
  endloop
 endfacet
 facet normal 0.0 0.0 -175.6799999999999
  outer loop
   vertex -63.0 -36.6 0
   vertex -63.0 36.6 0
   vertex -60.6 36.6 0
  endloop
 endfacet
 facet normal 0.0 0.0 -175.6799999999999
  outer loop
   vertex -63.0 -36.6 0
   vertex -60.6 36.6 0
   vertex -60.6 -36.6 0
  endloop
 endfacet
 facet normal 0.0 35.99999999999998 0.0
  outer loop
   vertex -63.0 -36.6 -15
   vertex -63.0 -36.6 0
   vertex -60.6 -36.6 0
  endloop
 endfacet
 facet normal 0.0 35.99999999999998 0.0
  outer loop
   vertex -63.0 -36.6 -15
   vertex -60.6 -36.6 0
   vertex -60.6 -36.6 -15
  endloop
 endfacet
 facet normal -1098.0 0.0 0.0
  outer loop
   vertex -60.6 -36.6 -15
   vertex -60.6 -36.6 0
   vertex -60.6 36.6 0
  endloop
 endfacet
 facet normal -1098.0 0.0 0.0
  outer loop
   vertex -60.6 -36.6 -15
   vertex -60.6 36.6 0
   vertex -60.6 36.6 -15
  endloop
 endfacet
 facet normal 0.0 -35.99999999999998 0.0
  outer loop
   vertex -60.6 36.6 -15
   vertex -60.6 36.6 0
   vertex -63.0 36.6 0
  endloop
 endfacet
 facet normal 0.0 -35.99999999999998 0.0
  outer loop
   vertex -60.6 36.6 -15
   vertex -63.0 36.6 0
   vertex -63.0 36.6 -15
  endloop
 endfacet
 facet normal 1098.0 0.0 -0.0
  outer loop
   vertex -63.0 36.6 -15
   vertex -63.0 36.6 0
   vertex -63.0 -36.6 0
  endloop
 endfacet
 facet normal 1098.0 0.0 0.0
  outer loop
   vertex -63.0 36.6 -15
   vertex -63.0 -36.6 0
   vertex -63.0 -36.6 -15
  endloop
 endfacet
 facet normal 0.0 0.0 175.6799999999999
  outer loop
   vertex 60.6 -36.6 -15
   vertex 63.0 -36.6 -15
   vertex 63.0 36.6 -15
  endloop
 endfacet
 facet normal 0.0 0.0 175.6799999999999
  outer loop
   vertex 60.6 -36.6 -15
   vertex 63.0 36.6 -15
   vertex 60.6 36.6 -15
  endloop
 endfacet
 facet normal 0.0 0.0 -175.6799999999999
  outer loop
   vertex 60.6 -36.6 -2.5
   vertex 60.6 36.6 -2.5
   vertex 63.0 36.6 -2.5
  endloop
 endfacet
 facet normal 0.0 0.0 -175.6799999999999
  outer loop
   vertex 60.6 -36.6 -2.5
   vertex 63.0 36.6 -2.5
   vertex 63.0 -36.6 -2.5
  endloop
 endfacet
 facet normal 0.0 29.999999999999982 0.0
  outer loop
   vertex 60.6 -36.6 -15
   vertex 60.6 -36.6 -2.5
   vertex 63.0 -36.6 -2.5
  endloop
 endfacet
 facet normal 0.0 29.999999999999982 0.0
  outer loop
   vertex 60.6 -36.6 -15
   vertex 63.0 -36.6 -2.5
   vertex 63.0 -36.6 -15
  endloop
 endfacet
 facet normal -915.0 0.0 0.0
  outer loop
   vertex 63.0 -36.6 -15
   vertex 63.0 -36.6 -2.5
   vertex 63.0 36.6 -2.5
  endloop
 endfacet
 facet normal -915.0 0.0 0.0
  outer loop
   vertex 63.0 -36.6 -15
   vertex 63.0 36.6 -2.5
   vertex 63.0 36.6 -15
  endloop
 endfacet
 facet normal 0.0 -29.999999999999982 0.0
  outer loop
   vertex 63.0 36.6 -15
   vertex 63.0 36.6 -2.5
   vertex 60.6 36.6 -2.5
  endloop
 endfacet
 facet normal 0.0 -29.999999999999982 0.0
  outer loop
   vertex 63.0 36.6 -15
   vertex 60.6 36.6 -2.5
   vertex 60.6 36.6 -15
  endloop
 endfacet
 facet normal 915.0 0.0 -0.0
  outer loop
   vertex 60.6 36.6 -15
   vertex 60.6 36.6 -2.5
   vertex 60.6 -36.6 -2.5
  endloop
 endfacet
 facet normal 915.0 0.0 0.0
  outer loop
   vertex 60.6 36.6 -15
   vertex 60.6 -36.6 -2.5
   vertex 60.6 -36.6 -15
  endloop
 endfacet
 facet normal 0.0 0.0 2862.1200000000003
  outer loop
   vertex -60.6 -36.6 -15
   vertex -21.5 -36.6 -15
   vertex -21.5 36.6 -15
  endloop
 endfacet
 facet normal 0.0 0.0 2862.1200000000003
  outer loop
   vertex -60.6 -36.6 -15
   vertex -21.5 36.6 -15
   vertex -60.6 36.6 -15
  endloop
 endfacet
 facet normal 0.0 0.0 -2862.1200000000003
  outer loop
   vertex -60.6 -36.6 -12.6
   vertex -60.6 36.6 -12.6
   vertex -21.5 36.6 -12.6
  endloop
 endfacet
 facet normal 0.0 0.0 -2862.1200000000003
  outer loop
   vertex -60.6 -36.6 -12.6
   vertex -21.5 36.6 -12.6
   vertex -21.5 -36.6 -12.6
  endloop
 endfacet
 facet normal 0.0 93.84000000000002 0.0
  outer loop
   vertex -60.6 -36.6 -15
   vertex -60.6 -36.6 -12.6
   vertex -21.5 -36.6 -12.6
  endloop
 endfacet
 facet normal 0.0 93.84000000000002 0.0
  outer loop
   vertex -60.6 -36.6 -15
   vertex -21.5 -36.6 -12.6
   vertex -21.5 -36.6 -15
  endloop
 endfacet
 facet normal -175.68000000000004 0.0 0.0
  outer loop
   vertex -21.5 -36.6 -15
   vertex -21.5 -36.6 -12.6
   vertex -21.5 36.6 -12.6
  endloop
 endfacet
 facet normal -175.68000000000004 0.0 0.0
  outer loop
   vertex -21.5 -36.6 -15
   vertex -21.5 36.6 -12.6
   vertex -21.5 36.6 -15
  endloop
 endfacet
 facet normal 0.0 -93.84000000000002 0.0
  outer loop
   vertex -21.5 36.6 -15
   vertex -21.5 36.6 -12.6
   vertex -60.6 36.6 -12.6
  endloop
 endfacet
 facet normal 0.0 -93.84000000000002 0.0
  outer loop
   vertex -21.5 36.6 -15
   vertex -60.6 36.6 -12.6
   vertex -60.6 36.6 -15
  endloop
 endfacet
 facet normal 175.68000000000004 0.0 -0.0
  outer loop
   vertex -60.6 36.6 -15
   vertex -60.6 36.6 -12.6
   vertex -60.6 -36.6 -12.6
  endloop
 endfacet
 facet normal 175.68000000000004 0.0 0.0
  outer loop
   vertex -60.6 36.6 -15
   vertex -60.6 -36.6 -12.6
   vertex -60.6 -36.6 -15
  endloop
 endfacet
 facet normal 0.0 0.0 2862.1200000000003
  outer loop
   vertex 21.5 -36.6 -15
   vertex 60.6 -36.6 -15
   vertex 60.6 36.6 -15
  endloop
 endfacet
 facet normal 0.0 0.0 2862.1200000000003
  outer loop
   vertex 21.5 -36.6 -15
   vertex 60.6 36.6 -15
   vertex 21.5 36.6 -15
  endloop
 endfacet
 facet normal 0.0 0.0 -2862.1200000000003
  outer loop
   vertex 21.5 -36.6 -12.6
   vertex 21.5 36.6 -12.6
   vertex 60.6 36.6 -12.6
  endloop
 endfacet
 facet normal 0.0 0.0 -2862.1200000000003
  outer loop
   vertex 21.5 -36.6 -12.6
   vertex 60.6 36.6 -12.6
   vertex 60.6 -36.6 -12.6
  endloop
 endfacet
 facet normal 0.0 93.84000000000002 0.0
  outer loop
   vertex 21.5 -36.6 -15
   vertex 21.5 -36.6 -12.6
   vertex 60.6 -36.6 -12.6
  endloop
 endfacet
 facet normal 0.0 93.84000000000002 0.0
  outer loop
   vertex 21.5 -36.6 -15
   vertex 60.6 -36.6 -12.6
   vertex 60.6 -36.6 -15
  endloop
 endfacet
 facet normal -175.68000000000004 0.0 0.0
  outer loop
   vertex 60.6 -36.6 -15
   vertex 60.6 -36.6 -12.6
   vertex 60.6 36.6 -12.6
  endloop
 endfacet
 facet normal -175.68000000000004 0.0 0.0
  outer loop
   vertex 60.6 -36.6 -15
   vertex 60.6 36.6 -12.6
   vertex 60.6 36.6 -15
  endloop
 endfacet
 facet normal 0.0 -93.84000000000002 0.0
  outer loop
   vertex 60.6 36.6 -15
   vertex 60.6 36.6 -12.6
   vertex 21.5 36.6 -12.6
  endloop
 endfacet
 facet normal 0.0 -93.84000000000002 0.0
  outer loop
   vertex 60.6 36.6 -15
   vertex 21.5 36.6 -12.6
   vertex 21.5 36.6 -15
  endloop
 endfacet
 facet normal 175.68000000000004 0.0 -0.0
  outer loop
   vertex 21.5 36.6 -15
   vertex 21.5 36.6 -12.6
   vertex 21.5 -36.6 -12.6
  endloop
 endfacet
 facet normal 175.68000000000004 0.0 0.0
  outer loop
   vertex 21.5 36.6 -15
   vertex 21.5 -36.6 -12.6
   vertex 21.5 -36.6 -15
  endloop
 endfacet
 facet normal 0.0 0.0 1487.8
  outer loop
   vertex -21.5 -36.6 -15
   vertex 21.5 -36.6 -15
   vertex 21.5 -2.0 -15
  endloop
 endfacet
 facet normal 0.0 0.0 1487.8
  outer loop
   vertex -21.5 -36.6 -15
   vertex 21.5 -2.0 -15
   vertex -21.5 -2.0 -15
  endloop
 endfacet
 facet normal 0.0 0.0 -1487.8
  outer loop
   vertex -21.5 -36.6 -12.6
   vertex -21.5 -2.0 -12.6
   vertex 21.5 -2.0 -12.6
  endloop
 endfacet
 facet normal 0.0 0.0 -1487.8
  outer loop
   vertex -21.5 -36.6 -12.6
   vertex 21.5 -2.0 -12.6
   vertex 21.5 -36.6 -12.6
  endloop
 endfacet
 facet normal 0.0 103.20000000000002 0.0
  outer loop
   vertex -21.5 -36.6 -15
   vertex -21.5 -36.6 -12.6
   vertex 21.5 -36.6 -12.6
  endloop
 endfacet
 facet normal 0.0 103.20000000000002 0.0
  outer loop
   vertex -21.5 -36.6 -15
   vertex 21.5 -36.6 -12.6
   vertex 21.5 -36.6 -15
  endloop
 endfacet
 facet normal -83.04000000000002 0.0 0.0
  outer loop
   vertex 21.5 -36.6 -15
   vertex 21.5 -36.6 -12.6
   vertex 21.5 -2.0 -12.6
  endloop
 endfacet
 facet normal -83.04000000000002 0.0 0.0
  outer loop
   vertex 21.5 -36.6 -15
   vertex 21.5 -2.0 -12.6
   vertex 21.5 -2.0 -15
  endloop
 endfacet
 facet normal 0.0 -103.20000000000002 0.0
  outer loop
   vertex 21.5 -2.0 -15
   vertex 21.5 -2.0 -12.6
   vertex -21.5 -2.0 -12.6
  endloop
 endfacet
 facet normal 0.0 -103.20000000000002 0.0
  outer loop
   vertex 21.5 -2.0 -15
   vertex -21.5 -2.0 -12.6
   vertex -21.5 -2.0 -15
  endloop
 endfacet
 facet normal 83.04000000000002 0.0 -0.0
  outer loop
   vertex -21.5 -2.0 -15
   vertex -21.5 -2.0 -12.6
   vertex -21.5 -36.6 -12.6
  endloop
 endfacet
 facet normal 83.04000000000002 0.0 0.0
  outer loop
   vertex -21.5 -2.0 -15
   vertex -21.5 -36.6 -12.6
   vertex -21.5 -36.6 -15
  endloop
 endfacet
 facet normal 0.0 0.0 1487.8
  outer loop
   vertex -21.5 2.0 -15
   vertex 21.5 2.0 -15
   vertex 21.5 36.6 -15
  endloop
 endfacet
 facet normal 0.0 0.0 1487.8
  outer loop
   vertex -21.5 2.0 -15
   vertex 21.5 36.6 -15
   vertex -21.5 36.6 -15
  endloop
 endfacet
 facet normal 0.0 0.0 -1487.8
  outer loop
   vertex -21.5 2.0 -12.6
   vertex -21.5 36.6 -12.6
   vertex 21.5 36.6 -12.6
  endloop
 endfacet
 facet normal 0.0 0.0 -1487.8
  outer loop
   vertex -21.5 2.0 -12.6
   vertex 21.5 36.6 -12.6
   vertex 21.5 2.0 -12.6
  endloop
 endfacet
 facet normal 0.0 103.20000000000002 0.0
  outer loop
   vertex -21.5 2.0 -15
   vertex -21.5 2.0 -12.6
   vertex 21.5 2.0 -12.6
  endloop
 endfacet
 facet normal 0.0 103.20000000000002 0.0
  outer loop
   vertex -21.5 2.0 -15
   vertex 21.5 2.0 -12.6
   vertex 21.5 2.0 -15
  endloop
 endfacet
 facet normal -83.04000000000002 0.0 0.0
  outer loop
   vertex 21.5 2.0 -15
   vertex 21.5 2.0 -12.6
   vertex 21.5 36.6 -12.6
  endloop
 endfacet
 facet normal -83.04000000000002 0.0 0.0
  outer loop
   vertex 21.5 2.0 -15
   vertex 21.5 36.6 -12.6
   vertex 21.5 36.6 -15
  endloop
 endfacet
 facet normal 0.0 -103.20000000000002 0.0
  outer loop
   vertex 21.5 36.6 -15
   vertex 21.5 36.6 -12.6
   vertex -21.5 36.6 -12.6
  endloop
 endfacet
 facet normal 0.0 -103.20000000000002 0.0
  outer loop
   vertex 21.5 36.6 -15
   vertex -21.5 36.6 -12.6
   vertex -21.5 36.6 -15
  endloop
 endfacet
 facet normal 83.04000000000002 0.0 -0.0
  outer loop
   vertex -21.5 36.6 -15
   vertex -21.5 36.6 -12.6
   vertex -21.5 2.0 -12.6
  endloop
 endfacet
 facet normal 83.04000000000002 0.0 0.0
  outer loop
   vertex -21.5 36.6 -15
   vertex -21.5 2.0 -12.6
   vertex -21.5 2.0 -15
  endloop
 endfacet
 facet normal 8.652475842498518 1.370417543735698 0.0
  outer loop
   vertex -44.0 -20.5 0
   vertex -44.17130219296696 -19.418440519687685 0
   vertex -44.17130219296696 -19.418440519687685 8
  endloop
 endfacet
 facet normal 8.652475842498518 1.370417543735698 -0.0
  outer loop
   vertex -44.0 -20.5 0
   vertex -44.17130219296696 -19.418440519687685 8
   vertex -44.0 -20.5 8
  endloop
 endfacet
 facet normal 0.0 0.0 -3.7854581810931016
  outer loop
   vertex -47.5 -20.5 0
   vertex -44.17130219296696 -19.418440519687685 0
   vertex -44.0 -20.5 0
  endloop
 endfacet
 facet normal 0.0 0.0 3.7854581810931016
  outer loop
   vertex -47.5 -20.5 8
   vertex -44.0 -20.5 8
   vertex -44.17130219296696 -19.418440519687685 8
  endloop
 endfacet
 facet normal 7.805511221690722 3.977106613765784 0.0
  outer loop
   vertex -44.17130219296696 -19.418440519687685 0
   vertex -44.668440519687685 -18.442751616976345 0
   vertex -44.668440519687685 -18.442751616976345 8
  endloop
 endfacet
 facet normal 7.805511221690722 3.977106613765784 -0.0
  outer loop
   vertex -44.17130219296696 -19.418440519687685 0
   vertex -44.668440519687685 -18.442751616976345 8
   vertex -44.17130219296696 -19.418440519687685 8
  endloop
 endfacet
 facet normal 0.0 0.0 -3.7854581810931083
  outer loop
   vertex -47.5 -20.5 0
   vertex -44.668440519687685 -18.442751616976345 0
   vertex -44.17130219296696 -19.418440519687685 0
  endloop
 endfacet
 facet normal 0.0 0.0 3.7854581810931083
  outer loop
   vertex -47.5 -20.5 8
   vertex -44.17130219296696 -19.418440519687685 8
   vertex -44.668440519687685 -18.442751616976345 8
  endloop
 endfacet
 facet normal 6.194488778309278 6.194488778309278 0.0
  outer loop
   vertex -44.668440519687685 -18.442751616976345 0
   vertex -45.442751616976345 -17.668440519687685 0
   vertex -45.442751616976345 -17.668440519687685 8
  endloop
 endfacet
 facet normal 6.194488778309278 6.194488778309278 -0.0
  outer loop
   vertex -44.668440519687685 -18.442751616976345 0
   vertex -45.442751616976345 -17.668440519687685 8
   vertex -44.668440519687685 -18.442751616976345 8
  endloop
 endfacet
 facet normal 0.0 0.0 -3.7854581810931025
  outer loop
   vertex -47.5 -20.5 0
   vertex -45.442751616976345 -17.668440519687685 0
   vertex -44.668440519687685 -18.442751616976345 0
  endloop
 endfacet
 facet normal 0.0 0.0 3.7854581810931025
  outer loop
   vertex -47.5 -20.5 8
   vertex -44.668440519687685 -18.442751616976345 8
   vertex -45.442751616976345 -17.668440519687685 8
  endloop
 endfacet
 facet normal 3.977106613765784 7.805511221690722 0.0
  outer loop
   vertex -45.442751616976345 -17.668440519687685 0
   vertex -46.418440519687685 -17.171302192966962 0
   vertex -46.418440519687685 -17.171302192966962 8
  endloop
 endfacet
 facet normal 3.977106613765784 7.805511221690722 -0.0
  outer loop
   vertex -45.442751616976345 -17.668440519687685 0
   vertex -46.418440519687685 -17.171302192966962 8
   vertex -45.442751616976345 -17.668440519687685 8
  endloop
 endfacet
 facet normal 0.0 0.0 -3.7854581810931083
  outer loop
   vertex -47.5 -20.5 0
   vertex -46.418440519687685 -17.171302192966962 0
   vertex -45.442751616976345 -17.668440519687685 0
  endloop
 endfacet
 facet normal 0.0 0.0 3.7854581810931083
  outer loop
   vertex -47.5 -20.5 8
   vertex -45.442751616976345 -17.668440519687685 8
   vertex -46.418440519687685 -17.171302192966962 8
  endloop
 endfacet
 facet normal 1.370417543735698 8.652475842498518 0.0
  outer loop
   vertex -46.418440519687685 -17.171302192966962 0
   vertex -47.5 -17.0 0
   vertex -47.5 -17.0 8
  endloop
 endfacet
 facet normal 1.370417543735698 8.652475842498518 -0.0
  outer loop
   vertex -46.418440519687685 -17.171302192966962 0
   vertex -47.5 -17.0 8
   vertex -46.418440519687685 -17.171302192966962 8
  endloop
 endfacet
 facet normal 0.0 0.0 -3.7854581810931016
  outer loop
   vertex -47.5 -20.5 0
   vertex -47.5 -17.0 0
   vertex -46.418440519687685 -17.171302192966962 0
  endloop
 endfacet
 facet normal 0.0 0.0 3.7854581810931016
  outer loop
   vertex -47.5 -20.5 8
   vertex -46.418440519687685 -17.171302192966962 8
   vertex -47.5 -17.0 8
  endloop
 endfacet
 facet normal -1.370417543735698 8.652475842498518 0.0
  outer loop
   vertex -47.5 -17.0 0
   vertex -48.581559480312315 -17.171302192966962 0
   vertex -48.581559480312315 -17.171302192966962 8
  endloop
 endfacet
 facet normal -1.370417543735698 8.652475842498518 0.0
  outer loop
   vertex -47.5 -17.0 0
   vertex -48.581559480312315 -17.171302192966962 8
   vertex -47.5 -17.0 8
  endloop
 endfacet
 facet normal 0.0 0.0 -3.7854581810931016
  outer loop
   vertex -47.5 -20.5 0
   vertex -48.581559480312315 -17.171302192966962 0
   vertex -47.5 -17.0 0
  endloop
 endfacet
 facet normal 0.0 -0.0 3.7854581810931016
  outer loop
   vertex -47.5 -20.5 8
   vertex -47.5 -17.0 8
   vertex -48.581559480312315 -17.171302192966962 8
  endloop
 endfacet
 facet normal -3.977106613765784 7.805511221690722 0.0
  outer loop
   vertex -48.581559480312315 -17.171302192966962 0
   vertex -49.557248383023655 -17.668440519687685 0
   vertex -49.557248383023655 -17.668440519687685 8
  endloop
 endfacet
 facet normal -3.977106613765784 7.805511221690722 0.0
  outer loop
   vertex -48.581559480312315 -17.171302192966962 0
   vertex -49.557248383023655 -17.668440519687685 8
   vertex -48.581559480312315 -17.171302192966962 8
  endloop
 endfacet
 facet normal 0.0 0.0 -3.7854581810931083
  outer loop
   vertex -47.5 -20.5 0
   vertex -49.557248383023655 -17.668440519687685 0
   vertex -48.581559480312315 -17.171302192966962 0
  endloop
 endfacet
 facet normal 0.0 0.0 3.7854581810931083
  outer loop
   vertex -47.5 -20.5 8
   vertex -48.581559480312315 -17.171302192966962 8
   vertex -49.557248383023655 -17.668440519687685 8
  endloop
 endfacet
 facet normal -6.194488778309278 6.194488778309278 0.0
  outer loop
   vertex -49.557248383023655 -17.668440519687685 0
   vertex -50.331559480312315 -18.442751616976345 0
   vertex -50.331559480312315 -18.442751616976345 8
  endloop
 endfacet
 facet normal -6.194488778309278 6.194488778309278 0.0
  outer loop
   vertex -49.557248383023655 -17.668440519687685 0
   vertex -50.331559480312315 -18.442751616976345 8
   vertex -49.557248383023655 -17.668440519687685 8
  endloop
 endfacet
 facet normal 0.0 0.0 -3.7854581810931025
  outer loop
   vertex -47.5 -20.5 0
   vertex -50.331559480312315 -18.442751616976345 0
   vertex -49.557248383023655 -17.668440519687685 0
  endloop
 endfacet
 facet normal 0.0 0.0 3.7854581810931025
  outer loop
   vertex -47.5 -20.5 8
   vertex -49.557248383023655 -17.668440519687685 8
   vertex -50.331559480312315 -18.442751616976345 8
  endloop
 endfacet
 facet normal -7.805511221690722 3.977106613765784 0.0
  outer loop
   vertex -50.331559480312315 -18.442751616976345 0
   vertex -50.82869780703304 -19.418440519687685 0
   vertex -50.82869780703304 -19.418440519687685 8
  endloop
 endfacet
 facet normal -7.805511221690722 3.977106613765784 0.0
  outer loop
   vertex -50.331559480312315 -18.442751616976345 0
   vertex -50.82869780703304 -19.418440519687685 8
   vertex -50.331559480312315 -18.442751616976345 8
  endloop
 endfacet
 facet normal 0.0 0.0 -3.7854581810931083
  outer loop
   vertex -47.5 -20.5 0
   vertex -50.82869780703304 -19.418440519687685 0
   vertex -50.331559480312315 -18.442751616976345 0
  endloop
 endfacet
 facet normal 0.0 0.0 3.7854581810931083
  outer loop
   vertex -47.5 -20.5 8
   vertex -50.331559480312315 -18.442751616976345 8
   vertex -50.82869780703304 -19.418440519687685 8
  endloop
 endfacet
 facet normal -8.652475842498518 1.370417543735698 0.0
  outer loop
   vertex -50.82869780703304 -19.418440519687685 0
   vertex -51.0 -20.5 0
   vertex -51.0 -20.5 8
  endloop
 endfacet
 facet normal -8.652475842498518 1.370417543735698 0.0
  outer loop
   vertex -50.82869780703304 -19.418440519687685 0
   vertex -51.0 -20.5 8
   vertex -50.82869780703304 -19.418440519687685 8
  endloop
 endfacet
 facet normal 0.0 0.0 -3.7854581810931016
  outer loop
   vertex -47.5 -20.5 0
   vertex -51.0 -20.5 0
   vertex -50.82869780703304 -19.418440519687685 0
  endloop
 endfacet
 facet normal 0.0 0.0 3.7854581810931016
  outer loop
   vertex -47.5 -20.5 8
   vertex -50.82869780703304 -19.418440519687685 8
   vertex -51.0 -20.5 8
  endloop
 endfacet
 facet normal -8.652475842498518 -1.370417543735698 0.0
  outer loop
   vertex -51.0 -20.5 0
   vertex -50.82869780703304 -21.581559480312315 0
   vertex -50.82869780703304 -21.581559480312315 8
  endloop
 endfacet
 facet normal -8.652475842498518 -1.370417543735698 0.0
  outer loop
   vertex -51.0 -20.5 0
   vertex -50.82869780703304 -21.581559480312315 8
   vertex -51.0 -20.5 8
  endloop
 endfacet
 facet normal -0.0 0.0 -3.7854581810931016
  outer loop
   vertex -47.5 -20.5 0
   vertex -50.82869780703304 -21.581559480312315 0
   vertex -51.0 -20.5 0
  endloop
 endfacet
 facet normal 0.0 0.0 3.7854581810931016
  outer loop
   vertex -47.5 -20.5 8
   vertex -51.0 -20.5 8
   vertex -50.82869780703304 -21.581559480312315 8
  endloop
 endfacet
 facet normal -7.805511221690722 -3.977106613765784 0.0
  outer loop
   vertex -50.82869780703304 -21.581559480312315 0
   vertex -50.331559480312315 -22.557248383023655 0
   vertex -50.331559480312315 -22.557248383023655 8
  endloop
 endfacet
 facet normal -7.805511221690722 -3.977106613765784 0.0
  outer loop
   vertex -50.82869780703304 -21.581559480312315 0
   vertex -50.331559480312315 -22.557248383023655 8
   vertex -50.82869780703304 -21.581559480312315 8
  endloop
 endfacet
 facet normal 0.0 0.0 -3.7854581810931083
  outer loop
   vertex -47.5 -20.5 0
   vertex -50.331559480312315 -22.557248383023655 0
   vertex -50.82869780703304 -21.581559480312315 0
  endloop
 endfacet
 facet normal 0.0 0.0 3.7854581810931083
  outer loop
   vertex -47.5 -20.5 8
   vertex -50.82869780703304 -21.581559480312315 8
   vertex -50.331559480312315 -22.557248383023655 8
  endloop
 endfacet
 facet normal -6.194488778309278 -6.194488778309278 0.0
  outer loop
   vertex -50.331559480312315 -22.557248383023655 0
   vertex -49.557248383023655 -23.331559480312315 0
   vertex -49.557248383023655 -23.331559480312315 8
  endloop
 endfacet
 facet normal -6.194488778309278 -6.194488778309278 0.0
  outer loop
   vertex -50.331559480312315 -22.557248383023655 0
   vertex -49.557248383023655 -23.331559480312315 8
   vertex -50.331559480312315 -22.557248383023655 8
  endloop
 endfacet
 facet normal 0.0 0.0 -3.7854581810931025
  outer loop
   vertex -47.5 -20.5 0
   vertex -49.557248383023655 -23.331559480312315 0
   vertex -50.331559480312315 -22.557248383023655 0
  endloop
 endfacet
 facet normal 0.0 0.0 3.7854581810931025
  outer loop
   vertex -47.5 -20.5 8
   vertex -50.331559480312315 -22.557248383023655 8
   vertex -49.557248383023655 -23.331559480312315 8
  endloop
 endfacet
 facet normal -3.977106613765784 -7.805511221690722 0.0
  outer loop
   vertex -49.557248383023655 -23.331559480312315 0
   vertex -48.581559480312315 -23.828697807033038 0
   vertex -48.581559480312315 -23.828697807033038 8
  endloop
 endfacet
 facet normal -3.977106613765784 -7.805511221690722 0.0
  outer loop
   vertex -49.557248383023655 -23.331559480312315 0
   vertex -48.581559480312315 -23.828697807033038 8
   vertex -49.557248383023655 -23.331559480312315 8
  endloop
 endfacet
 facet normal 0.0 0.0 -3.7854581810931083
  outer loop
   vertex -47.5 -20.5 0
   vertex -48.581559480312315 -23.828697807033038 0
   vertex -49.557248383023655 -23.331559480312315 0
  endloop
 endfacet
 facet normal 0.0 0.0 3.7854581810931083
  outer loop
   vertex -47.5 -20.5 8
   vertex -49.557248383023655 -23.331559480312315 8
   vertex -48.581559480312315 -23.828697807033038 8
  endloop
 endfacet
 facet normal -1.370417543735698 -8.652475842498518 0.0
  outer loop
   vertex -48.581559480312315 -23.828697807033038 0
   vertex -47.5 -24.0 0
   vertex -47.5 -24.0 8
  endloop
 endfacet
 facet normal -1.370417543735698 -8.652475842498518 0.0
  outer loop
   vertex -48.581559480312315 -23.828697807033038 0
   vertex -47.5 -24.0 8
   vertex -48.581559480312315 -23.828697807033038 8
  endloop
 endfacet
 facet normal 0.0 -0.0 -3.7854581810931016
  outer loop
   vertex -47.5 -20.5 0
   vertex -47.5 -24.0 0
   vertex -48.581559480312315 -23.828697807033038 0
  endloop
 endfacet
 facet normal 0.0 0.0 3.7854581810931016
  outer loop
   vertex -47.5 -20.5 8
   vertex -48.581559480312315 -23.828697807033038 8
   vertex -47.5 -24.0 8
  endloop
 endfacet
 facet normal 1.370417543735698 -8.652475842498518 0.0
  outer loop
   vertex -47.5 -24.0 0
   vertex -46.418440519687685 -23.828697807033038 0
   vertex -46.418440519687685 -23.828697807033038 8
  endloop
 endfacet
 facet normal 1.370417543735698 -8.652475842498518 0.0
  outer loop
   vertex -47.5 -24.0 0
   vertex -46.418440519687685 -23.828697807033038 8
   vertex -47.5 -24.0 8
  endloop
 endfacet
 facet normal 0.0 0.0 -3.7854581810931016
  outer loop
   vertex -47.5 -20.5 0
   vertex -46.418440519687685 -23.828697807033038 0
   vertex -47.5 -24.0 0
  endloop
 endfacet
 facet normal 0.0 0.0 3.7854581810931016
  outer loop
   vertex -47.5 -20.5 8
   vertex -47.5 -24.0 8
   vertex -46.418440519687685 -23.828697807033038 8
  endloop
 endfacet
 facet normal 3.977106613765784 -7.805511221690722 0.0
  outer loop
   vertex -46.418440519687685 -23.828697807033038 0
   vertex -45.442751616976345 -23.331559480312315 0
   vertex -45.442751616976345 -23.331559480312315 8
  endloop
 endfacet
 facet normal 3.977106613765784 -7.805511221690722 0.0
  outer loop
   vertex -46.418440519687685 -23.828697807033038 0
   vertex -45.442751616976345 -23.331559480312315 8
   vertex -46.418440519687685 -23.828697807033038 8
  endloop
 endfacet
 facet normal 0.0 0.0 -3.7854581810931083
  outer loop
   vertex -47.5 -20.5 0
   vertex -45.442751616976345 -23.331559480312315 0
   vertex -46.418440519687685 -23.828697807033038 0
  endloop
 endfacet
 facet normal 0.0 0.0 3.7854581810931083
  outer loop
   vertex -47.5 -20.5 8
   vertex -46.418440519687685 -23.828697807033038 8
   vertex -45.442751616976345 -23.331559480312315 8
  endloop
 endfacet
 facet normal 6.194488778309278 -6.194488778309278 0.0
  outer loop
   vertex -45.442751616976345 -23.331559480312315 0
   vertex -44.668440519687685 -22.557248383023655 0
   vertex -44.668440519687685 -22.557248383023655 8
  endloop
 endfacet
 facet normal 6.194488778309278 -6.194488778309278 0.0
  outer loop
   vertex -45.442751616976345 -23.331559480312315 0
   vertex -44.668440519687685 -22.557248383023655 8
   vertex -45.442751616976345 -23.331559480312315 8
  endloop
 endfacet
 facet normal 0.0 0.0 -3.7854581810931025
  outer loop
   vertex -47.5 -20.5 0
   vertex -44.668440519687685 -22.557248383023655 0
   vertex -45.442751616976345 -23.331559480312315 0
  endloop
 endfacet
 facet normal 0.0 0.0 3.7854581810931025
  outer loop
   vertex -47.5 -20.5 8
   vertex -45.442751616976345 -23.331559480312315 8
   vertex -44.668440519687685 -22.557248383023655 8
  endloop
 endfacet
 facet normal 7.8055112216906934 -3.977106613765784 0.0
  outer loop
   vertex -44.668440519687685 -22.557248383023655 0
   vertex -44.17130219296696 -21.58155948031232 0
   vertex -44.17130219296696 -21.58155948031232 8
  endloop
 endfacet
 facet normal 7.8055112216906934 -3.977106613765784 0.0
  outer loop
   vertex -44.668440519687685 -22.557248383023655 0
   vertex -44.17130219296696 -21.58155948031232 8
   vertex -44.668440519687685 -22.557248383023655 8
  endloop
 endfacet
 facet normal 0.0 0.0 -3.785458181093098
  outer loop
   vertex -47.5 -20.5 0
   vertex -44.17130219296696 -21.58155948031232 0
   vertex -44.668440519687685 -22.557248383023655 0
  endloop
 endfacet
 facet normal 0.0 0.0 3.785458181093098
  outer loop
   vertex -47.5 -20.5 8
   vertex -44.668440519687685 -22.557248383023655 8
   vertex -44.17130219296696 -21.58155948031232 8
  endloop
 endfacet
 facet normal 8.652475842498546 -1.370417543735698 0.0
  outer loop
   vertex -44.17130219296696 -21.58155948031232 0
   vertex -44.0 -20.5 0
   vertex -44.0 -20.5 8
  endloop
 endfacet
 facet normal 8.652475842498546 -1.370417543735698 0.0
  outer loop
   vertex -44.17130219296696 -21.58155948031232 0
   vertex -44.0 -20.5 8
   vertex -44.17130219296696 -21.58155948031232 8
  endloop
 endfacet
 facet normal 0.0 0.0 -3.785458181093114
  outer loop
   vertex -47.5 -20.5 0
   vertex -44.0 -20.5 0
   vertex -44.17130219296696 -21.58155948031232 0
  endloop
 endfacet
 facet normal -0.0 0.0 3.785458181093114
  outer loop
   vertex -47.5 -20.5 8
   vertex -44.17130219296696 -21.58155948031232 8
   vertex -44.0 -20.5 8
  endloop
 endfacet
 facet normal 8.652475842498518 1.370417543735698 0.0
  outer loop
   vertex -44.0 20.5 0
   vertex -44.17130219296696 21.581559480312315 0
   vertex -44.17130219296696 21.581559480312315 8
  endloop
 endfacet
 facet normal 8.652475842498518 1.370417543735698 -0.0
  outer loop
   vertex -44.0 20.5 0
   vertex -44.17130219296696 21.581559480312315 8
   vertex -44.0 20.5 8
  endloop
 endfacet
 facet normal 0.0 0.0 -3.7854581810931016
  outer loop
   vertex -47.5 20.5 0
   vertex -44.17130219296696 21.581559480312315 0
   vertex -44.0 20.5 0
  endloop
 endfacet
 facet normal 0.0 0.0 3.7854581810931016
  outer loop
   vertex -47.5 20.5 8
   vertex -44.0 20.5 8
   vertex -44.17130219296696 21.581559480312315 8
  endloop
 endfacet
 facet normal 7.805511221690722 3.977106613765784 0.0
  outer loop
   vertex -44.17130219296696 21.581559480312315 0
   vertex -44.668440519687685 22.557248383023655 0
   vertex -44.668440519687685 22.557248383023655 8
  endloop
 endfacet
 facet normal 7.805511221690722 3.977106613765784 -0.0
  outer loop
   vertex -44.17130219296696 21.581559480312315 0
   vertex -44.668440519687685 22.557248383023655 8
   vertex -44.17130219296696 21.581559480312315 8
  endloop
 endfacet
 facet normal 0.0 0.0 -3.7854581810931083
  outer loop
   vertex -47.5 20.5 0
   vertex -44.668440519687685 22.557248383023655 0
   vertex -44.17130219296696 21.581559480312315 0
  endloop
 endfacet
 facet normal 0.0 0.0 3.7854581810931083
  outer loop
   vertex -47.5 20.5 8
   vertex -44.17130219296696 21.581559480312315 8
   vertex -44.668440519687685 22.557248383023655 8
  endloop
 endfacet
 facet normal 6.194488778309278 6.194488778309278 0.0
  outer loop
   vertex -44.668440519687685 22.557248383023655 0
   vertex -45.442751616976345 23.331559480312315 0
   vertex -45.442751616976345 23.331559480312315 8
  endloop
 endfacet
 facet normal 6.194488778309278 6.194488778309278 -0.0
  outer loop
   vertex -44.668440519687685 22.557248383023655 0
   vertex -45.442751616976345 23.331559480312315 8
   vertex -44.668440519687685 22.557248383023655 8
  endloop
 endfacet
 facet normal 0.0 0.0 -3.7854581810931025
  outer loop
   vertex -47.5 20.5 0
   vertex -45.442751616976345 23.331559480312315 0
   vertex -44.668440519687685 22.557248383023655 0
  endloop
 endfacet
 facet normal 0.0 0.0 3.7854581810931025
  outer loop
   vertex -47.5 20.5 8
   vertex -44.668440519687685 22.557248383023655 8
   vertex -45.442751616976345 23.331559480312315 8
  endloop
 endfacet
 facet normal 3.977106613765784 7.805511221690722 0.0
  outer loop
   vertex -45.442751616976345 23.331559480312315 0
   vertex -46.418440519687685 23.828697807033038 0
   vertex -46.418440519687685 23.828697807033038 8
  endloop
 endfacet
 facet normal 3.977106613765784 7.805511221690722 -0.0
  outer loop
   vertex -45.442751616976345 23.331559480312315 0
   vertex -46.418440519687685 23.828697807033038 8
   vertex -45.442751616976345 23.331559480312315 8
  endloop
 endfacet
 facet normal 0.0 0.0 -3.7854581810931083
  outer loop
   vertex -47.5 20.5 0
   vertex -46.418440519687685 23.828697807033038 0
   vertex -45.442751616976345 23.331559480312315 0
  endloop
 endfacet
 facet normal 0.0 0.0 3.7854581810931083
  outer loop
   vertex -47.5 20.5 8
   vertex -45.442751616976345 23.331559480312315 8
   vertex -46.418440519687685 23.828697807033038 8
  endloop
 endfacet
 facet normal 1.370417543735698 8.652475842498518 0.0
  outer loop
   vertex -46.418440519687685 23.828697807033038 0
   vertex -47.5 24.0 0
   vertex -47.5 24.0 8
  endloop
 endfacet
 facet normal 1.370417543735698 8.652475842498518 -0.0
  outer loop
   vertex -46.418440519687685 23.828697807033038 0
   vertex -47.5 24.0 8
   vertex -46.418440519687685 23.828697807033038 8
  endloop
 endfacet
 facet normal 0.0 0.0 -3.7854581810931016
  outer loop
   vertex -47.5 20.5 0
   vertex -47.5 24.0 0
   vertex -46.418440519687685 23.828697807033038 0
  endloop
 endfacet
 facet normal 0.0 0.0 3.7854581810931016
  outer loop
   vertex -47.5 20.5 8
   vertex -46.418440519687685 23.828697807033038 8
   vertex -47.5 24.0 8
  endloop
 endfacet
 facet normal -1.370417543735698 8.652475842498518 0.0
  outer loop
   vertex -47.5 24.0 0
   vertex -48.581559480312315 23.828697807033038 0
   vertex -48.581559480312315 23.828697807033038 8
  endloop
 endfacet
 facet normal -1.370417543735698 8.652475842498518 0.0
  outer loop
   vertex -47.5 24.0 0
   vertex -48.581559480312315 23.828697807033038 8
   vertex -47.5 24.0 8
  endloop
 endfacet
 facet normal 0.0 0.0 -3.7854581810931016
  outer loop
   vertex -47.5 20.5 0
   vertex -48.581559480312315 23.828697807033038 0
   vertex -47.5 24.0 0
  endloop
 endfacet
 facet normal 0.0 -0.0 3.7854581810931016
  outer loop
   vertex -47.5 20.5 8
   vertex -47.5 24.0 8
   vertex -48.581559480312315 23.828697807033038 8
  endloop
 endfacet
 facet normal -3.977106613765784 7.805511221690722 0.0
  outer loop
   vertex -48.581559480312315 23.828697807033038 0
   vertex -49.557248383023655 23.331559480312315 0
   vertex -49.557248383023655 23.331559480312315 8
  endloop
 endfacet
 facet normal -3.977106613765784 7.805511221690722 0.0
  outer loop
   vertex -48.581559480312315 23.828697807033038 0
   vertex -49.557248383023655 23.331559480312315 8
   vertex -48.581559480312315 23.828697807033038 8
  endloop
 endfacet
 facet normal 0.0 0.0 -3.7854581810931083
  outer loop
   vertex -47.5 20.5 0
   vertex -49.557248383023655 23.331559480312315 0
   vertex -48.581559480312315 23.828697807033038 0
  endloop
 endfacet
 facet normal 0.0 0.0 3.7854581810931083
  outer loop
   vertex -47.5 20.5 8
   vertex -48.581559480312315 23.828697807033038 8
   vertex -49.557248383023655 23.331559480312315 8
  endloop
 endfacet
 facet normal -6.194488778309278 6.194488778309278 0.0
  outer loop
   vertex -49.557248383023655 23.331559480312315 0
   vertex -50.331559480312315 22.557248383023655 0
   vertex -50.331559480312315 22.557248383023655 8
  endloop
 endfacet
 facet normal -6.194488778309278 6.194488778309278 0.0
  outer loop
   vertex -49.557248383023655 23.331559480312315 0
   vertex -50.331559480312315 22.557248383023655 8
   vertex -49.557248383023655 23.331559480312315 8
  endloop
 endfacet
 facet normal 0.0 0.0 -3.7854581810931025
  outer loop
   vertex -47.5 20.5 0
   vertex -50.331559480312315 22.557248383023655 0
   vertex -49.557248383023655 23.331559480312315 0
  endloop
 endfacet
 facet normal 0.0 0.0 3.7854581810931025
  outer loop
   vertex -47.5 20.5 8
   vertex -49.557248383023655 23.331559480312315 8
   vertex -50.331559480312315 22.557248383023655 8
  endloop
 endfacet
 facet normal -7.805511221690722 3.977106613765784 0.0
  outer loop
   vertex -50.331559480312315 22.557248383023655 0
   vertex -50.82869780703304 21.581559480312315 0
   vertex -50.82869780703304 21.581559480312315 8
  endloop
 endfacet
 facet normal -7.805511221690722 3.977106613765784 0.0
  outer loop
   vertex -50.331559480312315 22.557248383023655 0
   vertex -50.82869780703304 21.581559480312315 8
   vertex -50.331559480312315 22.557248383023655 8
  endloop
 endfacet
 facet normal 0.0 0.0 -3.7854581810931083
  outer loop
   vertex -47.5 20.5 0
   vertex -50.82869780703304 21.581559480312315 0
   vertex -50.331559480312315 22.557248383023655 0
  endloop
 endfacet
 facet normal 0.0 0.0 3.7854581810931083
  outer loop
   vertex -47.5 20.5 8
   vertex -50.331559480312315 22.557248383023655 8
   vertex -50.82869780703304 21.581559480312315 8
  endloop
 endfacet
 facet normal -8.652475842498518 1.370417543735698 0.0
  outer loop
   vertex -50.82869780703304 21.581559480312315 0
   vertex -51.0 20.5 0
   vertex -51.0 20.5 8
  endloop
 endfacet
 facet normal -8.652475842498518 1.370417543735698 0.0
  outer loop
   vertex -50.82869780703304 21.581559480312315 0
   vertex -51.0 20.5 8
   vertex -50.82869780703304 21.581559480312315 8
  endloop
 endfacet
 facet normal 0.0 0.0 -3.7854581810931016
  outer loop
   vertex -47.5 20.5 0
   vertex -51.0 20.5 0
   vertex -50.82869780703304 21.581559480312315 0
  endloop
 endfacet
 facet normal 0.0 0.0 3.7854581810931016
  outer loop
   vertex -47.5 20.5 8
   vertex -50.82869780703304 21.581559480312315 8
   vertex -51.0 20.5 8
  endloop
 endfacet
 facet normal -8.652475842498518 -1.370417543735698 0.0
  outer loop
   vertex -51.0 20.5 0
   vertex -50.82869780703304 19.418440519687685 0
   vertex -50.82869780703304 19.418440519687685 8
  endloop
 endfacet
 facet normal -8.652475842498518 -1.370417543735698 0.0
  outer loop
   vertex -51.0 20.5 0
   vertex -50.82869780703304 19.418440519687685 8
   vertex -51.0 20.5 8
  endloop
 endfacet
 facet normal -0.0 0.0 -3.7854581810931016
  outer loop
   vertex -47.5 20.5 0
   vertex -50.82869780703304 19.418440519687685 0
   vertex -51.0 20.5 0
  endloop
 endfacet
 facet normal 0.0 0.0 3.7854581810931016
  outer loop
   vertex -47.5 20.5 8
   vertex -51.0 20.5 8
   vertex -50.82869780703304 19.418440519687685 8
  endloop
 endfacet
 facet normal -7.805511221690722 -3.977106613765784 0.0
  outer loop
   vertex -50.82869780703304 19.418440519687685 0
   vertex -50.331559480312315 18.442751616976345 0
   vertex -50.331559480312315 18.442751616976345 8
  endloop
 endfacet
 facet normal -7.805511221690722 -3.977106613765784 0.0
  outer loop
   vertex -50.82869780703304 19.418440519687685 0
   vertex -50.331559480312315 18.442751616976345 8
   vertex -50.82869780703304 19.418440519687685 8
  endloop
 endfacet
 facet normal 0.0 0.0 -3.7854581810931083
  outer loop
   vertex -47.5 20.5 0
   vertex -50.331559480312315 18.442751616976345 0
   vertex -50.82869780703304 19.418440519687685 0
  endloop
 endfacet
 facet normal 0.0 0.0 3.7854581810931083
  outer loop
   vertex -47.5 20.5 8
   vertex -50.82869780703304 19.418440519687685 8
   vertex -50.331559480312315 18.442751616976345 8
  endloop
 endfacet
 facet normal -6.194488778309278 -6.194488778309278 0.0
  outer loop
   vertex -50.331559480312315 18.442751616976345 0
   vertex -49.557248383023655 17.668440519687685 0
   vertex -49.557248383023655 17.668440519687685 8
  endloop
 endfacet
 facet normal -6.194488778309278 -6.194488778309278 0.0
  outer loop
   vertex -50.331559480312315 18.442751616976345 0
   vertex -49.557248383023655 17.668440519687685 8
   vertex -50.331559480312315 18.442751616976345 8
  endloop
 endfacet
 facet normal 0.0 0.0 -3.7854581810931025
  outer loop
   vertex -47.5 20.5 0
   vertex -49.557248383023655 17.668440519687685 0
   vertex -50.331559480312315 18.442751616976345 0
  endloop
 endfacet
 facet normal 0.0 0.0 3.7854581810931025
  outer loop
   vertex -47.5 20.5 8
   vertex -50.331559480312315 18.442751616976345 8
   vertex -49.557248383023655 17.668440519687685 8
  endloop
 endfacet
 facet normal -3.977106613765784 -7.805511221690722 0.0
  outer loop
   vertex -49.557248383023655 17.668440519687685 0
   vertex -48.581559480312315 17.171302192966962 0
   vertex -48.581559480312315 17.171302192966962 8
  endloop
 endfacet
 facet normal -3.977106613765784 -7.805511221690722 0.0
  outer loop
   vertex -49.557248383023655 17.668440519687685 0
   vertex -48.581559480312315 17.171302192966962 8
   vertex -49.557248383023655 17.668440519687685 8
  endloop
 endfacet
 facet normal 0.0 0.0 -3.7854581810931083
  outer loop
   vertex -47.5 20.5 0
   vertex -48.581559480312315 17.171302192966962 0
   vertex -49.557248383023655 17.668440519687685 0
  endloop
 endfacet
 facet normal 0.0 0.0 3.7854581810931083
  outer loop
   vertex -47.5 20.5 8
   vertex -49.557248383023655 17.668440519687685 8
   vertex -48.581559480312315 17.171302192966962 8
  endloop
 endfacet
 facet normal -1.370417543735698 -8.652475842498518 0.0
  outer loop
   vertex -48.581559480312315 17.171302192966962 0
   vertex -47.5 17.0 0
   vertex -47.5 17.0 8
  endloop
 endfacet
 facet normal -1.370417543735698 -8.652475842498518 0.0
  outer loop
   vertex -48.581559480312315 17.171302192966962 0
   vertex -47.5 17.0 8
   vertex -48.581559480312315 17.171302192966962 8
  endloop
 endfacet
 facet normal 0.0 -0.0 -3.7854581810931016
  outer loop
   vertex -47.5 20.5 0
   vertex -47.5 17.0 0
   vertex -48.581559480312315 17.171302192966962 0
  endloop
 endfacet
 facet normal 0.0 0.0 3.7854581810931016
  outer loop
   vertex -47.5 20.5 8
   vertex -48.581559480312315 17.171302192966962 8
   vertex -47.5 17.0 8
  endloop
 endfacet
 facet normal 1.370417543735698 -8.652475842498518 0.0
  outer loop
   vertex -47.5 17.0 0
   vertex -46.418440519687685 17.171302192966962 0
   vertex -46.418440519687685 17.171302192966962 8
  endloop
 endfacet
 facet normal 1.370417543735698 -8.652475842498518 0.0
  outer loop
   vertex -47.5 17.0 0
   vertex -46.418440519687685 17.171302192966962 8
   vertex -47.5 17.0 8
  endloop
 endfacet
 facet normal 0.0 0.0 -3.7854581810931016
  outer loop
   vertex -47.5 20.5 0
   vertex -46.418440519687685 17.171302192966962 0
   vertex -47.5 17.0 0
  endloop
 endfacet
 facet normal 0.0 0.0 3.7854581810931016
  outer loop
   vertex -47.5 20.5 8
   vertex -47.5 17.0 8
   vertex -46.418440519687685 17.171302192966962 8
  endloop
 endfacet
 facet normal 3.977106613765784 -7.805511221690722 0.0
  outer loop
   vertex -46.418440519687685 17.171302192966962 0
   vertex -45.442751616976345 17.668440519687685 0
   vertex -45.442751616976345 17.668440519687685 8
  endloop
 endfacet
 facet normal 3.977106613765784 -7.805511221690722 0.0
  outer loop
   vertex -46.418440519687685 17.171302192966962 0
   vertex -45.442751616976345 17.668440519687685 8
   vertex -46.418440519687685 17.171302192966962 8
  endloop
 endfacet
 facet normal 0.0 0.0 -3.7854581810931083
  outer loop
   vertex -47.5 20.5 0
   vertex -45.442751616976345 17.668440519687685 0
   vertex -46.418440519687685 17.171302192966962 0
  endloop
 endfacet
 facet normal 0.0 0.0 3.7854581810931083
  outer loop
   vertex -47.5 20.5 8
   vertex -46.418440519687685 17.171302192966962 8
   vertex -45.442751616976345 17.668440519687685 8
  endloop
 endfacet
 facet normal 6.194488778309278 -6.194488778309278 0.0
  outer loop
   vertex -45.442751616976345 17.668440519687685 0
   vertex -44.668440519687685 18.442751616976345 0
   vertex -44.668440519687685 18.442751616976345 8
  endloop
 endfacet
 facet normal 6.194488778309278 -6.194488778309278 0.0
  outer loop
   vertex -45.442751616976345 17.668440519687685 0
   vertex -44.668440519687685 18.442751616976345 8
   vertex -45.442751616976345 17.668440519687685 8
  endloop
 endfacet
 facet normal 0.0 0.0 -3.7854581810931025
  outer loop
   vertex -47.5 20.5 0
   vertex -44.668440519687685 18.442751616976345 0
   vertex -45.442751616976345 17.668440519687685 0
  endloop
 endfacet
 facet normal 0.0 0.0 3.7854581810931025
  outer loop
   vertex -47.5 20.5 8
   vertex -45.442751616976345 17.668440519687685 8
   vertex -44.668440519687685 18.442751616976345 8
  endloop
 endfacet
 facet normal 7.8055112216906934 -3.977106613765784 0.0
  outer loop
   vertex -44.668440519687685 18.442751616976345 0
   vertex -44.17130219296696 19.41844051968768 0
   vertex -44.17130219296696 19.41844051968768 8
  endloop
 endfacet
 facet normal 7.8055112216906934 -3.977106613765784 0.0
  outer loop
   vertex -44.668440519687685 18.442751616976345 0
   vertex -44.17130219296696 19.41844051968768 8
   vertex -44.668440519687685 18.442751616976345 8
  endloop
 endfacet
 facet normal 0.0 0.0 -3.785458181093098
  outer loop
   vertex -47.5 20.5 0
   vertex -44.17130219296696 19.41844051968768 0
   vertex -44.668440519687685 18.442751616976345 0
  endloop
 endfacet
 facet normal 0.0 0.0 3.785458181093098
  outer loop
   vertex -47.5 20.5 8
   vertex -44.668440519687685 18.442751616976345 8
   vertex -44.17130219296696 19.41844051968768 8
  endloop
 endfacet
 facet normal 8.652475842498546 -1.370417543735698 0.0
  outer loop
   vertex -44.17130219296696 19.41844051968768 0
   vertex -44.0 20.5 0
   vertex -44.0 20.5 8
  endloop
 endfacet
 facet normal 8.652475842498546 -1.370417543735698 0.0
  outer loop
   vertex -44.17130219296696 19.41844051968768 0
   vertex -44.0 20.5 8
   vertex -44.17130219296696 19.41844051968768 8
  endloop
 endfacet
 facet normal 0.0 0.0 -3.785458181093114
  outer loop
   vertex -47.5 20.5 0
   vertex -44.0 20.5 0
   vertex -44.17130219296696 19.41844051968768 0
  endloop
 endfacet
 facet normal -0.0 0.0 3.785458181093114
  outer loop
   vertex -47.5 20.5 8
   vertex -44.17130219296696 19.41844051968768 8
   vertex -44.0 20.5 8
  endloop
 endfacet
 facet normal 8.652475842498518 1.370417543735698 0.0
  outer loop
   vertex 51.0 -20.5 0
   vertex 50.82869780703304 -19.418440519687685 0
   vertex 50.82869780703304 -19.418440519687685 8
  endloop
 endfacet
 facet normal 8.652475842498518 1.370417543735698 -0.0
  outer loop
   vertex 51.0 -20.5 0
   vertex 50.82869780703304 -19.418440519687685 8
   vertex 51.0 -20.5 8
  endloop
 endfacet
 facet normal 0.0 0.0 -3.7854581810931016
  outer loop
   vertex 47.5 -20.5 0
   vertex 50.82869780703304 -19.418440519687685 0
   vertex 51.0 -20.5 0
  endloop
 endfacet
 facet normal 0.0 0.0 3.7854581810931016
  outer loop
   vertex 47.5 -20.5 8
   vertex 51.0 -20.5 8
   vertex 50.82869780703304 -19.418440519687685 8
  endloop
 endfacet
 facet normal 7.805511221690722 3.977106613765784 0.0
  outer loop
   vertex 50.82869780703304 -19.418440519687685 0
   vertex 50.331559480312315 -18.442751616976345 0
   vertex 50.331559480312315 -18.442751616976345 8
  endloop
 endfacet
 facet normal 7.805511221690722 3.977106613765784 -0.0
  outer loop
   vertex 50.82869780703304 -19.418440519687685 0
   vertex 50.331559480312315 -18.442751616976345 8
   vertex 50.82869780703304 -19.418440519687685 8
  endloop
 endfacet
 facet normal 0.0 0.0 -3.7854581810931083
  outer loop
   vertex 47.5 -20.5 0
   vertex 50.331559480312315 -18.442751616976345 0
   vertex 50.82869780703304 -19.418440519687685 0
  endloop
 endfacet
 facet normal 0.0 0.0 3.7854581810931083
  outer loop
   vertex 47.5 -20.5 8
   vertex 50.82869780703304 -19.418440519687685 8
   vertex 50.331559480312315 -18.442751616976345 8
  endloop
 endfacet
 facet normal 6.194488778309278 6.194488778309278 0.0
  outer loop
   vertex 50.331559480312315 -18.442751616976345 0
   vertex 49.557248383023655 -17.668440519687685 0
   vertex 49.557248383023655 -17.668440519687685 8
  endloop
 endfacet
 facet normal 6.194488778309278 6.194488778309278 -0.0
  outer loop
   vertex 50.331559480312315 -18.442751616976345 0
   vertex 49.557248383023655 -17.668440519687685 8
   vertex 50.331559480312315 -18.442751616976345 8
  endloop
 endfacet
 facet normal 0.0 0.0 -3.7854581810931025
  outer loop
   vertex 47.5 -20.5 0
   vertex 49.557248383023655 -17.668440519687685 0
   vertex 50.331559480312315 -18.442751616976345 0
  endloop
 endfacet
 facet normal 0.0 0.0 3.7854581810931025
  outer loop
   vertex 47.5 -20.5 8
   vertex 50.331559480312315 -18.442751616976345 8
   vertex 49.557248383023655 -17.668440519687685 8
  endloop
 endfacet
 facet normal 3.977106613765784 7.805511221690722 0.0
  outer loop
   vertex 49.557248383023655 -17.668440519687685 0
   vertex 48.581559480312315 -17.171302192966962 0
   vertex 48.581559480312315 -17.171302192966962 8
  endloop
 endfacet
 facet normal 3.977106613765784 7.805511221690722 -0.0
  outer loop
   vertex 49.557248383023655 -17.668440519687685 0
   vertex 48.581559480312315 -17.171302192966962 8
   vertex 49.557248383023655 -17.668440519687685 8
  endloop
 endfacet
 facet normal 0.0 0.0 -3.7854581810931083
  outer loop
   vertex 47.5 -20.5 0
   vertex 48.581559480312315 -17.171302192966962 0
   vertex 49.557248383023655 -17.668440519687685 0
  endloop
 endfacet
 facet normal 0.0 0.0 3.7854581810931083
  outer loop
   vertex 47.5 -20.5 8
   vertex 49.557248383023655 -17.668440519687685 8
   vertex 48.581559480312315 -17.171302192966962 8
  endloop
 endfacet
 facet normal 1.370417543735698 8.652475842498518 0.0
  outer loop
   vertex 48.581559480312315 -17.171302192966962 0
   vertex 47.5 -17.0 0
   vertex 47.5 -17.0 8
  endloop
 endfacet
 facet normal 1.370417543735698 8.652475842498518 -0.0
  outer loop
   vertex 48.581559480312315 -17.171302192966962 0
   vertex 47.5 -17.0 8
   vertex 48.581559480312315 -17.171302192966962 8
  endloop
 endfacet
 facet normal 0.0 0.0 -3.7854581810931016
  outer loop
   vertex 47.5 -20.5 0
   vertex 47.5 -17.0 0
   vertex 48.581559480312315 -17.171302192966962 0
  endloop
 endfacet
 facet normal 0.0 0.0 3.7854581810931016
  outer loop
   vertex 47.5 -20.5 8
   vertex 48.581559480312315 -17.171302192966962 8
   vertex 47.5 -17.0 8
  endloop
 endfacet
 facet normal -1.370417543735698 8.652475842498518 0.0
  outer loop
   vertex 47.5 -17.0 0
   vertex 46.418440519687685 -17.171302192966962 0
   vertex 46.418440519687685 -17.171302192966962 8
  endloop
 endfacet
 facet normal -1.370417543735698 8.652475842498518 0.0
  outer loop
   vertex 47.5 -17.0 0
   vertex 46.418440519687685 -17.171302192966962 8
   vertex 47.5 -17.0 8
  endloop
 endfacet
 facet normal 0.0 0.0 -3.7854581810931016
  outer loop
   vertex 47.5 -20.5 0
   vertex 46.418440519687685 -17.171302192966962 0
   vertex 47.5 -17.0 0
  endloop
 endfacet
 facet normal 0.0 -0.0 3.7854581810931016
  outer loop
   vertex 47.5 -20.5 8
   vertex 47.5 -17.0 8
   vertex 46.418440519687685 -17.171302192966962 8
  endloop
 endfacet
 facet normal -3.977106613765784 7.805511221690722 0.0
  outer loop
   vertex 46.418440519687685 -17.171302192966962 0
   vertex 45.442751616976345 -17.668440519687685 0
   vertex 45.442751616976345 -17.668440519687685 8
  endloop
 endfacet
 facet normal -3.977106613765784 7.805511221690722 0.0
  outer loop
   vertex 46.418440519687685 -17.171302192966962 0
   vertex 45.442751616976345 -17.668440519687685 8
   vertex 46.418440519687685 -17.171302192966962 8
  endloop
 endfacet
 facet normal 0.0 0.0 -3.7854581810931083
  outer loop
   vertex 47.5 -20.5 0
   vertex 45.442751616976345 -17.668440519687685 0
   vertex 46.418440519687685 -17.171302192966962 0
  endloop
 endfacet
 facet normal 0.0 0.0 3.7854581810931083
  outer loop
   vertex 47.5 -20.5 8
   vertex 46.418440519687685 -17.171302192966962 8
   vertex 45.442751616976345 -17.668440519687685 8
  endloop
 endfacet
 facet normal -6.194488778309278 6.194488778309278 0.0
  outer loop
   vertex 45.442751616976345 -17.668440519687685 0
   vertex 44.668440519687685 -18.442751616976345 0
   vertex 44.668440519687685 -18.442751616976345 8
  endloop
 endfacet
 facet normal -6.194488778309278 6.194488778309278 0.0
  outer loop
   vertex 45.442751616976345 -17.668440519687685 0
   vertex 44.668440519687685 -18.442751616976345 8
   vertex 45.442751616976345 -17.668440519687685 8
  endloop
 endfacet
 facet normal 0.0 0.0 -3.7854581810931025
  outer loop
   vertex 47.5 -20.5 0
   vertex 44.668440519687685 -18.442751616976345 0
   vertex 45.442751616976345 -17.668440519687685 0
  endloop
 endfacet
 facet normal 0.0 0.0 3.7854581810931025
  outer loop
   vertex 47.5 -20.5 8
   vertex 45.442751616976345 -17.668440519687685 8
   vertex 44.668440519687685 -18.442751616976345 8
  endloop
 endfacet
 facet normal -7.805511221690722 3.977106613765784 0.0
  outer loop
   vertex 44.668440519687685 -18.442751616976345 0
   vertex 44.17130219296696 -19.418440519687685 0
   vertex 44.17130219296696 -19.418440519687685 8
  endloop
 endfacet
 facet normal -7.805511221690722 3.977106613765784 0.0
  outer loop
   vertex 44.668440519687685 -18.442751616976345 0
   vertex 44.17130219296696 -19.418440519687685 8
   vertex 44.668440519687685 -18.442751616976345 8
  endloop
 endfacet
 facet normal 0.0 0.0 -3.7854581810931083
  outer loop
   vertex 47.5 -20.5 0
   vertex 44.17130219296696 -19.418440519687685 0
   vertex 44.668440519687685 -18.442751616976345 0
  endloop
 endfacet
 facet normal 0.0 0.0 3.7854581810931083
  outer loop
   vertex 47.5 -20.5 8
   vertex 44.668440519687685 -18.442751616976345 8
   vertex 44.17130219296696 -19.418440519687685 8
  endloop
 endfacet
 facet normal -8.652475842498518 1.370417543735698 0.0
  outer loop
   vertex 44.17130219296696 -19.418440519687685 0
   vertex 44.0 -20.5 0
   vertex 44.0 -20.5 8
  endloop
 endfacet
 facet normal -8.652475842498518 1.370417543735698 0.0
  outer loop
   vertex 44.17130219296696 -19.418440519687685 0
   vertex 44.0 -20.5 8
   vertex 44.17130219296696 -19.418440519687685 8
  endloop
 endfacet
 facet normal 0.0 0.0 -3.7854581810931016
  outer loop
   vertex 47.5 -20.5 0
   vertex 44.0 -20.5 0
   vertex 44.17130219296696 -19.418440519687685 0
  endloop
 endfacet
 facet normal 0.0 0.0 3.7854581810931016
  outer loop
   vertex 47.5 -20.5 8
   vertex 44.17130219296696 -19.418440519687685 8
   vertex 44.0 -20.5 8
  endloop
 endfacet
 facet normal -8.652475842498518 -1.370417543735698 0.0
  outer loop
   vertex 44.0 -20.5 0
   vertex 44.17130219296696 -21.581559480312315 0
   vertex 44.17130219296696 -21.581559480312315 8
  endloop
 endfacet
 facet normal -8.652475842498518 -1.370417543735698 0.0
  outer loop
   vertex 44.0 -20.5 0
   vertex 44.17130219296696 -21.581559480312315 8
   vertex 44.0 -20.5 8
  endloop
 endfacet
 facet normal -0.0 0.0 -3.7854581810931016
  outer loop
   vertex 47.5 -20.5 0
   vertex 44.17130219296696 -21.581559480312315 0
   vertex 44.0 -20.5 0
  endloop
 endfacet
 facet normal 0.0 0.0 3.7854581810931016
  outer loop
   vertex 47.5 -20.5 8
   vertex 44.0 -20.5 8
   vertex 44.17130219296696 -21.581559480312315 8
  endloop
 endfacet
 facet normal -7.805511221690722 -3.977106613765784 0.0
  outer loop
   vertex 44.17130219296696 -21.581559480312315 0
   vertex 44.668440519687685 -22.557248383023655 0
   vertex 44.668440519687685 -22.557248383023655 8
  endloop
 endfacet
 facet normal -7.805511221690722 -3.977106613765784 0.0
  outer loop
   vertex 44.17130219296696 -21.581559480312315 0
   vertex 44.668440519687685 -22.557248383023655 8
   vertex 44.17130219296696 -21.581559480312315 8
  endloop
 endfacet
 facet normal 0.0 0.0 -3.7854581810931083
  outer loop
   vertex 47.5 -20.5 0
   vertex 44.668440519687685 -22.557248383023655 0
   vertex 44.17130219296696 -21.581559480312315 0
  endloop
 endfacet
 facet normal 0.0 0.0 3.7854581810931083
  outer loop
   vertex 47.5 -20.5 8
   vertex 44.17130219296696 -21.581559480312315 8
   vertex 44.668440519687685 -22.557248383023655 8
  endloop
 endfacet
 facet normal -6.194488778309278 -6.194488778309278 0.0
  outer loop
   vertex 44.668440519687685 -22.557248383023655 0
   vertex 45.442751616976345 -23.331559480312315 0
   vertex 45.442751616976345 -23.331559480312315 8
  endloop
 endfacet
 facet normal -6.194488778309278 -6.194488778309278 0.0
  outer loop
   vertex 44.668440519687685 -22.557248383023655 0
   vertex 45.442751616976345 -23.331559480312315 8
   vertex 44.668440519687685 -22.557248383023655 8
  endloop
 endfacet
 facet normal 0.0 0.0 -3.7854581810931025
  outer loop
   vertex 47.5 -20.5 0
   vertex 45.442751616976345 -23.331559480312315 0
   vertex 44.668440519687685 -22.557248383023655 0
  endloop
 endfacet
 facet normal 0.0 0.0 3.7854581810931025
  outer loop
   vertex 47.5 -20.5 8
   vertex 44.668440519687685 -22.557248383023655 8
   vertex 45.442751616976345 -23.331559480312315 8
  endloop
 endfacet
 facet normal -3.977106613765784 -7.805511221690722 0.0
  outer loop
   vertex 45.442751616976345 -23.331559480312315 0
   vertex 46.418440519687685 -23.828697807033038 0
   vertex 46.418440519687685 -23.828697807033038 8
  endloop
 endfacet
 facet normal -3.977106613765784 -7.805511221690722 0.0
  outer loop
   vertex 45.442751616976345 -23.331559480312315 0
   vertex 46.418440519687685 -23.828697807033038 8
   vertex 45.442751616976345 -23.331559480312315 8
  endloop
 endfacet
 facet normal 0.0 0.0 -3.7854581810931083
  outer loop
   vertex 47.5 -20.5 0
   vertex 46.418440519687685 -23.828697807033038 0
   vertex 45.442751616976345 -23.331559480312315 0
  endloop
 endfacet
 facet normal 0.0 0.0 3.7854581810931083
  outer loop
   vertex 47.5 -20.5 8
   vertex 45.442751616976345 -23.331559480312315 8
   vertex 46.418440519687685 -23.828697807033038 8
  endloop
 endfacet
 facet normal -1.370417543735698 -8.652475842498518 0.0
  outer loop
   vertex 46.418440519687685 -23.828697807033038 0
   vertex 47.5 -24.0 0
   vertex 47.5 -24.0 8
  endloop
 endfacet
 facet normal -1.370417543735698 -8.652475842498518 0.0
  outer loop
   vertex 46.418440519687685 -23.828697807033038 0
   vertex 47.5 -24.0 8
   vertex 46.418440519687685 -23.828697807033038 8
  endloop
 endfacet
 facet normal 0.0 -0.0 -3.7854581810931016
  outer loop
   vertex 47.5 -20.5 0
   vertex 47.5 -24.0 0
   vertex 46.418440519687685 -23.828697807033038 0
  endloop
 endfacet
 facet normal 0.0 0.0 3.7854581810931016
  outer loop
   vertex 47.5 -20.5 8
   vertex 46.418440519687685 -23.828697807033038 8
   vertex 47.5 -24.0 8
  endloop
 endfacet
 facet normal 1.370417543735698 -8.652475842498518 0.0
  outer loop
   vertex 47.5 -24.0 0
   vertex 48.581559480312315 -23.828697807033038 0
   vertex 48.581559480312315 -23.828697807033038 8
  endloop
 endfacet
 facet normal 1.370417543735698 -8.652475842498518 0.0
  outer loop
   vertex 47.5 -24.0 0
   vertex 48.581559480312315 -23.828697807033038 8
   vertex 47.5 -24.0 8
  endloop
 endfacet
 facet normal 0.0 0.0 -3.7854581810931016
  outer loop
   vertex 47.5 -20.5 0
   vertex 48.581559480312315 -23.828697807033038 0
   vertex 47.5 -24.0 0
  endloop
 endfacet
 facet normal 0.0 0.0 3.7854581810931016
  outer loop
   vertex 47.5 -20.5 8
   vertex 47.5 -24.0 8
   vertex 48.581559480312315 -23.828697807033038 8
  endloop
 endfacet
 facet normal 3.977106613765784 -7.805511221690722 0.0
  outer loop
   vertex 48.581559480312315 -23.828697807033038 0
   vertex 49.557248383023655 -23.331559480312315 0
   vertex 49.557248383023655 -23.331559480312315 8
  endloop
 endfacet
 facet normal 3.977106613765784 -7.805511221690722 0.0
  outer loop
   vertex 48.581559480312315 -23.828697807033038 0
   vertex 49.557248383023655 -23.331559480312315 8
   vertex 48.581559480312315 -23.828697807033038 8
  endloop
 endfacet
 facet normal 0.0 0.0 -3.7854581810931083
  outer loop
   vertex 47.5 -20.5 0
   vertex 49.557248383023655 -23.331559480312315 0
   vertex 48.581559480312315 -23.828697807033038 0
  endloop
 endfacet
 facet normal 0.0 0.0 3.7854581810931083
  outer loop
   vertex 47.5 -20.5 8
   vertex 48.581559480312315 -23.828697807033038 8
   vertex 49.557248383023655 -23.331559480312315 8
  endloop
 endfacet
 facet normal 6.194488778309278 -6.194488778309278 0.0
  outer loop
   vertex 49.557248383023655 -23.331559480312315 0
   vertex 50.331559480312315 -22.557248383023655 0
   vertex 50.331559480312315 -22.557248383023655 8
  endloop
 endfacet
 facet normal 6.194488778309278 -6.194488778309278 0.0
  outer loop
   vertex 49.557248383023655 -23.331559480312315 0
   vertex 50.331559480312315 -22.557248383023655 8
   vertex 49.557248383023655 -23.331559480312315 8
  endloop
 endfacet
 facet normal 0.0 0.0 -3.7854581810931025
  outer loop
   vertex 47.5 -20.5 0
   vertex 50.331559480312315 -22.557248383023655 0
   vertex 49.557248383023655 -23.331559480312315 0
  endloop
 endfacet
 facet normal 0.0 0.0 3.7854581810931025
  outer loop
   vertex 47.5 -20.5 8
   vertex 49.557248383023655 -23.331559480312315 8
   vertex 50.331559480312315 -22.557248383023655 8
  endloop
 endfacet
 facet normal 7.8055112216906934 -3.977106613765784 0.0
  outer loop
   vertex 50.331559480312315 -22.557248383023655 0
   vertex 50.82869780703304 -21.58155948031232 0
   vertex 50.82869780703304 -21.58155948031232 8
  endloop
 endfacet
 facet normal 7.8055112216906934 -3.977106613765784 0.0
  outer loop
   vertex 50.331559480312315 -22.557248383023655 0
   vertex 50.82869780703304 -21.58155948031232 8
   vertex 50.331559480312315 -22.557248383023655 8
  endloop
 endfacet
 facet normal 0.0 0.0 -3.785458181093098
  outer loop
   vertex 47.5 -20.5 0
   vertex 50.82869780703304 -21.58155948031232 0
   vertex 50.331559480312315 -22.557248383023655 0
  endloop
 endfacet
 facet normal 0.0 0.0 3.785458181093098
  outer loop
   vertex 47.5 -20.5 8
   vertex 50.331559480312315 -22.557248383023655 8
   vertex 50.82869780703304 -21.58155948031232 8
  endloop
 endfacet
 facet normal 8.652475842498546 -1.370417543735698 0.0
  outer loop
   vertex 50.82869780703304 -21.58155948031232 0
   vertex 51.0 -20.5 0
   vertex 51.0 -20.5 8
  endloop
 endfacet
 facet normal 8.652475842498546 -1.370417543735698 0.0
  outer loop
   vertex 50.82869780703304 -21.58155948031232 0
   vertex 51.0 -20.5 8
   vertex 50.82869780703304 -21.58155948031232 8
  endloop
 endfacet
 facet normal 0.0 0.0 -3.785458181093114
  outer loop
   vertex 47.5 -20.5 0
   vertex 51.0 -20.5 0
   vertex 50.82869780703304 -21.58155948031232 0
  endloop
 endfacet
 facet normal -0.0 0.0 3.785458181093114
  outer loop
   vertex 47.5 -20.5 8
   vertex 50.82869780703304 -21.58155948031232 8
   vertex 51.0 -20.5 8
  endloop
 endfacet
 facet normal 8.652475842498518 1.370417543735698 0.0
  outer loop
   vertex 51.0 20.5 0
   vertex 50.82869780703304 21.581559480312315 0
   vertex 50.82869780703304 21.581559480312315 8
  endloop
 endfacet
 facet normal 8.652475842498518 1.370417543735698 -0.0
  outer loop
   vertex 51.0 20.5 0
   vertex 50.82869780703304 21.581559480312315 8
   vertex 51.0 20.5 8
  endloop
 endfacet
 facet normal 0.0 0.0 -3.7854581810931016
  outer loop
   vertex 47.5 20.5 0
   vertex 50.82869780703304 21.581559480312315 0
   vertex 51.0 20.5 0
  endloop
 endfacet
 facet normal 0.0 0.0 3.7854581810931016
  outer loop
   vertex 47.5 20.5 8
   vertex 51.0 20.5 8
   vertex 50.82869780703304 21.581559480312315 8
  endloop
 endfacet
 facet normal 7.805511221690722 3.977106613765784 0.0
  outer loop
   vertex 50.82869780703304 21.581559480312315 0
   vertex 50.331559480312315 22.557248383023655 0
   vertex 50.331559480312315 22.557248383023655 8
  endloop
 endfacet
 facet normal 7.805511221690722 3.977106613765784 -0.0
  outer loop
   vertex 50.82869780703304 21.581559480312315 0
   vertex 50.331559480312315 22.557248383023655 8
   vertex 50.82869780703304 21.581559480312315 8
  endloop
 endfacet
 facet normal 0.0 0.0 -3.7854581810931083
  outer loop
   vertex 47.5 20.5 0
   vertex 50.331559480312315 22.557248383023655 0
   vertex 50.82869780703304 21.581559480312315 0
  endloop
 endfacet
 facet normal 0.0 0.0 3.7854581810931083
  outer loop
   vertex 47.5 20.5 8
   vertex 50.82869780703304 21.581559480312315 8
   vertex 50.331559480312315 22.557248383023655 8
  endloop
 endfacet
 facet normal 6.194488778309278 6.194488778309278 0.0
  outer loop
   vertex 50.331559480312315 22.557248383023655 0
   vertex 49.557248383023655 23.331559480312315 0
   vertex 49.557248383023655 23.331559480312315 8
  endloop
 endfacet
 facet normal 6.194488778309278 6.194488778309278 -0.0
  outer loop
   vertex 50.331559480312315 22.557248383023655 0
   vertex 49.557248383023655 23.331559480312315 8
   vertex 50.331559480312315 22.557248383023655 8
  endloop
 endfacet
 facet normal 0.0 0.0 -3.7854581810931025
  outer loop
   vertex 47.5 20.5 0
   vertex 49.557248383023655 23.331559480312315 0
   vertex 50.331559480312315 22.557248383023655 0
  endloop
 endfacet
 facet normal 0.0 0.0 3.7854581810931025
  outer loop
   vertex 47.5 20.5 8
   vertex 50.331559480312315 22.557248383023655 8
   vertex 49.557248383023655 23.331559480312315 8
  endloop
 endfacet
 facet normal 3.977106613765784 7.805511221690722 0.0
  outer loop
   vertex 49.557248383023655 23.331559480312315 0
   vertex 48.581559480312315 23.828697807033038 0
   vertex 48.581559480312315 23.828697807033038 8
  endloop
 endfacet
 facet normal 3.977106613765784 7.805511221690722 -0.0
  outer loop
   vertex 49.557248383023655 23.331559480312315 0
   vertex 48.581559480312315 23.828697807033038 8
   vertex 49.557248383023655 23.331559480312315 8
  endloop
 endfacet
 facet normal 0.0 0.0 -3.7854581810931083
  outer loop
   vertex 47.5 20.5 0
   vertex 48.581559480312315 23.828697807033038 0
   vertex 49.557248383023655 23.331559480312315 0
  endloop
 endfacet
 facet normal 0.0 0.0 3.7854581810931083
  outer loop
   vertex 47.5 20.5 8
   vertex 49.557248383023655 23.331559480312315 8
   vertex 48.581559480312315 23.828697807033038 8
  endloop
 endfacet
 facet normal 1.370417543735698 8.652475842498518 0.0
  outer loop
   vertex 48.581559480312315 23.828697807033038 0
   vertex 47.5 24.0 0
   vertex 47.5 24.0 8
  endloop
 endfacet
 facet normal 1.370417543735698 8.652475842498518 -0.0
  outer loop
   vertex 48.581559480312315 23.828697807033038 0
   vertex 47.5 24.0 8
   vertex 48.581559480312315 23.828697807033038 8
  endloop
 endfacet
 facet normal 0.0 0.0 -3.7854581810931016
  outer loop
   vertex 47.5 20.5 0
   vertex 47.5 24.0 0
   vertex 48.581559480312315 23.828697807033038 0
  endloop
 endfacet
 facet normal 0.0 0.0 3.7854581810931016
  outer loop
   vertex 47.5 20.5 8
   vertex 48.581559480312315 23.828697807033038 8
   vertex 47.5 24.0 8
  endloop
 endfacet
 facet normal -1.370417543735698 8.652475842498518 0.0
  outer loop
   vertex 47.5 24.0 0
   vertex 46.418440519687685 23.828697807033038 0
   vertex 46.418440519687685 23.828697807033038 8
  endloop
 endfacet
 facet normal -1.370417543735698 8.652475842498518 0.0
  outer loop
   vertex 47.5 24.0 0
   vertex 46.418440519687685 23.828697807033038 8
   vertex 47.5 24.0 8
  endloop
 endfacet
 facet normal 0.0 0.0 -3.7854581810931016
  outer loop
   vertex 47.5 20.5 0
   vertex 46.418440519687685 23.828697807033038 0
   vertex 47.5 24.0 0
  endloop
 endfacet
 facet normal 0.0 -0.0 3.7854581810931016
  outer loop
   vertex 47.5 20.5 8
   vertex 47.5 24.0 8
   vertex 46.418440519687685 23.828697807033038 8
  endloop
 endfacet
 facet normal -3.977106613765784 7.805511221690722 0.0
  outer loop
   vertex 46.418440519687685 23.828697807033038 0
   vertex 45.442751616976345 23.331559480312315 0
   vertex 45.442751616976345 23.331559480312315 8
  endloop
 endfacet
 facet normal -3.977106613765784 7.805511221690722 0.0
  outer loop
   vertex 46.418440519687685 23.828697807033038 0
   vertex 45.442751616976345 23.331559480312315 8
   vertex 46.418440519687685 23.828697807033038 8
  endloop
 endfacet
 facet normal 0.0 0.0 -3.7854581810931083
  outer loop
   vertex 47.5 20.5 0
   vertex 45.442751616976345 23.331559480312315 0
   vertex 46.418440519687685 23.828697807033038 0
  endloop
 endfacet
 facet normal 0.0 0.0 3.7854581810931083
  outer loop
   vertex 47.5 20.5 8
   vertex 46.418440519687685 23.828697807033038 8
   vertex 45.442751616976345 23.331559480312315 8
  endloop
 endfacet
 facet normal -6.194488778309278 6.194488778309278 0.0
  outer loop
   vertex 45.442751616976345 23.331559480312315 0
   vertex 44.668440519687685 22.557248383023655 0
   vertex 44.668440519687685 22.557248383023655 8
  endloop
 endfacet
 facet normal -6.194488778309278 6.194488778309278 0.0
  outer loop
   vertex 45.442751616976345 23.331559480312315 0
   vertex 44.668440519687685 22.557248383023655 8
   vertex 45.442751616976345 23.331559480312315 8
  endloop
 endfacet
 facet normal 0.0 0.0 -3.7854581810931025
  outer loop
   vertex 47.5 20.5 0
   vertex 44.668440519687685 22.557248383023655 0
   vertex 45.442751616976345 23.331559480312315 0
  endloop
 endfacet
 facet normal 0.0 0.0 3.7854581810931025
  outer loop
   vertex 47.5 20.5 8
   vertex 45.442751616976345 23.331559480312315 8
   vertex 44.668440519687685 22.557248383023655 8
  endloop
 endfacet
 facet normal -7.805511221690722 3.977106613765784 0.0
  outer loop
   vertex 44.668440519687685 22.557248383023655 0
   vertex 44.17130219296696 21.581559480312315 0
   vertex 44.17130219296696 21.581559480312315 8
  endloop
 endfacet
 facet normal -7.805511221690722 3.977106613765784 0.0
  outer loop
   vertex 44.668440519687685 22.557248383023655 0
   vertex 44.17130219296696 21.581559480312315 8
   vertex 44.668440519687685 22.557248383023655 8
  endloop
 endfacet
 facet normal 0.0 0.0 -3.7854581810931083
  outer loop
   vertex 47.5 20.5 0
   vertex 44.17130219296696 21.581559480312315 0
   vertex 44.668440519687685 22.557248383023655 0
  endloop
 endfacet
 facet normal 0.0 0.0 3.7854581810931083
  outer loop
   vertex 47.5 20.5 8
   vertex 44.668440519687685 22.557248383023655 8
   vertex 44.17130219296696 21.581559480312315 8
  endloop
 endfacet
 facet normal -8.652475842498518 1.370417543735698 0.0
  outer loop
   vertex 44.17130219296696 21.581559480312315 0
   vertex 44.0 20.5 0
   vertex 44.0 20.5 8
  endloop
 endfacet
 facet normal -8.652475842498518 1.370417543735698 0.0
  outer loop
   vertex 44.17130219296696 21.581559480312315 0
   vertex 44.0 20.5 8
   vertex 44.17130219296696 21.581559480312315 8
  endloop
 endfacet
 facet normal 0.0 0.0 -3.7854581810931016
  outer loop
   vertex 47.5 20.5 0
   vertex 44.0 20.5 0
   vertex 44.17130219296696 21.581559480312315 0
  endloop
 endfacet
 facet normal 0.0 0.0 3.7854581810931016
  outer loop
   vertex 47.5 20.5 8
   vertex 44.17130219296696 21.581559480312315 8
   vertex 44.0 20.5 8
  endloop
 endfacet
 facet normal -8.652475842498518 -1.370417543735698 0.0
  outer loop
   vertex 44.0 20.5 0
   vertex 44.17130219296696 19.418440519687685 0
   vertex 44.17130219296696 19.418440519687685 8
  endloop
 endfacet
 facet normal -8.652475842498518 -1.370417543735698 0.0
  outer loop
   vertex 44.0 20.5 0
   vertex 44.17130219296696 19.418440519687685 8
   vertex 44.0 20.5 8
  endloop
 endfacet
 facet normal -0.0 0.0 -3.7854581810931016
  outer loop
   vertex 47.5 20.5 0
   vertex 44.17130219296696 19.418440519687685 0
   vertex 44.0 20.5 0
  endloop
 endfacet
 facet normal 0.0 0.0 3.7854581810931016
  outer loop
   vertex 47.5 20.5 8
   vertex 44.0 20.5 8
   vertex 44.17130219296696 19.418440519687685 8
  endloop
 endfacet
 facet normal -7.805511221690722 -3.977106613765784 0.0
  outer loop
   vertex 44.17130219296696 19.418440519687685 0
   vertex 44.668440519687685 18.442751616976345 0
   vertex 44.668440519687685 18.442751616976345 8
  endloop
 endfacet
 facet normal -7.805511221690722 -3.977106613765784 0.0
  outer loop
   vertex 44.17130219296696 19.418440519687685 0
   vertex 44.668440519687685 18.442751616976345 8
   vertex 44.17130219296696 19.418440519687685 8
  endloop
 endfacet
 facet normal 0.0 0.0 -3.7854581810931083
  outer loop
   vertex 47.5 20.5 0
   vertex 44.668440519687685 18.442751616976345 0
   vertex 44.17130219296696 19.418440519687685 0
  endloop
 endfacet
 facet normal 0.0 0.0 3.7854581810931083
  outer loop
   vertex 47.5 20.5 8
   vertex 44.17130219296696 19.418440519687685 8
   vertex 44.668440519687685 18.442751616976345 8
  endloop
 endfacet
 facet normal -6.194488778309278 -6.194488778309278 0.0
  outer loop
   vertex 44.668440519687685 18.442751616976345 0
   vertex 45.442751616976345 17.668440519687685 0
   vertex 45.442751616976345 17.668440519687685 8
  endloop
 endfacet
 facet normal -6.194488778309278 -6.194488778309278 0.0
  outer loop
   vertex 44.668440519687685 18.442751616976345 0
   vertex 45.442751616976345 17.668440519687685 8
   vertex 44.668440519687685 18.442751616976345 8
  endloop
 endfacet
 facet normal 0.0 0.0 -3.7854581810931025
  outer loop
   vertex 47.5 20.5 0
   vertex 45.442751616976345 17.668440519687685 0
   vertex 44.668440519687685 18.442751616976345 0
  endloop
 endfacet
 facet normal 0.0 0.0 3.7854581810931025
  outer loop
   vertex 47.5 20.5 8
   vertex 44.668440519687685 18.442751616976345 8
   vertex 45.442751616976345 17.668440519687685 8
  endloop
 endfacet
 facet normal -3.977106613765784 -7.805511221690722 0.0
  outer loop
   vertex 45.442751616976345 17.668440519687685 0
   vertex 46.418440519687685 17.171302192966962 0
   vertex 46.418440519687685 17.171302192966962 8
  endloop
 endfacet
 facet normal -3.977106613765784 -7.805511221690722 0.0
  outer loop
   vertex 45.442751616976345 17.668440519687685 0
   vertex 46.418440519687685 17.171302192966962 8
   vertex 45.442751616976345 17.668440519687685 8
  endloop
 endfacet
 facet normal 0.0 0.0 -3.7854581810931083
  outer loop
   vertex 47.5 20.5 0
   vertex 46.418440519687685 17.171302192966962 0
   vertex 45.442751616976345 17.668440519687685 0
  endloop
 endfacet
 facet normal 0.0 0.0 3.7854581810931083
  outer loop
   vertex 47.5 20.5 8
   vertex 45.442751616976345 17.668440519687685 8
   vertex 46.418440519687685 17.171302192966962 8
  endloop
 endfacet
 facet normal -1.370417543735698 -8.652475842498518 0.0
  outer loop
   vertex 46.418440519687685 17.171302192966962 0
   vertex 47.5 17.0 0
   vertex 47.5 17.0 8
  endloop
 endfacet
 facet normal -1.370417543735698 -8.652475842498518 0.0
  outer loop
   vertex 46.418440519687685 17.171302192966962 0
   vertex 47.5 17.0 8
   vertex 46.418440519687685 17.171302192966962 8
  endloop
 endfacet
 facet normal 0.0 -0.0 -3.7854581810931016
  outer loop
   vertex 47.5 20.5 0
   vertex 47.5 17.0 0
   vertex 46.418440519687685 17.171302192966962 0
  endloop
 endfacet
 facet normal 0.0 0.0 3.7854581810931016
  outer loop
   vertex 47.5 20.5 8
   vertex 46.418440519687685 17.171302192966962 8
   vertex 47.5 17.0 8
  endloop
 endfacet
 facet normal 1.370417543735698 -8.652475842498518 0.0
  outer loop
   vertex 47.5 17.0 0
   vertex 48.581559480312315 17.171302192966962 0
   vertex 48.581559480312315 17.171302192966962 8
  endloop
 endfacet
 facet normal 1.370417543735698 -8.652475842498518 0.0
  outer loop
   vertex 47.5 17.0 0
   vertex 48.581559480312315 17.171302192966962 8
   vertex 47.5 17.0 8
  endloop
 endfacet
 facet normal 0.0 0.0 -3.7854581810931016
  outer loop
   vertex 47.5 20.5 0
   vertex 48.581559480312315 17.171302192966962 0
   vertex 47.5 17.0 0
  endloop
 endfacet
 facet normal 0.0 0.0 3.7854581810931016
  outer loop
   vertex 47.5 20.5 8
   vertex 47.5 17.0 8
   vertex 48.581559480312315 17.171302192966962 8
  endloop
 endfacet
 facet normal 3.977106613765784 -7.805511221690722 0.0
  outer loop
   vertex 48.581559480312315 17.171302192966962 0
   vertex 49.557248383023655 17.668440519687685 0
   vertex 49.557248383023655 17.668440519687685 8
  endloop
 endfacet
 facet normal 3.977106613765784 -7.805511221690722 0.0
  outer loop
   vertex 48.581559480312315 17.171302192966962 0
   vertex 49.557248383023655 17.668440519687685 8
   vertex 48.581559480312315 17.171302192966962 8
  endloop
 endfacet
 facet normal 0.0 0.0 -3.7854581810931083
  outer loop
   vertex 47.5 20.5 0
   vertex 49.557248383023655 17.668440519687685 0
   vertex 48.581559480312315 17.171302192966962 0
  endloop
 endfacet
 facet normal 0.0 0.0 3.7854581810931083
  outer loop
   vertex 47.5 20.5 8
   vertex 48.581559480312315 17.171302192966962 8
   vertex 49.557248383023655 17.668440519687685 8
  endloop
 endfacet
 facet normal 6.194488778309278 -6.194488778309278 0.0
  outer loop
   vertex 49.557248383023655 17.668440519687685 0
   vertex 50.331559480312315 18.442751616976345 0
   vertex 50.331559480312315 18.442751616976345 8
  endloop
 endfacet
 facet normal 6.194488778309278 -6.194488778309278 0.0
  outer loop
   vertex 49.557248383023655 17.668440519687685 0
   vertex 50.331559480312315 18.442751616976345 8
   vertex 49.557248383023655 17.668440519687685 8
  endloop
 endfacet
 facet normal 0.0 0.0 -3.7854581810931025
  outer loop
   vertex 47.5 20.5 0
   vertex 50.331559480312315 18.442751616976345 0
   vertex 49.557248383023655 17.668440519687685 0
  endloop
 endfacet
 facet normal 0.0 0.0 3.7854581810931025
  outer loop
   vertex 47.5 20.5 8
   vertex 49.557248383023655 17.668440519687685 8
   vertex 50.331559480312315 18.442751616976345 8
  endloop
 endfacet
 facet normal 7.8055112216906934 -3.977106613765784 0.0
  outer loop
   vertex 50.331559480312315 18.442751616976345 0
   vertex 50.82869780703304 19.41844051968768 0
   vertex 50.82869780703304 19.41844051968768 8
  endloop
 endfacet
 facet normal 7.8055112216906934 -3.977106613765784 0.0
  outer loop
   vertex 50.331559480312315 18.442751616976345 0
   vertex 50.82869780703304 19.41844051968768 8
   vertex 50.331559480312315 18.442751616976345 8
  endloop
 endfacet
 facet normal 0.0 0.0 -3.785458181093098
  outer loop
   vertex 47.5 20.5 0
   vertex 50.82869780703304 19.41844051968768 0
   vertex 50.331559480312315 18.442751616976345 0
  endloop
 endfacet
 facet normal 0.0 0.0 3.785458181093098
  outer loop
   vertex 47.5 20.5 8
   vertex 50.331559480312315 18.442751616976345 8
   vertex 50.82869780703304 19.41844051968768 8
  endloop
 endfacet
 facet normal 8.652475842498546 -1.370417543735698 0.0
  outer loop
   vertex 50.82869780703304 19.41844051968768 0
   vertex 51.0 20.5 0
   vertex 51.0 20.5 8
  endloop
 endfacet
 facet normal 8.652475842498546 -1.370417543735698 0.0
  outer loop
   vertex 50.82869780703304 19.41844051968768 0
   vertex 51.0 20.5 8
   vertex 50.82869780703304 19.41844051968768 8
  endloop
 endfacet
 facet normal 0.0 0.0 -3.785458181093114
  outer loop
   vertex 47.5 20.5 0
   vertex 51.0 20.5 0
   vertex 50.82869780703304 19.41844051968768 0
  endloop
 endfacet
 facet normal -0.0 0.0 3.785458181093114
  outer loop
   vertex 47.5 20.5 8
   vertex 50.82869780703304 19.41844051968768 8
   vertex 51.0 20.5 8
  endloop
 endfacet
 facet normal 0 0.0 172.0
  outer loop
   vertex -21.5 -2 -25
   vertex 21.5 -2 -25
   vertex 21.5 2 -25
  endloop
 endfacet
 facet normal 0 0.0 172.0
  outer loop
   vertex -21.5 -2 -25
   vertex 21.5 2 -25
   vertex -21.5 2 -25
  endloop
 endfacet
 facet normal 0 0.0 -172.0
  outer loop
   vertex -21.5 -2 -15
   vertex -21.5 2 -15
   vertex 21.5 2 -15
  endloop
 endfacet
 facet normal 0 0.0 -172.0
  outer loop
   vertex -21.5 -2 -15
   vertex 21.5 2 -15
   vertex 21.5 -2 -15
  endloop
 endfacet
 facet normal 0 430.0 0.0
  outer loop
   vertex -21.5 -2 -25
   vertex -21.5 -2 -15
   vertex 21.5 -2 -15
  endloop
 endfacet
 facet normal 0 430.0 0.0
  outer loop
   vertex -21.5 -2 -25
   vertex 21.5 -2 -15
   vertex 21.5 -2 -25
  endloop
 endfacet
 facet normal -40 0.0 0.0
  outer loop
   vertex 21.5 -2 -25
   vertex 21.5 -2 -15
   vertex 21.5 2 -15
  endloop
 endfacet
 facet normal -40 0.0 0.0
  outer loop
   vertex 21.5 -2 -25
   vertex 21.5 2 -15
   vertex 21.5 2 -25
  endloop
 endfacet
 facet normal 0 -430.0 0.0
  outer loop
   vertex 21.5 2 -25
   vertex 21.5 2 -15
   vertex -21.5 2 -15
  endloop
 endfacet
 facet normal 0 -430.0 0.0
  outer loop
   vertex 21.5 2 -25
   vertex -21.5 2 -15
   vertex -21.5 2 -25
  endloop
 endfacet
 facet normal 40 0.0 -0.0
  outer loop
   vertex -21.5 2 -25
   vertex -21.5 2 -15
   vertex -21.5 -2 -15
  endloop
 endfacet
 facet normal 40 0.0 0.0
  outer loop
   vertex -21.5 2 -25
   vertex -21.5 -2 -15
   vertex -21.5 -2 -25
  endloop
 endfacet
endsolid sn64_shell_concept_revA
